<svg xmlns="http://www.w3.org/2000/svg" class="choose__box__img" viewBox="0 0 167.388 141.476">=<path fill="none" d="M0 0h167.388v141.476H0z"></path><path d="M129.628 26.461a.16.16 0 00-.016-.224l-6.122-5.246a.159.159 0 00-.224.016L95.164 53.794l-25.96-8.936c-.01-.002-.01.009-.017.008l-.006-.005a.192.192 0 00-.271.013l-.009.01-28.46 30.926v12.356l31.002-33.689 26.294 9.05c.041.014.066-.025.098-.047.023-.01.05.014.066-.006z" fill="#1c81e7"></path><path d="M114.733 19.761l17.205 14.747a.102.102 0 00.166-.059l4.169-22.273a.102.102 0 00-.134-.114l-21.373 7.526a.102.102 0 00-.033.173z" fill="#1c81e7"></path><path fill="#1c82e8" d="M33.625 116.787V24.824h-9.431v101.397h119v-9.434H33.625z"></path><path fill="#7ab8fc" d="M47.941 86.553h10.366v23.383H47.941zm23.307-21.632h10.366v45.016H71.248zm23.295 5.218h10.366v39.798H94.543zm23.296-22.499h10.366v62.296h-10.366z"></path></svg>