<svg xmlns="http://www.w3.org/2000/svg" class="choose__box__img" viewBox="0 0 167.388 141.587">=<path fill="none" d="M0 .001h167.388v141.476H0z"></path><path d="M67.346 48.154a33.335 33.335 0 00-5.16 3l-1.8-3.12-2.88-5 5.16-2.96 2.959 5.08zm42.199 73.08l-5.158 3-3.48-6.04-1.201-2.08a34.036 34.036 0 005.12-2.96l1.12 1.92zm-57-60.44a33.62 33.62 0 00-3 5.16l-3.479-2.04-4.64-2.68 2.96-5.08 4.68 2.68zm73.041 42.2l-2.92 5.16-6.48-3.76-1.64-.96a35.678 35.678 0 002.96-5.08l1.64.92zm-79.68-20.88c0 1 .04 2.04.12 3h-9.4v-5.92h9.4c-.08.96-.12 1.92-.12 2.92zm84.52-2.92v5.92h-9.36a36.869 36.869 0 000-5.92zm-77.881 24.24l-3.479 2.04-4.68 2.68-2.96-5.16 4.6-2.68 3.52-2a33.238 33.238 0 002.999 5.12zm73.041-42.2l-6.48 3.8-1.56.92a41.503 41.503 0 00-3-5.2l1.64-.96 6.48-3.64zm-58.199 54.88l-1.762 3-2.959 5.12-5.16-3 2.881-5 1.799-3.12a41.767 41.767 0 005.2 3zm42.158-73.08l-3.6 6.16-1.12 1.88a40.097 40.097 0 00-5.08-2.96l1.16-2 3.48-6.04zm-23.039-7.8v9.36c-.961-.08-1.961-.12-2.961-.12s-2 .04-2.959.12v-9.36zm0 84.4v9.36h-5.92v-9.36c.959.08 1.959.12 2.959.12s2-.04 2.96-.12z" fill="#7ab8fc"></path><path d="M90.245 23.172a51.524 51.524 0 00-6.725-.41 52.58 52.58 0 00-6.766.41 59.397 59.397 0 1013.491 0zM83.52 133.11a50.95 50.95 0 1150.971-50.97 50.95 50.95 0 01-50.971 50.97z" fill="#1c82e8"></path><path d="M114.732 24.408a64.68 64.68 0 0121.05 17.951l7.427-8.853a75.579 75.579 0 00-21.052-17.992z" fill="#7ab8fc"></path><path fill="#1c82e8" d="M76.558 11.441h13.929V26.52H76.558z"></path><path fill="#1c82e8" d="M65.655 0h35.734v13.658H65.655zm17.882 90.895a8.773 8.773 0 118.771-8.775v.002a8.782 8.782 0 01-8.77 8.773zm0-12.24a3.466 3.466 0 103.469 3.467 3.466 3.466 0 00-3.469-3.467z"></path><path fill="#1c82e8" d="M80.642 51.3h5.79v25.706h-5.79z"></path></svg>