<svg width="32" height="32" viewBox="0 0 32 32" fill="none" xmlns="http://www.w3.org/2000/svg">
<rect width="32" height="32" rx="6" fill="white"/>
<path d="M16.7347 6.81818V25H13.805L5.23793 12.6154H5.087V25H1.79332V6.81818H4.74077L13.299 19.2116H13.4588V6.81818H16.7347Z" fill="#1A1D2B"/>
<path d="M27.6744 11.8164C27.5915 11.0411 27.2423 10.4374 26.6268 10.0053C26.0172 9.57327 25.2241 9.35724 24.2475 9.35724C23.561 9.35724 22.9721 9.46082 22.4808 9.66797C21.9896 9.87512 21.6138 10.1562 21.3533 10.5114C21.0929 10.8665 20.9598 11.2719 20.9538 11.7276C20.9538 12.1064 21.0397 12.4349 21.2113 12.7131C21.3888 12.9912 21.6286 13.228 21.9304 13.4233C22.2322 13.6127 22.5666 13.7725 22.9336 13.9027C23.3005 14.0329 23.6705 14.1424 24.0433 14.2312L25.7479 14.6573C26.4344 14.8171 27.0943 15.0331 27.7276 15.3054C28.3668 15.5777 28.938 15.9209 29.4411 16.3352C29.95 16.7495 30.3525 17.2496 30.6484 17.8356C30.9444 18.4215 31.0923 19.1081 31.0923 19.8952C31.0923 20.9606 30.8201 21.8987 30.2756 22.7095C29.7311 23.5144 28.9439 24.1448 27.9141 24.6005C26.8902 25.0503 25.6502 25.2752 24.1942 25.2752C22.7797 25.2752 21.5516 25.0562 20.5099 24.6183C19.4742 24.1803 18.6634 23.5411 18.0774 22.7006C17.4974 21.8602 17.1837 20.8363 17.1364 19.6289H20.3768C20.4241 20.2622 20.6194 20.7889 20.9627 21.2092C21.306 21.6294 21.7528 21.9431 22.3033 22.1502C22.8596 22.3574 23.4811 22.4609 24.1676 22.4609C24.8838 22.4609 25.5111 22.3544 26.0497 22.1413C26.5942 21.9223 27.0204 21.6205 27.3281 21.2358C27.6359 20.8452 27.7927 20.3894 27.7987 19.8686C27.7927 19.3951 27.6536 19.0045 27.3814 18.6967C27.1091 18.383 26.7274 18.1226 26.2362 17.9155C25.7508 17.7024 25.1826 17.513 24.5316 17.3473L22.4631 16.8146C20.9657 16.4299 19.782 15.8469 18.9119 15.0657C18.0478 14.2785 17.6158 13.2339 17.6158 11.9318C17.6158 10.8606 17.9058 9.92247 18.4858 9.11754C19.0717 8.31262 19.8678 7.68821 20.8739 7.24432C21.8801 6.79451 23.0194 6.5696 24.2919 6.5696C25.5822 6.5696 26.7126 6.79451 27.6832 7.24432C28.6598 7.68821 29.4263 8.3067 29.9826 9.09979C30.5389 9.88695 30.826 10.7925 30.8438 11.8164H27.6744Z" fill="#1A1D2B"/>
</svg>
