<svg width="1900" height="600" viewBox="0 0 1900 600" fill="none" xmlns="http://www.w3.org/2000/svg">
<rect width="1900" height="600" fill="white"/>
<g clip-path="url(#clip0_3_357)">
<path d="M128.618 468.178C129.785 473.553 126.341 478.905 120.967 480.072L81.8766 488.555C76.5017 489.722 71.1497 486.279 69.9832 480.904L61.4996 441.814C60.3331 436.439 63.7763 431.087 69.1512 429.92L108.241 421.437C113.616 420.27 118.968 423.713 120.135 429.088L128.618 468.178Z" fill="#F2BE22"/>
<path d="M122.396 463.082C123.371 467.577 120.54 471.978 116.045 472.954L83.4048 480.037C78.9094 481.013 74.5089 478.182 73.5333 473.687L66.4495 441.046C65.4739 436.551 68.3049 432.15 72.8003 431.175L105.343 424.112C109.838 423.137 114.239 425.968 115.214 430.463L122.298 463.103L122.396 463.082Z" fill="white"/>
<path d="M89.5533 466.424L83.3835 437.995L87.6728 437.064L93.0413 461.8L105.923 459.005L106.725 462.697L89.5533 466.424Z" fill="#F2BE22"/>
</g>
<g clip-path="url(#clip1_3_357)">
<path d="M189.632 522.116C191.155 527.401 188.077 532.971 182.792 534.494L144.355 545.569C139.07 547.092 133.5 544.013 131.978 538.728L120.902 500.292C119.38 495.007 122.458 489.437 127.743 487.914L166.179 476.839C171.464 475.317 177.034 478.395 178.557 483.68L189.632 522.116Z" fill="#69B7EF"/>
<path d="M183.083 517.447C184.357 521.867 181.826 526.447 177.406 527.72L145.311 536.968C140.891 538.242 136.311 535.711 135.038 531.29L125.79 499.196C124.516 494.776 127.047 490.196 131.467 488.923L163.466 479.703C167.886 478.429 172.466 480.96 173.739 485.38L182.987 517.474L183.083 517.447Z" fill="white"/>
<path d="M149.853 524.212L141.798 496.258L159.324 491.208L160.37 494.839L147.062 498.673L149.516 507.191L161.91 503.619L162.952 507.237L150.558 510.808L153.024 519.366L166.496 515.484L167.542 519.115L149.853 524.212Z" fill="#69B7EF"/>
</g>
<g clip-path="url(#clip2_3_357)">
<path d="M250.201 474.815C249.263 480.234 244.061 483.901 238.642 482.962L199.228 476.138C193.809 475.2 190.143 469.998 191.081 464.579L197.905 425.165C198.843 419.746 204.045 416.08 209.465 417.018L248.878 423.842C254.297 424.78 257.964 429.982 257.025 435.401L250.201 474.815Z" fill="#82519F"/>
<path d="M246.349 467.754C245.565 472.287 241.288 475.302 236.755 474.517L203.845 468.819C199.312 468.034 196.298 463.757 197.082 459.224L202.781 426.314C203.565 421.781 207.842 418.767 212.375 419.552L245.187 425.233C249.719 426.017 252.734 430.294 251.949 434.827L246.251 467.737L246.349 467.754Z" fill="white"/>
<path d="M216.236 435.126L216.88 431.403L239.065 435.244L238.42 438.967L229.476 437.419L225.158 462.36L220.847 461.614L225.165 436.672L216.236 435.126Z" fill="#82519F"/>
</g>
<g clip-path="url(#clip3_3_357)">
<path d="M308.748 529.597C307.468 534.946 302.044 538.275 296.696 536.995L257.794 527.685C252.445 526.405 249.116 520.981 250.396 515.632L259.706 476.731C260.986 471.382 266.41 468.053 271.759 469.333L310.66 478.643C316.009 479.923 319.338 485.347 318.058 490.696L308.748 529.597Z" fill="#1C82E8"/>
<path d="M305.352 522.307C304.281 526.78 299.822 529.518 295.348 528.447L262.865 520.673C258.392 519.603 255.654 515.143 256.725 510.669L264.499 478.187C265.57 473.713 270.029 470.976 274.503 472.046L306.888 479.797C311.362 480.867 314.099 485.327 313.029 489.801L305.255 522.283L305.352 522.307Z" fill="white"/>
<path d="M292.555 494.413C292.721 493.07 292.355 491.912 291.459 490.938C290.565 489.954 289.307 489.269 287.686 488.881C286.526 488.603 285.478 488.547 284.543 488.713C283.609 488.869 282.832 489.209 282.21 489.732C281.6 490.248 281.199 490.907 281.007 491.708C280.846 492.38 280.864 492.998 281.06 493.561C281.266 494.126 281.586 494.636 282.023 495.091C282.471 495.539 282.967 495.945 283.513 496.31C284.061 496.665 284.595 496.978 285.114 497.248L287.705 498.628C288.555 499.065 289.409 499.585 290.267 500.19C291.125 500.795 291.886 501.502 292.549 502.313C293.211 503.124 293.682 504.045 293.961 505.076C294.25 506.109 294.242 507.261 293.938 508.532C293.554 510.134 292.799 511.458 291.673 512.503C290.556 513.55 289.128 514.246 287.391 514.589C285.662 514.935 283.693 514.844 281.483 514.315C279.365 513.808 277.612 513.033 276.226 511.99C274.84 510.948 273.857 509.705 273.277 508.261C272.7 506.809 272.569 505.219 272.885 503.493L277.167 504.518C277.005 505.56 277.133 506.492 277.55 507.312C277.979 508.125 278.609 508.807 279.441 509.357C280.285 509.899 281.255 510.302 282.351 510.564C283.558 510.853 284.676 510.921 285.705 510.768C286.747 510.608 287.62 510.253 288.327 509.701C289.035 509.141 289.5 508.4 289.72 507.479C289.921 506.641 289.846 505.897 289.495 505.249C289.153 504.602 288.619 504.007 287.892 503.463C287.174 502.921 286.341 502.395 285.392 501.886L282.267 500.174C280.149 499.015 278.57 497.678 277.531 496.163C276.5 494.651 276.221 492.909 276.693 490.938C277.083 489.308 277.865 487.991 279.04 486.987C280.215 485.983 281.639 485.326 283.31 485.015C284.983 484.695 286.769 484.762 288.666 485.216C290.581 485.674 292.191 486.415 293.494 487.437C294.807 488.462 295.746 489.666 296.311 491.047C296.878 492.42 296.999 493.87 296.672 495.399L292.555 494.413Z" fill="#1C82E8"/>
</g>
<g clip-path="url(#clip4_3_357)">
<path d="M1744.96 132.558C1743.51 137.861 1737.98 141.01 1732.67 139.554L1694.1 128.965C1688.8 127.509 1685.65 121.978 1687.11 116.674L1697.69 78.1013C1699.15 72.7975 1704.68 69.6493 1709.98 71.1053L1748.56 81.6941C1753.86 83.15 1757.01 88.6807 1755.55 93.9845L1744.96 132.558Z" fill="#1C82E8"/>
<path d="M1741.81 125.159C1740.59 129.595 1736.05 132.183 1731.61 130.965L1699.4 122.124C1694.97 120.906 1692.38 116.359 1693.59 111.923L1702.44 79.7142C1703.65 75.2783 1708.2 72.6898 1712.64 73.9075L1744.75 82.7227C1749.19 83.9404 1751.77 88.4879 1750.56 92.9238L1741.71 125.132L1741.81 125.159Z" fill="white"/>
<path d="M1730.59 101.114C1730.56 100.21 1730.4 99.3684 1730.14 98.5881C1729.88 97.8011 1729.51 97.0908 1729.03 96.4571C1728.55 95.8143 1727.95 95.2618 1727.23 94.7997C1726.52 94.3401 1725.7 93.9824 1724.77 93.7267C1723.19 93.293 1721.65 93.3083 1720.16 93.7726C1718.67 94.2369 1717.34 95.1528 1716.17 96.5205C1715.01 97.8815 1714.12 99.6943 1713.49 101.959C1712.87 104.233 1712.71 106.257 1713.02 108.03C1713.33 109.804 1714.02 111.274 1715.08 112.44C1716.15 113.606 1717.5 114.415 1719.14 114.866C1720.67 115.285 1722.08 115.339 1723.38 115.029C1724.7 114.722 1725.82 114.087 1726.75 113.125C1727.69 112.156 1728.38 110.901 1728.8 109.357L1729.84 109.864L1721.81 107.66L1722.77 104.167L1733.8 107.194L1732.92 110.386C1732.28 112.742 1731.21 114.649 1729.73 116.109C1728.26 117.561 1726.52 118.516 1724.5 118.973C1722.49 119.432 1720.35 119.351 1718.08 118.729C1715.54 118.032 1713.48 116.836 1711.88 115.141C1710.29 113.448 1709.26 111.382 1708.78 108.943C1708.3 106.494 1708.47 103.791 1709.28 100.832C1709.9 98.5947 1710.76 96.671 1711.87 95.0607C1712.98 93.4505 1714.26 92.1785 1715.73 91.2449C1717.2 90.3047 1718.8 89.7152 1720.5 89.4763C1722.22 89.2308 1723.99 89.3575 1725.8 89.8564C1727.32 90.2725 1728.67 90.8836 1729.85 91.6895C1731.04 92.4979 1732.04 93.4535 1732.83 94.5561C1733.64 95.6612 1734.23 96.8727 1734.59 98.1906C1734.96 99.4993 1735.07 100.871 1734.93 102.306L1730.59 101.114Z" fill="#1C82E8"/>
</g>
<g clip-path="url(#clip5_3_357)">
<path d="M1832.3 128.237C1833.44 133.622 1829.96 138.956 1824.58 140.09L1785.44 148.337C1780.06 149.47 1774.73 145.992 1773.59 140.607L1765.34 101.44C1764.21 96.0546 1767.68 90.7206 1773.06 89.5867L1812.2 81.3401C1817.59 80.2062 1822.92 83.6847 1824.05 89.0701L1832.3 128.237Z" fill="#52EEA7"/>
<path d="M1826.32 124.078C1827.27 128.582 1824.41 132.968 1819.91 133.916L1787.23 140.802C1782.72 141.75 1778.34 138.89 1777.39 134.386L1770.5 101.682C1769.55 97.1779 1772.41 92.7922 1776.91 91.8438L1809.5 84.9786C1814 84.0302 1818.38 86.8903 1819.33 91.3945L1826.22 124.099L1826.32 124.078Z" fill="white"/>
<path d="M1812.25 108.381C1812.89 111.42 1812.88 114.15 1812.23 116.571C1811.58 118.983 1810.4 120.982 1808.72 122.567C1807.03 124.14 1804.97 125.186 1802.51 125.703C1800.05 126.222 1797.72 126.102 1795.54 125.343C1793.36 124.572 1791.49 123.21 1789.92 121.258C1788.34 119.305 1787.24 116.814 1786.6 113.784C1785.96 110.745 1785.97 108.019 1786.62 105.607C1787.27 103.186 1788.44 101.189 1790.12 99.615C1791.81 98.0301 1793.88 96.978 1796.35 96.4587C1798.8 95.9413 1801.12 96.068 1803.3 96.8388C1805.48 97.5983 1807.36 98.9543 1808.93 100.907C1810.5 102.85 1811.6 105.341 1812.25 108.381ZM1807.99 109.277C1807.5 106.96 1806.72 105.089 1805.63 103.662C1804.56 102.225 1803.28 101.235 1801.81 100.693C1800.35 100.14 1798.81 100.035 1797.17 100.378C1795.53 100.724 1794.16 101.445 1793.04 102.541C1791.93 103.628 1791.16 105.047 1790.75 106.799C1790.34 108.54 1790.38 110.568 1790.87 112.885C1791.36 115.201 1792.14 117.078 1793.22 118.516C1794.3 119.942 1795.57 120.932 1797.03 121.486C1798.49 122.03 1800.04 122.129 1801.68 121.783C1803.32 121.44 1804.69 120.725 1805.81 119.638C1806.93 118.54 1807.69 117.12 1808.1 115.38C1808.52 113.628 1808.48 111.594 1807.99 109.277Z" fill="#52EEA7"/>
</g>
<defs>
<clipPath id="clip0_3_357">
<rect width="64" height="64" fill="white" transform="translate(57 430.511) rotate(-12.2449)"/>
</clipPath>
<clipPath id="clip1_3_357">
<rect width="64" height="64" fill="white" transform="translate(115.658 489.315) rotate(-16.0739)"/>
</clipPath>
<clipPath id="clip2_3_357">
<rect width="64" height="64" fill="white" transform="translate(197.982 413) rotate(9.8229)"/>
</clipPath>
<clipPath id="clip3_3_357">
<rect width="64" height="64" fill="white" transform="translate(260.554 464.595) rotate(13.4589)"/>
</clipPath>
<clipPath id="clip4_3_357">
<rect width="64" height="64" fill="white" transform="translate(1698.94 66) rotate(15.3503)"/>
</clipPath>
<clipPath id="clip5_3_357">
<rect width="64" height="64.0423" fill="white" transform="translate(1760.91 90.1023) rotate(-11.8977)"/>
</clipPath>
</defs>
</svg>
