<svg width="200" height="192" fill="none" xmlns="http://www.w3.org/2000/svg"><g clip-path="url(#a)"><path d="M77.58 30.84H27.493v35.172H77.58V30.84Z" fill="#fff"/><path d="M77.6 66.011v-9.569c0-6.112-.02-14.897-.036-25.59l.072.075H27.552l.092-.092v35.172l-.084-.088 36.084.042 10.312.025h3.692-3.66l-10.288.021-36.14.042h-.08V30.697H77.728v.075c0 10.727-.028 19.529-.04 25.65v8.897c0 .42-.088.692-.088.692Z" fill="#E0E0E0"/><path d="M27.492 33.978c0-.05 11.2-.097 25.024-.097 13.825 0 25.024.046 25.024.097 0 .05-11.2.092-25.024.092-13.823 0-25.023-.05-25.023-.092Z" fill="#E0E0E0"/><path opacity=".3" d="M29.468 32.392a.434.434 0 0 1-.067.233.406.406 0 0 1-.18.154.383.383 0 0 1-.436-.09.439.439 0 0 1-.087-.457.416.416 0 0 1 .148-.19.387.387 0 0 1 .505.053.43.43 0 0 1 .117.297ZM30.444 32.811c.221 0 .4-.188.4-.42a.41.41 0 0 0-.4-.419.41.41 0 0 0-.4.42c0 .231.18.42.4.42ZM32.2 32.392a.434.434 0 0 1-.068.233.406.406 0 0 1-.18.154.383.383 0 0 1-.435-.09.438.438 0 0 1-.087-.457.417.417 0 0 1 .148-.19.387.387 0 0 1 .505.053.43.43 0 0 1 .117.297Z" fill="#E0E0E0"/><path d="M45.16 37.644H31.8v14.012h13.36V37.644ZM70.712 41.604c0 .055-5.2.097-11.636.097-6.436 0-11.64-.042-11.64-.097 0-.054 5.2-.092 11.64-.092s11.636.059 11.636.092ZM70.712 44.21c0 .05-5.2.092-11.636.092-6.436 0-11.64-.042-11.64-.093 0-.05 5.2-.092 11.64-.092s11.636.042 11.636.093ZM70.712 46.815c0 .05-5.2.092-11.636.092-6.436 0-11.64-.042-11.64-.092 0-.05 5.2-.097 11.64-.097s11.636.042 11.636.097ZM61.2 49.416c-.178.03-.36.043-.54.037l-1.476.03c-1.244 0-2.964.029-4.86.029-1.896 0-3.6 0-4.864-.03l-1.476-.029a2.641 2.641 0 0 1-.54-.038c.179-.027.36-.039.54-.033l1.476-.03c1.244-.02 2.964-.029 4.864-.029s3.6 0 4.86.03l1.476.029c.18-.006.361.006.54.034ZM38.916 56.38h-6.28v6.586h6.28V56.38ZM50.304 56.38h-6.28v6.586h6.28V56.38ZM61.688 56.38h-6.28v6.586h6.28V56.38ZM73.076 56.38h-6.28v6.586h6.28V56.38ZM168.844 39.737c-.059.213-.15.415-.272.596a2.6 2.6 0 0 1-1.126.96c-.455.2-.956.259-1.442.169a2.52 2.52 0 0 1-1.236-.621 2.51 2.51 0 0 1-.492-.592 2.628 2.628 0 0 1-.316-.75 2.862 2.862 0 0 1 .08-1.704 2.744 2.744 0 0 1 1.028-1.317c.22-.15.462-.262.716-.332.242-.07.493-.103.744-.096a2.5 2.5 0 0 1 1.239.372c.376.232.69.56.913.953a2.75 2.75 0 0 1 .344 1.75 1.99 1.99 0 0 1-.18.63s.076-.223.124-.639a2.773 2.773 0 0 0-.376-1.678 2.518 2.518 0 0 0-.885-.888 2.377 2.377 0 0 0-1.183-.332 2.268 2.268 0 0 0-.704.092 2.493 2.493 0 0 0-1.486 1.215 2.703 2.703 0 0 0-.238 1.96c.064.252.165.491.3.71.125.212.28.403.46.566.312.286.686.485 1.09.581a2.38 2.38 0 0 0 1.222-.032 2.54 2.54 0 0 0 1.356-.985c.119-.189.226-.385.32-.588Z" fill="#E0E0E0"/><path d="M171.236 42.271h.088l.268.034 1.06.15h-.024c.216-.59.496-1.375.84-2.319v.046l-1.2-.839h-.024v-.025a6.401 6.401 0 0 0-.044-1.607v-.03h.024l1.144-.901v.067l-.964-2.265.06.033-1.4.294h-.036l-.024-.034a5.812 5.812 0 0 0-1.108-1.099l-.032-.025v-.038c.064-.461.132-.969.204-1.485l.04.072-2.208-.89.08-.025-.8 1.259-.024.037h-.04a5.67 5.67 0 0 0-1.524.042h-.044l-.024-.038-.856-1.2h.088l-2.164 1.012.04-.084c.088.461.184.965.276 1.468v.046l-.036.03a5.93 5.93 0 0 0-1.052 1.157l-.068.03h-.176l-.18-.03-.356-.054-.704-.105.08-.05-.816 2.303-.028-.088 1.2.839.036.025v.046a6.289 6.289 0 0 0 .036 1.598v.047l-.036.025-1.148.893.024-.088c.323.778.641 1.536.956 2.274l-.076-.042 1.404-.29h.04l.024.034c.319.418.691.79 1.104 1.103l.032.026v.041l-.212 1.481-.036-.067 2.208.898-.068.021.8-1.259v-.029h.032c.509.06 1.023.047 1.528-.038h.032v.026l.852 1.208h-.052l2.168-.995v.038c-.108-.591-.196-1.074-.268-1.477.304-.25.584-.53.836-.838l.184-.231.06-.076-.052.084a3.247 3.247 0 0 1-.176.24c-.237.317-.505.608-.8.868v-.026c.076.42.172.882.284 1.469v-.021h-.024l-2.16 1.02h-.028l-.024-.03-.856-1.2.044.021a5.6 5.6 0 0 1-1.556.046l.052-.025-.8 1.259-.024.037h-.04l-2.212-.89h-.044v-.05c.069-.48.137-.976.204-1.485l.028.063a5.998 5.998 0 0 1-1.132-1.128l.064.025-1.404.294h-.052l-.024-.05-.96-2.266-.024-.054.044-.034 1.148-.898-.028.067a6.54 6.54 0 0 1-.04-1.636l.032.072-1.2-.84-.048-.033v-.059l.852-2.315.02-.055h.056l.708.105.352.054.18.03h.176c-.14.063-.036 0-.068.033a6.026 6.026 0 0 1 1.1-1.153l-.024.075c-.096-.507-.192-1.01-.276-1.472v-.063l.052-.025 2.164-1.003.052-.025.036.046c.292.42.584.839.852 1.204l-.068-.025a5.63 5.63 0 0 1 1.564-.042l-.068.033.8-1.258.028-.046h.052l2.208.897h.048v.05l-.208 1.486-.024-.063c.422.323.8.704 1.124 1.133l-.056-.026 1.404-.285h.044l.02.046c.336.797.652 1.557.956 2.27v.042l-.036.025-1.148.894.02-.05c.08.54.091 1.088.032 1.631l-.02-.042 1.2.84h.024v.024l-.864 2.312v.02l-1.048-.171-.272-.05-.132.037Z" fill="#E0E0E0"/><path fill-rule="evenodd" clip-rule="evenodd" d="M183.824 35.207a4.887 4.887 0 0 1-.884.973l.228 1.22-1.792.84-.712-.999a4.497 4.497 0 0 1-1.28.034l-.66 1.036-1.832-.742.172-1.23a4.856 4.856 0 0 1-.928-.927l-1.164.24-.8-1.88.952-.747a5.157 5.157 0 0 1-.032-1.342l-.988-.692.708-1.922 1.172.18c.251-.364.549-.692.884-.973l-.228-1.22 1.792-.84.712.999a4.501 4.501 0 0 1 1.28-.034l.66-1.036 1.836.743-.172 1.229c.347.265.659.576.928.927l1.164-.239.8 1.884-.952.742c.069.444.08.896.032 1.342l.988.693-.708 1.921-1.172-.18h-.004Zm-2-2.098a2.31 2.31 0 0 0 .094-1.28 2.235 2.235 0 0 0-.6-1.12 2.071 2.071 0 0 0-1.092-.58 2.019 2.019 0 0 0-1.216.153 2.144 2.144 0 0 0-.929.837c-.224.37-.338.8-.328 1.237.009.438.142.862.382 1.22.24.359.576.634.965.792a2.024 2.024 0 0 0 1.62-.032c.254-.117.484-.285.677-.496.192-.21.343-.459.443-.73h-.016ZM176.088 23.733a7.821 7.821 0 0 1-1.384 1.527l.36 1.913-2.8 1.309-1.112-1.565a7.304 7.304 0 0 1-2 .055l-1.036 1.619-2.872-1.162.268-1.93a7.757 7.757 0 0 1-1.456-1.451l-1.824.377-1.248-2.936 1.492-1.167a8.416 8.416 0 0 1-.052-2.097l-1.544-1.087 1.108-3.012 1.84.281a7.793 7.793 0 0 1 1.372-1.548l-.36-1.917 2.8-1.309 1.112 1.565a7.303 7.303 0 0 1 2-.055l1.036-1.619 2.872 1.162-.26 1.938a7.766 7.766 0 0 1 1.452 1.452l1.828-.378 1.248 2.937-1.492 1.166c.105.694.122 1.4.052 2.098l1.548 1.116-1.108 3.012-1.84-.281v-.013Zm-3.112-3.293a3.62 3.62 0 0 0 .14-2.007 3.51 3.51 0 0 0-.946-1.75 3.25 3.25 0 0 0-1.714-.904 3.164 3.164 0 0 0-1.904.248 3.351 3.351 0 0 0-1.452 1.316 3.593 3.593 0 0 0-.51 1.94c.017.685.227 1.35.604 1.91.377.56.904.99 1.514 1.235a3.166 3.166 0 0 0 2.527-.066c.396-.185.754-.45 1.053-.78.299-.33.532-.718.688-1.142Z" fill="#E0E0E0"/><path d="M147.848 7.741c.063-.09.134-.172.212-.247l.608-.642c.516-.537 1.236-1.259 2.04-2.073h.02v.105c-.8-.784-1.536-1.506-2.056-2.03l-.612-.625a1.701 1.701 0 0 1-.212-.248c.091.058.174.127.248.206l.644.591c.536.504 1.276 1.213 2.084 2.001l.056.05-.056.055-.02.021c-.8.801-1.532 1.523-2.068 2.039l-.64.608a1.256 1.256 0 0 1-.248.19ZM141.6 1.964a1.538 1.538 0 0 1-.212.252l-.588.638c-.516.537-1.236 1.258-2.04 2.072l-.02.021v-.109c.8.789 1.536 1.506 2.056 2.03l.612.63c.077.074.148.155.212.243a1.134 1.134 0 0 1-.248-.201c-.176-.16-.4-.361-.644-.592a237.66 237.66 0 0 1-2.084-2l-.052-.055.052-.055h.02c.8-.805 1.532-1.527 2.068-2.043l.64-.604c.066-.086.143-.162.228-.227ZM143.2 9.1c-.036 0 .62-1.946 1.464-4.312.844-2.366 1.56-4.28 1.6-4.263.04.017-.616 1.947-1.464 4.313-.848 2.366-1.556 4.28-1.6 4.262Z" fill="#E0E0E0"/><path d="M154.944 13.237V8.463c0-3.03 0-7.358-.032-12.586l.06.063h-20.304l.072-.075V13.22l-.064-.067 14.664.034h5.26-1.076l-4.144.02-14.704.034h-.064V-4.257H155.048v.063c0 5.236-.024 9.582-.032 12.619v4.426c0 .214-.072.386-.072.386Z" fill="#E0E0E0"/><path d="M115.688 4.25H68.736v20.003h46.952V4.251Z" fill="#fff"/><path d="M115.688 24.253V18.88c0-3.453 0-8.445-.028-14.63l.052.055-46.948.026.036-.097v20.002l-.072-.075 33.664.038 9.764.02h2.616H102.424l-33.712.034h-.072V4.1h47.08v.134c0 6.196-.02 11.201-.028 14.662V23.892c0 .235-.004.361-.004.361Z" fill="#E0E0E0"/><path d="M68.8 6.949c0-.042 10.496-.076 23.44-.076s23.44.034 23.44.076c0 .042-10.492.08-23.44.08s-23.44-.034-23.44-.08Z" fill="#E0E0E0"/><path opacity=".3" d="M70.748 5.745a.366.366 0 0 1-.1.252.332.332 0 0 1-.24.104.332.332 0 0 1-.24-.104.365.365 0 0 1-.1-.252c0-.095.036-.186.1-.253a.332.332 0 0 1 .24-.104c.09 0 .177.038.24.104.064.067.1.158.1.253ZM71.916 5.745a.366.366 0 0 1-.1.252.332.332 0 0 1-.24.104.332.332 0 0 1-.24-.104.366.366 0 0 1-.1-.252c0-.095.036-.186.1-.253a.332.332 0 0 1 .24-.104c.09 0 .177.038.24.104.064.067.1.158.1.253ZM72.724 6.101c.188 0 .34-.16.34-.356a.349.349 0 0 0-.34-.357c-.188 0-.34.16-.34.357 0 .196.152.356.34.356Z" fill="#EBEBEB"/><path d="M84.064 10.2h-11.34v11.893h11.34V10.2ZM112.44 13.388c0 .042-5.836.08-13.032.08s-13.036-.038-13.036-.08 5.836-.08 13.036-.08c7.2 0 13.032.038 13.032.08ZM112.44 15.813c0 .042-5.836.075-13.032.075s-13.036-.033-13.036-.075c0-.042 5.836-.08 13.036-.08 7.2 0 13.032.034 13.032.08ZM103.152 18.233a.494.494 0 0 1-.168 0h-.492l-1.796.026-5.932.025-5.936-.025-1.796-.026h-.492a.494.494 0 0 1-.168 0 .907.907 0 0 1 .168 0h.492l1.796-.025h11.868l1.796.025h.492a.907.907 0 0 1 .168 0Z" fill="#E0E0E0"/><path d="M189.144 168.72c0 .059-39.912.109-89.14.109s-89.148-.05-89.148-.109c0-.058 39.904-.109 89.148-.109 49.244 0 89.14.046 89.14.109Z" fill="#263238"/><path d="M174.064 38.806h-56.052v47.892h56.052V38.806Z" fill="#E0E0E0"/><path d="M170.08 41.848h-56.052v47.891h56.052V41.848Z" fill="#EBEBEB"/><path d="M166.084 45.183h-57.548v49.17h57.548v-49.17Z" fill="#fff"/><path d="M166.084 94.354v-3.532c0-2.3 0-5.668-.02-9.964 0-8.583-.028-20.862-.048-35.658l.088.092h-57.54l.104-.11v49.172l-.096-.1 41.6.05 11.768.025h4.192H161.976l-11.748.025-41.644.05h-.092V45.027h57.74v.093a96750 96750 0 0 0-.044 35.734c0 4.283-.02 7.648-.024 9.942v2.605c0 .592-.08.953-.08.953Z" fill="#263238"/><path d="m115.552 52.29-.62.234.62.24v.243l-.884-.353v-.256l.884-.352v.243ZM117.008 51.845v1.363h-.3v-.558h-.592v.558h-.3v-1.363h.3v.537h.592v-.537h.3ZM117.6 52.1h-.4v-.255h1.132v.256h-.4v1.107h-.332v-1.107ZM119.644 53.208v-.839l-.4.671h-.136l-.38-.654v.801h-.284v-1.363h.248l.488.839.48-.84h.244v1.364l-.26.021ZM120.232 51.845h.3v1.107h.668v.256h-.952l-.016-1.363ZM122.192 52.398v.256l-.88.352v-.243l.616-.239-.616-.235v-.23l.88.34ZM115.028 89.576l-.628.239.62.235v.243l-.884-.352v-.256l.884-.353.008.244ZM115.688 88.854h.26l-.612 1.833h-.26l.612-1.833ZM117.2 89.13v1.364h-.304v-.558h-.576v.558h-.3v-1.363h.3v.537h.588v-.537h.292ZM117.784 89.395h-.4v-.256h1.128v.256h-.4v1.108h-.304l-.024-1.108ZM119.844 90.494v-.818l-.4.676h-.136l-.38-.659v.801h-.28v-1.363h.248l.484.839.48-.84h.248v1.364h-.264ZM120.432 89.13h.3v1.104h.652v.256h-.952v-1.36ZM122.4 89.685v.256l-.884.352v-.243l.62-.235-.62-.24v-.243l.884.353Z" fill="#F14953"/><path d="m119.628 56.019-.66.264.66.269v.159l-.832-.344v-.168l.832-.344v.164ZM121.06 55.603v1.364h-.184v-.608h-.744v.608h-.188v-1.364h.188v.588h.744v-.588h.184ZM122.4 56.795v.172h-.944v-1.364h.92v.168h-.732v.42h.652v.163h-.652v.42l.756.02ZM123.52 56.623h-.692l-.14.344h-.192l.588-1.364h.184l.588 1.364h-.196l-.14-.344Zm-.064-.155-.28-.667-.284.667h.564ZM124.048 55.603h.548a.626.626 0 0 1 .493.18.686.686 0 0 1 .21.502.713.713 0 0 1-.21.502.626.626 0 0 1-.493.18h-.548v-1.364Zm.536 1.192a.478.478 0 0 0 .345-.15.527.527 0 0 0 0-.724.478.478 0 0 0-.345-.15h-.352v1.024h.352ZM126.34 56.2v.167l-.832.344v-.16l.66-.268-.66-.264v-.164l.832.344ZM119.628 60.684l-.66.264.66.269v.159l-.832-.344v-.164l.832-.344v.16ZM120.204 60.449h-.448v-.168h1.076v.168h-.432v1.195h-.184l-.012-1.195ZM121.032 60.269h.188v1.363h-.188v-1.363ZM121.864 60.449h-.444v-.168h1.072v.168h-.444v1.195h-.184V60.45ZM122.696 60.269h.184v1.191h.72v.172h-.888l-.016-1.363ZM124.74 61.46v.172h-.944v-1.363h.916v.167H124v.42h.652v.168H124v.42l.74.016ZM125.8 60.868v.168l-.832.344v-.16l.66-.268-.66-.264v-.164l.832.344ZM126.616 60.269h.184v1.191h.704v.172h-.888v-1.363ZM127.6 61.116a.555.555 0 0 1 .082-.3.52.52 0 0 1 .228-.202.491.491 0 0 1 .561.11.552.552 0 0 1-.074.829.495.495 0 0 1-.285.092.465.465 0 0 1-.367-.147.516.516 0 0 1-.145-.382Zm.84 0a.371.371 0 0 0-.083-.27.328.328 0 0 0-.247-.116.321.321 0 0 0-.248.115.35.35 0 0 0-.068.126.353.353 0 0 0-.014.145.353.353 0 0 0 .014.144c.014.047.037.09.068.126a.321.321 0 0 0 .495 0 .351.351 0 0 0 .069-.126c.014-.046.019-.095.014-.144ZM129.384 60.591v.18h-.04a.287.287 0 0 0-.234.098.32.32 0 0 0-.078.251v.516h-.176v-1.032h.168v.172a.383.383 0 0 1 .154-.147.362.362 0 0 1 .206-.038ZM130.476 61.179h-.8c.011.088.054.169.12.225a.323.323 0 0 0 .236.077.349.349 0 0 0 .284-.126l.096.121a.515.515 0 0 1-.57.13.54.54 0 0 1-.242-.19.536.536 0 0 1 .036-.674.464.464 0 0 1 .356-.15.452.452 0 0 1 .353.151.503.503 0 0 1 .131.377c.002.02.002.039 0 .059Zm-.8-.135h.632a.337.337 0 0 0-.093-.234.307.307 0 0 0-.447 0 .34.34 0 0 0-.092.234ZM132.36 61.036v.596h-.18v-.575c0-.201-.092-.298-.252-.298a.274.274 0 0 0-.225.097.3.3 0 0 0-.061.113.301.301 0 0 0-.01.13v.533h-.18v-.575c0-.201-.092-.298-.252-.298a.274.274 0 0 0-.225.097.3.3 0 0 0-.061.113.301.301 0 0 0-.01.13v.533h-.176V60.6h.168v.155a.402.402 0 0 1 .34-.163.35.35 0 0 1 .198.042.375.375 0 0 1 .146.146.434.434 0 0 1 .165-.145.414.414 0 0 1 .211-.043.362.362 0 0 1 .303.12.406.406 0 0 1 .101.324ZM133.152 60.281a.128.128 0 0 1 .035-.087.112.112 0 0 1 .085-.034.104.104 0 0 1 .045.006.104.104 0 0 1 .039.025.107.107 0 0 1 .027.039c.006.015.009.03.009.047a.117.117 0 0 1-.008.049.12.12 0 0 1-.065.069.113.113 0 0 1-.047.008.113.113 0 0 1-.085-.034.124.124 0 0 1-.035-.088Zm.032.319h.18v1.032h-.164l-.016-1.032ZM134.72 61.116a.525.525 0 0 1-.138.379.47.47 0 0 1-.358.15.425.425 0 0 1-.344-.168v.532h-.18V60.6h.172v.165a.426.426 0 0 1 .156-.131.406.406 0 0 1 .196-.041.458.458 0 0 1 .358.147.504.504 0 0 1 .138.377Zm-.18 0a.358.358 0 0 0-.097-.246.326.326 0 0 0-.235-.102.325.325 0 0 0-.235.102.358.358 0 0 0 0 .492.325.325 0 0 0 .235.102.326.326 0 0 0 .235-.102.358.358 0 0 0 .097-.246ZM134.84 61.523l.076-.147a.636.636 0 0 0 .344.105c.164 0 .236-.05.236-.139 0-.235-.624-.033-.624-.444 0-.185.16-.307.4-.307a.675.675 0 0 1 .356.093l-.076.146a.506.506 0 0 0-.284-.08c-.156 0-.232.06-.232.143 0 .24.624.042.624.445 0 .184-.164.306-.424.306a.701.701 0 0 1-.396-.121ZM136.8 60.6v1.032h-.168v-.155a.386.386 0 0 1-.336.168.388.388 0 0 1-.311-.125.434.434 0 0 1-.113-.328V60.6h.18v.57c0 .206.096.307.264.307a.286.286 0 0 0 .23-.096.31.31 0 0 0 .074-.248V60.6h.18ZM138.8 61.036v.596h-.176v-.575c0-.201-.092-.298-.256-.298a.277.277 0 0 0-.222.099.298.298 0 0 0-.07.241v.533h-.18v-.575c0-.201-.092-.298-.252-.298a.274.274 0 0 0-.225.097.316.316 0 0 0-.062.113.317.317 0 0 0-.009.13v.533h-.18V60.6h.172v.155a.4.4 0 0 1 .34-.163.345.345 0 0 1 .196.042.37.37 0 0 1 .144.146.428.428 0 0 1 .38-.189.364.364 0 0 1 .302.121.407.407 0 0 1 .098.324ZM140.4 60.684l-.656.264.656.269v.159l-.828-.344v-.164l.828-.344v.16ZM141.076 59.992h.164l-.612 1.833h-.164l.612-1.834ZM141.676 60.449h-.444v-.168h1.076v.168h-.448v1.195h-.184V60.45ZM142.508 60.269h.184v1.363h-.184v-1.363ZM143.34 60.449h-.444v-.168h1.072v.168h-.444v1.195h-.184V60.45ZM144.172 60.269h.184v1.191h.704v.172h-.888v-1.363ZM146.216 61.46v.172h-.944v-1.363h.916v.167h-.732v.42h.652v.168h-.652v.42l.76.016ZM147.276 60.868v.168l-.832.344v-.16l.66-.268-.66-.264v-.164l.832.344ZM119.628 65.349l-.66.268.66.264v.164l-.832-.348v-.164l.832-.348v.164ZM120.312 64.644h.16l-.612 1.833h-.164l.616-1.833ZM121.712 64.934v1.363h-.184v-.608h-.728v.608h-.188v-1.363h.188v.587h.744v-.587h.168ZM123.044 66.125v.172h-.94v-1.363h.916v.172h-.732v.42h.652v.167h-.652v.42l.756.012ZM124.172 65.957h-.692l-.14.34h-.192l.588-1.363h.184l.588 1.363h-.192l-.144-.34Zm-.064-.155-.28-.671-.28.671h.56ZM124.7 64.933h.548a.626.626 0 0 1 .494.18.713.713 0 0 1 0 1.004.626.626 0 0 1-.494.18h-.548v-1.364Zm.536 1.192a.47.47 0 0 0 .373-.132.522.522 0 0 0 .117-.585.508.508 0 0 0-.29-.278.469.469 0 0 0-.2-.025h-.348v1.02h.348ZM126.992 65.533v.164l-.832.348v-.143l.66-.264-.66-.268v-.164l.832.327ZM116.18 69.397l-.656.268.656.265v.167l-.832-.343v-.168l.832-.344v.155ZM117.6 69.976c0 .235-.168.37-.496.37h-.62v-1.364h.58c.3 0 .468.134.468.352a.345.345 0 0 0-.137.145.361.361 0 0 0 .041.387c.043.053.1.091.164.11Zm-.932-.84v.42h.4c.192 0 .296-.075.296-.218 0-.142-.104-.218-.296-.218l-.4.017Zm.744.84c0-.16-.112-.23-.316-.23h-.428v.452h.428c.22-.012.332-.08.332-.235l-.016.013ZM117.796 69.678a.746.746 0 0 1 .103-.41.7.7 0 0 1 .304-.28.664.664 0 0 1 .763.137.755.755 0 0 1 .163.794.72.72 0 0 1-.254.331.668.668 0 0 1-.387.125.651.651 0 0 1-.489-.192.713.713 0 0 1-.203-.504Zm1.2 0a.56.56 0 0 0-.08-.3.517.517 0 0 0-.226-.201.487.487 0 0 0-.558.109.555.555 0 0 0 .075.824c.085.058.184.09.285.088a.465.465 0 0 0 .356-.148.529.529 0 0 0 .144-.372h.004ZM119.46 68.982h.54a.626.626 0 0 1 .493.18.713.713 0 0 1 .155.776.685.685 0 0 1-.155.227.626.626 0 0 1-.493.18h-.548l.008-1.363Zm.536 1.195a.471.471 0 0 0 .345-.15.528.528 0 0 0 0-.724.486.486 0 0 0-.345-.15h-.352v1.024h.352ZM121.432 69.875v.47h-.184v-.474l-.516-.89h.2l.4.722.4-.721h.184l-.484.893ZM122.896 69.581v.168l-.832.344v-.163l.66-.265-.66-.268v-.139l.832.323ZM116.18 74.062l-.656.269.656.264v.163l-.832-.344v-.167l.832-.344v.159ZM117.6 73.65v1.36h-.184v-.604h-.748v.604h-.184v-1.36h.184v.584h.748v-.583h.184ZM118.3 73.65v1.36h-.184v-1.192h-.292v-.167h.476ZM119.452 74.247v.167l-.832.344v-.163l.66-.264-.66-.269v-.16l.832.345ZM120.284 73.65h.136v1.238h.728v.122h-.864v-1.36ZM121.236 74.498a.54.54 0 0 1 .085-.287.502.502 0 0 1 .224-.19.474.474 0 0 1 .539.115.53.53 0 0 1 .106.567.515.515 0 0 1-.183.232.478.478 0 0 1-.275.088.468.468 0 0 1-.357-.149.502.502 0 0 1-.139-.376Zm.856 0a.392.392 0 0 0-.069-.207.366.366 0 0 0-.167-.133.35.35 0 0 0-.392.095.387.387 0 0 0-.094.196.389.389 0 0 0 .16.387c.06.04.13.062.202.061a.343.343 0 0 0 .263-.117.38.38 0 0 0 .097-.282ZM122.988 73.978v.134h-.032a.302.302 0 0 0-.249.108.33.33 0 0 0-.068.126.334.334 0 0 0-.011.144v.52h-.132v-1.023h.124v.2a.41.41 0 0 1 .156-.159.383.383 0 0 1 .212-.05ZM124.064 74.54h-.8a.396.396 0 0 0 .127.268.35.35 0 0 0 .273.089.4.4 0 0 0 .3-.134l.072.092a.458.458 0 0 1-.376.168.465.465 0 0 1-.367-.144.51.51 0 0 1-.145-.38.512.512 0 0 1 .131-.369.467.467 0 0 1 .79.17.514.514 0 0 1 .027.198l-.032.042Zm-.8-.1h.692a.37.37 0 0 0-.114-.233.338.338 0 0 0-.465 0 .37.37 0 0 0-.113.233ZM125.944 74.419v.591h-.132v-.579c0-.214-.104-.327-.28-.327a.306.306 0 0 0-.244.105.333.333 0 0 0-.08.264v.537h-.132v-.579c0-.214-.104-.327-.284-.327a.304.304 0 0 0-.245.105.34.34 0 0 0-.083.264v.537h-.132v-1.023h.128v.189a.388.388 0 0 1 .36-.197.336.336 0 0 1 .204.052.36.36 0 0 1 .14.165c.041-.071.1-.13.17-.168a.411.411 0 0 1 .23-.05.357.357 0 0 1 .287.129.396.396 0 0 1 .093.312ZM126.756 73.663a.102.102 0 0 1 .029-.068.095.095 0 0 1 .067-.028.092.092 0 0 1 .068.027c.008.009.016.02.02.032a.098.098 0 0 1 .008.037c0 .027-.01.053-.028.072a.093.093 0 0 1-.136 0 .103.103 0 0 1-.028-.072Zm.028.324h.132v1.023h-.116l-.016-1.023ZM128.272 74.499a.526.526 0 0 1-.134.372.473.473 0 0 1-.562.1.43.43 0 0 1-.16-.154v.57h-.132v-1.4h.128v.201a.438.438 0 0 1 .161-.157.412.412 0 0 1 .215-.053.45.45 0 0 1 .35.15.523.523 0 0 1 .134.371Zm-.128 0a.393.393 0 0 0-.107-.27.355.355 0 0 0-.515 0 .392.392 0 0 0-.106.27c0 .1.038.198.106.27a.355.355 0 0 0 .515 0 .393.393 0 0 0 .107-.27ZM128.4 74.893l.06-.11a.566.566 0 0 0 .348.118c.184 0 .26-.067.26-.168 0-.268-.632-.059-.632-.461 0-.168.14-.294.4-.294a.633.633 0 0 1 .344.097l-.056.113a.488.488 0 0 0-.288-.088c-.176 0-.256.071-.256.168 0 .276.632.067.632.461 0 .176-.148.294-.4.294a.615.615 0 0 1-.412-.13ZM130.328 73.987v1.023h-.128v-.184a.41.41 0 0 1-.149.146.386.386 0 0 1-.199.05.363.363 0 0 1-.299-.12.41.41 0 0 1-.101-.32v-.595h.132v.579c0 .218.104.33.292.33a.302.302 0 0 0 .136-.022.321.321 0 0 0 .183-.206.334.334 0 0 0 .013-.145v-.536h.12ZM132.304 74.419v.591h-.128v-.579c0-.214-.104-.327-.284-.327a.306.306 0 0 0-.244.105.333.333 0 0 0-.08.264v.537h-.132v-.579c0-.214-.104-.327-.284-.327a.305.305 0 0 0-.243.107.331.331 0 0 0-.081.262v.537h-.132v-1.023h.124v.189a.411.411 0 0 1 .154-.15.384.384 0 0 1 .206-.048.341.341 0 0 1 .206.052.37.37 0 0 1 .142.166.406.406 0 0 1 .168-.173.383.383 0 0 1 .232-.045.369.369 0 0 1 .284.13.404.404 0 0 1 .092.31ZM134.036 73.567v1.443h-.124v-.201a.434.434 0 0 1-.16.16.41.41 0 0 1-.216.054.491.491 0 0 1-.324-.169.535.535 0 0 1-.131-.353c0-.131.046-.258.131-.354a.491.491 0 0 1 .324-.169.412.412 0 0 1 .212.052c.065.036.12.089.16.154v-.617h.128Zm-.128.932a.393.393 0 0 0-.069-.208.366.366 0 0 0-.167-.133.35.35 0 0 0-.392.095.387.387 0 0 0-.094.196.39.39 0 0 0 .16.387c.06.04.131.062.202.061a.34.34 0 0 0 .263-.117.382.382 0 0 0 .097-.281ZM134.304 74.498c0-.103.029-.205.084-.291a.505.505 0 0 1 .225-.193.489.489 0 0 1 .544.114.54.54 0 0 1-.075.807.486.486 0 0 1-.278.088.467.467 0 0 1-.359-.149.536.536 0 0 1-.108-.172.54.54 0 0 1-.033-.204Zm.86 0a.393.393 0 0 0-.069-.208.366.366 0 0 0-.167-.133.35.35 0 0 0-.392.096.387.387 0 0 0-.094.196.39.39 0 0 0 .16.386c.06.041.13.063.202.062a.35.35 0 0 0 .263-.117.382.382 0 0 0 .097-.282ZM135.568 73.567h.128v1.443h-.128v-1.443ZM135.968 74.498a.54.54 0 0 1 .085-.287.502.502 0 0 1 .224-.19.474.474 0 0 1 .539.115.53.53 0 0 1 .106.567.522.522 0 0 1-.183.232.48.48 0 0 1-.275.088.464.464 0 0 1-.357-.149.502.502 0 0 1-.139-.376Zm.856 0a.385.385 0 0 0-.237-.34.346.346 0 0 0-.209-.015.358.358 0 0 0-.182.11.398.398 0 0 0-.07.415.38.38 0 0 0 .136.168c.06.04.13.062.202.061a.343.343 0 0 0 .263-.117.38.38 0 0 0 .097-.282ZM137.72 73.978v.134h-.032a.302.302 0 0 0-.249.108.345.345 0 0 0-.079.27v.52h-.132v-1.023h.124v.2a.41.41 0 0 1 .156-.159.383.383 0 0 1 .212-.05ZM138.32 74.893l.06-.11c.1.08.223.12.348.118.184 0 .26-.067.26-.168 0-.268-.632-.059-.632-.461 0-.168.136-.294.4-.294a.65.65 0 0 1 .348.097l-.06.113a.48.48 0 0 0-.288-.088c-.176 0-.252.071-.252.168 0 .276.632.067.632.461 0 .176-.148.294-.4.294a.61.61 0 0 1-.416-.13ZM139.332 73.663a.102.102 0 0 1 .029-.068.095.095 0 0 1 .067-.028.088.088 0 0 1 .067.027c.009.009.017.02.021.032a.098.098 0 0 1 .008.037c0 .027-.01.053-.028.072a.093.093 0 0 1-.136 0 .103.103 0 0 1-.028-.072Zm.032.324h.128v1.023h-.128v-1.023ZM140.376 74.947a.302.302 0 0 1-.208.076.247.247 0 0 1-.211-.077.279.279 0 0 1-.061-.102c-.012-.038-.017-.079-.012-.119v-.62h-.176v-.118h.176v-.223H140v.223h.296v.117H140v.609a.176.176 0 0 0 .006.072.18.18 0 0 0 .036.062.152.152 0 0 0 .126.05.218.218 0 0 0 .144-.05l.064.1ZM141.836 74.377v.633h-.128v-.16a.37.37 0 0 1-.145.136.344.344 0 0 1-.191.037c-.22 0-.356-.122-.356-.298s.096-.294.376-.294h.312v-.058a.263.263 0 0 0-.074-.207.241.241 0 0 0-.094-.058.229.229 0 0 0-.108-.008.47.47 0 0 0-.324.122l-.06-.105a.592.592 0 0 1 .4-.139.332.332 0 0 1 .288.1.365.365 0 0 1 .104.299Zm-.132.327v-.168h-.308c-.188 0-.248.08-.248.185s.092.193.244.193a.3.3 0 0 0 .187-.048c.056-.036.1-.09.125-.154v-.008ZM143.804 74.418v.592h-.132v-.579c0-.214-.104-.327-.28-.327a.307.307 0 0 0-.245.105.339.339 0 0 0-.083.264v.537h-.132v-.579c0-.214-.104-.327-.28-.327a.307.307 0 0 0-.245.105.339.339 0 0 0-.083.264v.537h-.132v-1.024h.128v.19a.407.407 0 0 1 .152-.15.386.386 0 0 1 .204-.048.341.341 0 0 1 .207.051.37.37 0 0 1 .141.167.43.43 0 0 1 .17-.17.4.4 0 0 1 .23-.048.358.358 0 0 1 .287.128.396.396 0 0 1 .093.313ZM145.012 74.54h-.8a.396.396 0 0 0 .127.268.364.364 0 0 0 .273.089.387.387 0 0 0 .3-.135l.072.093a.458.458 0 0 1-.376.168.465.465 0 0 1-.367-.144.513.513 0 0 1-.145-.38c0-.133.05-.26.139-.354a.464.464 0 0 1 .673 0c.09.094.14.22.14.353 0 0-.036.03-.036.042Zm-.8-.1h.692a.37.37 0 0 0-.114-.233.336.336 0 0 0-.465 0 .37.37 0 0 0-.113.233ZM145.796 74.947a.296.296 0 0 1-.204.076.246.246 0 0 1-.114-.013.26.26 0 0 1-.16-.165.285.285 0 0 1-.014-.12v-.62h-.172v-.118h.172v-.223h.132v.223h.296v.117h-.296v.609a.166.166 0 0 0 .099.175.152.152 0 0 0 .069.01.21.21 0 0 0 .144-.051l.048.1ZM146.168 74.914a.315.315 0 0 1-.028.113l-.076.268h-.092l.064-.28a.102.102 0 0 1-.051-.039.105.105 0 0 1-.017-.062c0-.028.01-.055.029-.075a.098.098 0 0 1 .071-.03.094.094 0 0 1 .093.064.095.095 0 0 1 .007.04ZM146.832 74.498a.524.524 0 0 1 .143-.376.476.476 0 0 1 .361-.144.42.42 0 0 1 .227.045c.07.036.13.092.173.16l-.1.068a.34.34 0 0 0-.124-.114.315.315 0 0 0-.16-.037.4.4 0 0 0-.199.152.43.43 0 0 0-.076.246.43.43 0 0 0 .076.246.4.4 0 0 0 .199.153c.055.002.11-.01.16-.035a.333.333 0 0 0 .124-.112l.1.067a.447.447 0 0 1-.173.16.421.421 0 0 1-.227.046.461.461 0 0 1-.361-.147.527.527 0 0 1-.143-.378ZM147.86 74.498a.538.538 0 0 1 .085-.287.5.5 0 0 1 .223-.19.475.475 0 0 1 .539.114.547.547 0 0 1 .108.565.516.516 0 0 1-.181.233.479.479 0 0 1-.274.09.465.465 0 0 1-.359-.149.52.52 0 0 1-.141-.376Zm.86 0a.384.384 0 0 0-.212-.388.338.338 0 0 0-.148-.031.4.4 0 0 0-.199.152.43.43 0 0 0-.076.246c0 .089.026.175.076.246a.4.4 0 0 0 .199.153.342.342 0 0 0 .256-.11.386.386 0 0 0 .104-.268ZM150.02 74.419v.591h-.132v-.579a.305.305 0 0 0-.009-.127.274.274 0 0 0-.162-.182.264.264 0 0 0-.121-.018.307.307 0 0 0-.255.1.342.342 0 0 0-.089.27v.536h-.132v-1.023h.128v.189a.388.388 0 0 1 .372-.197.373.373 0 0 1 .299.121.394.394 0 0 1 .084.147.398.398 0 0 1 .017.172ZM150.24 74.893l.06-.11c.1.08.223.12.348.118.184 0 .26-.067.26-.168 0-.268-.632-.059-.632-.461 0-.168.136-.294.4-.294a.65.65 0 0 1 .348.097l-.06.113a.48.48 0 0 0-.288-.088c-.176 0-.252.071-.252.168 0 .276.632.067.632.461 0 .176-.148.294-.4.294a.612.612 0 0 1-.416-.13ZM152.132 74.54h-.8a.396.396 0 0 0 .127.268.35.35 0 0 0 .273.089.4.4 0 0 0 .3-.134l.072.092a.458.458 0 0 1-.376.168.465.465 0 0 1-.367-.144.51.51 0 0 1-.145-.38.512.512 0 0 1 .131-.369.467.467 0 0 1 .79.17.514.514 0 0 1 .027.198l-.032.042Zm-.8-.1H152a.37.37 0 0 0-.114-.233.338.338 0 0 0-.465 0 .37.37 0 0 0-.113.233h.024ZM152.304 74.498a.524.524 0 0 1 .143-.376.476.476 0 0 1 .361-.144.409.409 0 0 1 .228.043c.07.037.13.093.172.162l-.096.068a.33.33 0 0 0-.284-.151.4.4 0 0 0-.199.152.43.43 0 0 0-.076.246c0 .088.026.175.076.246a.4.4 0 0 0 .199.153.337.337 0 0 0 .284-.147l.096.067a.436.436 0 0 1-.172.162.408.408 0 0 1-.228.043.461.461 0 0 1-.361-.146.527.527 0 0 1-.143-.378ZM153.972 74.947a.302.302 0 0 1-.208.076.247.247 0 0 1-.211-.077.279.279 0 0 1-.061-.102c-.012-.038-.017-.079-.012-.119v-.62h-.176v-.118h.176v-.223h.12v.223h.296v.117h-.296v.609a.165.165 0 0 0 .099.175.152.152 0 0 0 .069.01.218.218 0 0 0 .144-.051l.06.1ZM155.024 74.54h-.8a.396.396 0 0 0 .127.268.364.364 0 0 0 .273.089.397.397 0 0 0 .3-.134l.072.092a.458.458 0 0 1-.376.168.465.465 0 0 1-.367-.144.513.513 0 0 1-.145-.38c0-.133.05-.26.139-.354a.464.464 0 0 1 .673 0c.09.094.14.22.14.353 0 0-.036.03-.036.042Zm-.8-.1h.692a.37.37 0 0 0-.114-.233.338.338 0 0 0-.465 0 .37.37 0 0 0-.113.233ZM155.808 74.947a.302.302 0 0 1-.208.076.25.25 0 0 1-.209-.079.277.277 0 0 1-.075-.219v-.62h-.176v-.118h.176v-.223h.132v.223h.296v.117h-.296v.609a.176.176 0 0 0 .006.072.153.153 0 0 0 .036.062.15.15 0 0 0 .126.05.21.21 0 0 0 .144-.05l.048.1ZM156.924 73.987v1.023h-.124v-.184a.406.406 0 0 1-.151.148.385.385 0 0 1-.201.049.389.389 0 0 1-.29-.13.418.418 0 0 1-.11-.31v-.596h.132v.579c0 .218.108.33.292.33a.303.303 0 0 0 .25-.104.34.34 0 0 0 .082-.269v-.536h.12ZM158.144 74.54h-.8a.388.388 0 0 0 .126.27.359.359 0 0 0 .274.087.372.372 0 0 0 .296-.134l.076.092a.51.51 0 0 1-.26.153.492.492 0 0 1-.297-.022.52.52 0 0 1-.236-.192.554.554 0 0 1-.095-.296.497.497 0 0 1 .287-.482.451.451 0 0 1 .189-.038.448.448 0 0 1 .345.151.514.514 0 0 1 .127.37l-.032.041Zm-.8-.1h.692a.37.37 0 0 0-.114-.233.338.338 0 0 0-.465 0 .37.37 0 0 0-.113.233ZM158.904 73.978v.135h-.032a.302.302 0 0 0-.136.024.323.323 0 0 0-.181.209.335.335 0 0 0-.011.144v.52h-.144v-1.023h.128v.201a.379.379 0 0 1 .156-.168.352.352 0 0 1 .22-.042ZM116.144 76.71v.633h-.124v-.16a.382.382 0 0 1-.146.134.358.358 0 0 1-.19.038c-.22 0-.356-.121-.356-.298 0-.176.096-.289.376-.289H116v-.063c0-.176-.092-.273-.276-.273a.476.476 0 0 0-.324.122l-.06-.105a.605.605 0 0 1 .4-.138.339.339 0 0 1 .298.092.375.375 0 0 1 .088.14c.018.053.024.11.018.166Zm-.132.327v-.168h-.304c-.188 0-.252.08-.252.184 0 .105.092.193.248.193a.3.3 0 0 0 .179-.056.326.326 0 0 0 .117-.153h.012ZM117.396 75.9v1.442h-.124v-.2a.445.445 0 0 1-.162.16.413.413 0 0 1-.218.053.491.491 0 0 1-.324-.168.535.535 0 0 1-.131-.354c0-.131.046-.257.131-.354a.491.491 0 0 1 .324-.168.407.407 0 0 1 .212.05c.065.037.12.09.16.155V75.9h.132Zm-.128.93a.391.391 0 0 0-.069-.207.37.37 0 0 0-.166-.133.35.35 0 0 0-.392.093.393.393 0 0 0 .062.583.356.356 0 0 0 .345.035.354.354 0 0 0 .199-.218.395.395 0 0 0 .021-.152ZM117.732 75.996a.102.102 0 0 1 .029-.068.095.095 0 0 1 .067-.028.094.094 0 0 1 .091.058.124.124 0 0 1 .009.038.108.108 0 0 1-.035.06.097.097 0 0 1-.126 0 .103.103 0 0 1-.035-.06Zm.032.323h.132v1.024h-.132v-1.024ZM119.252 76.83a.499.499 0 0 1-.297.488.453.453 0 0 1-.191.037.41.41 0 0 1-.212-.052.438.438 0 0 1-.16-.153v.57h-.132V76.32h.14v.206a.434.434 0 0 1 .16-.16.459.459 0 0 1 .56.1.516.516 0 0 1 .132.366Zm-.132 0a.393.393 0 0 0-.107-.27.355.355 0 0 0-.515 0 .392.392 0 0 0-.106.27c0 .102.038.2.106.27a.355.355 0 0 0 .515 0 .393.393 0 0 0 .107-.27ZM119.488 75.996a.102.102 0 0 1 .029-.068.095.095 0 0 1 .067-.028.092.092 0 0 1 .068.027c.008.008.016.02.02.031a.099.099 0 0 1 .001.077.103.103 0 0 1-.052.054.094.094 0 0 1-.126-.054.102.102 0 0 1-.007-.039Zm.032.323h.132v1.024h-.132v-1.024ZM119.88 77.23l.06-.11a.566.566 0 0 0 .348.118c.184 0 .26-.067.26-.168 0-.269-.632-.059-.632-.462 0-.167.136-.293.4-.293a.643.643 0 0 1 .344.096l-.056.114a.487.487 0 0 0-.288-.089c-.176 0-.256.072-.256.168 0 .277.632.067.632.462 0 .176-.148.293-.4.293a.615.615 0 0 1-.412-.13ZM120.824 76.83a.524.524 0 0 1 .143-.376.476.476 0 0 1 .361-.143.421.421 0 0 1 .227.045c.07.036.13.091.173.16l-.1.067a.33.33 0 0 0-.284-.151.4.4 0 0 0-.199.153.43.43 0 0 0-.076.246.43.43 0 0 0 .076.246.4.4 0 0 0 .199.152.338.338 0 0 0 .284-.147l.1.068a.447.447 0 0 1-.173.16.421.421 0 0 1-.227.045.461.461 0 0 1-.361-.147.527.527 0 0 1-.143-.377ZM121.936 75.996a.107.107 0 0 1 .029-.068.095.095 0 0 1 .067-.028.092.092 0 0 1 .089.059.121.121 0 0 1 .007.037.125.125 0 0 1-.007.039.103.103 0 0 1-.052.054.094.094 0 0 1-.126-.054.102.102 0 0 1-.007-.039Zm.032.323h.132v1.024h-.132v-1.024ZM123.364 76.75v.592h-.132v-.579a.288.288 0 0 0-.07-.238.278.278 0 0 0-.102-.07.256.256 0 0 0-.12-.019.305.305 0 0 0-.138.02.322.322 0 0 0-.19.204.34.34 0 0 0-.016.145v.537h-.132V76.32h.128v.189a.388.388 0 0 1 .372-.197.373.373 0 0 1 .299.121.414.414 0 0 1 .101.32ZM124.628 76.319v.91a.45.45 0 0 1-.29.495.408.408 0 0 1-.198.017.667.667 0 0 1-.456-.16l.068-.104a.554.554 0 0 0 .4.138c.248 0 .36-.117.36-.369v-.13a.456.456 0 0 1-.166.15.42.42 0 0 1-.214.047.452.452 0 0 1-.365-.128.516.516 0 0 1 0-.738.471.471 0 0 1 .365-.128.42.42 0 0 1 .227.045c.07.036.13.092.173.16v-.197l.096-.008Zm-.128.487a.411.411 0 0 0-.057-.22.38.38 0 0 0-.164-.15.358.358 0 0 0-.41.077.409.409 0 0 0-.086.427.392.392 0 0 0 .137.177.36.36 0 0 0 .208.066.346.346 0 0 0 .346-.225.394.394 0 0 0 .026-.148v-.004ZM126.332 76.877h-.8a.382.382 0 0 0 .126.268.357.357 0 0 0 .274.084.372.372 0 0 0 .296-.134l.076.092a.494.494 0 0 1-.557.13.52.52 0 0 1-.236-.19.554.554 0 0 1-.095-.296.497.497 0 0 1 .288-.483.445.445 0 0 1 .188-.037.45.45 0 0 1 .345.15.485.485 0 0 1 .127.37l-.032.046Zm-.8-.105h.692a.37.37 0 0 0-.114-.232.336.336 0 0 0-.465 0 .37.37 0 0 0-.113.232ZM126.6 75.9h.132v1.443h-.132v-1.444ZM127.068 75.996a.107.107 0 0 1 .029-.068.095.095 0 0 1 .067-.028.091.091 0 0 1 .069.026.1.1 0 0 1 .022.032.124.124 0 0 1 .009.038.108.108 0 0 1-.035.06.097.097 0 0 1-.126 0 .108.108 0 0 1-.035-.06Zm.032.323h.132v1.024h-.132v-1.024ZM128.112 77.28a.297.297 0 0 1-.204.075.26.26 0 0 1-.274-.178.285.285 0 0 1-.014-.12v-.62h-.176v-.118h.176v-.222h.132v.222h.296v.117h-.296v.613a.176.176 0 0 0 .006.072.153.153 0 0 0 .036.063.152.152 0 0 0 .126.05.21.21 0 0 0 .144-.05l.048.096ZM128.48 77.23c0 .038-.009.077-.024.113l-.08.268h-.088l.064-.28a.102.102 0 0 1-.051-.04.105.105 0 0 1-.017-.062c0-.027.01-.054.029-.074a.098.098 0 0 1 .071-.03.093.093 0 0 1 .069.03.11.11 0 0 1 .021.035.133.133 0 0 1 .006.04ZM129.112 77.23l.06-.11c.1.079.223.12.348.118.184 0 .26-.067.26-.168 0-.269-.632-.059-.632-.462 0-.167.136-.293.4-.293a.65.65 0 0 1 .348.096l-.06.114a.48.48 0 0 0-.288-.089c-.176 0-.252.072-.252.168 0 .277.632.067.632.462 0 .176-.148.293-.4.293a.61.61 0 0 1-.416-.13ZM131.004 76.877h-.8c.003.05.016.1.039.146a.366.366 0 0 0 .361.206.4.4 0 0 0 .3-.134l.072.092a.494.494 0 0 1-.557.13.52.52 0 0 1-.236-.19.554.554 0 0 1-.095-.296.497.497 0 0 1 .287-.483.453.453 0 0 1 .189-.037.45.45 0 0 1 .345.15.514.514 0 0 1 .127.37l-.032.046Zm-.8-.105h.692a.37.37 0 0 0-.114-.232.338.338 0 0 0-.465 0 .37.37 0 0 0-.113.232ZM132.164 75.9v1.442h-.128v-.2a.41.41 0 0 1-.159.163.382.382 0 0 1-.217.05.494.494 0 0 1-.325-.168.54.54 0 0 1 0-.708.493.493 0 0 1 .325-.168.41.41 0 0 1 .212.05c.065.037.12.09.16.155V75.9h.132Zm-.128.93a.391.391 0 0 0-.069-.207.368.368 0 0 0-.167-.133.349.349 0 0 0-.391.093.393.393 0 0 0 .062.583c.06.041.129.063.201.063a.341.341 0 0 0 .144-.028.363.363 0 0 0 .199-.218.395.395 0 0 0 .021-.152ZM133.908 75.9v1.442h-.128v-.2a.429.429 0 0 1-.376.213.491.491 0 0 1-.324-.168.535.535 0 0 1-.131-.354c0-.131.046-.257.131-.354a.491.491 0 0 1 .324-.168.414.414 0 0 1 .212.051c.065.036.12.09.16.154V75.9h.132Zm-.132.93a.393.393 0 0 0-.069-.207.371.371 0 0 0-.167-.133.35.35 0 0 0-.392.095.387.387 0 0 0-.094.197.389.389 0 0 0 .16.386c.06.04.13.062.202.061a.34.34 0 0 0 .263-.116.38.38 0 0 0 .097-.282ZM134.244 75.996a.1.1 0 0 1 .059-.093.094.094 0 0 1 .105.021.108.108 0 0 1 .021.11.104.104 0 0 1-.036.045.092.092 0 0 1-.053.017.09.09 0 0 1-.069-.028.105.105 0 0 1-.021-.033.088.088 0 0 1-.006-.04Zm.028.323h.128v1.023h-.132l.004-1.023ZM135.508 76.71v.633h-.128v-.16a.37.37 0 0 1-.145.136.349.349 0 0 1-.191.036c-.22 0-.356-.121-.356-.297 0-.177.096-.29.376-.29h.312v-.063a.27.27 0 0 0-.075-.207.23.23 0 0 0-.201-.066.47.47 0 0 0-.324.122l-.06-.105a.592.592 0 0 1 .4-.138.334.334 0 0 1 .288.1.376.376 0 0 1 .104.298Zm-.132.327v-.168h-.308c-.188 0-.248.08-.248.184 0 .105.092.193.244.193a.302.302 0 0 0 .189-.05.327.327 0 0 0 .123-.16ZM137.476 76.751v.591h-.132v-.578c0-.214-.104-.328-.28-.328a.304.304 0 0 0-.245.105.34.34 0 0 0-.083.264v.537h-.132v-.578c0-.214-.104-.328-.28-.328a.304.304 0 0 0-.245.105.34.34 0 0 0-.083.264v.537h-.132V76.32H136v.189a.402.402 0 0 1 .356-.197.339.339 0 0 1 .207.05.369.369 0 0 1 .141.168.43.43 0 0 1 .17-.17.4.4 0 0 1 .23-.048.366.366 0 0 1 .281.131.392.392 0 0 1 .091.309ZM138.604 76.39l-.66.269.66.264v.163l-.832-.343v-.168l.832-.344v.16ZM139.288 75.706h.16l-.612 1.834h-.16l.612-1.834ZM140.692 75.97v1.36h-.188v-.604h-.744v.604h-.188v-1.36h.188v.584h.744v-.583h.188ZM141.376 75.97v1.36h-.176v-1.192h-.292v-.167h.468ZM142.524 76.58v.167l-.832.344v-.164l.664-.264-.664-.269v-.159l.832.344ZM116.18 81.064l-.656.264.656.269v.159l-.832-.344v-.168l.832-.344v.164ZM117.548 81.122c0 .294-.204.475-.544.475h-.32v.419h-.184v-1.36h.504c.34-.008.544.169.544.466Zm-.188 0c0-.192-.124-.306-.36-.306h-.316v.608H117c.236 0 .36-.109.36-.302ZM118.596 81.244v.168l-.828.344v-.16l.66-.268-.66-.264V80.9l.828.344ZM120.176 81.064l-.66.264.66.269v.159l-.832-.344v-.168l.832-.344v.164ZM120.492 80.648h.188v1.36h-.188v-1.36ZM122.272 82.008v-1.003l-.472.839h-.084l-.472-.839v.986h-.176v-1.36h.152l.54.957.536-.956h.152v1.359l-.176.017ZM123.736 81.32h.18v.524a.745.745 0 0 1-.492.172.642.642 0 0 1-.307-.095.717.717 0 0 1-.27-.884.693.693 0 0 1 .197-.265.639.639 0 0 1 .884.061l-.116.121a.493.493 0 0 0-.376-.16.489.489 0 0 0-.354.155.54.54 0 0 0 0 .741.519.519 0 0 0 .658.066l-.004-.436ZM124.648 81.844l.068-.151c.12.104.272.16.428.16.228 0 .324-.093.324-.21 0-.336-.8-.127-.8-.63 0-.21.156-.39.496-.39a.736.736 0 0 1 .42.122l-.064.155a.65.65 0 0 0-.356-.113c-.22 0-.316.1-.316.218 0 .331.8.126.8.625 0 .205-.16.386-.504.386a.753.753 0 0 1-.496-.172ZM126.8 82.007l-.28-.42h-.4v.42h-.184v-1.359h.504c.34 0 .544.176.544.474a.432.432 0 0 1-.075.262.399.399 0 0 1-.213.158l.308.457-.204.008Zm0-.885c0-.193-.124-.306-.36-.306h-.316v.608h.316c.216 0 .36-.109.36-.302ZM127.16 81.328a.707.707 0 0 1 .2-.504.629.629 0 0 1 .488-.192.62.62 0 0 1 .496.214l-.124.121a.454.454 0 0 0-.364-.164.489.489 0 0 0-.354.154.54.54 0 0 0 0 .742.49.49 0 0 0 .718-.01l.124.122a.64.64 0 0 1-.496.213.627.627 0 0 1-.488-.192.705.705 0 0 1-.2-.504ZM128.536 81.005h.832v.151h-.832v-.15Zm0 .462h.832v.15h-.832v-.15ZM130.104 80.648h.156v.525h-.132l-.024-.525Zm.336 0h.156v.525h-.132l-.024-.525ZM130.908 80.648h.184v1.196h.704v.168h-.888v-1.364ZM131.88 81.491a.555.555 0 0 1 .082-.3.52.52 0 0 1 .228-.202.493.493 0 0 1 .561.111.56.56 0 0 1 .115.586.54.54 0 0 1-.189.243.495.495 0 0 1-.285.09.465.465 0 0 1-.367-.146.516.516 0 0 1-.145-.382Zm.84 0a.371.371 0 0 0-.083-.27.329.329 0 0 0-.247-.116.321.321 0 0 0-.248.116.349.349 0 0 0-.068.126.353.353 0 0 0-.014.144.353.353 0 0 0 .014.145.348.348 0 0 0 .18.211.321.321 0 0 0 .383-.085.35.35 0 0 0 .083-.27ZM133.676 80.967v.18h-.04a.293.293 0 0 0-.234.097.319.319 0 0 0-.078.251v.512h-.176V80.98h.168v.172a.406.406 0 0 1 .156-.143.386.386 0 0 1 .204-.041ZM134.772 81.555h-.8c.011.088.054.169.12.225a.323.323 0 0 0 .236.077.35.35 0 0 0 .284-.122l.1.117a.52.52 0 0 1-.571.13.542.542 0 0 1-.243-.191.58.58 0 0 1-.106-.3.536.536 0 0 1 .14-.374.48.48 0 0 1 .356-.15.453.453 0 0 1 .355.154.523.523 0 0 1 .129.38v.054Zm-.8-.135h.632a.345.345 0 0 0-.108-.202.313.313 0 0 0-.208-.08.313.313 0 0 0-.208.08.34.34 0 0 0-.108.202ZM136.652 81.424v.592h-.176v-.592c0-.2-.096-.302-.256-.302s-.296.118-.296.344v.53h-.176v-.572c0-.2-.092-.302-.256-.302a.278.278 0 0 0-.225.1.304.304 0 0 0-.061.114.304.304 0 0 0-.01.13v.53h-.176v-1.029h.18v.151a.398.398 0 0 1 .336-.163.351.351 0 0 1 .199.044.372.372 0 0 1 .145.149.44.44 0 0 1 .376-.193.387.387 0 0 1 .299.141.435.435 0 0 1 .097.328ZM137.444 80.66c0-.016.003-.033.009-.048a.151.151 0 0 1 .027-.042.128.128 0 0 1 .041-.027.115.115 0 0 1 .047-.008c.031 0 .06.013.082.036a.124.124 0 0 1 .034.086.124.124 0 0 1-.034.086.113.113 0 0 1-.082.035.11.11 0 0 1-.086-.03.124.124 0 0 1-.028-.04.127.127 0 0 1-.01-.047Zm.032.32h.18v1.027h-.18V80.98ZM139.012 81.492a.51.51 0 0 1-.301.494.457.457 0 0 1-.195.034.401.401 0 0 1-.344-.168v.533H138V80.98h.168v.164a.399.399 0 0 1 .352-.177.46.46 0 0 1 .356.15.518.518 0 0 1 .136.376Zm-.18 0a.353.353 0 0 0-.216-.31.317.317 0 0 0-.356.086.348.348 0 0 0-.086.179.355.355 0 0 0 .143.352.322.322 0 0 0 .183.058.31.31 0 0 0 .243-.105.344.344 0 0 0 .089-.26ZM139.136 81.898l.072-.146a.602.602 0 0 0 .344.109c.168 0 .236-.055.236-.143 0-.23-.624-.03-.624-.42 0-.184.16-.31.4-.31a.673.673 0 0 1 .356.097l-.072.146a.489.489 0 0 0-.284-.084c-.156 0-.232.063-.232.143 0 .243.62.046.62.445 0 .189-.16.306-.424.306a.651.651 0 0 1-.392-.143ZM141.104 80.98v1.028h-.168v-.164a.386.386 0 0 1-.336.168.392.392 0 0 1-.309-.123.428.428 0 0 1-.115-.326v-.592h.18v.571c0 .201.096.302.264.302a.272.272 0 0 0 .23-.093.307.307 0 0 0 .074-.247v-.533l.18.009ZM143.076 81.425v.591h-.18v-.591c0-.202-.092-.302-.252-.302s-.296.117-.296.344v.528h-.18v-.57c0-.202-.092-.302-.252-.302s-.296.117-.296.344v.528h-.176v-1.028h.156v.151a.398.398 0 0 1 .34-.163.349.349 0 0 1 .197.044c.06.035.11.086.143.149a.453.453 0 0 1 .167-.147.428.428 0 0 1 .213-.046.385.385 0 0 1 .312.133.44.44 0 0 1 .104.336ZM143.348 80.648h.156v.525h-.132l-.024-.525Zm.336 0h.156v.525h-.132l-.024-.525ZM144.912 81.244v.168l-.832.344v-.16l.66-.268-.66-.264V80.9l.832.344ZM146 81.064l-.66.264.66.268v.16l-.84-.332v-.167l.832-.344.008.15ZM146.676 80.372h.16l-.612 1.833h-.16l.612-1.833ZM148 81.122c0 .294-.204.475-.544.475h-.32v.419h-.188v-1.36h.508c.352-.008.544.169.544.466Zm-.188 0c0-.192-.124-.306-.36-.306h-.316v.608h.316c.248 0 .372-.109.372-.302h-.012ZM149.06 81.244v.168l-.832.344v-.16l.664-.268-.664-.264V80.9l.832.344ZM116.18 85.729l-.656.264.656.268v.16l-.832-.344v-.168l.832-.344v.164ZM116.864 85.037h.164l-.628 1.841h-.16l.624-1.841ZM118.268 86.308c0 .234-.168.369-.496.369h-.62v-1.364h.58c.3 0 .468.13.468.353a.317.317 0 0 1-.176.302.317.317 0 0 1 .181.123.345.345 0 0 1 .063.217Zm-.932-.84v.42h.4c.192 0 .3-.071.3-.218 0-.147-.108-.218-.3-.218l-.4.016Zm.744.84c0-.156-.112-.227-.316-.227h-.428v.453h.428c.204-.017.316-.076.316-.243v.017ZM118.448 85.993a.746.746 0 0 1 .103-.411.7.7 0 0 1 .304-.28.664.664 0 0 1 .763.138c.1.1.169.23.198.37a.755.755 0 0 1-.035.424.72.72 0 0 1-.254.33.668.668 0 0 1-.387.125.651.651 0 0 1-.489-.192.713.713 0 0 1-.203-.504Zm1.2 0a.545.545 0 0 0-.083-.295.51.51 0 0 0-.225-.196.484.484 0 0 0-.551.112.55.55 0 0 0-.111.576c.038.097.102.18.185.238.083.058.181.09.281.09a.467.467 0 0 0 .357-.15.52.52 0 0 0 .143-.375h.004ZM120.112 85.313h.548a.623.623 0 0 1 .494.18.713.713 0 0 1 0 1.004.647.647 0 0 1-.494.18h-.548v-1.364Zm.536 1.192a.478.478 0 0 0 .345-.15.523.523 0 0 0 .143-.362.523.523 0 0 0-.143-.362.478.478 0 0 0-.345-.15h-.352v1.024h.352ZM122.084 86.203v.474h-.184v-.479l-.516-.885h.2l.4.718.4-.718h.184l-.484.89ZM123.548 85.909v.168l-.832.344v-.16l.66-.268-.66-.264v-.164l.832.344Z" fill="#000"/><path d="M166.084 49.273c0 .063-12.836.11-28.668.11-15.832 0-28.672-.047-28.672-.11s12.832-.109 28.672-.109 28.668.05 28.668.11ZM110.46 47.125a.403.403 0 0 1-.062.215.376.376 0 0 1-.165.142.355.355 0 0 1-.401-.084.404.404 0 0 1-.08-.42.386.386 0 0 1 .135-.174.358.358 0 0 1 .205-.065c.097.001.19.042.259.114.069.073.108.17.109.272ZM111.508 47.511a.377.377 0 0 0 .368-.386.377.377 0 0 0-.368-.386.377.377 0 0 0-.368.386c0 .213.165.386.368.386ZM113.296 47.125a.407.407 0 0 1-.061.218.38.38 0 0 1-.167.146.355.355 0 0 1-.407-.084.407.407 0 0 1-.08-.427.387.387 0 0 1 .139-.175.357.357 0 0 1 .467.05c.069.073.108.17.109.272Z" fill="#263238"/><path d="M112.4 94.756c-.056 0-.104-10.206-.104-22.792 0-12.585.048-22.796.104-22.796.056 0 .104 10.203.104 22.796 0 12.594-.064 22.792-.104 22.792Z" fill="#E0E0E0"/><path d="M55.784 4.981h-23.7v17.72h23.7V4.981Z" fill="#F14953"/><path d="M55.972 7.611c0 .059-5.352.11-11.948.11s-11.952-.051-11.952-.11c0-.058 5.352-.109 11.952-.109s11.948.046 11.948.11ZM34.02 6.332a.354.354 0 0 1-.032.2.333.333 0 0 1-.136.145.311.311 0 0 1-.366-.043.355.355 0 0 1-.09-.376.338.338 0 0 1 .119-.16.313.313 0 0 1 .185-.06.287.287 0 0 1 .218.077.311.311 0 0 1 .102.217ZM35.2 6.332a.323.323 0 0 1-.1.216.293.293 0 0 1-.216.078.277.277 0 0 1-.149-.066.312.312 0 0 1-.008-.453.272.272 0 0 1 .306-.048c.05.023.093.062.122.11a.31.31 0 0 1 .045.163ZM36.024 6.609c.177 0 .32-.132.32-.294 0-.162-.143-.294-.32-.294-.177 0-.32.132-.32.294 0 .162.143.294.32.294ZM40.848 14.676c0 1.066-.732 1.707-1.944 1.707h-1.28v1.578h-.504v-4.997h1.784c1.212 0 1.944.642 1.944 1.712Zm-.5 0c0-.797-.504-1.259-1.46-1.259h-1.264v2.497h1.264c.956.004 1.46-.454 1.46-1.238ZM45.916 12.964v4.997h-.496v-2.308h-2.98v2.308h-.504v-4.997h.504v2.228h2.98v-2.228h.496ZM51.2 14.676c0 1.066-.732 1.707-1.944 1.707h-1.28v1.578h-.504v-4.997h1.784c1.208 0 1.944.642 1.944 1.712Zm-.504 0c0-.797-.504-1.259-1.456-1.259h-1.264v2.497h1.264c.948.004 1.452-.454 1.452-1.238h.004Z" fill="#fff"/><path d="M182.38 72.74h-21.424v16.018h21.424V72.74Z" fill="#F14953"/><path d="M168.18 80.166v3.18h-.7v-1.3h-1.376v1.3h-.704v-3.18h.704v1.259h1.376v-1.259h.7ZM169.528 80.778h-.972v-.612h2.644v.6h-.972v2.58h-.7v-2.568ZM175.252 80.166h.704v2.58h1.52v.6h-2.224v-3.18ZM174.224 83.359v-1.905l-.892 1.569h-.316l-.888-1.531v1.867h-.66v-3.193h.58l1.136 1.976 1.116-1.976h.576v3.18l-.652.013ZM182.548 75.132c0 .037-4.836.07-10.8.07s-10.8-.033-10.8-.07c0-.038 4.836-.072 10.8-.072s10.8.021 10.8.072ZM162.704 73.949a.317.317 0 0 1-.099.183.285.285 0 0 1-.189.073.285.285 0 0 1-.189-.073.306.306 0 0 1-.099-.183.307.307 0 0 1 .099-.183.286.286 0 0 1 .189-.073c.069 0 .136.026.189.073a.317.317 0 0 1 .099.183ZM163.756 73.949a.311.311 0 0 1-.099.183.285.285 0 0 1-.189.073.285.285 0 0 1-.189-.073.311.311 0 0 1-.099-.183.312.312 0 0 1 .099-.183.286.286 0 0 1 .189-.073c.069 0 .136.026.189.073a.312.312 0 0 1 .099.183ZM164.8 73.949a.32.32 0 0 1-.029.18.297.297 0 0 1-.122.131.28.28 0 0 1-.331-.039.319.319 0 0 1-.08-.339.304.304 0 0 1 .107-.144.283.283 0 0 1 .167-.053.265.265 0 0 1 .196.07.29.29 0 0 1 .092.194Z" fill="#fff"/><path d="M36.508 72.514H20.712v11.81h15.796v-11.81Z" fill="#F14953"/><path d="M36.628 74.263c0 .03-3.564.055-7.96.055s-7.964-.025-7.964-.055c0-.029 3.564-.05 7.964-.05s7.96.021 7.96.05ZM22 73.403a.214.214 0 0 1-.069.142.194.194 0 0 1-.143.051.188.188 0 0 1-.145-.05.204.204 0 0 1-.067-.143.217.217 0 0 1 .067-.144.197.197 0 0 1 .145-.053.192.192 0 0 1 .145.053.208.208 0 0 1 .067.144ZM22.776 73.403a.23.23 0 0 1-.072.14.21.21 0 0 1-.284 0 .23.23 0 0 1-.072-.14.23.23 0 0 1 .072-.14.21.21 0 0 1 .284 0 .23.23 0 0 1 .072.14ZM23.552 73.403a.236.236 0 0 1-.022.133.221.221 0 0 1-.09.096.207.207 0 0 1-.244-.028.237.237 0 0 1-.06-.25.225.225 0 0 1 .078-.107.21.21 0 0 1 .122-.04.198.198 0 0 1 .146.051c.04.037.066.09.07.145Z" fill="#fff"/><path d="M114.82 27.01c-.006-.422.069-.84.222-1.23s.38-.742.667-1.037a2.946 2.946 0 0 1 1.003-.677 2.832 2.832 0 0 1 1.176-.207 2.71 2.71 0 0 1 1.137.19c.363.144.693.365.971.65l-.272.293a2.466 2.466 0 0 0-.836-.563 2.37 2.37 0 0 0-.98-.171 2.492 2.492 0 0 0-1.04.162 2.581 2.581 0 0 0-.894.58 2.739 2.739 0 0 0-.602.904 2.846 2.846 0 0 0 0 2.16c.14.341.345.65.602.904.257.256.561.453.894.58.332.129.686.184 1.04.163.335.011.669-.05.981-.178.312-.128.596-.322.835-.569l.272.294a2.83 2.83 0 0 1-.968.665 2.72 2.72 0 0 1-1.14.204 2.836 2.836 0 0 1-1.17-.203 2.952 2.952 0 0 1-.999-.669 3.113 3.113 0 0 1-.669-1.026 3.23 3.23 0 0 1-.23-1.22ZM120.8 29.313l.192-.336c.532.511 1.23.79 1.952.78 1.2 0 1.708-.54 1.708-1.216 0-1.863-3.692-.743-3.692-3.03 0-.88.64-1.652 2.096-1.652a3.052 3.052 0 0 1 1.784.562l-.16.36a2.852 2.852 0 0 0-1.624-.52c-1.152 0-1.664.559-1.664 1.26 0 1.862 3.692.763 3.692 3.016 0 .876-.668 1.64-2.132 1.64a2.954 2.954 0 0 1-2.152-.864ZM125.952 29.313l.196-.336c.532.512 1.23.792 1.952.78 1.2 0 1.708-.54 1.708-1.216 0-1.863-3.692-.743-3.692-3.029 0-.88.64-1.653 2.096-1.653a3.072 3.072 0 0 1 1.784.562l-.16.361a2.852 2.852 0 0 0-1.624-.52c-1.152 0-1.668.558-1.668 1.258 0 1.863 3.696.764 3.696 3.017 0 .877-.668 1.64-2.132 1.64a2.97 2.97 0 0 1-2.156-.864Z" fill="#F14953"/><path d="M135.276 35.077V33.8c0-.839 0-2.043-.024-3.59 0-3.1-.024-7.552-.04-13.005l.08.088H108.94l.104-.11V35.04l-.096-.1 18.96.05 5.436.025H135.172 133.376l-5.416.025-19.024.05h-.096V17.114h.108l26.352.024h.084v.101c0 5.454-.032 9.93-.044 13.043 0 1.54 0 2.743-.02 3.574v.927c0 .218-.044.294-.044.294Z" fill="#F14953"/><path d="M135.276 19.874c0 .059-5.904.109-13.2.109-7.296 0-13.2-.05-13.2-.11 0-.058 5.924-.117 13.216-.117 7.292 0 13.184.055 13.184.118ZM110.868 18.569a.353.353 0 0 1-.032.2.334.334 0 0 1-.135.145.313.313 0 0 1-.367-.043.35.35 0 0 1 .029-.535.313.313 0 0 1 .185-.06.285.285 0 0 1 .218.076.317.317 0 0 1 .102.217ZM112.04 18.569a.353.353 0 0 1-.032.2.334.334 0 0 1-.135.145.313.313 0 0 1-.367-.043.35.35 0 0 1 .029-.535.313.313 0 0 1 .185-.06.285.285 0 0 1 .218.076.317.317 0 0 1 .102.217ZM113.2 18.569a.353.353 0 0 1-.032.2.334.334 0 0 1-.135.145.313.313 0 0 1-.367-.043.35.35 0 0 1 .029-.535.313.313 0 0 1 .185-.06.285.285 0 0 1 .218.076.317.317 0 0 1 .102.217Z" fill="#F14953"/><path d="M59.152 96.107 69.6 133.08a3.88 3.88 0 0 0 1.33 2.002c.636.5 1.41.77 2.206.771l42.4.122a3.776 3.776 0 0 0 1.552-.332c.49-.219.932-.542 1.3-.947.368-.405.653-.885.838-1.409a4.295 4.295 0 0 0 .238-1.642 4.199 4.199 0 0 0-1.219-2.764 3.829 3.829 0 0 0-2.697-1.129H99.336L86.352 89.815H63.624c-.727 0-1.444.177-2.094.519a4.725 4.725 0 0 0-1.649 1.449 5.015 5.015 0 0 0-.853 2.072 5.12 5.12 0 0 0 .124 2.252Z" fill="#455A64"/><path d="M95.024 130.789c0 .088-4.324.155-9.656.155-5.332 0-9.652-.067-9.652-.155 0-.089 4.32-.156 9.652-.156 5.332 0 9.656.067 9.656.156ZM62.272 90.98c.076-.024 2.964 8.831 6.448 19.785 3.484 10.953 6.24 19.855 6.164 19.881-.076.025-2.964-8.81-6.448-19.785-3.484-10.974-6.244-19.85-6.164-19.88Z" fill="#263238"/><path d="m93.26 168.721-2.584-.063v-32.806h2.584v32.869Z" fill="#455A64"/><path d="M79.944 168.569h24.052L93.1 164.597h-2.584l-10.572 3.972Z" fill="#455A64"/><path d="m73.86 81.323 3.98 20.854-.712 15.627 26.752-4.665-1.048-13.676-.032-11.327 6.56 13.333 5.104-10.35-9.348-17.766A15.73 15.73 0 0 0 99 69.2a12.038 12.038 0 0 0-3.836-.772c-3.013 1-6.247 1-9.26 0-.376.05-.896.105-1.556.184h-.12c-2.752.366-5.293 1.735-7.18 3.867-1.887 2.131-3 4.89-3.144 7.796l-.044 1.048Z" fill="#F14953"/><path d="M84.356 68.617s-10.992.088-12.352 12.262l-.184 8.936 9.464-.084 3.072-21.114Z" fill="#F14953"/><path d="M110.616 84.277c0 .088-8.648.16-19.316.16S72 84.36 72 84.276s8.644-.155 19.316-.155c10.672 0 19.3.071 19.3.155ZM110.616 86.21c0 .085-8.648.156-19.316.156s-19.316-.071-19.316-.155 8.644-.16 19.316-.16c10.672 0 19.316.072 19.316.16ZM110 82.683c0 .088-8.508.16-19.004.16-10.496 0-18.996-.076-18.996-.16s8.508-.155 19.008-.155 18.992.067 18.992.155Z" fill="#FAFAFA"/><path d="M102.668 101.465c-.084 0-.048-4.938.08-11.02.128-6.084.3-11.017.38-11.017.08 0 .048 4.937-.08 11.02-.128 6.083-.3 11.017-.38 11.017Z" fill="#263238"/><path d="M98.908 93.46s5.2.39 6.136 1.834c.936 1.443 2.364 5.55 1.824 5.579a1.427 1.427 0 0 1-.936-.306l-1.424-2.651s.228 2.559-.624 2.609c-.852.05-5.084.94-5.084.94l.108-8.005Z" fill="#FFBE9D"/><path d="m71.824 87.432-.02 14.058c.04.772.24 1.526.584 2.21a5.29 5.29 0 0 0 1.414 1.749 4.991 4.991 0 0 0 1.983.966c.72.167 1.466.169 2.187.004l20.964-4.531-.044-9.015L80.8 96.527l-.24-9.544-8.736.449Z" fill="#F14953"/><path d="M83.784 105.29a1.67 1.67 0 0 1 .276-.079l.8-.193 3.08-.684 10.924-2.354-.108.135v-9.26l.176.156-3.688.743-14.4 2.873-.156.034v-.134c.136-4.195.252-7.67.332-10.136.048-1.2.084-2.152.112-2.832 0-.306.028-.553.04-.742 0-.086.01-.172.028-.256a2.1 2.1 0 0 1 0 .256v.747c0 .68-.024 1.632-.04 2.831-.056 2.471-.132 5.953-.224 10.136l-.152-.13 14.4-2.937 3.688-.738.176-.038v9.565l-.108.021L88 104.497l-3.096.609-.82.151c-.099.022-.2.033-.3.033ZM95.808 68.617s.04.067.084.205c.07.203.124.41.164.621.145.786.11 1.597-.1 2.366a6.254 6.254 0 0 1-1.816 2.937 5.508 5.508 0 0 1-3.816 1.514 4.986 4.986 0 0 1-2.042-.4 5.19 5.19 0 0 1-1.73-1.206 5.681 5.681 0 0 1-1.404-3.184 5.203 5.203 0 0 1 .264-2.354c.07-.202.16-.396.268-.579.072-.126.112-.189.124-.184.012.004-.128.28-.284.805a5.556 5.556 0 0 0-.164 2.282 5.564 5.564 0 0 0 1.392 3.012c.471.486 1.03.868 1.644 1.125.614.256 1.271.382 1.932.369a5.302 5.302 0 0 0 3.632-1.414 6.159 6.159 0 0 0 1.8-2.794 5.564 5.564 0 0 0 .184-2.282c-.068-.537-.164-.83-.132-.84Z" fill="#263238"/><path d="M96.82 102.635a6.933 6.933 0 0 1 0-1.389c.032-.839.072-2.03.08-3.33.008-1.301 0-2.48-.044-3.336a7.157 7.157 0 0 1 0-1.388c.122.448.189.91.2 1.376.076.839.136 2.038.128 3.356a38.027 38.027 0 0 1-.164 3.356 5.946 5.946 0 0 1-.2 1.355ZM95.736 102.866a7.2 7.2 0 0 1-.036-1.38c0-.969.02-2.098.032-3.31v-3.327c-.03-.46-.014-.92.048-1.376.108.447.163.906.164 1.368.052.839.096 2.026.088 3.322a50.695 50.695 0 0 1-.12 3.323 5.96 5.96 0 0 1-.176 1.38Z" fill="#FAFAFA"/><path d="m116.732 158.719 3.96 11.445 5.624 8.101a1.291 1.291 0 0 1 .2.97 1.242 1.242 0 0 1-.532.821 1.162 1.162 0 0 1-1.084.096c-2.268-.985-10.588-4.66-10.836-5.512-.284-.99-5.656-13.299-5.656-13.299l8.324-2.622Z" fill="#F14953"/><path opacity=".6" d="m126 180.056-12.204-6.183.18.482c.151.412.434.756.8.973 1 .567 3.8 2.064 10.092 4.837a1.143 1.143 0 0 0 1.116-.109H126ZM114.644 169.308c.17.047.318.159.415.314a.778.778 0 0 1 .109.525.728.728 0 0 1-.294.446.665.665 0 0 1-.506.108.762.762 0 0 1-.442-.337.826.826 0 0 1-.11-.561.745.745 0 0 1 .35-.425.691.691 0 0 1 .534-.053" fill="#fff"/><path d="M121.672 176.108c.129-.457.341-.884.624-1.258.508-.596 1.164-.684 1.152-.759-.012-.076-.172-.063-.44 0a1.892 1.892 0 0 0-.902.576 2.034 2.034 0 0 0-.47.993c-.036.276.008.448.036.448ZM123.008 177.312c.068.03.28-.482.776-.881a8.81 8.81 0 0 1 1.004-.57c0-.071-.6-.101-1.16.361-.56.461-.688 1.082-.62 1.09ZM119.516 174.745c.072.033.4-.751 1.112-1.439.712-.688 1.484-.973 1.46-1.049-.024-.075-.868.101-1.632.839-.764.738-1.004 1.64-.94 1.649ZM118.036 171.372c.052.059.552-.449 1.32-.797.768-.348 1.456-.42 1.452-.483-.004-.063-.736-.142-1.556.239-.82.382-1.252 1.003-1.216 1.041ZM116.8 168.045c.056.051.516-.57 1.352-.868.836-.298 1.56-.13 1.576-.206.016-.075-.164-.125-.468-.176a2.491 2.491 0 0 0-1.191.13c-.382.14-.727.371-1.009.676-.216.243-.296.423-.26.444ZM117.892 166.552a1.152 1.152 0 0 0-.148-.42 3.178 3.178 0 0 0-.74-.99 1.324 1.324 0 0 0-.776-.419.462.462 0 0 0-.279.078.504.504 0 0 0-.185.232.847.847 0 0 0 0 .579c.164.378.451.683.808.861a1.61 1.61 0 0 0 1.148.112c.373-.107.706-.328.959-.635.252-.308.411-.687.457-1.089a.747.747 0 0 0-.172-.562.463.463 0 0 0-.548-.059 1.72 1.72 0 0 0-.568.68 3.745 3.745 0 0 0-.4 1.183 1.086 1.086 0 0 0 0 .461c.12-.542.316-1.063.584-1.544.122-.233.296-.432.508-.579a.242.242 0 0 1 .3.03.513.513 0 0 1 .096.373 1.88 1.88 0 0 1-.415.932 1.738 1.738 0 0 1-.829.549 1.385 1.385 0 0 1-.96-.089 1.478 1.478 0 0 1-.696-.7.605.605 0 0 1-.032-.419.265.265 0 0 1 .101-.129.252.252 0 0 1 .155-.043c.247.038.478.155.66.336.392.36.721.79.972 1.271Z" fill="#263238"/><path d="m133.456 155.724-.34 9.301s8.896 3.49 8.992 5.214l-17.2-.05-.048-14.511 8.596.046Z" fill="#F14953"/><path opacity=".6" d="M127.792 164.228a.708.708 0 0 0-.397.322.767.767 0 0 0-.091.517.705.705 0 0 0 .301.427.652.652 0 0 0 .499.089.752.752 0 0 0 .419-.344.81.81 0 0 0 .093-.55.727.727 0 0 0-.356-.404.678.678 0 0 0-.524-.036M124.892 170.189v-1.447l16.544.579s.764.352.676.919l-17.22-.051Z" fill="#fff"/><path d="M133.392 164.933c0 .088-.42.13-.836.419-.416.29-.636.655-.712.617-.076-.038.048-.545.556-.877.508-.331 1.012-.239.992-.159ZM135.2 165.721c.02.088-.344.235-.632.608-.288.374-.368.768-.452.764-.084-.004-.136-.504.228-.961.364-.457.856-.495.856-.411ZM136.216 167.991c-.076 0-.192-.42.028-.902.22-.483.608-.675.644-.6.036.076-.208.331-.4.73-.192.399-.188.763-.272.772ZM133.248 162.81c-.036.079-.42-.042-.896 0-.476.042-.848.188-.892.113-.044-.076.316-.39.876-.42.56-.029.952.235.912.307Z" fill="#263238"/><path opacity=".3" d="m133.388 157.566-.06 1.657-8.46-.105-.008-1.493 8.528-.059Z" fill="#000"/><path d="M133.284 160.93c-.283.08-.581.08-.864 0a3.932 3.932 0 0 1-1.396-.57 1.24 1.24 0 0 1-.26-.214.397.397 0 0 1-.036-.47.478.478 0 0 1 .161-.146.445.445 0 0 1 .207-.055c.11-.001.219.016.324.05a2.987 2.987 0 0 1 1.336.743c.4.39.536.717.508.738-.028.021-.232-.248-.64-.571a3.324 3.324 0 0 0-.768-.457 2.852 2.852 0 0 0-.492-.159c-.184-.055-.34-.055-.4.029s-.02.046 0 .101a.913.913 0 0 0 .192.159 4.579 4.579 0 0 0 1.288.608c.285.048.566.12.84.214Z" fill="#263238"/><path d="M133.172 161.056a1.56 1.56 0 0 1-.224-.876c-.013-.335.028-.67.12-.99.058-.189.131-.371.22-.546a.748.748 0 0 1 .22-.299.707.707 0 0 1 .332-.15.389.389 0 0 1 .215.071.411.411 0 0 1 .145.181c.043.107.073.22.088.336.03.201.03.406 0 .608-.05.337-.178.657-.372.931-.336.466-.688.571-.696.541-.008-.029.268-.214.524-.662a2.1 2.1 0 0 0 .276-.839 1.923 1.923 0 0 0 0-.525c-.024-.189-.092-.344-.16-.327-.068.017-.232.143-.304.298a3.252 3.252 0 0 0-.216.486 3.375 3.375 0 0 0-.168.902c-.04.516.048.844 0 .86Z" fill="#263238"/><path d="M124.876 111.143c-10.172 1.103-23.656 2.555-23.656 2.555l1.84 17.363s19.808-5.491 19.668-5.034c-.14.457.92 36.942.92 36.942h11.928l.224-41.334a10.835 10.835 0 0 0-.809-4.271 10.39 10.39 0 0 0-2.406-3.548 9.824 9.824 0 0 0-3.582-2.203 9.462 9.462 0 0 0-4.127-.47Z" fill="#263238"/><path d="M76.884 118.149v5.382c0 3.667 3.98 7.551 7.472 7.551h2.704c2.128 0 5.464-1.627 7.2-2.936l1.032-.793 12.424 40.361s14.212-2.672 14.212-3.142c0-.47-9.624-33.058-14.068-48.181-1.816-6.175-8.124-9.766-13.952-7.673-.196.071-.4.151-.596.235-6.384 2.676-16.428 9.196-16.428 9.196Z" fill="#263238"/><path d="M121.912 164.567a.738.738 0 0 1-.06-.142c-.044-.114-.096-.256-.16-.42a48.219 48.219 0 0 1-.564-1.678c-.476-1.456-1.128-3.582-1.92-6.213-1.6-5.256-3.712-12.543-6.024-20.598-1.152-4.031-2.244-7.87-3.244-11.369-.496-1.745-.964-3.406-1.404-4.962-.224-.778-.437-1.526-.64-2.245a20.367 20.367 0 0 0-.648-2.043 8.408 8.408 0 0 0-2-2.983 17.22 17.22 0 0 0-2.104-1.715 45.5 45.5 0 0 0-1.424-.953l-.372-.247a.486.486 0 0 1-.124-.093.51.51 0 0 1 .136.068l.4.218c.34.193.836.491 1.456.906a15.993 15.993 0 0 1 2.152 1.678 8.449 8.449 0 0 1 2.088 3.02c.26.674.484 1.361.672 2.06.212.718.428 1.469.656 2.245l1.432 4.95c1.004 3.494 2.108 7.333 3.268 11.36 2.312 8.042 4.4 15.325 5.936 20.628l1.832 6.238.512 1.678c.052.18.092.323.128.44.036.118.028.172.02.172ZM124.912 120.808c.072.051-.604 1.116-1.168 2.564-.564 1.447-.82 2.697-.908 2.68-.088-.016.04-1.317.632-2.802s1.384-2.492 1.444-2.442ZM127.2 122.486c.032.084-.992.558-2.06 1.443-1.068.886-1.756 1.813-1.828 1.758-.072-.054.528-1.091 1.644-2.001 1.116-.91 2.216-1.275 2.244-1.2ZM107.832 167.71c-.076.025-3.432-10.774-7.496-24.122-4.064-13.349-7.288-24.194-7.2-24.219.088-.025 3.432 10.773 7.496 24.126 4.064 13.353 7.28 24.189 7.2 24.215ZM92.588 104.745l40.66.411 7.584-22.477-29.576.21-6.864 20.212-11.804.188v1.456Z" fill="#455A64"/><path d="M123.416 95.856a1.618 1.618 0 0 1-.869-.422 1.749 1.749 0 0 1-.498-.857 1.802 1.802 0 0 1 .04-1.003c.107-.323.304-.605.564-.811a1.585 1.585 0 0 1 1.829-.107c.281.174.506.43.648.74.141.308.192.653.146.991a1.747 1.747 0 0 1-.641 1.138 1.59 1.59 0 0 1-1.219.33Z" fill="#fff"/><path d="M89.268 43.907c.4-1.497 1.46-2.231 2.856-2.73a4.389 4.389 0 0 1 2.183-.185 4.484 4.484 0 0 1 2.017.898c.8.629 1.4 1.54 2.336 1.879 1.536.558 3.336-.646 4.8.075.445.213.806.582 1.019 1.045.213.462.265.987.147 1.485a2.208 2.208 0 0 1-.792 1.242 2.029 2.029 0 0 1-1.366.424c1 .386 1.312 1.883.728 2.819-.584.935-1.788 1.288-2.84 1.082a5.82 5.82 0 0 1-2.756-1.62c-.8-.746-1.504-1.593-2.352-2.273a4.439 4.439 0 0 0-2.944-1.133c-1.444.08-2.68 1.221-3.324 2.58-.644 1.36-.8 2.903-.872 4.418-.072 1.514-.104 3.05-.532 4.497-.052.172-.128.36-.288.42-.236.075-.436-.185-.552-.42a23.028 23.028 0 0 1-2.42-8.269c-.164-1.678-.124-3.263.756-4.677.88-1.414 3.1-2.45 4.188-1.556" fill="#263238"/><path d="m86.48 50.926-.74 16.973c-.124 2.887.256 7.157 4.616 7.157 3.784-.302 4.9-4.01 5.016-6.712.052-1.258.1-2.34.116-2.47 0 0 4.136-.21 4.62-4.473.232-2.06.4-6.347.48-10.223a8.24 8.24 0 0 0-1.885-5.466c-1.26-1.51-3.014-2.468-4.915-2.686l-.4-.042c-4.268-.205-6.824 3.47-6.908 7.942Z" fill="#FFBE9D"/><path d="M95.5 65.819a9.266 9.266 0 0 1-5.144-2.173s.94 3.209 5.04 3.28l.104-1.107Z" fill="#EB996E"/><path d="M99.112 53.913a.623.623 0 0 1-.204.41.567.567 0 0 1-.42.143.534.534 0 0 1-.394-.188.59.59 0 0 1 .057-.837.567.567 0 0 1 .417-.145.534.534 0 0 1 .397.187.592.592 0 0 1 .147.43ZM99.5 53.183c-.08.071-.484-.319-1.112-.386-.628-.067-1.116.21-1.176.122-.06-.088.06-.176.276-.306.29-.167.623-.235.952-.198.326.038.632.185.872.42.176.168.228.319.188.348ZM92.956 53.452a.622.622 0 0 1-.204.41.566.566 0 0 1-.42.143.543.543 0 0 1-.394-.19.597.597 0 0 1-.15-.426.631.631 0 0 1 .206-.408.575.575 0 0 1 .418-.146.539.539 0 0 1 .396.188.593.593 0 0 1 .148.428ZM93.34 52.62c-.08.072-.484-.318-1.112-.39-.628-.07-1.116.21-1.176.122-.06-.088.06-.172.276-.302.29-.167.623-.236.952-.197.326.04.63.187.872.42.176.163.228.314.188.348ZM95.116 57.739c.34-.073.689-.1 1.036-.08.164 0 .316 0 .356-.126a.942.942 0 0 0-.056-.512c-.112-.42-.224-.864-.344-1.325-.472-1.888-.8-3.436-.724-3.457.076-.021.516 1.498.988 3.385.112.466.22.91.32 1.334a.995.995 0 0 1 0 .668.414.414 0 0 1-.118.143.391.391 0 0 1-.166.075 1.045 1.045 0 0 1-.276 0 4.075 4.075 0 0 1-1.016-.105ZM93.232 57.986c.1 0 .032.718.56 1.288.528.57 1.26.57 1.256.671-.004.1-.176.122-.484.097a1.68 1.68 0 0 1-1.052-.525 1.587 1.587 0 0 1-.424-1.074c.004-.297.112-.465.144-.457ZM93.764 50.066c-.08.172-.696 0-1.44.03-.744.029-1.356.155-1.44 0-.032-.08.088-.236.344-.382a2.382 2.382 0 0 1 2.192 0c.256.117.38.272.344.352ZM99.464 51.261c-.124.135-.54-.067-1.056-.134s-.968 0-1.052-.172c-.04-.08.044-.222.252-.344a1.43 1.43 0 0 1 .884-.147c.299.042.578.18.8.395.184.172.228.335.172.402Z" fill="#263238"/><path d="M86.492 54.123c-.068-.038-2.708-1.18-2.916 1.749-.208 2.928 2.64 2.542 2.648 2.458.008-.084.268-4.207.268-4.207Z" fill="#FFBE9D"/><path d="M85.452 57.156s-.052.033-.136.067a.486.486 0 0 1-.364-.021 1.272 1.272 0 0 1-.39-.522 1.336 1.336 0 0 1-.09-.657c.011-.25.076-.496.188-.717a.596.596 0 0 1 .157-.235.558.558 0 0 1 .243-.13c.057-.01.115 0 .166.03.05.03.089.077.11.133.032.084 0 .143.024.147.024.004.064-.042.052-.168a.315.315 0 0 0-.1-.188.359.359 0 0 0-.264-.097.675.675 0 0 0-.322.136.72.72 0 0 0-.218.284c-.135.244-.212.519-.224.8-.024.592.224 1.167.62 1.322a.497.497 0 0 0 .448-.046c.088-.067.108-.134.1-.138Z" fill="#EB996E"/><path d="M101.54 50.38c-.926.141-1.87.05-2.756-.266a5.895 5.895 0 0 1-2.34-1.55c-.9-.99-1.536-2.34-2.736-2.882a3.198 3.198 0 0 0-2.564.08 6.43 6.43 0 0 0-2.104 1.636c.564 2.257-.208 4.614-.972 6.808a1.175 1.175 0 0 1-.4.638c-.356.23-.828-.033-1.084-.382a3.749 3.749 0 0 1-.56-1.984 12.59 12.59 0 0 1 .504-4.732 8.274 8.274 0 0 1 2.56-3.885 7.159 7.159 0 0 1 5.396-1.451 8.936 8.936 0 0 1 5.056 2.555 5.607 5.607 0 0 1 1.5 2.257" fill="#263238"/><path d="M23.328 140.609a7.247 7.247 0 0 1 4.672-.6c.848.147 1.736.419 2.316 1.086.58.667.688 1.85.024 2.425-.429.303-.945.439-1.46.386-1.24 0-2.616-.243-3.6.541-.568.445-.944 1.187-1.6 1.406a1.538 1.538 0 0 1-1.008-.102 1.634 1.634 0 0 1-.748-.716 3.006 3.006 0 0 1-.196-2.098 3.31 3.31 0 0 1 .54-1.361 3.12 3.12 0 0 1 1.06-.967ZM20.06 133.993c.872 1.305 2.568.873 3.352.076.784-.797 1.12-1.951 1.42-3.054.692-2.517 1.388-5.16.876-7.724a4.385 4.385 0 0 0-.944-2.097 2.137 2.137 0 0 0-.921-.639 2.048 2.048 0 0 0-1.103-.07c-.852.239-1.384 1.116-1.768 1.951a19.147 19.147 0 0 0-1.736 7.899c0 1.259.14 2.609.824 3.658ZM17.664 135.869a4.884 4.884 0 0 0 .87-2.096 4.98 4.98 0 0 0-.162-2.28 8.471 8.471 0 0 0-2.472-3.776 13.148 13.148 0 0 0-4.4-2.739 4.538 4.538 0 0 0-2-.352c-.339.02-.668.127-.959.312-.29.184-.534.44-.709.745-.464.931-.02 2.06.464 2.982.85 1.632 1.82 3.19 2.904 4.661.872 1.175 1.868 2.337 3.2 2.87 1.332.533 2.704.47 3.408-.495" fill="#F14953"/><path d="M20 153.693c.047-.193.074-.392.08-.591l.152-1.619c.076-.798.19-1.59.344-2.375.204-.957.48-1.895.824-2.806.342-.902.802-1.75 1.368-2.518a5.17 5.17 0 0 1 1.724-1.531c.456-.24.947-.4 1.452-.474.19-.009.38-.038.564-.088-.19-.02-.382-.02-.572 0a4.162 4.162 0 0 0-1.516.42 5.076 5.076 0 0 0-1.82 1.514 10.324 10.324 0 0 0-1.4 2.584c-.345.925-.613 1.88-.8 2.853a21.017 21.017 0 0 0-.304 2.404c-.048.688-.064 1.258-.076 1.632a2.881 2.881 0 0 0-.02.595Z" fill="#263238"/><path d="M20.108 152.448c.01-.091.01-.182 0-.273v-.789c0-.684 0-1.678.036-2.894.056-2.442.256-5.072.644-8.777.368-3.486.86-7.551 1.38-10.177.108-.6.22-1.141.328-1.611.108-.47.188-.881.268-1.212.08-.332.132-.567.176-.768.027-.087.043-.177.048-.269a1.041 1.041 0 0 0-.092.256c-.06.198-.132.449-.22.755-.088.307-.196.735-.308 1.204a56.7 56.7 0 0 0-.364 1.607 94.521 94.521 0 0 0-1.448 9.443c-.376 3.73-.556 7.086-.556 9.549 0 1.22 0 2.215.04 2.898 0 .319.036.579.048.785a1.09 1.09 0 0 0 .02.273Z" fill="#263238"/><path d="M20.124 145.928c.021-.279.021-.56 0-.839a23.073 23.073 0 0 0-.24-2.232 30.844 30.844 0 0 0-.684-3.23 27.594 27.594 0 0 0-1.296-3.843 20.681 20.681 0 0 0-3.804-6.209c-.283-.309-.583-.6-.9-.872-.14-.122-.26-.239-.4-.336l-.348-.251a4.89 4.89 0 0 0-.66-.445c.76.627 1.484 1.304 2.164 2.026a21.697 21.697 0 0 1 3.708 6.188 31.43 31.43 0 0 1 1.304 3.805c.34 1.196.564 2.29.736 3.213.172.923.256 1.678.312 2.211.014.274.05.546.108.814ZM14.112 157.431l.624 8.953h10.968l.62-8.953H14.112ZM27.632 153.903h-14.58v3.528h14.58v-3.528Z" fill="#263238"/><path d="M13.052 166.044v.977h14.34v-.977h-14.34Z" fill="#455A64"/><path d="m14.408 168.742-.672-1.721h13.136l-.784 1.721h-11.68Z" fill="#455A64"/><path d="M26.124 160.36a.868.868 0 0 1-.052.079l-.164.231-.64.839-.028.038-.028-.038-1.568-2.278h.088l-1.544 2.32-.048.071-.056-.067c-.568-.713-1.2-1.485-1.832-2.286h.104c-.028.042-.064.084-.1.13l-1.636 2.152-.056.071-.052-.075-1.544-2.295h.088l-1.904 2.299-.032.038-.028-.046a107.35 107.35 0 0 0-.596-1.049l-.152-.281-.048-.097s.028.025.064.088l.172.269.624 1.032h-.06l1.876-2.299.044-.059.044.063 1.56 2.282h-.104l1.636-2.156.1-.134.052-.067.052.067 1.828 2.29h-.104l1.564-2.282.044-.067.044.067 1.536 2.299H25.2l.668-.839.176-.218c.052-.072.076-.097.08-.092Z" fill="#E0E0E0"/><path d="M26.48 157.356c0 .042-2.748.071-6.14.071-3.392 0-6.136-.029-6.136-.071 0-.042 2.748-.072 6.136-.072s6.14.072 6.14.072Z" fill="#455A64"/><path d="M27.032 167.118c0 .037-2.988.071-6.668.071s-6.672-.034-6.672-.071c0-.038 2.988-.072 6.672-.072 3.684 0 6.668.034 6.668.072ZM156.684 64.04l-7.62 33.423h2.132L158.7 64.04h-2.016Z" fill="#263238"/><path d="M153.756 86.04c-.136.612 3.452 18.831 3.452 18.831h-1.728l-2.708-14.44.984-4.392Z" fill="#263238"/><path d="M179.132 128.968H143.44v39.681h35.692v-39.681Z" fill="#F14953"/><path d="M180.88 134.765h-1.752v1.838h1.752v-1.838ZM180.88 140.601h-1.752v1.837h1.752v-1.837ZM180.88 146.437h-1.752v1.837h1.752v-1.837ZM180.88 152.272h-1.752v1.837h1.752v-1.837Z" fill="#263238"/><path d="M180.948 146.974c.174-.059.354-.1.536-.122a8.083 8.083 0 0 1 1.504-.151 3.889 3.889 0 0 1 2.168.6c.407.257.736.63.948 1.076.213.445.3.945.252 1.441a3.278 3.278 0 0 1-.456 1.439 3.709 3.709 0 0 1-.92 1.023 4.576 4.576 0 0 1-2.088.865 6.45 6.45 0 0 1-1.508.054 2.26 2.26 0 0 1-.548-.08c.182-.015.365-.015.548 0 .497.008.994-.032 1.484-.121a4.573 4.573 0 0 0 2-.873 3.18 3.18 0 0 0 .883-1.013c.221-.4.358-.846.401-1.307a2.533 2.533 0 0 0-.228-1.333 2.391 2.391 0 0 0-.872-.999 3.833 3.833 0 0 0-2.068-.613c-.497-.01-.995.016-1.488.08a2.58 2.58 0 0 1-.548.034Z" fill="#263238"/><path d="M180.512 141.172a.693.693 0 0 1 .164-.105 3.911 3.911 0 0 1 2.572-.34c.232.047.453.139.652.273.222.154.385.386.46.654a2.08 2.08 0 0 1-.184 1.338c-.208.41-.547.73-.956.906a1.118 1.118 0 0 1-.964-.054 1.002 1.002 0 0 1-.393-.361 1.069 1.069 0 0 1-.163-.52c.007-.192.064-.377.164-.538.1-.16.239-.289.404-.372.318-.16.678-.2 1.02-.114.326.075.631.227.892.445.496.414.815 1.018.888 1.678.06.6-.104 1.201-.456 1.678a3.28 3.28 0 0 1-1.096.969 5.02 5.02 0 0 1-2 .546 6.67 6.67 0 0 1-.556.029.586.586 0 0 1-.196 0s.268-.038.744-.101a5.361 5.361 0 0 0 1.928-.595 3.206 3.206 0 0 0 1.028-.944c.312-.44.454-.987.4-1.532a2.347 2.347 0 0 0-.824-1.522 1.866 1.866 0 0 0-.8-.399 1.306 1.306 0 0 0-.884.092.82.82 0 0 0-.323.293.868.868 0 0 0-.133.425c.01.146.056.286.134.408a.82.82 0 0 0 .31.284.91.91 0 0 0 .8.046c.259-.103.486-.277.66-.503a1.773 1.773 0 0 0 .4-1.494 1.262 1.262 0 0 0-.376-.566 1.17 1.17 0 0 0-.604-.273 4.044 4.044 0 0 0-2 .05c-.468.105-.704.24-.712.219Z" fill="#263238"/><path d="M180.528 135.479a.917.917 0 0 1 .4-.076c.362-.027.727.02 1.072.139.517.183.977.509 1.332.944.435.541.679 1.222.692 1.929a3.235 3.235 0 0 1-.576 1.972 3.035 3.035 0 0 1-1.288 1.028 2.68 2.68 0 0 1-1.06.226.866.866 0 0 1-.4-.05c.478-.016.95-.122 1.392-.315.469-.223.876-.57 1.18-1.006.359-.54.543-1.186.524-1.843a3.147 3.147 0 0 0-.628-1.807 3.057 3.057 0 0 0-1.236-.927 3.757 3.757 0 0 0-1.404-.214Z" fill="#263238"/><path d="M154.036 107.883c.126.235.227.484.3.743.217.736.376 1.489.476 2.252.148.99.272 2.211.4 3.625.128 1.414.236 3.033.452 4.808.056.44.124.893.212 1.35.082.466.216.919.4 1.351.237.421.532.803.876 1.133a6.704 6.704 0 0 0 4.036 1.963 5.444 5.444 0 0 0 3.152-.57 3.857 3.857 0 0 0 1.306-1.103 4.09 4.09 0 0 0 .73-1.582 3.223 3.223 0 0 0-.12-1.783 3.117 3.117 0 0 0-1.108-1.405 3.23 3.23 0 0 0-1.688-.588 2.58 2.58 0 0 0-1.708.525 1.936 1.936 0 0 0-.58.717c-.13.284-.17.605-.112.915.07.316.205.612.397.867.191.256.434.464.711.609a4.93 4.93 0 0 0 1.824.529c.629.083 1.262.13 1.896.138a28.858 28.858 0 0 0 3.728-.218c2.432-.285 4.8-.696 7.052-.721 2.252-.026 4.456.302 6.284 1.258a7.442 7.442 0 0 1 2.336 1.833 5.732 5.732 0 0 1 1.2 2.517 7.073 7.073 0 0 1-.7 4.72 7.792 7.792 0 0 1-2.372 2.655 8.77 8.77 0 0 1-1.96 1.049c-.24.093-.486.17-.736.231l.184-.071c.124-.038.304-.109.536-.202a9.095 9.095 0 0 0 1.932-1.078 7.818 7.818 0 0 0 2.316-2.643 7 7 0 0 0 .652-4.614 5.653 5.653 0 0 0-1.2-2.442 7.283 7.283 0 0 0-2.292-1.779c-1.8-.914-3.964-1.258-6.204-1.204-2.24.055-4.592.441-7.036.73a27.537 27.537 0 0 1-3.752.227 16.448 16.448 0 0 1-1.92-.139 5.092 5.092 0 0 1-1.896-.553 2.366 2.366 0 0 1-.772-.675 2.502 2.502 0 0 1-.428-.953 1.772 1.772 0 0 1 .128-1.049c.15-.316.371-.59.644-.797a2.786 2.786 0 0 1 1.84-.571 3.462 3.462 0 0 1 1.796.63c.526.367.937.89 1.18 1.502.221.609.266 1.273.128 1.908a4.278 4.278 0 0 1-.769 1.661 4.036 4.036 0 0 1-1.375 1.154 5.594 5.594 0 0 1-3.26.583 6.691 6.691 0 0 1-2.952-1.065 6.86 6.86 0 0 1-1.18-.961 4.991 4.991 0 0 1-.904-1.183 6.293 6.293 0 0 1-.4-1.397 20.148 20.148 0 0 1-.204-1.359c-.208-1.783-.308-3.398-.424-4.816-.116-1.418-.228-2.635-.36-3.625a15.907 15.907 0 0 0-.436-2.252 5.536 5.536 0 0 0-.188-.567 1.834 1.834 0 0 1-.068-.218Z" fill="#263238"/><path d="M177.1 167.005V164.358c0-1.724 0-4.241-.024-7.434 0-6.389-.028-15.493-.048-26.383l.092.096h-32.26l.104-.109v36.464l-.088-.092 23.376.046 6.556.025h2.332-.58l-1.76.034-6.532.025-23.436.046h-.092v-36.644H177.2v.075l-.048 26.43c0 3.188 0 5.697-.024 7.412v2.446c0 .118-.028.21-.028.21Z" fill="#263238"/><path d="M168 135.009a.189.189 0 0 1-.011.067.154.154 0 0 1-.036.057.155.155 0 0 1-.117.052.16.16 0 0 1-.135-.04.186.186 0 0 1-.044-.06.185.185 0 0 1 .044-.208.17.17 0 0 1 .135-.04c.043 0 .085.018.116.05a.177.177 0 0 1 .048.122ZM168.924 135.009a.19.19 0 0 1-.012.067.165.165 0 0 1-.035.057.15.15 0 0 1-.054.039.151.151 0 0 1-.063.013.16.16 0 0 1-.135-.04.173.173 0 0 1-.059-.134.173.173 0 0 1 .122-.169.16.16 0 0 1 .072-.005c.043 0 .085.018.116.05.03.033.048.076.048.122ZM169.836 135.009a.19.19 0 0 1-.012.067.152.152 0 0 1-.035.057.155.155 0 0 1-.117.052.16.16 0 0 1-.135-.04.186.186 0 0 1-.044-.06.185.185 0 0 1 .044-.208.17.17 0 0 1 .135-.04c.043 0 .085.018.116.05a.177.177 0 0 1 .048.122ZM170.748 135.009a.174.174 0 0 1-.101.166.155.155 0 0 1-.097.011.156.156 0 0 1-.087-.047.18.18 0 0 1 .023-.272.163.163 0 0 1 .211.02c.032.032.05.076.051.122ZM171.66 135.009a.18.18 0 0 1-.049.124.163.163 0 0 1-.119.052.162.162 0 0 1-.102-.059.183.183 0 0 1-.04-.115c0-.042.014-.083.04-.115a.162.162 0 0 1 .102-.059c.044 0 .086.018.117.05.032.032.05.076.051.122ZM172.572 135.009a.18.18 0 0 1-.049.124.163.163 0 0 1-.119.052.162.162 0 0 1-.102-.059.183.183 0 0 1-.04-.115c0-.042.014-.083.04-.115a.162.162 0 0 1 .102-.059c.044 0 .086.018.117.05.032.032.05.076.051.122ZM173.484 135.009a.18.18 0 0 1-.049.124.163.163 0 0 1-.119.052.162.162 0 0 1-.102-.059.183.183 0 0 1-.04-.115c0-.042.014-.083.04-.115a.162.162 0 0 1 .102-.059c.044 0 .086.018.117.05.032.032.05.076.051.122ZM172.896 135.827c.09 0 .164-.077.164-.172a.169.169 0 0 0-.164-.172.168.168 0 0 0-.164.172c0 .095.073.172.164.172ZM171.964 135.827c.09 0 .164-.077.164-.172a.169.169 0 0 0-.164-.172.168.168 0 0 0-.164.172c0 .095.073.172.164.172ZM171.2 135.655a.165.165 0 0 1-.013.066.17.17 0 0 1-.035.056.175.175 0 0 1-.053.037.155.155 0 0 1-.063.013.155.155 0 0 1-.064-.012.157.157 0 0 1-.055-.037.174.174 0 0 1-.049-.123.17.17 0 0 1 .013-.067.166.166 0 0 1 .155-.109.155.155 0 0 1 .117.052.154.154 0 0 1 .036.057.189.189 0 0 1 .011.067ZM170.1 135.827a.168.168 0 0 0 .164-.172.168.168 0 0 0-.164-.172.168.168 0 0 0-.164.172c0 .095.073.172.164.172ZM169.164 135.827a.168.168 0 0 0 .164-.172.168.168 0 0 0-.164-.172.168.168 0 0 0-.164.172c0 .095.073.172.164.172ZM168.4 135.655a.19.19 0 0 1-.013.067.161.161 0 0 1-.037.056.158.158 0 0 1-.118.049.16.16 0 0 1-.116-.05.177.177 0 0 1-.048-.122.169.169 0 0 1 .011-.067.165.165 0 0 1 .153-.109c.022 0 .044.004.064.013a.175.175 0 0 1 .055.038.183.183 0 0 1 .049.125ZM168 136.381a.179.179 0 0 1-.048.121.163.163 0 0 1-.271-.055.179.179 0 0 1 .036-.191.165.165 0 0 1 .119-.052c.022 0 .043.005.063.014a.16.16 0 0 1 .089.095.199.199 0 0 1 .012.068ZM168.924 136.381a.174.174 0 0 1-.048.121.163.163 0 0 1-.271-.055.183.183 0 0 1 .036-.191.165.165 0 0 1 .119-.052.16.16 0 0 1 .117.052.172.172 0 0 1 .047.125ZM169.836 136.381a.174.174 0 0 1-.048.121.163.163 0 0 1-.271-.055.175.175 0 0 1 0-.134.162.162 0 0 1 .036-.057.175.175 0 0 1 .119-.052.16.16 0 0 1 .117.052.169.169 0 0 1 .035.057.199.199 0 0 1 .012.068ZM170.748 136.381a.18.18 0 0 1-.057.107.163.163 0 0 1-.218 0 .18.18 0 0 1-.057-.107.19.19 0 0 1 .004-.075.169.169 0 0 1 .092-.112.157.157 0 0 1 .07-.017c.024 0 .048.006.07.017a.169.169 0 0 1 .092.112.19.19 0 0 1 .004.075ZM171.66 136.381a.185.185 0 0 1-.05.123.168.168 0 0 1-.054.037.161.161 0 0 1-.18-.039.174.174 0 0 1-.048-.121.177.177 0 0 1 .046-.125.183.183 0 0 1 .054-.038.157.157 0 0 1 .064-.014c.044 0 .087.019.119.052a.183.183 0 0 1 .049.125ZM172.572 136.381a.185.185 0 0 1-.05.123.168.168 0 0 1-.054.037.161.161 0 0 1-.18-.039.174.174 0 0 1-.048-.121.177.177 0 0 1 .046-.125.183.183 0 0 1 .054-.038.157.157 0 0 1 .064-.014c.044 0 .087.019.119.052a.183.183 0 0 1 .049.125ZM173.484 136.381a.165.165 0 0 1-.013.066.168.168 0 0 1-.091.094.173.173 0 0 1-.064.012.152.152 0 0 1-.063-.014.15.15 0 0 1-.053-.037.192.192 0 0 1-.036-.056.178.178 0 0 1-.012-.065.177.177 0 0 1 .046-.125.183.183 0 0 1 .054-.038.157.157 0 0 1 .064-.014c.044 0 .087.019.119.052a.183.183 0 0 1 .049.125ZM173.064 137.023a.183.183 0 0 1-.049.124.165.165 0 0 1-.119.052.166.166 0 0 1-.117-.052.172.172 0 0 1-.047-.124c0-.046.017-.09.048-.122a.16.16 0 0 1 .116-.05.14.14 0 0 1 .064.012c.02.008.039.02.055.037a.174.174 0 0 1 .049.123ZM172.128 137.023a.192.192 0 0 1-.011.067.162.162 0 0 1-.036.057.166.166 0 0 1-.117.052.165.165 0 0 1-.119-.052.183.183 0 0 1-.036-.191.174.174 0 0 1 .036-.056.153.153 0 0 1 .055-.037.14.14 0 0 1 .064-.012c.043 0 .085.018.116.05a.175.175 0 0 1 .048.122ZM171.2 137.023a.192.192 0 0 1-.011.067.162.162 0 0 1-.036.057.166.166 0 0 1-.117.052.157.157 0 0 1-.064-.014.147.147 0 0 1-.055-.038.162.162 0 0 1-.036-.057.17.17 0 0 1-.013-.067.174.174 0 0 1 .049-.123.145.145 0 0 1 .055-.037.14.14 0 0 1 .064-.012.159.159 0 0 1 .151.106.165.165 0 0 1 .013.066ZM170.264 137.023a.193.193 0 0 1-.012.067.16.16 0 0 1-.089.095.152.152 0 0 1-.063.014.164.164 0 0 1-.119-.052.178.178 0 0 1-.036-.191.174.174 0 0 1 .036-.056.145.145 0 0 1 .055-.037.14.14 0 0 1 .064-.012c.043 0 .085.018.116.05a.18.18 0 0 1 .048.122ZM169.332 137.023a.174.174 0 0 1-.005.075.166.166 0 0 1-.034.066.159.159 0 0 1-.127.062.17.17 0 0 1-.07-.016.171.171 0 0 1-.092-.112.19.19 0 0 1-.004-.075.174.174 0 0 1 .057-.107.163.163 0 0 1 .218 0 .174.174 0 0 1 .057.107ZM168.4 137.023a.183.183 0 0 1-.049.124.167.167 0 0 1-.119.052.157.157 0 0 1-.064-.014.183.183 0 0 1-.054-.038.175.175 0 0 1-.046-.124c0-.046.017-.09.048-.122a.16.16 0 0 1 .116-.05.143.143 0 0 1 .064.012c.02.008.039.02.054.037a.161.161 0 0 1 .037.056.19.19 0 0 1 .013.067ZM168 137.748a.187.187 0 0 1-.047.125.16.16 0 0 1-.054.038.152.152 0 0 1-.063.014.165.165 0 0 1-.119-.052.179.179 0 0 1-.036-.191.178.178 0 0 1 .036-.057.172.172 0 0 1 .055-.037.163.163 0 0 1 .18.039c.03.032.048.076.048.121ZM168.924 137.748a.172.172 0 0 1-.1.163.16.16 0 0 1-.064.014.165.165 0 0 1-.119-.052.183.183 0 0 1-.036-.191.178.178 0 0 1 .036-.057.184.184 0 0 1 .055-.037.163.163 0 0 1 .18.039.174.174 0 0 1 .048.121ZM169.836 137.748a.199.199 0 0 1-.012.068.169.169 0 0 1-.088.095.157.157 0 0 1-.128 0 .175.175 0 0 1-.055-.038.162.162 0 0 1-.036-.057.175.175 0 0 1 0-.134.178.178 0 0 1 .036-.057.172.172 0 0 1 .055-.037.163.163 0 0 1 .18.039.174.174 0 0 1 .048.121ZM170.748 137.748a.194.194 0 0 1-.004.076.197.197 0 0 1-.034.066.185.185 0 0 1-.058.046.17.17 0 0 1-.07.016.17.17 0 0 1-.07-.016.185.185 0 0 1-.058-.046.197.197 0 0 1-.034-.066.194.194 0 0 1-.004-.076.174.174 0 0 1 .166-.149.174.174 0 0 1 .166.149ZM171.66 137.748a.183.183 0 0 1-.049.125.167.167 0 0 1-.119.052.157.157 0 0 1-.064-.014.183.183 0 0 1-.054-.038.177.177 0 0 1-.046-.125c0-.045.017-.089.048-.121a.161.161 0 0 1 .234-.002.18.18 0 0 1 .05.123ZM172.572 137.748a.183.183 0 0 1-.049.125.167.167 0 0 1-.119.052.157.157 0 0 1-.064-.014.183.183 0 0 1-.054-.038.177.177 0 0 1-.046-.125c0-.045.017-.089.048-.121a.161.161 0 0 1 .234-.002.165.165 0 0 1 .037.057.189.189 0 0 1 .013.066ZM173.484 137.748a.183.183 0 0 1-.049.125.167.167 0 0 1-.119.052.157.157 0 0 1-.064-.014.183.183 0 0 1-.054-.038.177.177 0 0 1-.046-.125c0-.022.004-.045.012-.065a.192.192 0 0 1 .036-.056.15.15 0 0 1 .053-.037.152.152 0 0 1 .063-.014c.022 0 .044.004.064.012a.168.168 0 0 1 .091.094.169.169 0 0 1 .013.066ZM172.896 138.566c.09 0 .164-.077.164-.172a.169.169 0 0 0-.164-.172.168.168 0 0 0-.164.172c0 .095.073.172.164.172ZM171.964 138.566c.09 0 .164-.077.164-.172a.169.169 0 0 0-.164-.172.168.168 0 0 0-.164.172c0 .095.073.172.164.172ZM171.2 138.394a.165.165 0 0 1-.013.066.159.159 0 0 1-.151.106.16.16 0 0 1-.135-.04.164.164 0 0 1-.044-.06.185.185 0 0 1 .044-.208.17.17 0 0 1 .135-.04.16.16 0 0 1 .117.052.162.162 0 0 1 .036.057.192.192 0 0 1 .011.067ZM170.1 138.566a.168.168 0 0 0 .164-.172.168.168 0 0 0-.164-.172.168.168 0 0 0-.164.172c0 .095.073.172.164.172ZM169.164 138.566a.168.168 0 0 0 .164-.172.168.168 0 0 0-.164-.172.168.168 0 0 0-.164.172c0 .095.073.172.164.172ZM168.4 138.394a.178.178 0 0 1-.051.122.163.163 0 0 1-.117.05.162.162 0 0 1-.102-.059.183.183 0 0 1 0-.229.168.168 0 0 1 .102-.06c.044 0 .087.019.119.052a.183.183 0 0 1 .049.124Z" fill="#263238"/><path d="M155.4 95.81c.221.004.439.045.648.121.606.208 1.15.58 1.576 1.078a7.327 7.327 0 0 1 1.396 2.77c.389 1.326.682 2.682.876 4.056.448 3.581.534 7.202.256 10.802a6.572 6.572 0 0 1-.896 2.996 3.769 3.769 0 0 1-1.128 1.145 2.437 2.437 0 0 1-1.56.39 2.377 2.377 0 0 1-1.484-.726c-.2-.213-.35-.473-.436-.759a1.684 1.684 0 0 1 0-.902c.073-.297.212-.572.406-.802.194-.23.437-.408.71-.519.286-.107.598-.107.884 0 .28.111.525.305.704.557a2.388 2.388 0 0 1 .4 1.737 4.886 4.886 0 0 1-.58 1.653c-.783 1.46-2.081 2.538-3.614 3.005a5.838 5.838 0 0 1-4.586-.513 7.056 7.056 0 0 1-2.16-1.951 9.661 9.661 0 0 1-1.332-2.445 16.841 16.841 0 0 1-.876-4.951c-.076-1.539 0-2.936-.14-4.144a7.431 7.431 0 0 0-.372-1.637 4.759 4.759 0 0 0-.668-1.225 3.388 3.388 0 0 0-1.488-1.153 4.66 4.66 0 0 0-.636-.16c.222.005.442.046.652.122a3.281 3.281 0 0 1 1.532 1.137c.295.378.531.803.7 1.258.198.541.332 1.104.4 1.678.156 1.221.084 2.618.172 4.149.054 1.671.355 3.323.892 4.896a9.549 9.549 0 0 0 1.292 2.408 6.898 6.898 0 0 0 2.108 1.892 5.657 5.657 0 0 0 4.436.485c1.482-.453 2.736-1.498 3.492-2.91a4.655 4.655 0 0 0 .552-1.573 2.124 2.124 0 0 0-.348-1.577 1.438 1.438 0 0 0-.612-.487 1.059 1.059 0 0 0-.744 0c-.24.1-.455.258-.626.462a1.739 1.739 0 0 0-.358.709c-.062.258-.058.528.013.784.07.256.204.487.387.671.365.38.844.614 1.356.663a2.24 2.24 0 0 0 1.436-.356 3.549 3.549 0 0 0 1.068-1.083 6.366 6.366 0 0 0 .868-2.899c.286-3.584.216-7.19-.208-10.76a29.3 29.3 0 0 0-.844-4.04 7.313 7.313 0 0 0-1.344-2.748 3.651 3.651 0 0 0-1.528-1.095 4.718 4.718 0 0 0-.644-.21Z" fill="#E0E0E0"/><path d="M152.26 101.88h-13.288v2.655h13.288v-2.655Z" fill="#E0E0E0"/><path d="M56.34 129.333H39.008v39.128H56.34v-39.128Z" fill="#263238"/><path d="M54.852 164.341V161.811c0-1.636 0-4.006-.028-6.989 0-5.965-.028-14.364-.048-24.134l.1.101h-14.5l.104-.11c0 13.072 0 24.945-.028 33.654l-.076-.08 10.588.042 2.896.021h1.02-3.868l-10.636.042h-.072v-.08c0-8.709 0-20.581-.032-33.653v-.109H54.98v.105c0 9.8-.036 18.223-.048 24.206 0 2.97 0 5.336-.028 6.964v2.324c0 .113-.052.226-.052.226Z" fill="#455A64"/><path d="M53.956 133.536v-.419c0-.273 0-.655-.024-1.133l.044.046c-2.244.038-7.052.063-12.608.063l.104-.109v1.54l-.1-.109c3.524 0 6.66.025 8.928.046l2.684.029h.732c.088-.009.176-.009.264 0a1.55 1.55 0 0 1-.236 0h-.712l-2.656.029c-2.264.026-5.436.047-9.004.047h-.104v-1.649l.108-.109c5.556 0 10.364.025 12.608.063H54v.046c0 .491 0 .877-.024 1.162.003.153-.004.305-.02.457ZM42.616 134.644c0 .059-.26.109-.58.109-.32 0-.584-.05-.584-.109s.26-.109.584-.109c.324 0 .58.046.58.109ZM53.62 136.662c0 .059-2.684.109-6 .109s-6-.05-6-.109 2.68-.109 6-.109 6 .05 6 .109ZM53.672 139.099c0 .063-2.64.109-5.892.109-3.252 0-5.892-.046-5.892-.109s2.636-.109 5.892-.109c3.256 0 5.892.051 5.892.109Z" fill="#455A64"/><path d="M47.624 145.799c.526 0 .952-.447.952-.999 0-.551-.426-.998-.952-.998s-.952.447-.952.998c0 .552.426.999.952.999Z" fill="#F14953"/><path d="M44.936 144.771a3.865 3.865 0 0 1-1.276.109 3.823 3.823 0 0 1-1.26-.109c.415-.109.845-.146 1.272-.109.424-.036.851.001 1.264.109ZM52.68 144.494a3.423 3.423 0 0 1-1.2.109 3.377 3.377 0 0 1-1.2-.109 3.521 3.521 0 0 1 1.2-.109c.403-.033.808.004 1.2.109Z" fill="#455A64"/><path d="M39.6 148.966a3.582 3.582 0 0 1-.648-.126 5.549 5.549 0 0 1-1.716-.839 7.562 7.562 0 0 1-2.068-2.261 13.433 13.433 0 0 1-1.508-3.843 16.418 16.418 0 0 1-.46-5.004 10.602 10.602 0 0 1 1.82-5.429 8.348 8.348 0 0 1 2.172-2.165 7.41 7.41 0 0 1 1.396-.725 7.44 7.44 0 0 1 1.544-.386c1.056-.156 2.136-.135 3.2-.202a7.669 7.669 0 0 0 3.164-.763c.488-.236.919-.585 1.26-1.021.34-.436.583-.948.708-1.496a3.705 3.705 0 0 0-.005-1.594 3.61 3.61 0 0 0-.672-1.43 3.397 3.397 0 0 0-1.203-.975 3.233 3.233 0 0 0-1.488-.322 2.332 2.332 0 0 0-1.336.52 1.507 1.507 0 0 0-.425.558 1.582 1.582 0 0 0-.135.7c.05.473.254.912.58 1.243.326.33.752.53 1.204.566a2.82 2.82 0 0 0 1.259-.271 2.947 2.947 0 0 0 1.029-.808 5.876 5.876 0 0 0 1.128-2.286c.199-.774.352-1.56.46-2.353.287-2.409.358-4.84.212-7.262-.04-.839-.072-1.515-.096-1.976 0-.218-.008-.39-.024-.516a.958.958 0 0 1 0-.176c.013.058.021.117.024.176 0 .126.024.294.044.512.032.453.084 1.116.132 1.976.18 2.428.13 4.869-.148 7.287a20.406 20.406 0 0 1-.452 2.378 6.065 6.065 0 0 1-1.132 2.354 3.13 3.13 0 0 1-1.091.859c-.42.198-.877.296-1.337.286a2.076 2.076 0 0 1-1.328-.619 2.265 2.265 0 0 1-.636-1.37c-.011-.274.04-.547.149-.796.11-.25.273-.468.479-.638a2.485 2.485 0 0 1 1.444-.567 3.475 3.475 0 0 1 1.934.567c.58.377 1.047.92 1.344 1.565.297.645.414 1.365.335 2.077a3.87 3.87 0 0 1-.777 1.941c-.37.459-.826.832-1.34 1.095a7.846 7.846 0 0 1-3.248.789c-1.092.067-2.168.046-3.2.193a7.525 7.525 0 0 0-1.504.373c-.475.184-.93.42-1.356.705a8.208 8.208 0 0 0-2.128 2.098 10.45 10.45 0 0 0-1.8 5.319 16.43 16.43 0 0 0 .448 4.963c.295 1.343.79 2.63 1.464 3.813a7.561 7.561 0 0 0 2 2.257 5.8 5.8 0 0 0 1.684.864c.204.063.364.101.472.126.06.012.117.032.172.059ZM74.74 68.634H33.7v29.559h41.04V68.634Z" fill="#263238"/><path d="M56.636 94.161h-5.588v11.151h5.588v-11.15Z" fill="#263238"/><path d="M37.784 104.884v4.01H58.96v59.764h1.948v-59.764l88.436.457v59.307h1.912v-59.416l13.648.114v-4.821l-127.12.349Z" fill="#263238"/><path d="m51.336 108.114 8.348 6.305-.724.73-8.42-6.649.796-.386ZM159.124 108.701l-9.688 7.237.728.73 9.756-7.581-.796-.386ZM90.464 103.403H68.576v1.69h21.888v-1.69Z" fill="#263238"/></g><defs><clipPath id="a"><path fill="#fff" d="M0 0h200v192H0z"/></clipPath></defs></svg>