<svg xmlns="http://www.w3.org/2000/svg" width="200" height="200" fill="none"><path d="m158.103 59.532-52.716 6.698 4.941 38.891 52.716-6.697-4.941-38.892Z" fill="#fff"/><path d="M163.044 98.427s-.036-.244-.1-.712c-.064-.468-.152-1.163-.272-2.064l-1.02-7.852c-.868-6.772-2.12-16.484-3.632-28.252l.096.076-52.712 6.712.092-.115c1.768 13.963 3.448 27.2 4.928 38.891l-.104-.084 38.04-4.8 10.82-1.348 2.872-.352.74-.088.256-.027-.244.035-.728.1-2.852.373-10.8 1.395-38.084 4.884h-.096v-.092l-4.948-38.888v-.104h.104l52.716-6.675h.084v.083l3.552 28.316c.4 3.38.748 6.029.976 7.837.108.895.192 1.6.248 2.052.056.452.068.7.068.7Z" fill="#E0E0E0"/><path d="M111.78 62.14h-3.372v8.36h3.372v-8.36ZM164.979 94.686l-2.225-2.529-6.27 5.518 2.225 2.529 6.27-5.518ZM121.02 77.304a3.695 3.695 0 0 1 .556.636 4.36 4.36 0 0 1 .732 2.156 4 4 0 0 1-.212 1.58 3.803 3.803 0 0 1-1 1.524 3.94 3.94 0 0 1-1.772.972 3.324 3.324 0 0 1-2.156-.172 3.468 3.468 0 0 1-2.144-3.368 3.557 3.557 0 0 1 1.816-2.8 3.93 3.93 0 0 1 2.84-.364c.071.013.14.038.204.072 0 0-.292-.072-.824-.096a4 4 0 0 0-2.148.516 3.432 3.432 0 0 0-1.696 2.668 3.29 3.29 0 0 0 2.036 3.16 3.135 3.135 0 0 0 2.024.168 3.793 3.793 0 0 0 1.688-.916 3.707 3.707 0 0 0 1.2-2.956 4.436 4.436 0 0 0-.652-2.12c-.312-.432-.512-.644-.492-.66ZM118 76.8c-.993.531-2.019.999-3.072 1.4a26.576 26.576 0 0 1-3.152 1.2 27.809 27.809 0 0 1 3.072-1.396A28.035 28.035 0 0 1 118 76.8Z" fill="#E0E0E0"/><path d="M117.436 77.42c-.27.23-.56.433-.868.608-.548.352-1.312.824-2.164 1.336-.852.512-1.624.964-2.192 1.284a4.937 4.937 0 0 1-.944.48c.268-.23.557-.431.864-.604a105.428 105.428 0 0 1 4.364-2.624c.297-.19.611-.352.94-.48ZM117.908 79.652a3.334 3.334 0 0 1 .068-1.148c.024-.384.116-.76.272-1.112.049.382.027.77-.064 1.144a3.194 3.194 0 0 1-.276 1.116ZM118.8 79.536a4.725 4.725 0 0 1 .144-1.968c.078.325.089.663.032.992a2.47 2.47 0 0 1-.176.976ZM119.56 79.404a2.623 2.623 0 0 1-.088-1.02 2.648 2.648 0 0 1 .116-1.016c.101.33.132.677.092 1.02.028.343-.013.688-.12 1.016ZM120.636 79.488a4.89 4.89 0 0 1-.264-2c.144.31.225.646.236.988.079.332.089.676.028 1.012ZM125.252 82.84a5.897 5.897 0 0 1-.592-.832 35.532 35.532 0 0 0-1.452-1.972 35.552 35.552 0 0 0-1.6-1.848 5.282 5.282 0 0 1-.68-.76c.291.189.559.41.8.66a19.11 19.11 0 0 1 3.08 3.84c.186.284.335.59.444.912ZM126.884 81.424a28.438 28.438 0 0 1-2.76-1.904 27.42 27.42 0 0 1-2.636-2.068c.96.573 1.882 1.208 2.76 1.9a25.813 25.813 0 0 1 2.636 2.072ZM120.036 81.6c.024 0 0 .232-.244.508a1.49 1.49 0 0 1-2.42-.212.801.801 0 0 1-.152-.548c.036 0 .08.204.276.464a1.437 1.437 0 0 0 2.188.196c.24-.232.316-.432.352-.408ZM117.164 80.036c0 .056-.028.12-.072.196-.044.076-.084.144-.144.152-.06.008-.12-.124-.032-.26s.236-.124.248-.088ZM119.696 80.032c.056 0 .096.104.088.224-.008.12-.064.212-.12.208-.056-.004-.096-.104-.088-.224.008-.12.064-.212.12-.208ZM119.568 83.836a.718.718 0 0 1 .092.148l.244.44c.212.4.508.976.872 1.676l2.972 5.82.064.124h-.144l-4 .476-2.632.304-.628.076a2.116 2.116 0 0 1-.656 0 .62.62 0 0 1-.316-.164.547.547 0 0 1-.156-.324 1.603 1.603 0 0 1 .108-.624l1.2-4c.344-1.116.628-2.028.832-2.688l.236-.728c.022-.086.054-.17.096-.248a1.54 1.54 0 0 1-.056.26c-.052.192-.116.436-.2.74l-.768 2.708-1.16 4c-.067.173-.1.358-.096.544a.362.362 0 0 0 .32.32c.195.03.393.03.588 0l.632-.076 2.624-.312 4-.464-.08.144-2.904-5.852c-.34-.712-.62-1.284-.82-1.7l-.212-.46a.772.772 0 0 1-.052-.14ZM118.34 96.487a8.539 8.539 0 0 1-.028-1.883c-.009-.63.05-1.26.176-1.876.081.624.092 1.256.032 1.884a8.952 8.952 0 0 1-.18 1.876ZM122.704 96.076a1.597 1.597 0 0 0-.648-.132 1.514 1.514 0 0 1-.76-.152.623.623 0 0 1-.284-.4 1.872 1.872 0 0 1 0-.496c.01-.78.088-1.558.232-2.324.064.778.056 1.56-.024 2.336a2.06 2.06 0 0 0 0 .444.395.395 0 0 0 .188.288c.208.105.436.164.668.172.175.011.345.06.5.14.1.048.136.116.128.124Z" fill="#E0E0E0"/><path d="M124.34 86.768a17.097 17.097 0 0 1-2.344-1.144 16.23 16.23 0 0 1-2.244-1.328c.809.32 1.593.703 2.344 1.144.782.383 1.532.827 2.244 1.328ZM117.568 84.16a18.879 18.879 0 0 1-1.868 2.16 20.149 20.149 0 0 1-2 2 19.039 19.039 0 0 1 1.864-2.16 19.484 19.484 0 0 1 2.004-2ZM130.312 82.44c.069 0 .138.01.204.028.194.043.384.108.564.192a3.403 3.403 0 0 1 1.572 1.5c.245.453.372.96.368 1.476a3.366 3.366 0 0 1-.468 1.688 3.314 3.314 0 0 1-1.4 1.332 3.358 3.358 0 0 1-4.596-4.18c.175-.486.471-.92.86-1.26a3.392 3.392 0 0 1 2-.856c.198-.022.398-.022.596 0 .068.008.135.023.2.044a6.888 6.888 0 0 0-.8 0 3.429 3.429 0 0 0-1.908.884c-.359.33-.633.742-.8 1.2a3.2 3.2 0 0 0-.12 1.652 3.128 3.128 0 0 0 5.816 1.088 3.26 3.26 0 0 0 .46-1.6 2.955 2.955 0 0 0-.324-1.408 3.424 3.424 0 0 0-1.48-1.496 6.99 6.99 0 0 0-.744-.284Z" fill="#E0E0E0"/><path d="M128.4 85.368c-.044.036-.168-.052-.196-.224-.028-.172.06-.296.112-.276.052.02.072.128.092.244.02.116.02.22-.008.256ZM130.676 85.232c-.036.044-.212-.052-.256-.276-.044-.224.076-.38.124-.352.048.028.044.16.08.312.036.152.088.284.052.316ZM131.452 85.6c.024 0-.036.216-.24.488a2.224 2.224 0 0 1-2.4.776c-.324-.1-.492-.232-.48-.252.174.023.347.06.516.108.4.074.812.05 1.2-.072a2.52 2.52 0 0 0 1.024-.656c.248-.236.352-.392.38-.392ZM128.224 88.312a5.094 5.094 0 0 1-1.776-.164 5.15 5.15 0 0 1-1.692-.564c.585.087 1.165.207 1.736.36.584.088 1.162.21 1.732.368ZM128.056 80.964c.147.317.213.666.192 1.016.047.346.007.697-.116 1.024a3.25 3.25 0 0 1-.092-1.016 3.48 3.48 0 0 1 .016-1.024ZM129.012 81.152c.112.294.157.61.132.924.04.313.013.63-.08.932a2.139 2.139 0 0 1-.128-.924 2.193 2.193 0 0 1 .076-.932ZM130.736 80.292a6.177 6.177 0 0 1-.332 1.088 7.007 7.007 0 0 1-.332 1.088 2.145 2.145 0 0 1 .132-1.148c.081-.384.265-.74.532-1.028ZM132.504 87.6c.063.113.112.234.144.36.08.24.192.584.324 1.012.132.428.284.952.452 1.504.059.155.085.321.076.488a.399.399 0 0 1-.144.264.553.553 0 0 1-.264.116c-.34.036-.66.048-1.004.076l-1.92.12-.432.024a.798.798 0 0 1-.236 0 .287.287 0 0 1-.192-.2 1.41 1.41 0 0 1 0-.4l.02-.352c.032-.444.06-.8.084-1.056-.002-.136.019-.271.06-.4.024.131.031.266.02.4v1.412a1.725 1.725 0 0 0 0 .352c.024.088.096.088.252.072l.428-.032 1.924-.136c.332-.024.684-.04.98-.072.144-.02.228-.088.244-.208a1.009 1.009 0 0 0-.06-.4 73.448 73.448 0 0 1-.4-1.516L132.604 88a1.204 1.204 0 0 1-.1-.4ZM131.248 92.56c.043.306.043.617 0 .924v.08h-.088c-.332 0-.728-.04-1.156-.072l-.364-.032h-.1v-.1a8.153 8.153 0 0 1 .216-1.704 7.976 7.976 0 0 1 0 1.72l-.096-.112.364.028c.424.032.824.068 1.152.104l-.092.08c.01-.312.065-.62.164-.916Z" fill="#E0E0E0"/><path d="M132.82 91.2c.11.213.19.44.236.676l.204.744c.048.156.07.32.064.484a.656.656 0 0 1-.304.472 1.412 1.412 0 0 1-.98.104h-.064v-.064c-.1-.4-.18-.724-.232-.976l.064.048a1.374 1.374 0 0 1-.488-.048c.156-.05.32-.076.484-.076h.044v.048c.084.244.184.572.296.96l-.08-.072c.283.068.581.037.844-.088a.436.436 0 0 0 .212-.32 1.287 1.287 0 0 0-.048-.4c-.052-.26-.108-.512-.156-.752a2.535 2.535 0 0 1-.096-.74ZM129.124 95.44s.1-.096.32-.12a1.114 1.114 0 0 1 .84.276l-.168.064c0-.188.028-.376.04-.568a7.674 7.674 0 0 1 .244-1.732c.06.582.048 1.169-.036 1.748 0 .192-.032.38-.052.568v.204l-.148-.14a1.129 1.129 0 0 0-.7-.3c-.212-.008-.332.024-.34 0Z" fill="#E0E0E0"/><path d="M134.452 95.224a4.618 4.618 0 0 1-1.28.292h-.096l-.02-.096c-.02-.108-.044-.216-.068-.324a6.615 6.615 0 0 1-.224-1.632c.21.513.353 1.05.428 1.6.024.112.044.22.064.328l-.112-.08c.43-.088.87-.117 1.308-.088ZM136.06 85.712c-.59.459-1.222.86-1.888 1.2a12.53 12.53 0 0 1-2 1.008c.59-.459 1.222-.86 1.888-1.2a12.133 12.133 0 0 1 2-1.008ZM138.94 72.26a1.05 1.05 0 0 1 .244-.048c.239-.03.48-.037.72-.024a4.399 4.399 0 0 1 4.156 4.364c.005.387-.061.772-.196 1.136a2.301 2.301 0 0 1-.712.984c-.332.249-.697.45-1.084.6-.4.156-.78.304-1.2.424a4.087 4.087 0 0 1-2.492.064 3.097 3.097 0 0 1-1.708-1.568 3.652 3.652 0 0 1-.352-2.072 4.837 4.837 0 0 1 .556-1.748 3.953 3.953 0 0 1 1.824-1.868c.224-.096.465-.145.708-.144.084-.001.168.011.248.036a2.08 2.08 0 0 0-.924.18A4.002 4.002 0 0 0 137 74.44a4.789 4.789 0 0 0-.512 1.7 3.462 3.462 0 0 0 .352 1.968 2.923 2.923 0 0 0 1.6 1.46 3.94 3.94 0 0 0 2.368-.072c.4-.116.8-.264 1.168-.4.371-.139.72-.33 1.036-.568a2.452 2.452 0 0 0 .844-1.96 4.35 4.35 0 0 0-1.6-3.328 4.487 4.487 0 0 0-2.372-.956 8.77 8.77 0 0 0-.944-.024Z" fill="#E0E0E0"/><path d="M138.672 75.62c-.052-.02-.048-.184 0-.364s.152-.32.208-.3c.056.02.052.18 0 .364s-.152.316-.208.3ZM141.072 75.128c-.052.024-.16-.084-.244-.244-.084-.16-.112-.316-.06-.344.052-.028.16.084.244.248.084.164.112.312.06.34ZM142.328 75.6a1.17 1.17 0 0 1-.264.632 2.476 2.476 0 0 1-2.984.924 1.2 1.2 0 0 1-.572-.372c0-.028.232.116.624.236a2.644 2.644 0 0 0 1.544 0 2.685 2.685 0 0 0 1.272-.876c.252-.32.348-.544.38-.544ZM138.488 74.272c-.052 0-.2-.244-.236-.608-.036-.364.048-.656.104-.648.056.008.064.288.104.624.04.336.084.612.028.632ZM139.464 74.064c-.048.028-.252-.264-.368-.68a1.127 1.127 0 0 1-.032-.768c.06 0 .124.324.232.716.108.392.22.704.168.732ZM140.608 73.976c-.024.048-.376-.092-.656-.456s-.328-.736-.276-.748c.052-.012.188.3.444.62s.52.532.488.584ZM133.068 80.308a.64.64 0 0 1 .244-.4c.14-.124.293-.231.456-.32.208-.102.399-.237.564-.4a.573.573 0 0 0 .116-.709c-.148-.243-.484-.4-.708-.716a.725.725 0 0 1-.084-.6c.059-.2.173-.382.328-.523.33-.254.715-.427 1.124-.505.372-.076.706-.28.944-.576a.693.693 0 0 0 .116-.471 3.42 3.42 0 0 0-.156-.504 1.32 1.32 0 0 1 .112-1.044c.145-.273.355-.505.612-.677a3.497 3.497 0 0 1 1.2-.463c.151-.044.307-.066.464-.065-.144.061-.292.11-.444.145a3.804 3.804 0 0 0-1.14.507 1.75 1.75 0 0 0-.544.629 1.163 1.163 0 0 0-.084.907c.072.174.13.353.172.537a.878.878 0 0 1-.144.611 1.792 1.792 0 0 1-1.052.66 2.603 2.603 0 0 0-1.044.456.7.7 0 0 0-.22.876c.164.273.504.425.692.728a.656.656 0 0 1 .076.5.948.948 0 0 1-.232.4 2.163 2.163 0 0 1-.616.4c-.161.08-.315.174-.46.28a1.622 1.622 0 0 0-.292.337ZM144.4 76.056c.063-.115.139-.22.228-.316.219-.26.378-.564.464-.892a1.093 1.093 0 0 0-.076-.66.691.691 0 0 0-.572-.4c-.302-.01-.604 0-.904.028-.18.01-.359-.028-.52-.108a.751.751 0 0 1-.352-.444 5.972 5.972 0 0 1-.056-1 .714.714 0 0 0-.444-.632 1.496 1.496 0 0 0-.768-.096c-.252.024-.496.06-.708.1a1.882 1.882 0 0 0-.924.4 2.41 2.41 0 0 0-.236.292s0-.036.024-.1a.735.735 0 0 1 .156-.248c.259-.254.59-.423.948-.484.22-.052.46-.092.724-.128.291-.046.589-.014.864.092a.904.904 0 0 1 .564.8c-.003.32.016.641.056.96a.607.607 0 0 0 .672.4c.31-.022.622-.022.932 0a.865.865 0 0 1 .7.532c.101.239.124.503.064.756-.101.348-.29.665-.548.92-.184.148-.288.236-.288.228ZM146.296 70.492c.062-.05.129-.09.2-.124.199-.105.405-.197.616-.276a5.477 5.477 0 0 1 2.44-.38c.58.045 1.142.221 1.644.516a3.604 3.604 0 0 1 1.336 1.456c.346.66.486 1.41.4 2.152a3.546 3.546 0 0 1-1.084 2.076c-.577.557-1.32.91-2.116 1.008a3.543 3.543 0 0 1-2.136-.46 3.81 3.81 0 0 1-1.404-1.392 3.371 3.371 0 0 1-.432-1.668c.001-.843.291-1.66.82-2.316.185-.243.415-.45.676-.608-.22.203-.424.422-.612.656a3.706 3.706 0 0 0-.736 2.264c.003.561.152 1.113.432 1.6.326.55.793 1.002 1.352 1.312a3.358 3.358 0 0 0 2 .424 3.497 3.497 0 0 0 2-.956 3.345 3.345 0 0 0 1.024-1.952 3.54 3.54 0 0 0-1.6-3.432 3.752 3.752 0 0 0-1.572-.516 5.623 5.623 0 0 0-2.4.308c-.552.172-.84.324-.848.308Z" fill="#E0E0E0"/><path d="M147.536 73.6a.152.152 0 0 1-.028-.288c.056 0 .108.056.116.136.008.08-.024.152-.088.152ZM150.056 72.692c-.052 0-.128-.06-.168-.172-.04-.112-.024-.22.028-.236.052-.016.132.056.168.168.036.112.028.22-.028.24ZM151 72.872c.024 0-.028.232-.224.54a2.85 2.85 0 0 1-2.436 1.256 1.073 1.073 0 0 1-.572-.132c.19-.013.382-.013.572 0a3.227 3.227 0 0 0 1.284-.352 3.17 3.17 0 0 0 1.032-.844c.216-.284.316-.484.344-.468ZM145.36 70.4c.04-.044.352.16.704.456.352.296.604.572.568.616-.036.044-.352-.16-.704-.456-.352-.297-.604-.573-.568-.617ZM146.096 70.04c.04-.044.308.128.608.4s.504.496.468.54c-.036.044-.308-.128-.604-.4s-.508-.496-.472-.54ZM147.236 69.312c.052-.024.26.296.464.72.204.424.324.8.272.8-.052 0-.26-.296-.46-.716s-.312-.78-.276-.804ZM142.824 78.58c.034.052.064.106.088.164l.224.484c.204.444.476 1.06.82 1.82.692 1.6 1.648 3.78 2.76 6.32l.052.116h-.128l-3.896.648-4.4.716-.136.02.024-.136c.444-2.604.828-4.84 1.104-6.456.14-.776.256-1.4.336-1.856.04-.2.072-.364.1-.492a.75.75 0 0 1 .044-.168.988.988 0 0 1 0 .172c0 .132-.04.296-.068.5-.068.456-.16 1.084-.28 1.864-.256 1.62-.616 3.86-1.032 6.468l-.112-.112 4.4-.728 3.9-.636-.076.136-2.692-6.344-.764-1.844-.196-.496a.724.724 0 0 1-.072-.16ZM141.736 93.2a10.156 10.156 0 0 1-.176-2.329 9.804 9.804 0 0 1 .164-2.331c.06.775.075 1.554.044 2.331.038.776.028 1.554-.032 2.329ZM144.756 93.016a15.316 15.316 0 0 1-.4-2.5 15.454 15.454 0 0 1-.184-2.524c.2.821.334 1.657.4 2.5.132.834.193 1.679.184 2.524ZM139.548 80.172a12.189 12.189 0 0 1-1.248 2.4c-.45.785-.987 1.518-1.6 2.184-.048-.036.628-1.032 1.408-2.296.78-1.264 1.388-2.316 1.44-2.288ZM147.292 82.696a19.668 19.668 0 0 1-2.264-1.796 19.818 19.818 0 0 1-2.128-1.956 20.248 20.248 0 0 1 2.264 1.8 21.068 21.068 0 0 1 2.128 1.952Z" fill="#E0E0E0"/><path d="M146.604 82.332c.007-.287.053-.57.136-.844.158-.67.36-1.329.604-1.972.242-.644.527-1.27.852-1.877.116-.262.269-.506.456-.724.056.028-.552 1.2-1.112 2.676-.56 1.477-.876 2.757-.936 2.74ZM154.36 82.952c-.126.073-.26.13-.4.168-.28.096-.684.224-1.2.352-.516.128-1.12.264-1.808.376l-.528.08c-.19.035-.383.047-.576.036a.621.621 0 0 1-.312-.108.602.602 0 0 1-.208-.276 2.615 2.615 0 0 1-.108-.608c-.172-1.6-.316-3.024-.4-4.068l-.1-1.236a1.74 1.74 0 0 1 0-.456c.045.146.075.296.088.448.048.332.1.744.168 1.228.132 1.04.3 2.472.472 4.06.009.188.04.375.092.556a.402.402 0 0 0 .352.26 2.68 2.68 0 0 0 .528-.036l.524-.072c.68-.1 1.292-.216 1.8-.328.508-.112.92-.212 1.2-.284.134-.047.274-.078.416-.092Z" fill="#E0E0E0"/><path d="M153.88 82.5a5.22 5.22 0 0 1-.36-.992c-.2-.62-.46-1.48-.736-2.432-.132-.472-.26-.924-.376-1.348-.113-.367-.205-.74-.276-1.116a1.656 1.656 0 0 1 .044-.8.521.521 0 0 1 .152-.248c-.112.326-.13.676-.052 1.012.152.616.444 1.476.708 2.428.264.952.512 1.82.676 2.452.108.34.181.69.22 1.044Z" fill="#E0E0E0"/><path d="M155.2 78.54a9.701 9.701 0 0 1-2.892-2.68c.508.417.991.863 1.448 1.336.506.421.988.87 1.444 1.344ZM150.512 92.256a7.262 7.262 0 0 1-.096-1.232c-.036-.828-.084-1.848-.132-2.976a499.637 499.637 0 0 0-.136-2.976 7.728 7.728 0 0 1 0-1.236c.09.404.144.815.16 1.228.068.76.144 1.812.196 2.976.052 1.164.072 2.216.068 2.98.017.413-.003.827-.06 1.236Z" fill="#E0E0E0"/><path d="M150.8 91.928c.032.048-.168.228-.476.308-.308.08-.568.024-.564-.032.004-.056.236-.096.512-.168.276-.072.484-.156.528-.108ZM155.092 92.055c-.148.04-.299.062-.452.064-.288.028-.708.06-1.228.097h-.076v-.076a98.24 98.24 0 0 0-.696-7.116c-.052-.428-.1-.8-.14-1.105-.028-.13-.038-.266-.028-.4.052.13.088.263.108.4.056.257.128.629.208 1.093.16.924.344 2.212.48 3.64.132 1.347.196 2.58.22 3.492l-.08-.073c.52 0 .94-.028 1.232-.028.15-.016.303-.012.452.012Z" fill="#E0E0E0"/><path d="m161.133 104.618-2.567 37.561 26.614 1.819 2.567-37.561-26.614-1.819Z" fill="#fff"/><path d="M185.2 144v-.184c0-.12 0-.3.028-.528.032-.472.076-1.16.132-2.056.116-1.796.288-4.4.5-7.72.444-6.616 1.068-16 1.804-27.076l.088.1-26.608-1.808.112-.096c-.968 14.072-1.868 27.084-2.588 37.556l-.08-.092 19.344 1.368 5.364.4 1.412.108.488.04-.472-.02-1.396-.088-5.352-.344-19.396-1.284h-.084v-.084c.712-10.472 1.6-23.484 2.548-37.56v-.104h.104l26.608 1.828h.092v.092c-.78 11.108-1.44 20.504-1.904 27.132l-.552 7.696c-.064.884-.116 1.568-.148 2.032-.02.228-.032.4-.044.52a.6.6 0 0 0 0 .172Z" fill="#E0E0E0"/><path d="m162.186 106.351 2.33 1.232 3.056-5.777-2.33-1.233-3.056 5.778ZM182.544 144.995l2.33 1.233 3.056-5.777-2.33-1.233-3.056 5.777ZM166.42 126c-.01-1.335.047-2.67.172-4 .056-1.339.181-2.674.376-4a39.87 39.87 0 0 1-.168 4 39.13 39.13 0 0 1-.38 4Z" fill="#E0E0E0"/><path d="M172.544 115.22c.028.052-1.796 1.104-4.072 2.348-2.276 1.244-4.144 2.22-4.168 2.168-.024-.052 1.792-1.1 4.068-2.348 2.276-1.248 4.144-2.22 4.172-2.168ZM180.604 119.356c-.024.052-1.868-.772-4.116-1.844-2.248-1.072-4.052-2-4.028-2.036.024-.036 1.868.772 4.116 1.848 2.248 1.076 4.056 1.98 4.028 2.032ZM178.44 126.304a4.738 4.738 0 0 1-.04-1.044c0-.644.048-1.532.132-2.512s.196-1.86.296-2.496c.033-.347.105-.689.212-1.02.009.348-.014.696-.068 1.04-.064.708-.144 1.556-.232 2.496-.088.94-.136 1.784-.192 2.5a5.63 5.63 0 0 1-.108 1.036Z" fill="#E0E0E0"/><path d="M181.648 126.524c0 .056-3.968-.168-8.852-.5-4.884-.332-8.84-.652-8.836-.712.004-.06 3.964.168 8.852.504 4.888.336 8.84.648 8.836.708Z" fill="#E0E0E0"/><path d="M170.148 140.772c.063-.029.128-.052.196-.068l.572-.164a9.174 9.174 0 0 0 2-.8 4.05 4.05 0 0 0 1.136-.94c.366-.431.615-.949.724-1.504a2.306 2.306 0 0 0-.38-1.752 5.047 5.047 0 0 0-1.504-1.324 17.658 17.658 0 0 1-1.716-1.152 4.986 4.986 0 0 1-1.24-1.5 4.939 4.939 0 0 1 .304-5.228c.114-.163.241-.317.38-.46.096-.096.148-.148.156-.14.008.008-.192.216-.472.648a5.131 5.131 0 0 0-.76 2 4.898 4.898 0 0 0 1.76 4.512c.545.411 1.113.791 1.7 1.14a5.07 5.07 0 0 1 1.56 1.38 2.485 2.485 0 0 1 .4 1.9 3.407 3.407 0 0 1-.78 1.58 4.164 4.164 0 0 1-1.2.96c-.651.344-1.345.6-2.064.76a8.176 8.176 0 0 1-.584.128.596.596 0 0 1-.188.024ZM178.82 141.6s.168-.212.444-.604a7.105 7.105 0 0 0 .908-1.796 4.568 4.568 0 0 0 .056-2.92c-.352-1.068-1.284-1.964-2.356-2.692-1.072-.728-2.196-1.344-3.032-2.152a5.08 5.08 0 0 1-1.004-1.3 3.41 3.41 0 0 1-.368-1.384 2.762 2.762 0 0 1 .592-1.948c.163-.195.37-.349.604-.448a3.455 3.455 0 0 0-.54.5 2.725 2.725 0 0 0-.508 1.888c.03.459.158.907.376 1.312.258.463.589.882.98 1.24.82.776 1.924 1.376 3.016 2.12 1.092.744 2.06 1.672 2.424 2.8a4.632 4.632 0 0 1-.1 3.024 6.517 6.517 0 0 1-.984 1.8 5.248 5.248 0 0 1-.364.424.925.925 0 0 1-.144.136ZM182.652 122.516a8.21 8.21 0 0 1-.024 1.88 8.138 8.138 0 0 1-.232 1.864 8.818 8.818 0 0 1 .024-1.88c.01-.628.088-1.253.232-1.864Z" fill="#E0E0E0"/><path d="M178 116.604a.5.5 0 0 1 .092-.092.804.804 0 0 1 .348-.144 1.09 1.09 0 0 1 .6.072.932.932 0 0 1 .552.6h-.12c.143-.365.4-.674.732-.88.394-.26.867-.372 1.336-.316a1.961 1.961 0 0 1 1.593 1.718c.031.278.002.559-.085.826l-.168-.112a.976.976 0 0 1 .68-.232c.247.013.486.093.692.232.221.139.397.339.508.576.102.23.151.48.144.732-.029.47-.166.927-.4 1.336a2.45 2.45 0 0 1-.8 1.008.913.913 0 0 1-1.164-.148l.152-.064a1.249 1.249 0 0 1-.8 1.284 1.112 1.112 0 0 1-.602.042 1.112 1.112 0 0 1-.534-.282 1.137 1.137 0 0 1-.368-.648.586.586 0 0 1 0-.196v-.068s0 .092.048.252c.067.233.207.44.4.588a.995.995 0 0 0 1.02.184 1.103 1.103 0 0 0 .668-1.132l-.048-.32.2.256a.736.736 0 0 0 .932.092c.325-.241.581-.564.74-.936.209-.385.328-.811.348-1.248a1.544 1.544 0 0 0-.124-.644 1.248 1.248 0 0 0-1.02-.692.794.794 0 0 0-.536.184l-.292.256.128-.368a1.768 1.768 0 0 0-.192-1.512 1.625 1.625 0 0 0-1.148-.8 1.848 1.848 0 0 0-1.224.264 1.74 1.74 0 0 0-.7.8l-.076.176-.044-.184a.836.836 0 0 0-.472-.54 1.016 1.016 0 0 0-.548-.096c-.16.026-.313.086-.448.176ZM174.98 113.94c.078.396.086.802.024 1.2.01.408-.054.814-.188 1.2a3.635 3.635 0 0 1-.02-1.2 3.567 3.567 0 0 1 .184-1.2ZM176.64 114.16c0 .056-.312.08-.684.056-.372-.024-.672-.092-.668-.152.004-.06.308-.08.684-.056.376.024.672.092.668.152ZM176.508 117.6a7.205 7.205 0 0 1 0-1.724 7.069 7.069 0 0 1 .22-1.712 7.205 7.205 0 0 1 0 1.724 7.272 7.272 0 0 1-.22 1.712ZM175.964 113.856a.552.552 0 0 1 .088-.148c.108-.131.245-.233.4-.3.253-.106.527-.152.8-.132.355.031.702.126 1.024.28.388.184.789.339 1.2.464a2.77 2.77 0 0 0 1.44-.036 2.8 2.8 0 0 0 1.364-.856c.2-.204.339-.461.4-.74a.578.578 0 0 0-.352-.644l-.292-.084.284-.108a2.14 2.14 0 0 0 1.16-1.06 1.828 1.828 0 0 0 .036-1.632 1.785 1.785 0 0 0-1.964-1.04 1.72 1.72 0 0 0-1.324 1.6v.292l-.176-.236a.847.847 0 0 0-.844-.272 1.123 1.123 0 0 0-.736.488 2.288 2.288 0 0 0-.212 1.648l.02.108-.104-.024a2.253 2.253 0 0 0-1.416.18 2.536 2.536 0 0 0-.872.672 3.022 3.022 0 0 0-.452.836c.008-.084.025-.168.052-.248.077-.229.191-.443.336-.636.235-.307.537-.556.884-.728a2.368 2.368 0 0 1 1.496-.22l-.088.088a2.397 2.397 0 0 1 .212-1.768 1.278 1.278 0 0 1 .844-.572 1.015 1.015 0 0 1 1.032.336l-.172.056a1.907 1.907 0 0 1 1.468-1.792 1.764 1.764 0 0 1 1.284.18c.4.217.721.556.916.968a2.03 2.03 0 0 1-.04 1.812 2.34 2.34 0 0 1-1.276 1.156v-.188a.771.771 0 0 1 .488.864c-.066.315-.22.605-.444.836a3.01 3.01 0 0 1-1.456.9 2.939 2.939 0 0 1-1.524 0 7.895 7.895 0 0 1-1.2-.496 2.929 2.929 0 0 0-.98-.292 1.63 1.63 0 0 0-.748.096 1.31 1.31 0 0 0-.556.392ZM170.876 125.056a4.281 4.281 0 0 1 0-1.308c-.004-.44.062-.877.196-1.296a8.41 8.41 0 0 1-.18 2.604h-.016ZM174.296 122.464c-.538.07-1.082.07-1.62 0a6.182 6.182 0 0 1-1.6-.216 12.849 12.849 0 0 1 3.228.22l-.008-.004Z" fill="#E0E0E0"/><path d="M173.968 125.683a6.877 6.877 0 0 1 0-1.672 6.965 6.965 0 0 1 .216-1.656 6.498 6.498 0 0 1 0 1.672 6.653 6.653 0 0 1-.216 1.656ZM176.216 119.2s.076 0 .18.08a.827.827 0 0 1 .284.464.913.913 0 0 1-.168.8.925.925 0 0 1-.977.242.931.931 0 0 1-.623-.79.946.946 0 0 1 .36-.728.791.791 0 0 1 .508-.192c.132 0 .196.04.192.048a1.117 1.117 0 0 0-.604.256.797.797 0 0 0-.264.608.75.75 0 0 0 1.248.432.833.833 0 0 0 .168-.644 1.059 1.059 0 0 0-.304-.576ZM168.744 119.244a.943.943 0 0 0-.092.504.613.613 0 0 0 .276.428.53.53 0 0 0 .576-.064.534.534 0 0 0 .216-.544.614.614 0 0 0-.344-.376.95.95 0 0 0-.512-.04s.032-.056.128-.096a.64.64 0 0 1 .436 0 .745.745 0 0 1 .476.456.706.706 0 0 1-.017.424.707.707 0 0 1-.255.34.7.7 0 0 1-.8.064.745.745 0 0 1-.32-.576.672.672 0 0 1 .112-.42c.056-.084.112-.108.12-.1ZM167.312 109.788s.036 0 .108-.02c.105-.006.21.003.312.028.382.083.726.291.976.592.183.205.32.448.4.712.081.307.068.632-.036.932a1.88 1.88 0 0 1-1.668 1.2 1.515 1.515 0 0 1-1.044-.376 1.807 1.807 0 0 1-.556-.864 1.726 1.726 0 0 1-.032-.932c.067-.266.205-.508.4-.7a1.646 1.646 0 0 1 1.04-.476.79.79 0 0 1 .4.044c0 .02-.148 0-.4.036a1.643 1.643 0 0 0-.944.5 1.448 1.448 0 0 0-.304 1.472 1.49 1.49 0 0 0 1.416 1.088 1.713 1.713 0 0 0 1.492-1.048 1.54 1.54 0 0 0 .056-.779 1.54 1.54 0 0 0-.336-.705 1.782 1.782 0 0 0-.884-.612c-.244-.08-.396-.072-.396-.092ZM167.02 115.28c-.056 0-.1-.328-.1-.732 0-.404.052-.732.108-.732s.104.328.1.732c-.004.404-.052.732-.108.732ZM165.332 112.864c.036.044-.156.252-.432.464-.276.212-.524.348-.56.304-.036-.044.16-.256.432-.468.272-.212.524-.364.56-.3ZM165.14 111.072c.024.052-.288.228-.72.26s-.764-.1-.748-.152c.016-.052.34-.028.736-.056.396-.028.712-.108.732-.052ZM166.18 109.676c0 .052-.42-.056-.744-.428s-.4-.8-.328-.8c.072 0 .192.328.484.656s.612.516.588.572ZM167.544 107.788c.06 0 .104.328.104.732 0 .404-.048.732-.108.732s-.1-.328-.1-.732c0-.404.048-.732.104-.732ZM170.044 109.736c.036.04-.132.252-.38.464-.248.212-.472.352-.512.312-.04-.04.132-.252.376-.468.244-.216.472-.352.516-.308ZM171.488 111.516a3.438 3.438 0 0 1-1.676.096c.261-.116.547-.168.832-.152.464-.028.844-.004.844.056ZM169.972 113.808c-.036.04-.268-.1-.512-.32s-.4-.432-.372-.472c.028-.04.264.1.512.316s.4.432.372.476Z" fill="#E0E0E0"/><path d="M96.404 17.016h-67.78V138.78h67.78V17.016Z" fill="#EBEBEB"/><path d="M92.996 20.548H31.332v114.604h61.664V20.548Z" fill="#FAFAFA"/><path d="m99.272 139.88-2.868-1.1V14.952h2.868V139.88Z" fill="#E0E0E0"/><path d="m46.452 94.576 16-14.884c2.032-1.888 4.684-3.92 7.292-2.988 1.256.448 2.2 1.52 3.432 2.032 2.46 1.024 5.268-.456 7.156-2.332s3.384-4.224 5.676-5.6c2.292-1.376 5.848-1.2 6.98 1.224v16.2l-23.276 9.964-23.26-3.616Z" fill="#F5F5F5"/><path d="M31.332 85.264c5.904-2.4 11.792-.36 16 4.4.888 1.004 1.7 2.164 2.92 2.72 1.656.748 3.564.188 5.372 0a13.497 13.497 0 0 1 12.7 6.156l-19.704 9.692-17.304-.128.016-22.84Z" fill="#E0E0E0"/><path d="M93 85.348c-3.888-1.88-7.308.4-10.896 2.8-3.588 2.4-6.904 5.48-11.124 6.448-2.8.644-5.82.288-8.54 1.256-5.536 1.968-8.736 9-14.6 9.336-3.2.18-6.044-1.752-8.888-3.2-2.844-1.448-5.084-2.824-7.6-.884v34.048H93V85.348Z" fill="#EBEBEB"/><path d="M94.336 53.516H31.332v1.22h63.004v-1.22ZM94.336 80.808H31.332v1.22h63.004v-1.22ZM94.336 108.1H31.332v1.22h63.004v-1.22Z" fill="#E0E0E0"/><path d="M60.608 54.128v84.276h3.116V54.128h-3.116ZM44.62 20.548h-1.412v33.58h1.412v-33.58ZM56.792 20.548H55.38v33.58h1.412v-33.58ZM68.968 20.548h-1.412v33.58h1.412v-33.58ZM81.14 20.548h-1.412v33.58h1.412v-33.58ZM28.628 14.952H25.76v124.584h2.868V14.952Z" fill="#E0E0E0"/><path d="M99.276 13.696H25.76v3.324h73.516v-3.324ZM101.212 140.288H23.724v3.096h77.488v-3.096Z" fill="#E0E0E0"/><path d="m96.404 138.78 4.808 1.508H23.724l4.9-1.508h67.78Z" fill="#EBEBEB"/><path d="M196.14 162.4c0 .06-42.932.104-95.88.104-52.948 0-95.888-.028-95.888-.104s42.92-.104 95.888-.104 95.88.064 95.88.104Z" fill="#263238"/><path d="M138.372 144.492s-3.252.176-4.504.668c-1.252.492-7.268 3.364-7.268 3.364s-8.152 3.476-9.78 4.4c-2.08 1.172-6.7 2.488-5.836 9.724h8.092l3.36-5.12 3.876.204 7.568 4.712h52.456s.92-7.456-2.86-10.628c-3.78-3.172-18.592-6.552-18.592-6.552s-5.2-1.108-6.472-1.108l-20.04.336Z" fill="#F14953"/><path opacity=".3" d="M132.764 155.008a4.823 4.823 0 0 1 5.2 2.492c.4.8.588 1.736 1.272 2.296.684.56 1.544.576 2.38.596l6.708.156a3.151 3.151 0 0 0 1.672-.264c.824-.464 1.056-1.512 1.444-2.376a6.462 6.462 0 0 1 3.648-3.272 9.609 9.609 0 0 1 4.964-.364c1.088.184 2.324.476 3.2-.184.576-.432.828-1.16 1.2-1.772.372-.612 1.08-1.172 1.764-.944.92.304 1.1 1.804 2.06 1.932.424.056.824-.196 1.24-.292.416-.096 3.716-.876 3.68-.448 0 0-2.892 1.568-3.056 1.712-3.264 2.868-6.556 5.552-9.82 8.42l-31.028-.348 3.472-7.34Z" fill="#000"/><path d="M165.952 148.844a1.332 1.332 0 0 0-.252-.028.73.73 0 0 0-.552.344 8.724 8.724 0 0 0-1 2.116 12.422 12.422 0 0 0-.472 3.292 2.994 2.994 0 0 1-.1-.988c.003-.804.13-1.603.376-2.368a7.315 7.315 0 0 1 1.08-2.148.824.824 0 0 1 .668-.332c.184.016.26.104.252.112ZM132.668 156.8a1.522 1.522 0 0 1-.16-.4 8.174 8.174 0 0 1-.228-1.16 22.387 22.387 0 0 1-.056-3.892c.092-1.516.248-2.88.4-3.868.068-.492.132-.888.18-1.16.015-.145.048-.288.1-.424.008.144.002.289-.02.432-.032.324-.068.712-.112 1.172a88.468 88.468 0 0 0-.328 3.86 27.38 27.38 0 0 0 0 3.864c.06.96.256 1.544.224 1.576ZM122.136 156.8a8.517 8.517 0 0 0-2.04-2.096 8.655 8.655 0 0 0-2.704-1.1c.293-.028.589.001.872.084a5.892 5.892 0 0 1 1.948.844 5.722 5.722 0 0 1 1.516 1.488c.184.232.322.497.408.78ZM179.792 151.176c0 .036-.608.052-1.6.148a15.844 15.844 0 0 0-3.708.8 21.71 21.71 0 0 0-3.432 1.652c-.448.284-.911.543-1.388.776a2.12 2.12 0 0 1 .34-.264c.224-.16.556-.376.972-.64a18.33 18.33 0 0 1 3.436-1.72 14.03 14.03 0 0 1 3.768-.768c.492-.028.888-.04 1.164-.028.151-.004.301.011.448.044ZM172.212 151.084a8.064 8.064 0 0 1-.78.296 6.054 6.054 0 0 0-2.952 2.552c-.26.44-.376.74-.4.728.04-.282.133-.553.276-.8a5.286 5.286 0 0 1 3.036-2.624c.261-.104.539-.156.82-.152Z" fill="#263238"/><path d="M120.684 155.348c0 .036-.552.176-1.416.492a7.99 7.99 0 0 0-3.028 1.856 4.643 4.643 0 0 0-1.308 3.2c.029.495.134.982.312 1.444a1.406 1.406 0 0 1-.204-.352 3.137 3.137 0 0 1-.252-1.084 4.583 4.583 0 0 1 1.3-3.36 7.602 7.602 0 0 1 3.132-1.852c.444-.144.8-.236 1.064-.292.131-.034.265-.051.4-.052ZM172.548 162.4c.159-.399.293-.808.4-1.224a7.862 7.862 0 0 0 .024-3.072 5.034 5.034 0 0 0-.56-1.6 3.72 3.72 0 0 0-.904-1.028c-.628-.484-1.072-.712-1.052-.744.115.027.224.073.324.136.279.142.547.307.8.492a3.6 3.6 0 0 1 .98 1.044c.295.509.5 1.065.604 1.644a7.377 7.377 0 0 1-.088 3.144 4.252 4.252 0 0 1-.34.9c-.1.232-.176.332-.188.308Z" fill="#263238"/><path d="M143.26 148.952v-.112c-4.548-.592-6.644-4.98-6.944-10.228-.16-2.8-.284-3.012-.088-9.048a47.343 47.343 0 0 1 1.528-10.54s3.684-4.624 10.644-4.1 10.58 9.876 10.58 9.876-.048 14.212-.46 17.084a23.347 23.347 0 0 0-.348 3.896l-.164 3.512a7.378 7.378 0 0 1-14.748-.34Z" fill="#FFBE9D"/><path d="M158.632 133.708c.12-.052 4.888-1.484 4.768 3.392-.12 4.876-4.988 3.748-4.992 3.6-.004-.148.224-6.992.224-6.992Z" fill="#FFBE9D"/><path d="M159.94 138.9c.024 0 .084.06.228.128a.81.81 0 0 0 .632.028c.52-.176.976-.984 1.02-1.86a2.806 2.806 0 0 0-.208-1.224.976.976 0 0 0-.624-.664.426.426 0 0 0-.504.22c-.072.132-.044.232-.068.24-.024.008-.104-.084-.06-.284a.575.575 0 0 1 .2-.304.64.64 0 0 1 .472-.112 1.2 1.2 0 0 1 .872.78 2.9 2.9 0 0 1 .26 1.364c-.056.984-.58 1.888-1.292 2.076a.91.91 0 0 1-.772-.148c-.148-.124-.172-.232-.156-.24Z" fill="#EB996E"/><path d="M138.992 132.436c.132.14.932-.464 2.076-.468 1.144-.004 2 .56 2.104.42.06-.064-.076-.312-.44-.576a2.909 2.909 0 0 0-1.688-.504 2.8 2.8 0 0 0-1.652.544c-.348.272-.464.524-.4.584ZM150.188 132.244c.136.136.936-.464 2.076-.472 1.14-.008 2 .56 2.108.42.06-.064-.076-.312-.444-.576a2.933 2.933 0 0 0-1.688-.504 2.801 2.801 0 0 0-1.648.544c-.348.272-.468.524-.404.588ZM151.372 128.592c.06.24.752.268 1.508.512s1.348.584 1.536.42c.084-.084.036-.304-.18-.568a2.453 2.453 0 0 0-2.4-.732c-.324.096-.488.252-.464.368ZM139.704 128.14c.2.224.936.256 1.644.08.708-.176 1.124-.5.928-.72-.196-.22-.936-.256-1.644-.076-.708.18-1.124.496-.928.716ZM147.464 140.968c0 .068.136.188.44.232a1.6 1.6 0 0 0 1.744-1.324c.044-.304-.032-.484-.104-.484-.144 0-.26.644-.828 1.068-.568.424-1.22.368-1.252.508Z" fill="#263238"/><path d="M143.256 148.84s5.844.092 7.224-.916c0 0-.88 2.8-7.068 2.508l-.156-1.592Z" fill="#EB996E"/><path d="M133.348 123.86c-.072-1.144-.42-2.264-.424-3.412a6.193 6.193 0 0 1 2.08-4.524 7.372 7.372 0 0 1 4.692-1.8c1.284-.032 2.576.24 3.844.052 1.08-.156 2.08-.64 3.14-.904a7.995 7.995 0 0 1 6.44 1.2s2.236 1.3 4.992 4.504c0 0 4.992.148 4.768 7.148-.224 7-.716 7.876-.716 7.876l-1.648-.5c.14.8.276 1.636-.16 2.372a1.28 1.28 0 0 1-1.124.66c-.964-.048-1.284-1.16-1.392-2.06a74.937 74.937 0 0 1-.536-7.164c-.02-.672-.164-1.52-.8-1.676-.4-.088-.76.12-1.14.22a2.12 2.12 0 0 1-2.124-.68c-.08.916-1.32 1.328-2.152.94-.832-.388-1.324-1.244-1.764-2.048a3.695 3.695 0 0 1-.116 1.512 1.252 1.252 0 0 1-1.136.872c-.592-.028-.996-.596-1.272-1.12a13.987 13.987 0 0 1-1.384-4.036 8.462 8.462 0 0 1-3.528 5.372c-.208-.613-.415-1.225-.62-1.836a3.613 3.613 0 0 1-.868.972 1.24 1.24 0 0 1-1.24.164.803.803 0 0 1-.4-.768 1.421 1.421 0 0 1-1.852.464 1.52 1.52 0 0 1-.544-.584c.236 3.568.468 7.436-.192 10.832l-1.64-3.7a14.35 14.35 0 0 1-1.2-7c.037-.448.043-.899.016-1.348Z" fill="#263238"/><path d="M157.768 119.924c.032 0 .092-.32.348-.772a3.2 3.2 0 0 1 1.48-1.32 3.127 3.127 0 0 1 1.976-.124c.504.132.78.316.8.288.02-.028-.056-.064-.18-.144a2.69 2.69 0 0 0-.592-.252 3.037 3.037 0 0 0-2.08.08 3.07 3.07 0 0 0-1.52 1.424c-.098.19-.17.392-.216.6-.024.136-.028.22-.016.22ZM157.148 119.78s.084-.044.212-.152a3.09 3.09 0 0 0 .48-.516 3.947 3.947 0 0 0 .24-4.424 3.557 3.557 0 0 0-.424-.568c-.112-.12-.184-.176-.192-.168-.008.008.232.284.508.8a4.094 4.094 0 0 1-.232 4.292c-.328.476-.612.712-.592.736ZM145.256 134.964c-.072-.02-.208.232-.368.656-.08.208-.168.464-.256.748-.044.144-.088.292-.136.444a2.284 2.284 0 0 0-.12.548.867.867 0 0 0 .232.652c.15.148.343.245.552.276.174.026.353.011.52-.044.134-.049.26-.117.376-.2.4-.316.508-.572.468-.62-.04-.048-.296.116-.664.3a.914.914 0 0 1-.612.084.52.52 0 0 1-.26-.148.349.349 0 0 1-.08-.276 1.95 1.95 0 0 1 .088-.428c.036-.156.068-.308.104-.46.064-.292.112-.556.148-.78.072-.448.076-.736.008-.752Z" fill="#263238"/><path d="M160.4 127.308c.034-.111.055-.227.06-.344.028-.22.064-.544.096-.944.1-1.046.044-2.102-.168-3.132a5.277 5.277 0 0 0-1.528-2.728 3.457 3.457 0 0 0-.8-.544 1.206 1.206 0 0 0-.328-.124c.369.218.714.473 1.032.76a5.474 5.474 0 0 1 1.44 2.676c.199 1.011.265 2.044.196 3.072-.026.436-.026.873 0 1.308ZM156.156 125.496c.228-.201.421-.439.572-.704a6.445 6.445 0 0 0 1.012-4.184 2.762 2.762 0 0 0-.188-.884c-.028 0 .036.344.064.892a7.496 7.496 0 0 1-.196 2.132 7.714 7.714 0 0 1-.8 2c-.272.452-.488.728-.464.748ZM145.628 121.2a.675.675 0 0 0 0-.168v-.48c.009-.586.055-1.171.136-1.752a5.211 5.211 0 0 1 .94-2.372 3.38 3.38 0 0 1 1.152-.952 4.396 4.396 0 0 1 1.56-.428 6.115 6.115 0 0 1 3.076.556c.422.194.824.428 1.2.7.323.241.625.509.904.8a6.28 6.28 0 0 1 1.02 1.412c.2.364.28.58.296.576.016-.004 0-.06-.048-.164a4.192 4.192 0 0 0-.184-.444 6.152 6.152 0 0 0-.996-1.468 7.123 7.123 0 0 0-.904-.832 7.276 7.276 0 0 0-1.2-.732 6.183 6.183 0 0 0-3.16-.584 4.407 4.407 0 0 0-1.62.452 3.437 3.437 0 0 0-1.2 1.008 5.179 5.179 0 0 0-.936 2.452 10.993 10.993 0 0 0-.08 1.768v.48c.005.059.02.117.044.172Z" fill="#455A64"/><path d="M140.032 122.256a.556.556 0 0 0 .052-.168c.028-.128.064-.292.108-.484.096-.424.228-1.036.444-1.776a10.52 10.52 0 0 1 1.032-2.488 5.538 5.538 0 0 1 2.36-2.212 7.261 7.261 0 0 1 3.2-.656c.903.018 1.801.131 2.68.336.752.168 1.356.336 1.776.444l.48.128a.725.725 0 0 0 .172.032.707.707 0 0 0-.16-.068l-.476-.156a22.04 22.04 0 0 0-1.764-.5 12.329 12.329 0 0 0-2.708-.4 7.282 7.282 0 0 0-3.276.664 5.601 5.601 0 0 0-2.42 2.284 10.079 10.079 0 0 0-1.012 2.536c-.204.752-.316 1.372-.4 1.796-.036.216-.06.38-.076.496a.773.773 0 0 0-.012.192ZM137.288 123.176c.028 0-.04-.54-.108-1.404a7.498 7.498 0 0 1 .364-3.316 3.784 3.784 0 0 1 1.028-1.492 2.923 2.923 0 0 1 2.692-.644s-.028-.02-.088-.048a1.586 1.586 0 0 0-.268-.088 2.45 2.45 0 0 0-1.044 0c-.515.1-.995.33-1.396.668a3.826 3.826 0 0 0-1.088 1.552 7.055 7.055 0 0 0-.324 3.388c.048.436.104.8.148 1.024.013.123.041.244.084.36Z" fill="#455A64"/><path d="M152.968 137.756c.048 0 .064-.124.04-.256s-.088-.232-.136-.22c-.048.012-.064.124-.036.256.028.132.084.228.132.22ZM150.928 137.328c.048 0 .108-.036.132-.116.024-.08 0-.152-.036-.168-.036-.016-.104.036-.128.112-.024.076-.012.156.032.172ZM151.964 138.56c.048 0 .096-.096.112-.228s0-.24-.068-.248c-.068-.008-.096.1-.108.232-.012.132.016.24.064.244ZM154.536 138.324c.044 0 .052-.132 0-.264s-.108-.224-.156-.212c-.048.012-.052.132 0 .264s.108.224.156.212ZM140.968 137.28c.048 0 .096-.084.108-.204.012-.12 0-.216-.064-.224-.064-.008-.096.088-.108.204-.012.116.012.22.064.224ZM139.06 137.232c.048 0 .088-.108.088-.236s-.04-.24-.088-.24c-.048 0-.088.108-.088.24s.04.236.088.236ZM137.48 137.136c.048 0 .108-.092.136-.22.028-.128 0-.248-.04-.256-.04-.008-.108.088-.132.22-.024.132-.012.244.036.256ZM139.96 138.844c.048 0 .056-.128 0-.26s-.112-.228-.156-.212c-.044.016-.052.132 0 .26s.112.228.156.212ZM138.168 138.608c.048 0 .096-.072.108-.176.012-.104 0-.196-.064-.2-.064-.004-.096.072-.108.176-.012.104.016.196.064.2Z" fill="#EB996E"/><path d="M150.728 133.912a1.05 1.05 0 0 0 .928 1.14 1.007 1.007 0 0 0 1.025-.48c.068-.115.113-.243.131-.376a1.054 1.054 0 0 0-.924-1.14 1.012 1.012 0 0 0-.761.183.999.999 0 0 0-.399.673ZM140.236 134.132a1.048 1.048 0 0 0 .924 1.14 1.013 1.013 0 0 0 1.025-.48.987.987 0 0 0 .131-.376 1.047 1.047 0 0 0-.924-1.14 1.007 1.007 0 0 0-.76.183.992.992 0 0 0-.396.673Z" fill="#263238"/><path d="m131.14 163.852-13.2 12.952h30.528s1.6-2.584 4.556-2.368c2.956.216 16.24 3.896 20.24 3.24l-3.5-14.36s-10.568-3.064-16.584-1.904a8.706 8.706 0 0 0-4.4 2.32l-17.64.12Z" fill="#FAFAFA"/><path d="M131.14 163.852h.736l2.152-.028 8.12-.084 5.752-.052h.9c-.096.04-.02 0-.04 0l.04-.088.148-.14c.104-.088.2-.18.308-.268a8.826 8.826 0 0 1 1.376-.94 8.536 8.536 0 0 1 3.328-1.04 20.693 20.693 0 0 1 3.708-.108c1.268.052 2.568.196 3.892.4a67.12 67.12 0 0 1 8.204 1.732h.052v.056c1.092 4.46 2.276 9.308 3.508 14.356l.028.116h-.112a9.598 9.598 0 0 1-1.268.072h-.636l-.636-.048a19.413 19.413 0 0 1-1.276-.132c-.424-.056-.856-.104-1.284-.172-1.712-.26-3.44-.588-5.176-.944-2.64-.536-5.224-1.136-7.772-1.644-1.268-.224-2.556-.568-3.768-.2a5.431 5.431 0 0 0-2.912 2.16l-.032.048h-.052l-30.528-.028h-.176l.128-.124 9.748-9.468 2.636-2.556.684-.656.236-.22-.228.24-.676.676-2.612 2.588-9.648 9.5-.052-.124 30.528-.028-.088.048a5.602 5.602 0 0 1 3.028-2.256 4.811 4.811 0 0 1 1.94-.124c.648.072 1.284.2 1.924.32 2.552.508 5.136 1.108 7.776 1.644 1.732.356 3.456.684 5.164.94.424.072.852.128 1.276.176.424.048.844.104 1.268.128l.628.052h.628c.413.007.826-.014 1.236-.064l-.084.124c-1.228-5.048-2.4-9.896-3.492-14.36l.064.068a67.21 67.21 0 0 0-8.172-1.74 41.645 41.645 0 0 0-3.876-.4 20.755 20.755 0 0 0-3.68.1 8.376 8.376 0 0 0-3.276 1.012 9.032 9.032 0 0 0-1.356.92c-.104.084-.2.176-.304.264l-.144.136-.072.068c-.024 0 .044 0-.06.028h-.876l-5.74.028-8.116.028h-2.716l-.208.008Z" fill="#263238"/><path d="M148.452 176.8c-.06 0 0-2.944.092-6.568.092-3.624.244-6.568.3-6.564.056.004 0 2.94-.092 6.568-.092 3.628-.244 6.564-.3 6.564ZM144.244 174.328a2.23 2.23 0 0 0-.732-.9 2.914 2.914 0 0 0-1.284-.512 5.64 5.64 0 0 0-1.864.08 39.564 39.564 0 0 1-11.372.8l-.24-.02.184-.156a19.039 19.039 0 0 1 5.564-3.308 19.207 19.207 0 0 1 5.484-1.22 2.12 2.12 0 0 1 1.096.104.602.602 0 0 1 .352.48.687.687 0 0 1-.216.54 2.723 2.723 0 0 1-.912.52 8.223 8.223 0 0 1-5.472.236 5.368 5.368 0 0 1-.772-.292 2.523 2.523 0 0 1-.656-.456c-.2-.174-.34-.406-.4-.664a.929.929 0 0 1 .164-.716 2.907 2.907 0 0 1 1.084-.736 16.728 16.728 0 0 1 1.916-.776 14.203 14.203 0 0 1 1.588-.428.376.376 0 0 1 .116 0 .444.444 0 0 1-.112.036l-.324.092c-.288.08-.708.204-1.24.4a17.75 17.75 0 0 0-1.892.8 2.805 2.805 0 0 0-1.028.708.792.792 0 0 0-.136.612c.056.229.182.434.36.588.184.172.393.315.62.424a7.705 7.705 0 0 0 2.424.584 8.068 8.068 0 0 0 3.68-.568c.308-.106.593-.269.84-.48a.49.49 0 0 0 .164-.4.401.401 0 0 0-.244-.32 1.95 1.95 0 0 0-.996-.084c-.352.024-.712.064-1.072.112-1.484.193-2.94.564-4.336 1.104a18.921 18.921 0 0 0-5.512 3.264l-.056-.176c3.793.29 7.607.046 11.332-.724a5.612 5.612 0 0 1 1.904-.056c.474.076.923.265 1.308.552.239.18.437.409.58.672.05.089.087.184.108.284ZM172 177.6s.028.032.064.1c.036.068.096.188.164.312.144.296.348.7.6 1.2l.028.052-.06.02c-1.59.482-3.243.723-4.904.716a17.044 17.044 0 0 1-6.908-1.516c-1.752-.8-3.348-1.676-4.9-2.232a9.671 9.671 0 0 0-4.272-.676 6.075 6.075 0 0 0-2.756.94c-.298.203-.58.428-.844.672.223-.29.494-.54.8-.74a5.95 5.95 0 0 1 2.8-1.02 9.694 9.694 0 0 1 4.352.644c1.576.556 3.18 1.444 4.92 2.22a17.157 17.157 0 0 0 6.828 1.528 17.417 17.417 0 0 0 4.844-.62l-.032.072c-.236-.524-.42-.932-.56-1.236-.052-.128-.1-.232-.136-.32a.358.358 0 0 1-.028-.116ZM154.668 170.124a22.11 22.11 0 0 1-.16-4.28c.192 1.418.246 2.852.16 4.28Z" fill="#263238"/><path d="M158.8 172.684a6.9 6.9 0 0 1-.888-.564 24.982 24.982 0 0 0-2.176-1.284c-.876-.456-1.696-.8-2.3-1.052a6.282 6.282 0 0 1-.968-.4c.349.049.692.139 1.02.268.806.275 1.59.612 2.344 1.008.757.389 1.482.837 2.168 1.34.294.194.563.424.8.684Z" fill="#263238"/><path d="M165.408 169.632a32.572 32.572 0 0 1-3.3 1.6 33.157 33.157 0 0 1-3.384 1.416 32.572 32.572 0 0 1 3.3-1.6 31.89 31.89 0 0 1 3.384-1.416ZM162.8 170.456a19.977 19.977 0 0 1-.064-2.884c-.022-.963.025-1.927.14-2.884.091.958.114 1.922.068 2.884.019.963-.029 1.927-.144 2.884Z" fill="#263238"/><path d="M161.2 172.432c-.06 0-.124-.156-.148-.36-.024-.204 0-.376.064-.4.064-.024.12.156.144.36.024.204.004.392-.06.4ZM161.844 172.348c-.056 0-.12-.232-.14-.528-.02-.296 0-.536.064-.544.064-.008.124.236.144.532.02.296-.008.536-.068.54ZM161.632 173.42c.024 0 .072.212.264.524a.725.725 0 0 0 .508.336.35.35 0 0 0 .312-.124.286.286 0 0 0 .052-.336l.148-.088a1.452 1.452 0 0 0 .988.652 1.317 1.317 0 0 0 1.244-.428 1.369 1.369 0 0 0 .18-1.656 1.03 1.03 0 0 0-.612-.44 1.537 1.537 0 0 0-.688 0c-.334.091-.65.24-.932.44-.103.08-.214.148-.332.204 0 0 .088-.112.284-.268.276-.236.597-.413.944-.52.249-.067.511-.075.764-.024.3.068.562.249.732.504.187.277.272.611.24.944a1.645 1.645 0 0 1-.428.956 1.515 1.515 0 0 1-1.432.484 1.62 1.62 0 0 1-1.1-.76l.148-.092a.465.465 0 0 1-.08.532.487.487 0 0 1-.201.123.48.48 0 0 1-.235.017.8.8 0 0 1-.576-.42 1.81 1.81 0 0 1-.16-.42c-.036-.084-.04-.136-.032-.14ZM168.9 171.812s.064-.056.208-.056a.696.696 0 0 1 .508.284.804.804 0 0 1 .1.868 1.073 1.073 0 0 1-.932.516 1.127 1.127 0 0 1-.948-.484.797.797 0 0 1 .129-1.096.705.705 0 0 1 .271-.128.47.47 0 0 1 .212 0c-.004 0-.076 0-.192.056a.718.718 0 0 0-.356.348.675.675 0 0 0 .096.688c.091.127.211.23.35.3.14.069.294.104.45.1a.896.896 0 0 0 .768-.4.646.646 0 0 0-.048-.684.67.67 0 0 0-.4-.292c-.14-.02-.212 0-.216-.02ZM168.604 171.032c-.056 0-.12-.272-.144-.612-.024-.34 0-.62.06-.624.06-.004.124.268.148.612.024.344-.004.62-.064.624ZM168.864 174.652c-.056 0-.104-.2-.104-.452s.048-.452.104-.452c.056 0 .104.204.104.452 0 .248-.044.452-.104.452ZM167.548 173.172c.04.04-.144.308-.42.604s-.528.504-.568.464c-.04-.04.144-.308.4-.604s.544-.504.588-.464ZM170.996 174c-.032.048-.256-.048-.5-.216-.244-.168-.42-.34-.4-.4.02-.06.256.052.504.216s.428.36.396.4ZM171.008 171.936c0 .056-.156.156-.4.224-.244.068-.424.08-.44.024-.016-.056.152-.156.4-.224.248-.068.42-.08.44-.024ZM170.364 170.552c.048.036-.048.228-.208.432-.16.204-.332.336-.376.3-.044-.036.048-.228.212-.432.164-.204.328-.336.372-.3ZM167.556 171.348c-.032.048-.24-.024-.464-.16-.224-.136-.4-.288-.36-.34.04-.052.24.024.468.16.228.136.4.288.356.34ZM166.8 172.02c0 .056-.188.104-.4.104-.212 0-.4-.048-.4-.104 0-.056.184-.104.4-.104.216 0 .4.044.4.104ZM159.48 165.02c.031.291.031.585 0 .876a73.68 73.68 0 0 1-.132 2.156v.1h-.1l-.492-.02-1.32-.068h-.096v-.092c0-.648 0-1.2.028-1.6a2.448 2.448 0 0 1 .052-.616c.049.201.071.409.064.616.02.4.036.94.048 1.6l-.092-.096 1.324.052.492.024-.108.092c.068-.856.14-1.6.2-2.152.01-.295.054-.587.132-.872ZM167.88 166.06a20.09 20.09 0 0 1-4.036-.492 9.475 9.475 0 0 1 2.032.144c.678.049 1.349.165 2.004.348ZM153.96 166.312c-1.15.127-2.312.117-3.46-.028a7.336 7.336 0 0 1 1.732-.092 7.102 7.102 0 0 1 1.728.12Z" fill="#263238"/><path d="m169.684 154.568-6.884 1.512s-2.036-1.576-2.912-1.624c-.876-.048-4.072 0-4.072 0s-3.2 2.452-3.2 3.056c.042.484.178.956.4 1.388 0 0-.476.336-.192 1.58s.516 1.332.516 1.332-.604 1.16.136 1.62a9.26 9.26 0 0 0 2.268.8l2.328-.4c-.848.168 5.996-.232 6.328-1.432h8.148c.74-3.536.756-6.848-2.864-7.832Z" fill="#FFBE9D"/><path d="M157.464 157.008c-.792.162-1.568.392-2.32.688-.723.361-1.425.762-2.104 1.2.143-.196.321-.366.524-.5a7.314 7.314 0 0 1 1.496-.896 4.828 4.828 0 0 1 2.404-.492ZM158.1 159.128c0 .06-1.2.296-2.636.664-.728.18-1.376.368-1.84.528a4.76 4.76 0 0 1-.752.256 2.29 2.29 0 0 1 .7-.4 16.255 16.255 0 0 1 4.528-1.056v.008ZM157.524 161.824a17.67 17.67 0 0 1-2.084-.036c-1.144-.04-2.064.08-2.076.024a5.406 5.406 0 0 1 2.08-.232 7.408 7.408 0 0 1 2.08.244ZM165.076 159.472c.084.201.126.418.124.636a3.811 3.811 0 0 1-.196 1.568c-.1.279-.248.539-.436.768a2.229 2.229 0 0 1-.548.472 1.255 1.255 0 0 1-.616.224c0-.036.224-.12.536-.348.181-.133.343-.29.48-.468.169-.218.304-.461.4-.72a4.67 4.67 0 0 0 .248-1.492 2.687 2.687 0 0 1 .008-.64Z" fill="#EB996E"/><path d="M135.132 162.524s-.448 1.788 2.064 1.676l.276-4.856s-.108-1.784-2.676-1.504l-.504 2.064c.316.304.547.684.672 1.104.082.502.138 1.008.168 1.516Z" fill="#FFBE9D"/><path d="m126.164 152.4 9.968 12.248 2.864.968-.648-3.128-9.728-12.172a1.626 1.626 0 0 0-1.436-.616h-.036a1.645 1.645 0 0 0-1.29 1.059 1.633 1.633 0 0 0-.071.862c.053.289.184.558.377.779Z" fill="#455A64"/><path d="M126.2 152.472c-.024 0 .024-.204.18-.484a3.038 3.038 0 0 1 1.976-1.42.938.938 0 0 1 .512-.02 6.19 6.19 0 0 0-1.528.692c-.437.355-.82.769-1.14 1.232ZM136.132 164.656s-.2-.132-.232-.512c0-.053.01-.106.028-.156l.052-.132c.109-.349.339-.648.648-.844.194-.148.399-.282.612-.4.18-.101.379-.166.584-.192.356-.04.56.076.548.096-.012.02-.212-.024-.524.052-.182.04-.355.112-.512.212-.18.116-.4.248-.58.4a1.99 1.99 0 0 0-.48.48c-.052.088-.096.18-.14.268l-.06.128a.287.287 0 0 0-.028.1c-.012.296.12.488.084.5Z" fill="#263238"/><path d="M136.544 163.32c-.044.036-2.212-2.596-4.844-5.88s-4.724-5.972-4.68-6c.044-.028 2.212 2.596 4.844 5.876 2.632 3.28 4.724 5.968 4.68 6.004ZM137.6 162.308c-.044.036-2.18-2.524-4.768-5.72-2.588-3.196-4.648-5.82-4.604-5.856.044-.036 2.18 2.524 4.768 5.724 2.588 3.2 4.632 5.816 4.604 5.852ZM138.708 164.232a.894.894 0 0 0-.8.196.87.87 0 0 0-.252.756l1.328.44-.276-1.392Z" fill="#263238"/><path d="m121.2 155.468 5.144 1.66s2.26-1.9 3.14-1.948l2.976-.148s3.68 2.452 3.68 3.052a3.747 3.747 0 0 1-.4 1.388s1.012.4.8 1.252a1.526 1.526 0 0 1-1.144 1.148s.62 1.672-.12 2.132a9.179 9.179 0 0 1-2.268.8s-1.34 1.064-2.22.972c-.88-.092-5.276-.372-5.784-1.2l-5.344-1.296-4.06-1.016s-1.556-2.024.84-4.472a7.657 7.657 0 0 1 4.76-2.324Z" fill="#FFBE9D"/><path d="M135.956 157.792a18.35 18.35 0 0 0-2.272-.516 17.73 17.73 0 0 0-2.328 0 5.973 5.973 0 0 1 4.6.512v.004ZM135.708 159.472c0 .048-.832-.12-1.852-.264a9.93 9.93 0 0 0-1.312-.104c-.336 0-.524.072-.54.048-.016-.024.18-.16.532-.196a5.53 5.53 0 0 1 1.348.048c1.036.144 1.868.404 1.824.468ZM135.364 161.872c-.02.04-.688-.108-1.548-.18-.86-.072-1.54-.068-1.552-.112-.012-.044.704-.188 1.572-.096.868.092 1.556.32 1.528.388Z" fill="#EB996E"/><path d="M115.6 162.264c.059.005.118.015.176.028l.504.112 1.912.44 6.8 1.628h.032l.024.036c.209.209.472.356.76.424.309.099.625.177.944.236.648.132 1.332.22 2.036.3.704.08 1.444.148 2.156.188a2.795 2.795 0 0 0 1.02-.34 7.16 7.16 0 0 0 .948-.612h.044c.467-.106.928-.239 1.38-.4.255-.084.503-.189.74-.316a.684.684 0 0 0 .4-.564 3.318 3.318 0 0 0-.208-1.512l-.04-.112.116-.028a1.419 1.419 0 0 0 1.06-1.06.794.794 0 0 0-.136-.7 1.487 1.487 0 0 0-.596-.444l-.1-.044.048-.096c.129-.256.235-.524.316-.8.04-.13.067-.264.08-.4a.774.774 0 0 0 0-.18.492.492 0 0 0-.084-.152 7.497 7.497 0 0 0-1.168-1.084c-.824-.648-1.628-1.2-2.372-1.724h.044l-2.8.124c-.376.017-.74.133-1.056.336a9.6 9.6 0 0 0-.8.504c-.48.324-.84.596-1.084.78l-.276.208c-.064.048-.096.072-.1.068-.004-.004.024-.032.084-.084l.264-.228c.236-.196.588-.48 1.06-.8.24-.168.508-.352.8-.528a2.239 2.239 0 0 1 1.1-.364l2.8-.156h.024a39.24 39.24 0 0 1 2.4 1.716c.44.327.842.701 1.2 1.116a.728.728 0 0 1 .112.216.417.417 0 0 1 0 .132c.002.038.002.075 0 .112a2.673 2.673 0 0 1-.088.436 4.508 4.508 0 0 1-.328.824l-.052-.136c.27.108.507.285.688.512a1.005 1.005 0 0 1 .172.864 1.634 1.634 0 0 1-1.22 1.2l.08-.136c.2.517.277 1.073.224 1.624-.026.144-.082.28-.164.4a.896.896 0 0 1-.344.288 5.078 5.078 0 0 1-.772.336c-.46.159-.929.292-1.404.4l.04-.024c-.307.24-.635.452-.98.632-.34.194-.716.317-1.104.364-.772-.04-1.476-.12-2.192-.196a22.539 22.539 0 0 1-2.052-.308 8.147 8.147 0 0 1-.96-.248 1.696 1.696 0 0 1-.856-.508l.056.04-6.8-1.7-1.896-.492-.496-.136a1.111 1.111 0 0 1-.116-.012Z" fill="#EB996E"/><path d="M84.992 146.712a90.896 90.896 0 0 1-3.936-3.492 11.281 11.281 0 0 0-7.172-3.052l-22.588-1.132h-4.04c-2.292 0-14.648 8.84-16.336 10.68l11.276 10.232 1.404-.748-.164 3.472 32.892-.076.296-4.84 6.108 3.928 8-9.492s-3.244-3.392-5.74-5.48Z" fill="#F14953"/><path d="M76.86 142.028c-.388.323-.758.668-1.108 1.032a7.402 7.402 0 0 0-1.648 3.2 9.733 9.733 0 0 0-.116 3.62c.136.928.308 1.484.276 1.496a1.43 1.43 0 0 1-.152-.4 9.213 9.213 0 0 1-.272-1.088 9.02 9.02 0 0 1 .06-3.692 7.059 7.059 0 0 1 1.744-3.244 5.46 5.46 0 0 1 .856-.732c.11-.082.231-.146.36-.192ZM61.472 158.868a2.17 2.17 0 0 1-.428-.156c-.272-.108-.66-.292-1.124-.536a18.218 18.218 0 0 1-6.172-5.332c-.308-.424-.544-.78-.692-1.036a1.885 1.885 0 0 1-.216-.4c.032 0 .4.524 1.024 1.348a21.819 21.819 0 0 0 2.8 2.944 21.508 21.508 0 0 0 3.324 2.348c.908.516 1.5.788 1.484.82Z" fill="#263238"/><path d="M45.956 148.476a.575.575 0 0 1-.264.1c-.255.058-.52.058-.776 0a1.994 1.994 0 0 1-.996-.588 2.063 2.063 0 0 1-.524-1.316 2.258 2.258 0 0 1 .4-1.36c.224-.319.522-.579.868-.76.23-.118.48-.198.736-.236.18-.028.28 0 .28 0a4.92 4.92 0 0 0-.944.372 2.447 2.447 0 0 0-.78.736 2.113 2.113 0 0 0-.344 1.244 1.882 1.882 0 0 0 1.352 1.768c.325.074.662.088.992.04ZM52.472 141.452s-.036.108-.152.264a2.285 2.285 0 0 1-.62.548 2.747 2.747 0 0 1-1.16.4 2.534 2.534 0 0 1-2.576-1.308 2.799 2.799 0 0 1-.356-1.2 2.274 2.274 0 0 1 .08-.824c.056-.188.108-.28.12-.276a4.237 4.237 0 0 0-.056 1.084c.056.391.192.765.4 1.1a2.397 2.397 0 0 0 2.4 1.2c.389-.035.766-.15 1.108-.34.296-.183.568-.4.812-.648ZM51.448 147.316a.457.457 0 0 1 .128 0c.119.028.234.07.344.124.407.206.737.539.94.948a2 2 0 0 1 .212.916 2.144 2.144 0 0 1-.292 1.04 2.26 2.26 0 0 1-.852.84 2.116 2.116 0 0 1-1.26.248 2.406 2.406 0 0 1-1.2-.468 2.205 2.205 0 0 1-.712-.96 2.4 2.4 0 0 1 .112-1.972 1.597 1.597 0 0 1 1.04-.828.912.912 0 0 1 .368 0c.08.02.12.036.12.044a1.56 1.56 0 0 0-.472.036 1.59 1.59 0 0 0-.928.8 2.314 2.314 0 0 0-.064 1.832c.135.352.366.658.668.884.32.237.696.384 1.092.424a1.97 1.97 0 0 0 1.14-.216c.322-.181.59-.443.78-.76a1.895 1.895 0 0 0 .112-1.796 2.144 2.144 0 0 0-.844-.944c-.28-.132-.436-.172-.432-.192ZM51.4 160.864c0-.02.152.044.424.068.384.03.768-.054 1.104-.24a1.885 1.885 0 0 0 .968-1.3 2.33 2.33 0 0 0-.528-1.92 2.626 2.626 0 0 0-1.816-.86 2.904 2.904 0 0 0-1.64.36 2.26 2.26 0 0 0-.824.8c-.14.236-.176.4-.192.4a.896.896 0 0 1 .12-.424c.181-.359.458-.661.8-.872a2.995 2.995 0 0 1 1.728-.424 2.799 2.799 0 0 1 1.964.92 2.48 2.48 0 0 1 .556 2.088 2.003 2.003 0 0 1-1.088 1.396c-.369.192-.79.258-1.2.188a1.059 1.059 0 0 1-.316-.092c-.028-.06-.06-.08-.06-.088ZM59.6 156.66s.1-.076.256-.224c.219-.21.38-.473.468-.764a1.82 1.82 0 0 0-.08-1.296 2.245 2.245 0 0 0-1.16-1.088 2.503 2.503 0 0 0-1.6-.112 2.94 2.94 0 0 0-1.18.628 3.958 3.958 0 0 0-.76 1 .892.892 0 0 1 .104-.332c.13-.294.32-.558.556-.776a2.886 2.886 0 0 1 1.228-.704 2.622 2.622 0 0 1 1.736.104 2.4 2.4 0 0 1 1.252 1.2c.197.449.213.956.044 1.416a1.69 1.69 0 0 1-.556.78.733.733 0 0 1-.308.168ZM68.448 154.84a.771.771 0 0 1 .188.056c.177.063.346.146.504.248a3.36 3.36 0 0 1 1.3 1.58c.181.449.255.934.216 1.416a3.302 3.302 0 0 1-.56 1.552c-.347.512-.827.92-1.388 1.18-.61.27-1.288.342-1.94.204-1.332-.264-2.4-1.344-2.552-2.544a2.4 2.4 0 0 1 .464-1.58c.265-.394.552-.772.86-1.132a3.312 3.312 0 0 1 1.692-1.148 1.79 1.79 0 0 1 .56-.052.407.407 0 0 1 .192.032 2.92 2.92 0 0 0-.732.1 3.313 3.313 0 0 0-1.6 1.164 14.29 14.29 0 0 0-.828 1.128 2.229 2.229 0 0 0-.4 1.468c.128 1.096 1.148 2.112 2.4 2.36a2.98 2.98 0 0 0 1.816-.188 3.18 3.18 0 0 0 1.312-1.104c.303-.431.492-.932.548-1.456a3.02 3.02 0 0 0-.18-1.348 3.428 3.428 0 0 0-1.2-1.564c-.42-.272-.68-.352-.672-.372ZM70.356 147.316h.148c.137.01.271.04.4.088.492.178.9.535 1.14 1a2.28 2.28 0 0 1-.132 2.22 2.667 2.667 0 0 1-2.428 1.2 2.457 2.457 0 0 1-1.376-.476 1.726 1.726 0 0 1-.664-1.2 3.48 3.48 0 0 1 .088-1.22 2.76 2.76 0 0 1 .428-.972 1.76 1.76 0 0 1 1.288-.78c.14-.013.283-.003.42.032.092.028.136.048.132.056a2.034 2.034 0 0 0-.54 0 1.743 1.743 0 0 0-1.18.78 3.265 3.265 0 0 0-.444 2.088 1.508 1.508 0 0 0 .596 1.048c.369.267.81.417 1.264.432a2.494 2.494 0 0 0 2.252-1.1 2.136 2.136 0 0 0 .164-2.052 2.063 2.063 0 0 0-1.036-.992 3.765 3.765 0 0 0-.52-.152ZM74.932 144.188c-.314.1-.642.147-.972.14a3.888 3.888 0 0 1-2.296-.608 2.608 2.608 0 0 1-.884-.996 2.236 2.236 0 0 1-.228-1.064c.01-.246.068-.488.172-.712.08-.156.144-.224.156-.22-.11.299-.17.614-.18.932.01.34.095.674.252.976.199.368.484.681.832.912a4.06 4.06 0 0 0 2.176.632c.596.016.968-.028.972.008ZM78.532 145.736c.164-.027.332-.027.496 0 .46.019.909.156 1.3.4.272.183.485.442.612.744.14.349.176.731.1 1.1a2.355 2.355 0 0 1-1.716 1.724c-.426.12-.878.12-1.304 0a2.203 2.203 0 0 1-1.012-.676 1.999 1.999 0 0 1-.4-1.952c.15-.442.456-.814.86-1.048.108-.062.224-.109.344-.14.084-.02.128-.024.132 0 .004.024-.172.056-.432.228a1.928 1.928 0 0 0-.768 1.024 1.858 1.858 0 0 0 .4 1.776 2 2 0 0 0 .928.608c.392.112.808.112 1.2 0a2.16 2.16 0 0 0 1.58-1.56 1.772 1.772 0 0 0-.072-.996 1.559 1.559 0 0 0-.536-.688 2.795 2.795 0 0 0-1.224-.448 3.676 3.676 0 0 1-.488-.096ZM78.916 158.476a1.71 1.71 0 0 1 .4-.084 5.753 5.753 0 0 0 1.076-.248c.51-.164.938-.514 1.2-.98a1.93 1.93 0 0 0-.196-1.832 2.287 2.287 0 0 0-1.576-1.032 1.994 1.994 0 0 0-1.484.428c-.286.225-.51.52-.648.856-.092.24-.108.4-.128.4a.878.878 0 0 1 .052-.4c.112-.37.33-.698.628-.944a2.095 2.095 0 0 1 1.6-.504 2.419 2.419 0 0 1 1.724 1.104 2.096 2.096 0 0 1 .196 2.032c-.288.507-.766.88-1.328 1.036a4.716 4.716 0 0 1-1.112.192 1.61 1.61 0 0 1-.404-.024ZM87.9 154.316a1.06 1.06 0 0 1-.38.036 3.623 3.623 0 0 1-1.028-.164 3.871 3.871 0 0 1-1.36-.752 3.913 3.913 0 0 1-1.092-1.556 3.573 3.573 0 0 1-.212-1.892c.08-.526.33-1.012.712-1.384a1.96 1.96 0 0 1 .916-.504.873.873 0 0 1 .4-.024 2.99 2.99 0 0 1-.36.1c-.317.108-.604.29-.836.532-.34.361-.559.82-.624 1.312a3.472 3.472 0 0 0 .216 1.784c.22.57.57 1.08 1.024 1.488.374.33.807.587 1.276.756.438.139.89.229 1.348.268ZM38.568 145.508c.08.11.146.231.192.36.15.341.263.696.34 1.06.119.543.157 1.101.112 1.656a4.841 4.841 0 0 1-.576 1.952c-.34.6-.823 1.108-1.404 1.48-.469.307-.998.51-1.552.596-.37.067-.75.067-1.12 0a1.279 1.279 0 0 1-.4-.124c.492.077.992.077 1.484 0a4.184 4.184 0 0 0 2.8-2.032 5.34 5.34 0 0 0 .504-3.48c-.148-.928-.42-1.452-.38-1.468ZM42.472 154.232s.104-.048.3-.104c.272-.069.533-.176.776-.316a1.057 1.057 0 0 0 .548-.972 1.276 1.276 0 0 0-.928-1 2.252 2.252 0 0 0-1.448.2 2.826 2.826 0 0 0-1.004.704 1.118 1.118 0 0 0-.252.756c0 .196.076.292.06.3-.016.008-.096-.08-.14-.288a1.132 1.132 0 0 1 .216-.856 2.73 2.73 0 0 1 1.04-.8 2.346 2.346 0 0 1 1.6-.228 1.434 1.434 0 0 1 1.064 1.18c.022.25-.048.5-.196.704a1.392 1.392 0 0 1-.464.4c-.261.138-.544.23-.836.272-.109.034-.222.05-.336.048Z" fill="#FAFAFA"/><path opacity=".3" d="M75.408 161.376a2.174 2.174 0 0 0-1.292-.372c-3.648-.216-7.304.284-10.96.364-3.656.08-7.448-.292-10.628-2.104-1-.568-1.964-1.2-2.992-1.704-1.796-.9-4.336-.508-5.828.636l-.256 4.476c10.188.08 21.156-.044 31.344.032.241.023.484-.027.696-.144.368-.268.264-.892-.084-1.184Z" fill="#000"/><path d="M46.232 151.264c-.036 0 .08-.52.188-1.356.29-2.181.154-4.398-.4-6.528-.208-.8-.4-1.312-.352-1.324.072.101.128.213.164.332.092.22.208.544.332.952.317 1.065.512 2.163.58 3.272.07 1.11.01 2.224-.18 3.32-.072.4-.148.752-.212.984a1.32 1.32 0 0 1-.12.348Z" fill="#263238"/><path d="m44.932 166.54-13.2 12.952H62.24s1.6-2.584 4.56-2.368c2.96.216 16.236 3.896 20.236 3.24L83.536 166s-10.568-3.064-16.584-1.9a8.674 8.674 0 0 0-4.4 2.316l-17.62.124Z" fill="#FAFAFA"/><path d="M44.932 166.54h.736l2.148-.028 8.12-.084 5.756-.052h.888c-.096.04 0 0-.04 0l.076-.068.144-.14.308-.268a8.802 8.802 0 0 1 1.376-.94 8.536 8.536 0 0 1 3.328-1.04 20.695 20.695 0 0 1 3.708-.108c1.303.068 2.602.202 3.892.4 2.768.406 5.508.984 8.204 1.732h.052V166c1.092 4.46 2.276 9.308 3.508 14.356l.028.116h-.112c-.42.052-.844.076-1.268.072h-.636l-.636-.048a19.7 19.7 0 0 1-1.276-.132c-.424-.056-.856-.104-1.284-.172a98.103 98.103 0 0 1-5.176-.944c-2.636-.536-5.224-1.136-7.772-1.644-1.268-.224-2.556-.564-3.768-.2a5.405 5.405 0 0 0-2.908 2.16l-.036.048h-.052l-30.524-.028h-.18l.128-.124 9.712-9.468 2.632-2.556.688-.656c.152-.148.236-.22.236-.22l-.228.24-.68.676-2.612 2.588-9.648 9.48-.048-.124 30.524-.028-.084.048a5.598 5.598 0 0 1 3.044-2.24 4.811 4.811 0 0 1 1.94-.124c.648.072 1.284.2 1.924.32 2.556.508 5.14 1.108 7.776 1.644a98.37 98.37 0 0 0 5.164.94c.424.072.852.128 1.276.176.424.048.848.104 1.268.128l.632.052h.624c.413.007.826-.014 1.236-.064l-.084.124c-1.228-5.048-2.4-9.896-3.492-14.36l.064.068a67.206 67.206 0 0 0-8.172-1.74 41.645 41.645 0 0 0-3.876-.4 20.756 20.756 0 0 0-3.68.1 8.408 8.408 0 0 0-3.276 1.012 8.776 8.776 0 0 0-1.352.92c-.108.084-.204.176-.304.264l-.148.136-.072.068c-.024 0 .044 0-.056.028h-.876l-5.744.028-8.116.028H45.12l-.188-.008Z" fill="#263238"/><path d="M62.24 179.492c-.056 0 0-2.944.092-6.568.092-3.624.244-6.568.304-6.564.06.004 0 2.94-.096 6.568-.096 3.628-.244 6.564-.3 6.564ZM59.016 176.716a.904.904 0 0 1-.208 0l-.6.02L56 176.8l-7.256.02-7.256-.032-2.2-.028h-.596c-.07.005-.139.005-.208 0 .264-.045.532-.064.8-.056.52 0 1.272-.028 2.2-.04 1.856-.024 4.424-.032 7.256-.032s5.4 0 7.26.044l2.196.036.6.024a.653.653 0 0 1 .22-.02ZM59.376 174.9a.76.76 0 0 1-.196.02h-2.648l-6.864-.072-6.868-.116-2.08-.056-.564-.02c-.065.004-.13.004-.196 0 .251-.041.506-.056.76-.044h2.08c1.76 0 4.184.024 6.868.064s5.104.088 6.86.136l2.08.064.568.028a.64.64 0 0 1 .2-.004ZM84.372 176.936a.836.836 0 0 1-.212 0h-.608c-.528 0-1.292-.036-2.232-.112a38.004 38.004 0 0 1-7.244-1.324c-1.388-.4-2.672-.876-3.86-1.228a11.94 11.94 0 0 0-3.224-.564A7.038 7.038 0 0 0 64.8 174c-.5.16-.76.296-.768.28-.008-.016.06-.048.184-.112.18-.094.368-.176.56-.244a6.58 6.58 0 0 1 2.208-.356c1.112.02 2.215.198 3.276.528 1.2.344 2.488.828 3.868 1.2a41.675 41.675 0 0 0 7.2 1.38c.932.092 1.692.14 2.22.172l.604.036c.076.007.15.024.22.052ZM84.4 174.436a.629.629 0 0 1-.212 0h-.604c-.528 0-1.292-.032-2.232-.108a37.923 37.923 0 0 1-7.244-1.324c-1.388-.4-2.672-.876-3.86-1.228a12.133 12.133 0 0 0-3.228-.568 6.99 6.99 0 0 0-2.18.288c-.5.156-.76.296-.768.276a.903.903 0 0 1 .18-.108c.18-.094.368-.176.56-.244a6.526 6.526 0 0 1 2.212-.356c1.105.021 2.202.202 3.256.536 1.2.344 2.484.828 3.864 1.2a41.969 41.969 0 0 0 7.2 1.376c.936.096 1.696.144 2.22.176l.608.036a.986.986 0 0 1 .228.048ZM84.4 171.94a.753.753 0 0 1-.212 0h-.608a27.48 27.48 0 0 1-2.228-.112 37.76 37.76 0 0 1-7.244-1.32c-1.392-.4-2.676-.88-3.864-1.228a11.822 11.822 0 0 0-3.224-.568 6.927 6.927 0 0 0-2.184.288c-.5.156-.756.292-.764.276-.008-.016.056-.044.18-.112a5.17 5.17 0 0 1 .56-.244 6.684 6.684 0 0 1 2.208-.356c1.113.02 2.218.199 3.28.532 1.2.344 2.484.824 3.864 1.2a41.97 41.97 0 0 0 7.2 1.376c.936.096 1.696.14 2.22.176l.604.036a.741.741 0 0 1 .212.056ZM79.524 167.768s-.052.024-.152.044a3.925 3.925 0 0 1-.444.076 9.867 9.867 0 0 1-1.648.072c-1.404-.024-3.3-.4-5.36-.888a28.513 28.513 0 0 0-2.932-.504 12.79 12.79 0 0 0-2.42-.044c-.74.08-1.473.224-2.188.432 0 0 .044-.032.14-.072.096-.04.232-.104.4-.16a8.033 8.033 0 0 1 1.6-.348 11.96 11.96 0 0 1 2.452 0c.994.104 1.981.267 2.956.488 2.068.468 3.94.884 5.32.944.545.035 1.091.035 1.636 0 .212-.027.426-.04.64-.04Z" fill="#263238"/><path d="M99.836 160.904c-1.124-1.18-9.556-8.16-9.556-8.16l-6.476 7.688 3.976 2.136c-.32.1-5.932 2.524-7.6 3.26-.912-.652-2.892-2-3.624-2.1-.968-.116-3.704 0-3.704 0s-1.308 1.536-1.024 1.708c0 0-1.708 1.252-1.48 2.048l.228.8a.713.713 0 0 0-.629.164.697.697 0 0 0-.227.608c0 .936-.112 1.332.4 1.6a1.94 1.94 0 0 0 .628 1.652c.477.477.99.916 1.536 1.312a.83.83 0 0 0 .34 1.308c.966.459 2.01.73 3.076.8.464 0 4.28-1.28 5.688-1.756 0 0 17.896-4.972 19.048-6.756.988-1.532.988-4.648-.6-6.312Z" fill="#FFBE9D"/><path d="M96.648 160.34a8.664 8.664 0 0 0-2.58-.156c-.93.114-1.842.35-2.712.7-1.07.432-2.114.925-3.128 1.476a59.836 59.836 0 0 1-5.688 2.728c-.756.296-1.376.504-1.808.628-.216.068-.4.108-.504.136a.552.552 0 0 1-.18.032 4.94 4.94 0 0 1 .656-.244c.428-.148 1.036-.4 1.78-.692 1.488-.612 3.472-1.624 5.648-2.772a28.423 28.423 0 0 1 3.156-1.472c.888-.348 1.82-.573 2.768-.668a6.42 6.42 0 0 1 1.916.108c.171.032.34.076.504.132.06.01.12.032.172.064ZM75.968 165.276c0 .028-.228-.096-.6-.204a3.971 3.971 0 0 0-1.488-.108 9.986 9.986 0 0 0-1.492.312 2.116 2.116 0 0 1-.628.136c.177-.126.374-.219.584-.276a6.306 6.306 0 0 1 1.512-.376 3.432 3.432 0 0 1 1.56.172c.38.148.584.324.552.344ZM73.728 168.34a4.73 4.73 0 0 1-3.068-.096c0-.056.692.076 1.532.096.84.02 1.524-.064 1.536 0ZM74.116 170.936a4.454 4.454 0 0 1-4.096-.364c.658.221 1.336.381 2.024.476.693.025 1.386-.012 2.072-.112ZM75.6 173.164a3.072 3.072 0 0 1-1.6.56 3.128 3.128 0 0 1-1.688-.168c0-.064.756.076 1.66-.04.904-.116 1.596-.408 1.628-.352Z" fill="#EB996E"/><path d="M44.056 158.452 54.32 172.66l3.108 1.252-.516-3.512-10-14.104a1.798 1.798 0 0 0-1.552-.772h-.044a1.824 1.824 0 0 0-1.495 1.092 1.819 1.819 0 0 0 .235 1.836Z" fill="#455A64"/><path d="M44.092 158.524c-.024 0 .044-.22.236-.516.261-.384.597-.71.988-.96.393-.247.83-.413 1.288-.488.186-.047.382-.047.568 0a6.34 6.34 0 0 0-1.744.66c-.51.364-.96.804-1.336 1.304ZM54.32 172.66s-.056-.036-.108-.132a.875.875 0 0 1-.108-.452.465.465 0 0 1 .04-.168l.064-.144c.047-.11.102-.217.164-.32.164-.226.37-.419.608-.568.225-.147.459-.281.7-.4a1.87 1.87 0 0 1 .656-.176c.4-.024.612.116.6.136a4.377 4.377 0 0 0-.584 0 1.919 1.919 0 0 0-.584.2c-.208.116-.444.252-.672.4a2.343 2.343 0 0 0-.564.504c-.064.096-.116.196-.168.288l-.076.14a.378.378 0 0 0-.04.112c.003.195.027.39.072.58Z" fill="#263238"/><path d="M54.86 171.2c-.048.036-2.276-3.024-4.98-6.824-2.704-3.8-4.86-6.916-4.8-6.952.06-.036 2.276 3.024 4.98 6.828 2.704 3.804 4.848 6.916 4.8 6.948ZM56.08 170.152c-.048.032-2.244-2.948-4.908-6.652s-4.8-6.74-4.74-6.772c.06-.032 2.244 2.944 4.908 6.648 2.664 3.704 4.784 6.74 4.74 6.776ZM57.2 172.352a.986.986 0 0 0-.888.168.971.971 0 0 0-.328.82l1.444.572-.228-1.56Z" fill="#263238"/><path d="M54.336 167.364c.944-.572 0-2.628 0-2.628s-4.572-2.688-5.24-2.828c-.376-.08-2.916.18-5.08.424l-7.4-3.092 2.8-1.8-8.048-7.488s-7.2 5.28-9.36 7.436c-1.624 1.628-1.332 4.828-1.332 4.828 1.092 2.884 18 6.8 19.2 7.068l6.264 3.7s2.676.352 3.792.492c1.116.14 1.28-1.424 1.28-1.424a1.694 1.694 0 0 0 1.944-1.776 1.38 1.38 0 0 0 1.12.116 1.378 1.378 0 0 0 .832-.76c.676-1.348-.772-2.268-.772-2.268Z" fill="#FFBE9D"/><path d="M36.576 159.332c-.028.032-.444-.4-1.224-.928a10.275 10.275 0 0 0-1.436-.828c-.613-.282-1.25-.51-1.904-.68-.656-.16-1.326-.26-2-.3a10.408 10.408 0 0 0-1.656.048c-.94.104-1.504.28-1.516.244.125-.07.26-.12.4-.148.155-.05.312-.092.472-.124.188-.036.4-.092.636-.12A9.51 9.51 0 0 1 30 156.4c.69.029 1.374.125 2.044.288.674.174 1.33.414 1.956.716.506.249.988.543 1.44.88.196.132.356.284.504.4.126.103.245.214.356.332.104.094.197.2.276.316ZM53.34 170.288c-.413-.328-.845-.63-1.296-.904a12.691 12.691 0 0 0-1.488-.544 3.168 3.168 0 0 1 2.8 1.448h-.016ZM54.868 167.884a18.103 18.103 0 0 0-1.932-1.024 19.715 19.715 0 0 0-2.108-.58 5.528 5.528 0 0 1 4.04 1.6v.004ZM51.26 171.876c-.04.048-.528-.36-1.2-.716-.672-.356-1.296-.536-1.284-.596.973.094 1.87.565 2.5 1.312h-.016Z" fill="#EB996E"/><path d="M84.8 128.32c.084-1.544 1.412-2.892 1.22-4.424-.192-1.532-1.78-2.44-2.636-3.724-1.036-1.56-.94-3.576-1.248-5.42a11.743 11.743 0 0 0-3.052-6.028c.253-.238.52-.46.8-.664.836-.624 1.752-1.256 2.128-2.228a3.043 3.043 0 0 0-.44-2.8 3.666 3.666 0 0 0-6.207.351 3.669 3.669 0 0 0-.401 2.393 11.538 11.538 0 0 0-2.4-.756 12.238 12.238 0 0 0-1.952-1.392 5.284 5.284 0 0 0-6.212 1.048c-.428 1.784-.9 3.564-1.34 5.352l-15.576 10.156c-1.544-.572-3.308.308-4.344 1.6-1.036 1.292-1.54 2.896-2.18 4.4-.64 1.504-1.54 3.056-3 3.816-.8.42-1.876.716-2.084 1.6a1.6 1.6 0 0 0 .72 1.568 4.643 4.643 0 0 0 1.708.62l6.14 1.352a8.654 8.654 0 0 1 2.776-1.728c-.448.64-.144 1.6.452 2.092.64.457 1.384.749 2.164.848l13.488 2.868c2.736.58 5.732 1.128 8.208-.172 1.06-.556 1.94-1.424 3.028-1.916 1.34-.604 2.864-.596 4.328-.54 1.464.056 2.972.148 4.364-.312 1.392-.46 2.664-1.628 2.768-3.092.116-1.68-1.296-3.188-1.22-4.868Z" fill="#263238"/><path d="M78.8 108.8a13.558 13.558 0 0 0-1.716-1.732 12.829 12.829 0 0 0-2.116-1.2c.826.146 1.6.506 2.244 1.044A4.872 4.872 0 0 1 78.8 108.8Z" fill="#F14953"/><path d="M79.288 101.772s.096 0 .224.116c.183.149.322.345.4.568.114.329.143.681.084 1.024-.064.41-.17.812-.316 1.2a6.827 6.827 0 0 1-1.116 1.94c-.18.254-.405.472-.664.644a10.57 10.57 0 0 0 1.6-2.656c.292-.8.468-1.58.288-2.1a1.725 1.725 0 0 0-.5-.736Z" fill="#455A64"/><path d="M76.196 117.36v-.192c-.232-6.568-5.716-11.828-12.284-11.6-.316 0-.644.028-.972.052-.516.04-1.03.105-1.54.196-5.676 1.04-9.684 6.18-9.6 11.952.06 4.7.184 10.96.448 12.8.44 3.088.376 4.192.376 4.192l.172 7.2a7.928 7.928 0 0 0 15.856-.176v-3.704c4.892-.632 7.148-5.352 7.468-10.996.156-3.008.28-3.236.076-9.724Z" fill="#FFBE9D"/><path d="M52.104 121.812c-.132-.056-5.256-1.6-5.128 3.648.128 5.248 5.364 4.028 5.372 3.88.008-.148-.244-7.528-.244-7.528Z" fill="#FFBE9D"/><path d="M50.696 127.392c-.024 0-.088.068-.244.14a.91.91 0 0 1-.68.032c-.56-.188-1.048-1.056-1.096-2-.024-.45.052-.9.224-1.316a1.047 1.047 0 0 1 .672-.716.466.466 0 0 1 .544.236c.072.144.044.252.072.26.028.008.108-.092.06-.308a.59.59 0 0 0-.212-.324.71.71 0 0 0-.508-.12 1.285 1.285 0 0 0-.936.836 3.12 3.12 0 0 0-.28 1.468c.06 1.056.624 2.032 1.388 2.232a.966.966 0 0 0 .832-.16c.16-.132.184-.252.164-.26Z" fill="#EB996E"/><path d="M73.6 120.312c-.144.148-1.004-.5-2.232-.504-1.228-.004-2.132.6-2.264.448-.064-.068.08-.332.476-.616a3.087 3.087 0 0 1 1.816-.544c.638.001 1.26.207 1.772.588.392.292.52.56.432.628ZM62.476 120.7c-.144.148-1.004-.5-2.232-.504-1.228-.004-2.132.6-2.264.448-.064-.064.08-.332.476-.616a3.142 3.142 0 0 1 1.816-.544 3.008 3.008 0 0 1 1.772.588c.376.292.504.564.432.628ZM61.632 117.356c-.1.312-1.128.32-2.26.608s-2.032.708-2.304.484c-.124-.112-.04-.4.292-.732a3.57 3.57 0 0 1 1.656-.864c.635-.16 1.3-.16 1.936 0 .48.144.724.348.68.504ZM73.316 116.644c-.272.36-1.452.596-2.636.52-1.184-.076-1.928-.428-1.656-.8.272-.372 1.452-.596 2.636-.52 1.184.076 1.94.436 1.656.8ZM64.868 130c.02.072-.148.204-.472.248a1.735 1.735 0 0 1-1.876-1.424c-.044-.324.036-.52.112-.52.156 0 .284.692.892 1.148.608.456 1.308.408 1.344.548Z" fill="#263238"/><path d="M68.632 138.08s-6.28.1-7.764-.984c0 0 1.112 3.044 7.764 2.72v-1.736Z" fill="#EB996E"/><path d="M66.488 123.164c.076-.02.22.248.4.704.088.224.184.5.28.8.043.155.09.315.144.48.068.19.11.387.124.588a.932.932 0 0 1-.244.7c-.162.16-.37.264-.596.296-.188.028-.38.011-.56-.048a1.424 1.424 0 0 1-.4-.216c-.4-.336-.548-.616-.504-.664.044-.048.316.128.712.32.2.109.433.141.656.092a.529.529 0 0 0 .284-.16.4.4 0 0 0 .084-.296 2.079 2.079 0 0 0-.092-.46c-.04-.168-.076-.332-.116-.492-.068-.312-.12-.6-.16-.84-.08-.476-.1-.768-.012-.804Z" fill="#263238"/><path d="M58.192 126.164c-.048 0-.068-.132-.04-.276.028-.144.092-.244.144-.236.052.008.072.132.04.276-.032.144-.092.244-.144.236ZM60.4 125.704c-.048 0-.112-.036-.14-.12-.028-.084 0-.168.04-.184.04-.016.112.036.14.12.028.084-.004.168-.04.184ZM59.276 127.028c-.052 0-.108-.104-.12-.244-.012-.14 0-.26.068-.264.068-.004.104.104.12.244s-.016.26-.068.264ZM56.508 126.776c-.048 0-.056-.144 0-.284.056-.14.116-.244.168-.228.052.016.056.144 0 .284-.056.14-.116.252-.168.228ZM71.096 125.652c-.052 0-.104-.092-.116-.216-.012-.124 0-.236.068-.24.068-.004.104.092.12.216s-.02.236-.072.24ZM73.148 125.6c-.052 0-.096-.112-.096-.252s.044-.256.096-.256c.052 0 .096.112.096.256 0 .144-.044.252-.096.252ZM74.844 125.496c-.052 0-.116-.096-.144-.236-.028-.14 0-.264.044-.272.044-.008.112.096.144.236.032.14.008.264-.044.272ZM72.18 127.336c-.052 0-.06-.14 0-.28s.116-.244.168-.228c.052.016.056.14 0 .28s-.12.244-.168.228ZM74.108 127.084c-.052 0-.104-.08-.12-.192s0-.212.068-.216c.068-.004.108.08.12.192.012.112-.016.208-.068.216Z" fill="#EB996E"/><path d="M80.504 134.504a3.588 3.588 0 0 0 1.248-.8c.41-.421.723-.926.92-1.48a5.06 5.06 0 0 0 .292-2.284 8.798 8.798 0 0 0-.772-2.704c-.4-.936-.956-1.884-1.492-2.912a12.184 12.184 0 0 1-1.276-3.4 6.528 6.528 0 0 1-.052-1.936c.08-.652.224-1.3.36-1.948.148-.634.237-1.281.264-1.932a4.17 4.17 0 0 0-.344-1.82 6.37 6.37 0 0 0-2.376-2.592c-.952-.632-1.94-1.12-2.824-1.644-.884-.524-1.7-1.02-2.432-1.496a47.835 47.835 0 0 1-3.376-2.4c-.4-.296-.68-.536-.88-.7l-.22-.188a.362.362 0 0 1-.072-.068c.004 0 .032 0 .084.052l.236.172.904.668c.8.576 1.936 1.396 3.404 2.332a55.84 55.84 0 0 0 2.44 1.472c.892.508 1.872.996 2.844 1.636a6.535 6.535 0 0 1 2.456 2.668c.261.601.385 1.253.364 1.908a10.622 10.622 0 0 1-.268 1.972c-.136.652-.28 1.292-.356 1.928a6.26 6.26 0 0 0 .044 1.876 11.997 11.997 0 0 0 1.248 3.348c.524 1.024 1.072 1.98 1.476 2.928.403.874.661 1.808.764 2.764a5.198 5.198 0 0 1-.328 2.34 4.19 4.19 0 0 1-.972 1.496c-.273.263-.59.477-.936.632-.09.038-.182.07-.276.096l-.096.016Z" fill="#455A64"/><path d="M76.676 114.332a15.116 15.116 0 0 0-6.312-8.164l-3.696-2.452a8.278 8.278 0 0 0-11.56-2.055 8.274 8.274 0 0 0-2.756 3.303c-.28.608-.496 1.264-.78 1.872a5.415 5.415 0 0 0-.772-3.856c-.972-1.436-2.872-2.26-4.532-1.768a4.03 4.03 0 0 0-2.732 3.876 4.663 4.663 0 0 0 2.72 4c.334.148.682.26 1.04.332a7.67 7.67 0 0 0-2.436.66 4.02 4.02 0 0 0-2.076 4c.116.864.508 1.78.128 2.564-.296.604-.96.908-1.504 1.304a4.711 4.711 0 0 0-1.808 4.504 14.076 14.076 0 0 0-2.096 3.744c-1.284 3.368 1.244 3.524 2.032 4.256l4.636-4.8a5.855 5.855 0 0 1 1.916-.4 23.46 23.46 0 0 1 2.892.088 9.686 9.686 0 0 0 3.352-.28 4.44 4.44 0 0 0 1.62-.884 4.913 4.913 0 0 0 1.152-1.544 14.798 14.798 0 0 0 1.052-3.84c.256-1.316.592-2.616 1.312-3.636a3.968 3.968 0 0 1 1.348-1.2 5.807 5.807 0 0 1 1.668-.544c1.14-.212 2.268-.26 3.3-.528a4.4 4.4 0 0 0 2.472-1.556 5.76 5.76 0 0 0 .976-2.212c.13-.594.213-1.197.248-1.804 0-.212.024-.4.028-.572a24.584 24.584 0 0 0 8.42 8c.256.148.66.252.8 0a.556.556 0 0 0-.052-.408Zm-9.328-7.032a12.253 12.253 0 0 1-.296 1.772 5.567 5.567 0 0 1-.98 2.124 4.155 4.155 0 0 1-2.368 1.448c-1 .252-2.12.292-3.288.496-.61.098-1.2.29-1.752.568a4.23 4.23 0 0 0-1.448 1.272c-.768 1.084-1.108 2.42-1.368 3.748a14.63 14.63 0 0 1-1.024 3.772 4.639 4.639 0 0 1-1.076 1.456c-.442.383-.96.669-1.52.84a9.532 9.532 0 0 1-3.256.292 24.251 24.251 0 0 0-2.916-.052 6.281 6.281 0 0 0-1.6.312l.3-.24a9.02 9.02 0 0 1 5.976-1.836 2.36 2.36 0 0 0 1.38-.4c1.6-.436 2.736-2.516 3.376-4.18.548-1.424.452-3.124 1.368-4.336.668-.88 1.752-1.316 2.8-1.552 1.048-.236 2.164-.312 3.2-.652a6.803 6.803 0 0 0 4.4-4.872 2.99 2.99 0 0 0 .076-.8c.024.036.052.072.072.108-.012.212-.032.452-.056.712Z" fill="#263238"/><path d="M39.504 130.364a.85.85 0 0 1-.072-.088c-.044-.06-.116-.148-.192-.272a5.659 5.659 0 0 1-.584-1.144 6.524 6.524 0 0 1-.4-2 6.026 6.026 0 0 1 .496-2.644 6.365 6.365 0 0 1 2.02-2.548c.944-.736 2.188-1.112 3.464-1.392 1.276-.28 2.668-.528 3.828-1.336a4.533 4.533 0 0 0 1.38-1.6 10.8 10.8 0 0 0 .8-2.064c.444-1.436.752-2.932 1.6-4.14.41-.594.96-1.079 1.6-1.412a6.28 6.28 0 0 1 1.956-.572c1.316-.176 2.568-.132 3.72-.292a8.874 8.874 0 0 0 3.044-.988 9.288 9.288 0 0 0 4.044-4.228c.06-.12.104-.22.144-.3a1.16 1.16 0 0 1 .052-.1 6.962 6.962 0 0 1-.752 1.556 9.495 9.495 0 0 1-3.416 3.2 9.079 9.079 0 0 1-3.092 1.028c-1.168.168-2.428.132-3.716.312-.659.081-1.3.27-1.896.56a4.296 4.296 0 0 0-1.52 1.348c-.8 1.16-1.116 2.64-1.56 4.084a11.29 11.29 0 0 1-.832 2.104 4.736 4.736 0 0 1-1.448 1.664c-1.2.844-2.636 1.068-3.9 1.36-1.264.292-2.484.632-3.408 1.34a6.319 6.319 0 0 0-2 2.472 6.001 6.001 0 0 0-.512 2.58c.017.671.14 1.335.364 1.968.206.542.47 1.059.788 1.544Z" fill="#455A64"/><path d="M69.932 122.428a1.057 1.057 0 0 0 .928 1.14 1.008 1.008 0 0 0 1.156-.86 1.057 1.057 0 0 0-.924-1.14 1.012 1.012 0 0 0-1.16.86ZM59.2 122.428a1.057 1.057 0 0 0 .928 1.14 1.009 1.009 0 0 0 1.156-.86 1.057 1.057 0 0 0-.924-1.14 1.012 1.012 0 0 0-1.16.86Z" fill="#263238"/><path d="M51.76 106a2.16 2.16 0 0 1-.252.884 4.424 4.424 0 0 1-1.4 1.72 4.488 4.488 0 0 1-2.06.828 2.229 2.229 0 0 1-.92-.02c0-.036.352-.024.896-.128a4.933 4.933 0 0 0 1.96-.844 4.991 4.991 0 0 0 1.392-1.62c.26-.5.352-.82.384-.82Z" fill="#F14953"/><path d="M50.552 108.084a1.195 1.195 0 0 1-.368 0 4.71 4.71 0 0 1-.972-.236 5.38 5.38 0 0 1-3.6-5.088c-.003-.333.03-.666.1-.992.016-.122.053-.241.108-.352.04 0-.096.516-.06 1.34a5.529 5.529 0 0 0 3.512 4.956c.76.288 1.284.332 1.28.372ZM66.116 103.46s-.156-.196-.492-.472a3.607 3.607 0 0 0-1.668-.728 4.726 4.726 0 0 0-2.668.348 10.818 10.818 0 0 0-2.8 1.848c-.908.8-1.748 1.58-2.612 2.188a7.197 7.197 0 0 1-2.512 1.2 4.55 4.55 0 0 1-1.88.084 3.035 3.035 0 0 1-.496-.132c-.112-.04-.168-.064-.164-.072.004-.008.236.064.672.124a4.819 4.819 0 0 0 1.828-.144 7.246 7.246 0 0 0 2.44-1.2c.844-.608 1.672-1.4 2.588-2.192a10.743 10.743 0 0 1 2.86-1.868 4.805 4.805 0 0 1 2.764-.312 3.505 3.505 0 0 1 1.696.8c.13.113.247.241.348.38.072.088.104.14.096.148ZM67.22 103.808c.06.123.113.248.16.376.155.355.34.696.552 1.02a10.994 10.994 0 0 0 3.072 2.952c.744.516 1.6 1.036 2.484 1.628.969.614 1.862 1.34 2.66 2.164a6.802 6.802 0 0 1 1.788 3.324c.248 1.324-.072 2.708-.496 4.024-.212.664-.456 1.304-.608 1.952a3.877 3.877 0 0 0-.028 1.924c.194.602.493 1.164.884 1.66.368.504.76.984 1.084 1.496.62.987.901 2.15.8 3.312a7.413 7.413 0 0 1-.8 2.872 13.55 13.55 0 0 1-2.632 3.408 22.87 22.87 0 0 1-.856.8l-.228.204c-.05.045-.079.065-.084.06a.73.73 0 0 1 .068-.076l.216-.216.824-.828a14.095 14.095 0 0 0 2.56-3.416 7.359 7.359 0 0 0 .772-2.82 5.2 5.2 0 0 0-.8-3.2c-.32-.5-.712-.972-1.088-1.484a5.504 5.504 0 0 1-.916-1.72 4.08 4.08 0 0 1 .024-2.024c.156-.672.4-1.312.608-1.972.424-1.304.732-2.652.496-3.924a6.648 6.648 0 0 0-1.732-3.232 14.279 14.279 0 0 0-2.612-2.148c-.884-.596-1.728-1.124-2.472-1.652a10.755 10.755 0 0 1-3.056-3.028 6.134 6.134 0 0 1-.524-1.048c-.048-.128-.072-.228-.096-.292a.318.318 0 0 1-.024-.096Z" fill="#455A64"/><path d="m170.704 33.856 4.316 13.664h-3.124l-1.38-4.712.188-8.952Z" fill="#263238"/><path d="M179.428 47.508h-64.5v3.856h64.5v-3.856Z" fill="#455A64"/><path d="M127.036 50.516h-3.12v5.92h3.12v-5.92ZM167.308 50.516h-3.12v5.92h3.12v-5.92ZM117.12 29.632s-2.896 2.208-.124 5.12a.255.255 0 0 0 .184.08l25.292-.148s2.16-2.424.368-5.2l-25.72.148Z" fill="#455A64"/><path d="M136.88 31.936c0 .028-3.148.052-7.032.052s-7.048-.024-7.048-.052c0-.028 3.148-.052 7.032-.052s7.048.024 7.048.052ZM132.948 32.852c0 .028-1.48.048-3.308.048-1.828 0-3.304 0-3.304-.048s1.48-.052 3.304-.052c1.824 0 3.308.024 3.308.052ZM139.468 34.604s.056-.292.132-.76c.208-1.222.197-2.47-.032-3.688-.088-.468-.168-.752-.148-.756a.974.974 0 0 1 .072.196c.04.124.092.312.144.544a8.983 8.983 0 0 1 .036 3.716 5.848 5.848 0 0 1-.136.552.717.717 0 0 1-.068.196ZM141.356 29.436c.042.059.079.12.112.184.032.06.072.136.112.228.04.092.088.192.128.308.104.272.185.553.24.84.07.35.107.707.112 1.064 0 .358-.031.715-.092 1.068a5.307 5.307 0 0 1-.228.84c-.04.12-.088.224-.124.312a1.945 1.945 0 0 1-.108.228.695.695 0 0 1-.112.188s.124-.28.276-.748a7.06 7.06 0 0 0 .204-.836c.055-.348.081-.7.08-1.052a6.024 6.024 0 0 0-.316-1.88c-.156-.464-.304-.732-.284-.744ZM121.108 34.636a.779.779 0 0 1-.116-.168 1.923 1.923 0 0 1-.12-.212c-.04-.084-.092-.18-.136-.292a4.654 4.654 0 0 1-.244-.8 5.374 5.374 0 0 1-.1-1.02c.008-.342.05-.682.128-1.016a4.254 4.254 0 0 1 .532-1.292c.076-.112.116-.172.124-.168.008.004-.148.256-.324.688a5.07 5.07 0 0 0-.24.8 5.468 5.468 0 0 0-.116.996 5.162 5.162 0 0 0 .308 1.8c.168.424.324.672.304.684ZM118.4 35.252a.922.922 0 0 1-.132-.192 2.093 2.093 0 0 1-.132-.236 3.072 3.072 0 0 1-.152-.328 5.38 5.38 0 0 1-.292-.892 6.16 6.16 0 0 1-.14-1.14c-.006-.385.025-.769.092-1.148a5.144 5.144 0 0 1 .508-1.48c.033-.07.073-.135.12-.196.02 0-.14.296-.312.8a6.143 6.143 0 0 0-.224.896c-.06.373-.088.75-.084 1.128.013.378.057.754.132 1.124.065.303.155.6.268.888.168.484.348.768.348.776Z" fill="#E0E0E0"/><path d="M141.544 42.4v4.84h-9.364V42.4h9.364Z" fill="#EBEBEB"/><path d="M111.3 44.848v.132a2.772 2.772 0 0 0 2.8 2.596H142v-.352h-6.64a2.42 2.42 0 0 1-2.4-2.4 2.418 2.418 0 0 1 2.4-2.42H142v-.512l-27.9.092a2.803 2.803 0 0 0-2.606 1.773 2.807 2.807 0 0 0-.194 1.091Z" fill="#F14953"/><path d="M141.544 44.868c0 .028-1.928.052-4.3.052s-4.3-.024-4.3-.052c0-.028 1.924-.048 4.3-.048s4.3.02 4.3.048ZM141.408 45.96c0 .028-1.824.052-4.068.052-2.244 0-4.072-.024-4.072-.052 0-.028 1.824-.052 4.072-.052s4.068.024 4.068.052ZM141.544 46.956c0 .028-1.64.052-3.66.052-2.02 0-3.656-.024-3.656-.052 0-.028 1.636-.048 3.656-.048 2.02 0 3.66.02 3.66.048ZM141.544 43.888c0 .032-1.888.052-4.212.052s-4.212 0-4.212-.052 1.884-.048 4.212-.048 4.212.02 4.212.048ZM141.408 42.912c0 .028-1.68.048-3.748.048-2.068 0-3.752-.02-3.752-.048s1.68-.052 3.752-.052 3.748.02 3.748.052Z" fill="#E0E0E0"/><path d="M114.676 42.048c-.215.22-.413.455-.592.704a3.69 3.69 0 0 0-.636 2.08c.017.742.255 1.462.684 2.068.186.245.39.475.612.688a.968.968 0 0 1-.204-.148 3.54 3.54 0 0 1-.516-4.732c.135-.184.288-.354.456-.508.12-.108.192-.16.196-.152Z" fill="#F5F5F5"/><path d="M113.736 41.944a5.439 5.439 0 0 0-.596.704 3.598 3.598 0 0 0 .06 4.152c.184.245.387.475.608.688a.766.766 0 0 1-.2-.148 3.092 3.092 0 0 1-.468-.5 3.597 3.597 0 0 1-.728-2.104 3.567 3.567 0 0 1 1.132-2.636.864.864 0 0 1 .192-.156ZM132.684 42.048c-.215.22-.413.455-.592.704a3.69 3.69 0 0 0-.636 2.08c.017.742.255 1.462.684 2.068.186.245.39.475.612.688a.968.968 0 0 1-.204-.148 3.1 3.1 0 0 1-.464-.5 3.54 3.54 0 0 1-.052-4.232c.135-.184.288-.354.456-.508.12-.108.192-.16.196-.152Z" fill="#F5F5F5"/><path d="M131.744 41.944a5.439 5.439 0 0 0-.596.704 3.604 3.604 0 0 0 .052 4.152c.184.245.387.475.608.688a.766.766 0 0 1-.2-.148 3.092 3.092 0 0 1-.468-.5 3.597 3.597 0 0 1-.728-2.104 3.567 3.567 0 0 1 1.132-2.636.87.87 0 0 1 .2-.156ZM117.852 45.532c0-.656-.02-1.312-.028-1.968a1.348 1.348 0 0 0-.068-.508.48.48 0 0 0-.376-.316.746.746 0 0 0-.8.4c-.15.298-.217.631-.196.964-.001.52.025 1.04.076 1.556.012.248.075.49.184.712a.668.668 0 0 0 .6.36.68.68 0 0 0 .528-.456c.073-.24.1-.493.08-.744ZM128.684 44.964c0 .028-2 .052-4.504.052-2.504 0-4.504-.024-4.504-.052 0-.028 2-.052 4.504-.052 2.504 0 4.504.024 4.504.052ZM115.984 41.852l-.052-4.588h2.496l.088 4.588h-2.532Z" fill="#F5F5F5"/><path d="M118.28 38.08c-.772.07-1.548.07-2.32 0a14.04 14.04 0 0 1 2.32 0ZM118.28 38.8c-.772.07-1.548.07-2.32 0a14.04 14.04 0 0 1 2.32 0ZM118.28 39.496c-.772.07-1.548.07-2.32 0a14.04 14.04 0 0 1 2.32 0ZM118.28 40.204c-.772.07-1.548.07-2.32 0a14.04 14.04 0 0 1 2.32 0ZM118.28 40.912c-.772.07-1.548.07-2.32 0a14.04 14.04 0 0 1 2.32 0Z" fill="#E0E0E0"/><path d="M115.8 37.144h27.676a13.094 13.094 0 0 1 0 4.96h-27.56v-.34h1.684a.8.8 0 0 0 .8-.8v-2.736a.8.8 0 0 0-.8-.8h-1.8v-.284Z" fill="#263238"/><path d="M122.34 39.628h.46a.108.108 0 0 1 .048 0 .087.087 0 0 1 .052.084v.032c0 .008-.02.076-.032.116a1.305 1.305 0 0 1-.288.524.553.553 0 0 1-.4.204h-.056a.452.452 0 0 1-.312-.228 1.032 1.032 0 0 1-.14-.556c.001-.135.019-.27.056-.4.051-.192.144-.371.272-.524a.568.568 0 0 1 .4-.22.363.363 0 0 1 .172.04.572.572 0 0 1 .272.336.097.097 0 0 1 0 .048.13.13 0 0 1 0 .048.092.092 0 0 1-.015.04.087.087 0 0 1-.029.028h-.032a.096.096 0 0 1-.064-.06.586.586 0 0 0-.056-.112.262.262 0 0 0-.22-.132.256.256 0 0 0-.152.056.796.796 0 0 0-.252.364c-.073.164-.111.341-.112.52a.933.933 0 0 0 .08.4.269.269 0 0 0 .24.184.352.352 0 0 0 .224-.136c.108-.124.189-.27.236-.428h-.328c-.072 0-.112-.048-.112-.112a.086.086 0 0 1 0-.032.109.109 0 0 1 .03-.056.105.105 0 0 1 .058-.028ZM123.912 38.724a.216.216 0 0 1 0 .036c.02.068.128.636.328 1.712a.066.066 0 0 1 0 .028.097.097 0 0 1 0 .048.1.1 0 0 1-.034.039.093.093 0 0 1-.05.013.099.099 0 0 1-.048-.023.1.1 0 0 1-.028-.045l-.112-.572h-.568l-.272.572a.11.11 0 0 1-.039.034.114.114 0 0 1-.049.014.08.08 0 0 1-.052 0 .09.09 0 0 1-.035-.035.092.092 0 0 1-.013-.049.066.066 0 0 1 0-.028c0-.04.044-.104.084-.188.4-.872.636-1.384.716-1.54a.103.103 0 0 1 .037-.05.099.099 0 0 1 .059-.018.095.095 0 0 1 .076.052Zm-.124.4-.308.648h.436l-.128-.648ZM125.456 40.6h-.832a.092.092 0 0 1-.056 0 .132.132 0 0 1-.044-.104c0-.032.076-.6.228-1.704v-.04a.092.092 0 0 1 .037-.044.093.093 0 0 1 .055-.016.08.08 0 0 1 .044 0c.016.008.03.02.039.036.01.016.014.034.013.052 0 .076-.024.232-.056.468a93.28 93.28 0 0 0-.148 1.156h.76a.095.095 0 0 1 .048.035.095.095 0 0 1 .016.057.109.109 0 0 1 0 .036.118.118 0 0 1-.104.068ZM126.596 38.724a.216.216 0 0 1 0 .036c.02.068.132.636.328 1.712a.066.066 0 0 1 0 .028.098.098 0 0 1 0 .048.1.1 0 0 1-.034.039.095.095 0 0 1-.05.013.099.099 0 0 1-.048-.023.1.1 0 0 1-.028-.045l-.112-.572h-.568l-.272.572a.11.11 0 0 1-.039.034.114.114 0 0 1-.049.014.08.08 0 0 1-.052 0 .09.09 0 0 1-.035-.035.092.092 0 0 1-.013-.049.066.066 0 0 1 0-.028c0-.04.044-.104.084-.188.4-.872.636-1.384.716-1.54a.103.103 0 0 1 .037-.05.099.099 0 0 1 .059-.018.095.095 0 0 1 .076.052Zm-.124.4-.308.648h.436l-.128-.648ZM127.928 39.708l.148.4c.088.236.132.364.132.376a.097.097 0 0 1 0 .048.099.099 0 0 1-.084.048c-.04 0-.064-.024-.084-.068a.267.267 0 0 0 0-.04c-.044-.104-.12-.3-.224-.588l-.472.644a.109.109 0 0 1-.037.037.112.112 0 0 1-.051.015.096.096 0 0 1-.052 0 .09.09 0 0 1-.044-.08v-.024a.419.419 0 0 1 .048-.08c.16-.204.336-.448.524-.728-.02-.056-.036-.108-.056-.16-.176-.476-.264-.72-.264-.736a.114.114 0 0 1 0-.052.08.08 0 0 1 .033-.036.081.081 0 0 1 .047-.012.1.1 0 0 1 .055.014c.016.01.029.025.037.042l.28.748.536-.752a.097.097 0 0 1 .038-.035.1.1 0 0 1 .05-.013.08.08 0 0 1 .044 0 .091.091 0 0 1 .048.088.098.098 0 0 1 0 .048l-.652.896ZM130 38.68a.091.091 0 0 1 .044 0 .112.112 0 0 1 .056.088c-.14 1.076-.212 1.66-.228 1.748a1.06 1.06 0 0 1-.18.452.651.651 0 0 1-.8.204.59.59 0 0 1-.292-.26.101.101 0 0 1 0-.096.09.09 0 0 1 .088-.052.104.104 0 0 1 .076.044.522.522 0 0 0 .424.24.4.4 0 0 0 .332-.168.888.888 0 0 0 .184-.524.495.495 0 0 1-.42.228h-.084a.432.432 0 0 1-.316-.224 1.005 1.005 0 0 1-.14-.556v-.316c0-.108.056-.4.112-.716v-.032a.088.088 0 0 1 .088-.068.076.076 0 0 1 .048 0 .082.082 0 0 1 .035.033c.009.014.013.03.013.047a3.16 3.16 0 0 1-.044.4 4.91 4.91 0 0 0-.064.58 1.2 1.2 0 0 0 .072.452c.056.136.14.204.248.204h.032a.46.46 0 0 0 .252-.2c.098-.138.167-.295.204-.46l.128-.948a.082.082 0 0 1 0-.044.093.093 0 0 1 .093-.065c.013 0 .027.003.039.009Z" fill="#FAFAFA"/><path d="M142.436 42.168c-.028 0-.052-1.14-.052-2.544 0-1.404.024-2.544.052-2.544.028 0 .052 1.14.052 2.544 0 1.404-.024 2.544-.052 2.544Z" fill="#F5F5F5"/><path d="M119.788 42.168c-.028 0-.052-1.14-.052-2.544 0-1.404.024-2.544.052-2.544.028 0 .052 1.14.052 2.544 0 1.404-.024 2.544-.052 2.544Z" fill="#E0E0E0"/><path d="M142.92 42.168c-.028 0-.048-1.14-.048-2.544 0-1.404.02-2.544.048-2.544s.052 1.14.052 2.544c0 1.404-.024 2.544-.052 2.544Z" fill="#F5F5F5"/><path d="M119.336 42.168c-.032 0-.052-1.14-.052-2.544 0-1.404.02-2.544.052-2.544s.048 1.14.048 2.544c0 1.404-.02 2.544-.048 2.544ZM135.724 37.916l2.924 2.36h.028-.032l-.4.104-2.472.648-2.24-.948-.632-.272-.168-.072h-.044.044l.172.072.636.26 2.244.94 2.468-.652.4-.104v.032l-2.92-2.368" fill="#E0E0E0"/><path d="m138.38 39.9.16.152.216-.048-.096.2.112.188-.216-.028-.148.164-.04-.216-.2-.088.192-.104.02-.22ZM135.576 40.832l.108.092.136-.04-.052.132.08.116-.144-.008-.088.112-.032-.136-.136-.052.12-.076.008-.14ZM132.476 39.56l.176.012.104-.14.044.172.164.06-.148.092-.004.172-.136-.108-.168.048.064-.164-.096-.144ZM139.692 37.956l.176.008.104-.136.044.168.164.06-.148.096-.004.172-.136-.112-.168.048.064-.16-.096-.144ZM135.584 37.84l.112.008.068-.088.028.108.104.04-.096.056-.004.112-.084-.072-.108.032.04-.104-.06-.092Z" fill="#E0E0E0"/><path d="M139.936 38.076s-.948 0-2.112-.068c-1.164-.068-2.112-.1-2.112-.112 0-.012.948.02 2.112.068 1.164.048 2.112.1 2.112.112Z" fill="#E0E0E0"/><path d="M141 37.1h-28.072c-.364-.832-.456-1.624 0-2.336H141a2.712 2.712 0 0 1 0 2.336Z" fill="#F14953"/><path d="M133.952 35.432h-15.208v.852h15.208v-.852Z" fill="#EBEBEB"/><path d="M114 37.112a.841.841 0 0 1-.224-.28 2.077 2.077 0 0 1-.148-1.692.887.887 0 0 1 .168-.316c-.023.116-.057.23-.1.34a2.392 2.392 0 0 0 .144 1.628c.06.104.113.21.16.32Z" fill="#E0E0E0"/><path d="M114.616 37.112a.804.804 0 0 1-.224-.28 2.077 2.077 0 0 1-.148-1.692.797.797 0 0 1 .168-.316c-.023.116-.057.23-.1.34a2.392 2.392 0 0 0 .144 1.636c.092.192.172.304.16.312ZM139.864 37.06c.112-.372.178-.756.196-1.144a4.925 4.925 0 0 0-.184-1.144 2 2 0 0 1 .288 1.144c.013.402-.091.8-.3 1.144ZM139.34 37.052c-.028 0 .088-.5.084-1.116-.004-.616-.116-1.112-.084-1.12.137.357.201.738.188 1.12.018.381-.046.762-.188 1.116Z" fill="#F5F5F5"/><path d="M151.44 22.624h19.264V47.76h-19.132l-.132-25.136Z" fill="#263238"/><path d="M150.04 47.628h19.152v-24.88H150.04v24.88Z" fill="#fff"/><path d="M169.288 22.652v25.072h-19.344V22.652h19.344Zm-.192 24.88V22.844h-18.96v24.688h18.96Z" fill="#263238"/><path d="M166.7 25.448h-14.664V44.94H166.7V25.448Z" fill="#fff"/><path d="M152 25.444a.706.706 0 0 1 0 .092v5.336c0 3.428 0 8.292.02 14.06l-.044-.044h14.664l-.052.048V25.448l.04.04-10.648-.02H152.216 155.944l10.672-.02h.04v19.58h-14.692v-.048c0-5.78 0-10.656.024-14.092v-5.324l.012-.12Z" fill="#263238"/><path d="M150 47.628c.073-.142.16-.276.26-.4.168-.252.4-.6.684-.972.284-.372.54-.704.736-.94.1-.13.211-.253.332-.364a2.16 2.16 0 0 1-.28.4l-.708.956-.708.952a2.266 2.266 0 0 1-.316.368ZM150.04 22.748c.367.42.709.86 1.024 1.32.34.44.652.899.936 1.376-.366-.42-.708-.861-1.024-1.32-.338-.44-.651-.9-.936-1.376ZM166.672 25.54c-.02 0 .528-.656 1.224-1.428.41-.478.845-.933 1.304-1.364-.382.499-.791.977-1.224 1.432-.411.476-.846.93-1.304 1.36ZM169.2 47.628c-.437-.41-.851-.844-1.24-1.3a16.135 16.135 0 0 1-1.16-1.368c.436.41.85.845 1.24 1.3.412.434.799.89 1.16 1.368Z" fill="#263238"/><path d="M152.712 44.932s1.576-4.888 2.512-5.404a8.963 8.963 0 0 1 4.12-1.128c2.168 0 3.2.14 4.476 1.016 1.472 1.012 2.468 5.456 2.468 5.456" fill="#F14953"/><path d="M157.684 38.18v-.032c-1.356-.176-2-1.488-2.072-3.056a19.195 19.195 0 0 1-.012-2.692c.034-1.064.187-2.121.456-3.152a3.852 3.852 0 0 1 3.2-1.224c2.084.156 3.156 2.944 3.156 2.944s0 4.244-.136 5.104a6.68 6.68 0 0 0-.104 1.164l-.048 1.048a2.207 2.207 0 0 1-2.204 2.1 2.205 2.205 0 0 1-2.236-2.204Z" fill="#FFBE9D"/><path d="M162.276 33.628c.036 0 1.46-.444 1.424 1.012-.036 1.456-1.488 1.12-1.492 1.08-.004-.04.068-2.092.068-2.092Z" fill="#FFBE9D"/><path d="M162.668 35.176s.024 0 .068.04a.246.246 0 0 0 .188 0 .616.616 0 0 0 .304-.556.824.824 0 0 0-.06-.364.305.305 0 0 0-.188-.2.132.132 0 0 0-.152.068c-.02.04 0 .068-.02.072-.02.004-.028-.028 0-.088a.167.167 0 0 1 .06-.088.204.204 0 0 1 .14-.036c.06.014.115.044.16.085a.36.36 0 0 1 .1.151.837.837 0 0 1 .08.4.654.654 0 0 1-.4.616.263.263 0 0 1-.232-.044c-.048-.032-.052-.032-.048-.056Z" fill="#EB996E"/><path d="M156.4 33.248c.04.04.276-.14.62-.14s.592.168.628.124c.036-.044-.024-.092-.132-.172a.877.877 0 0 0-.504-.148.8.8 0 0 0-.492.16c-.092.084-.12.156-.12.176ZM159.756 33.2c.04.044.28-.136.62-.14.34-.004.592.168.628.128.036-.04-.02-.096-.132-.172a.865.865 0 0 0-.996 0c-.104.08-.14.156-.12.184ZM160.108 32.1c.02.072.224.08.452.152s.4.176.456.124c.056-.052 0-.088-.052-.168a.738.738 0 0 0-.328-.208.72.72 0 0 0-.4 0c-.084.02-.136.064-.128.1ZM156.624 31.964c.06.068.28.076.492.024.212-.052.336-.148.276-.216a.64.64 0 0 0-.492-.02c-.212.052-.336.148-.276.212ZM158.944 35.796c0 .02.04.056.128.068a.48.48 0 0 0 .52-.396c0-.088 0-.144-.028-.144s-.08.192-.248.32c-.168.128-.364.108-.372.152Z" fill="#263238"/><path d="M157.684 38.148s1.748.028 2.16-.276c0 0-.264.84-2.112.748l-.048-.472Z" fill="#EB996E"/><path d="M154.728 30.688c-.024-.344-.128-.68-.128-1.02a1.843 1.843 0 0 1 .62-1.352 2.192 2.192 0 0 1 1.4-.536c.384.022.768.022 1.152 0 .32-.048.62-.192.936-.272a2.398 2.398 0 0 1 1.924.36c.562.37 1.063.823 1.488 1.344 0 0 1.492.044 1.424 2.136-.068 2.092-.212 2.348-.212 2.348l-.492-.152a1 1 0 0 1-.048.708.372.372 0 0 1-.336.196c-.288 0-.4-.344-.4-.612a22.551 22.551 0 0 1-.16-2.14c0-.2-.048-.456-.244-.5a.736.736 0 0 0-.34.064.636.636 0 0 1-.636-.204c0 .276-.4.4-.64.284a1.32 1.32 0 0 1-.528-.612c.022.151.01.306-.036.452a.371.371 0 0 1-.34.26c-.176 0-.296-.18-.376-.336a4.138 4.138 0 0 1-.4-1.2 2.516 2.516 0 0 1-1.052 1.6c-.064-.184-.124-.368-.184-.548a1.058 1.058 0 0 1-.256.292.364.364 0 0 1-.368.052.242.242 0 0 1-.128-.232.42.42 0 0 1-.552.14.462.462 0 0 1-.164-.176 13.029 13.029 0 0 1-.056 3.236l-.524-1.068a4.305 4.305 0 0 1-.352-2.092c.011-.14.014-.28.008-.42Z" fill="#263238"/><path d="M162.02 29.512a1.78 1.78 0 0 1 .104-.232.898.898 0 0 1 1.032-.432c.08.026.159.055.236.088l-.052-.044a.885.885 0 0 0-1.248.372 1 1 0 0 0-.068.176c-.024.044-.024.072-.004.072Z" fill="#263238"/><path d="M161.832 29.468s.028 0 .064-.044a1.176 1.176 0 0 0 .216-1.476 1.304 1.304 0 0 0-.124-.168c-.036-.04-.056-.056-.06-.052-.004.004.068.084.152.236a1.223 1.223 0 0 1-.068 1.284c-.1.144-.184.212-.18.22ZM158.284 34c-.024 0-.064.068-.112.192s-.048.14-.076.224l-.04.136a.575.575 0 0 0-.036.164.258.258 0 0 0 .013.103.257.257 0 0 0 .055.089.283.283 0 0 0 .164.084.332.332 0 0 0 .156 0 .326.326 0 0 0 .112-.06c.116-.092.152-.168.14-.184-.012-.016-.088.036-.196.092a.288.288 0 0 1-.184.024.172.172 0 0 1-.08-.044.126.126 0 0 1-.024-.084c.007-.043.016-.086.028-.128l.032-.136c.02-.088.032-.164.044-.232.02-.148.024-.24.004-.24Z" fill="#263238"/><path d="M162.8 31.716a.452.452 0 0 0 0-.104c0-.064 0-.16.028-.28.037-.31.028-.625-.028-.932a1.598 1.598 0 0 0-.456-.8 1.071 1.071 0 0 0-.236-.16.352.352 0 0 0-.1-.04c.11.066.213.142.308.228.218.22.368.497.432.8.061.302.083.612.064.92-.01.122-.014.245-.012.368ZM161.536 31.176a.804.804 0 0 0 .172-.212c.119-.184.205-.387.256-.6.051-.213.067-.433.048-.652a1.039 1.039 0 0 0-.056-.264c-.007.09-.007.179 0 .268.026.43-.077.858-.296 1.228-.06.144-.128.224-.124.232ZM158.4 29.888V29.692a3.62 3.62 0 0 1 .04-.52c.031-.256.128-.5.28-.708a.964.964 0 0 1 .344-.284c.146-.073.305-.118.468-.132.315-.022.63.035.916.168.125.057.245.127.356.208.095.074.184.154.268.24.121.127.223.27.304.424.06.108.084.172.092.172a.193.193 0 0 0 0-.048 1.684 1.684 0 0 0-.352-.572 2.05 2.05 0 0 0-.632-.468 1.86 1.86 0 0 0-.944-.176c-.169.014-.333.06-.484.136-.141.07-.262.174-.356.3a1.509 1.509 0 0 0-.28.732 2.913 2.913 0 0 0-.024.528 1.153 1.153 0 0 0 .004.196Z" fill="#455A64"/><path d="M156.724 30.208v-.052l.036-.144c.028-.124.068-.308.132-.532.07-.26.174-.508.308-.74.163-.286.408-.516.704-.66a2.12 2.12 0 0 1 .952-.196c.269.004.538.038.8.1.228.048.4.1.532.132l.144.036h.052-.048l-.14-.048a6.376 6.376 0 0 0-.528-.148 3.763 3.763 0 0 0-.8-.116 2.195 2.195 0 0 0-.98.2 1.682 1.682 0 0 0-.724.68 3.016 3.016 0 0 0-.3.76 5.161 5.161 0 0 0-.116.536c0 .064-.02.112-.024.148-.004.036-.004.044 0 .044ZM155.904 30.48s0-.16-.032-.4a2.214 2.214 0 0 1 .108-.992 1.16 1.16 0 0 1 .304-.444.901.901 0 0 1 .4-.2.872.872 0 0 1 .4 0h-.028l-.08-.024a.708.708 0 0 0-.312 0 .974.974 0 0 0-.4.2c-.147.125-.26.284-.328.464a2.16 2.16 0 0 0-.096 1.012c0 .132.032.236.044.308.012.072.016.08.02.076Z" fill="#455A64"/><path d="M160.584 34.836s.02-.036 0-.076-.024-.068-.04-.064c-.016.004-.02.036 0 .076s.028.068.04.064ZM159.976 34.708s.032 0 .04-.032 0-.048 0-.052c0-.004-.028 0-.036.032-.008.032-.016.048-.004.052ZM160.284 35.076s.032-.028.036-.068c.004-.04 0-.072-.02-.072s-.032.028-.032.068c0 .04.004.072.016.072ZM161.052 35.004v-.076c0-.04-.032-.068-.044-.064-.012.004 0 .04 0 .08s.032.068.044.06ZM157 34.696s.032-.028.036-.064c.004-.036 0-.064 0-.064s-.032.024-.032.06-.016.064-.004.068ZM156.432 34.68s.028-.032.028-.072c0-.04 0-.068-.028-.068s-.028.028-.028.068c0 .04-.004.072.028.072ZM155.96 34.652s.032-.028.04-.068c.008-.04 0-.072 0-.076 0-.004-.032.028-.04.068-.008.04-.012.072 0 .076ZM156.7 35.16v-.076c0-.04-.032-.068-.044-.064-.012.004 0 .04 0 .08s.032.064.044.06ZM156.164 35.092s.032-.024.036-.056c.004-.032 0-.056-.02-.06-.02-.004-.032.024-.036.056-.004.032.008.056.02.06Z" fill="#EB996E"/><path d="M159.956 33.516a.314.314 0 0 0 .276.34.297.297 0 0 0 .226-.056.296.296 0 0 0 .118-.2.314.314 0 0 0-.276-.34.296.296 0 0 0-.344.256ZM156.696 33.516a.313.313 0 0 0 .07.226.314.314 0 0 0 .206.114.302.302 0 0 0 .308-.144.32.32 0 0 0 .04-.112.314.314 0 0 0-.276-.34.304.304 0 0 0-.348.256ZM26.888 68.312s0-.064.032-.184.064-.308.116-.536c.104-.48.256-1.168.452-2.052.4-1.792.992-4.372 1.712-7.556 1.464-6.4 3.488-15.2 5.732-24.98l.1-.44.1.44.128.556c2.228 9.908 4.248 18.876 5.712 25.376.72 3.244 1.304 5.868 1.708 7.696l.456 2.096c.048.232.084.4.112.544.028.144.032.188.032.188s0-.06-.052-.184l-.132-.54c-.116-.488-.28-1.2-.492-2.088-.424-1.82-1.028-4.444-1.772-7.68L35.056 33.6l-.124-.552h.2C32.868 42.8 30.82 51.632 29.34 58l-1.772 7.54c-.212.88-.4 1.568-.492 2.048-.06.224-.104.4-.136.528-.013.067-.03.132-.052.196Z" fill="#263238"/><path d="M26.884 75.732V69.46H43.6v6.272a7.3 7.3 0 0 1-7.3 7.3h-2.116a7.3 7.3 0 0 1-7.3-7.3Z" fill="#455A64"/><path d="M26.884 69.46c.072.082.136.17.192.264l.524.776 1.844 2.876 6.02 9.532.04.068h-.176c2.276-3.736 4.336-7.116 5.836-9.6.748-1.2 1.356-2.188 1.788-2.888l.496-.78c.053-.093.115-.182.184-.264a2.064 2.064 0 0 1-.148.284l-.464.8-1.732 2.924-5.784 9.6-.084.144-.088-.144-.044-.068-5.984-9.532c-.744-1.2-1.352-2.204-1.788-2.908l-.476-.8a2.323 2.323 0 0 1-.156-.284ZM35.084 34.776a1.828 1.828 0 1 0 0-3.656 1.828 1.828 0 0 0 0 3.656Z" fill="#263238"/><path d="M35.084 1.856c.056 0 .104 7.036.104 15.716s-.048 15.72-.104 15.72c-.056 0-.104-7.036-.104-15.72 0-8.684.048-15.716.104-15.716ZM36.032 83.712a.8.8 0 1 1-1.6 0 .8.8 0 0 1 1.6 0Z" fill="#263238"/><path d="m34.904 84 .124-.064a1.743 1.743 0 0 0-.8 1.296 4.549 4.549 0 0 0 .132 1.556c.036.164.124.368.288.356.164-.012.22-.188.248-.336.052-.31.06-.625.024-.936-.018.4.11.794.36 1.108.052.06.12.12.196.1.076-.02.1-.1.12-.172.068-.262.108-.53.12-.8.02.237.105.465.248.656a.432.432 0 0 0 .624.04.605.605 0 0 0 .064-.46 5.375 5.375 0 0 0-1.092-2.568" fill="#263238"/><path d="M27.94 69.46s-7.52-8.66-6.684-8.976c.836-.316 7.516 4.488 7.516 4.488s-5.74-12.84-4.592-13.772c1.148-.932 7.2 11.38 7.2 11.38s-.94-17.956 0-18.168c.94-.212 4.4 17.956 4.4 17.956s5.116-16.596 6.576-16.596S40.8 61.736 40.8 61.736s6.052-10.232 6.992-8.876c.94 1.356-4.28 12.424-4.28 12.424s7.6-6.368 7.936-5.532c.336.836-8.248 9.708-8.248 9.708H27.94Z" fill="#F14953"/><path d="M26.888 56.4c.052-.024 1.388 2.832 2.98 6.4 1.592 3.568 2.84 6.444 2.8 6.468-.04.024-1.384-2.836-2.976-6.4-1.592-3.564-2.856-6.432-2.804-6.468ZM32.96 58c.06 0 .28 2.516.496 5.624.216 3.108.348 5.64.288 5.644-.06.004-.276-2.516-.492-5.628-.216-3.112-.348-5.64-.292-5.64ZM41.336 49.968a.686.686 0 0 1-.044.2l-.164.572c-.156.524-.372 1.232-.628 2.092a230.213 230.213 0 0 0-1.968 6.928 183.531 183.531 0 0 0-1.732 6.992l-.496 2.128c-.056.232-.104.42-.14.576a.684.684 0 0 1-.064.196.715.715 0 0 1 .02-.204c.028-.156.064-.352.104-.588.096-.504.244-1.236.436-2.14.4-1.804.96-4.288 1.688-7.012.728-2.724 1.46-5.164 2.028-6.92.284-.876.52-1.6.692-2.072.08-.224.148-.4.2-.56a.774.774 0 0 1 .068-.188ZM44.96 59.22c.044.036-1.42 2.22-3.276 4.888-1.856 2.668-3.4 4.8-3.448 4.768-.048-.032 1.42-2.22 3.276-4.888 1.856-2.668 3.4-4.788 3.448-4.768ZM30.476 69.276a2.836 2.836 0 0 1-.66-.476 18.013 18.013 0 0 1-1.416-1.316c-.454-.463-.883-.95-1.284-1.46a2.645 2.645 0 0 1-.452-.672c.044-.036.828.912 1.884 2s1.964 1.876 1.928 1.924ZM35.04 65.832a8.11 8.11 0 0 1 .268 1.788c.087.599.107 1.205.06 1.808a8.108 8.108 0 0 1-.268-1.788 8.18 8.18 0 0 1-.06-1.808Z" fill="#263238"/><path d="M43.6 73.368c-.212.06-.43.104-.648.132-.4.076-1.024.168-1.776.272-1.96.276-3.934.453-5.912.528a37.59 37.59 0 0 1-5.932-.248 23.257 23.257 0 0 1-1.78-.284 3.765 3.765 0 0 1-.64-.156c.22.01.44.036.656.076.4.064 1.028.14 1.78.22 1.963.195 3.937.257 5.908.184 2.312-.08 4.4-.292 5.9-.464l1.784-.208c.218-.037.439-.055.66-.052ZM43.6 75.236c-.212.06-.43.104-.648.132-.4.072-1.024.168-1.776.272-1.96.276-3.934.452-5.912.528a38.1 38.1 0 0 1-5.932-.248c-.756-.1-1.364-.196-1.78-.288a3.596 3.596 0 0 1-.64-.152c.22.007.44.031.656.072.4.068 1.028.144 1.78.22a44.11 44.11 0 0 0 5.908.188c2.312-.08 4.4-.292 5.9-.464l1.784-.208c.218-.038.439-.055.66-.052Z" fill="#fff"/><path d="m96.736 179.672 15.684 1.828 2.728-1.304-2.648-1.796-15.46-1.94a1.598 1.598 0 0 0-1.456.56l-.024.032a1.64 1.64 0 0 0 1.176 2.62Z" fill="#F14953"/><path d="M96.8 179.692c-.024 0-.124-.164-.208-.472a3.057 3.057 0 0 1 .424-2.396c.184-.264.34-.4.356-.372a6.095 6.095 0 0 0-.612 1.56 5.963 5.963 0 0 0 .04 1.68ZM112.42 181.5s-.236.044-.524-.208a.512.512 0 0 1-.088-.128l-.056-.132a2.356 2.356 0 0 1-.112-.304 1.904 1.904 0 0 1 0-.752c.035-.242.088-.482.16-.716a1.6 1.6 0 0 1 .284-.544c.224-.28.452-.336.46-.316.008.02-.168.132-.344.4-.097.159-.17.332-.216.512a7.277 7.277 0 0 0-.14.692 2.13 2.13 0 0 0 0 .676c.024.1.056.196.088.288l.048.136c.01.033.027.065.048.092.18.224.412.268.392.304Z" fill="#263238"/><path d="M111.784 180.252c0 .056-3.4-.316-7.572-.836-4.172-.52-7.552-.984-7.544-1.044.008-.06 3.396.32 7.568.836s7.552.988 7.548 1.044ZM111.824 178.8c0 .056-3.324-.292-7.408-.78-4.084-.488-7.388-.928-7.384-.984.004-.056 3.324.292 7.412.78 4.088.488 7.388.932 7.38.984ZM113.968 179.396a.917.917 0 0 0-.428.692.886.886 0 0 0 .348.72l1.26-.612-1.18-.8Z" fill="#263238"/></svg>