<svg xmlns="http://www.w3.org/2000/svg" class="choose__box__img" viewBox="0 0 167.388 141.476"><path fill="none" d="M0 0h167.388v141.476H0z"></path><path d="M99.236 44.628l-23.863-23.86-23.84 23.922 23.84 23.8zm-8.221 0L75.375 60.27 59.71 44.69l15.662-15.704 15.642 15.642zm58.249 50.115l-23.862-23.86-23.84 23.921 23.84 23.8zm-8.22 0l-15.641 15.64-15.664-15.578L125.402 79.1z" fill="#7ab8fc" stroke="#7ab8fc" stroke-miterlimit="10" stroke-width="1.566"></path><path fill="#1c82e8" d="M136.245 26.726l-78.296 78.297-.494.493 7.065 7.068 78.296-78.298.495-.493-7.066-7.067zM25.483 19.477h9.142v82.379h-9.142z"></path><path fill="#1c82e8" d="M17.255 100.834l12.798 22.169 12.799-22.169H17.255z"></path></svg>