<svg xmlns="http://www.w3.org/2000/svg" class="choose__box__img" viewBox="0 0 167.388 141.476"><path fill="none" d="M0 0h167.388v141.476H0z"></path><circle cx="83.68" cy="31.263" r="16.644" fill="#1c82e8"></circle><path d="M113.175 117.41a29.62 29.62 0 00-21.132-26.438 30.23 30.23 0 00-16.713 0 29.62 29.62 0 00-21.132 26.438l-.089 1.447h6.375l.087-1.258a23.179 23.179 0 0146.229 0l.09 1.258h6.371z" fill="#1c82e8"></path><circle cx="83.68" cy="75.81" r="19.333" fill="#1c82e8"></circle><path d="M149.173 92.068a28.856 28.856 0 00-8.214-18.183 26.492 26.492 0 00-10.452-6.487 9.14 9.14 0 00-1.381-.525l-.238-.077a28.532 28.532 0 00-16.01-.004c-.3.085-.577.17-.857.259l-.74.223a16.877 16.877 0 00-2.787 1.227l-.552.298.189.598a19.277 19.277 0 01.826 5.132l.052 1.278 1.098-.657a21.1 21.1 0 0110.81-2.948 21.662 21.662 0 0121.647 20.082l.155 1.382h6.456z" fill="#7ab8fc"></path><path d="M120.875 33.694a18.922 18.922 0 00-18.901 18.897 18.61 18.61 0 008.99 16.096 18.37 18.37 0 009.912 2.805 18.9 18.9 0 100-37.798zm0 6.59a12.349 12.349 0 11-12.39 12.31v-.003a12.323 12.323 0 0112.34-12.306zM18.215 92.068a28.856 28.856 0 018.214-18.183 26.49 26.49 0 0110.452-6.487 9.14 9.14 0 011.381-.525l.238-.077a28.532 28.532 0 0116.01-.004c.3.085.577.17.857.259l.739.224a16.877 16.877 0 012.788 1.227l.552.297-.19.598a19.28 19.28 0 00-.825 5.132l-.052 1.278-1.098-.656a21.1 21.1 0 00-10.811-2.949 21.662 21.662 0 00-21.647 20.082l-.154 1.382h-6.456z" fill="#7ab8fc"></path><path d="M27.614 52.591a18.947 18.947 0 0018.899 18.901 18.371 18.371 0 009.912-2.805 18.61 18.61 0 008.989-16.096 18.9 18.9 0 00-37.8 0zm31.288 0a12.35 12.35 0 11-12.394-12.306h.005A12.405 12.405 0 0158.902 52.59z" fill="#7ab8fc"></path></svg>