<svg xmlns="http://www.w3.org/2000/svg" class="choose__box__img" viewBox="0 0 167.388 141.476"><path fill="none" d="M0 0h167.388v141.476H0z"></path><path fill="#1c82e8" d="M80.175 71.868h7.19v13.755h-7.19z"></path><path d="M117.922 102.898H49.474v-57.77h68.448zm-61.737-6.797h55.026V51.93H56.185z" fill="#1c82e8"></path><path d="M82.739 14.397a23.937 23.937 0 00-23.896 23.934v7.218h6.375V38.33a17.54 17.54 0 1135.08 0h0v7.218h6.335V38.33A23.937 23.937 0 0082.74 14.397z" fill="#1c82e8" stroke="#1c82e8" stroke-miterlimit="10" stroke-width="1.002"></path><path fill="#7ab8fc" d="M12.139 72.444H43.53v4.875H12.139zm31.383-20.992h-6.201V26.913H32.46v29.398h11.062v-4.859zM21.823 66.655h21.699v-4.861H21.823v-9.627H16.96v14.488h4.863zm10.637 26.84v29.359h4.861V98.315h6.201v-4.863H32.46v.043zM20.105 83.007h-3.141v14.492h4.863V87.87h21.699v-4.863H20.105z"></path><path d="M34.901 17.082A6.9 6.9 0 1041.782 24v-.04a6.915 6.915 0 00-6.88-6.88zm0 9.08a2.186 2.186 0 01-2.16-2.2 2.16 2.16 0 014.32 0 2.185 2.185 0 01-2.16 2.2zM19.412 42.34a6.9 6.9 0 106.88 6.92v-.04a6.915 6.915 0 00-6.88-6.88zm0 9.08a2.186 2.186 0 01-2.16-2.2 2.16 2.16 0 014.32 0 2.185 2.185 0 01-2.16 2.2zM6.92 67.981A6.9 6.9 0 1013.8 74.9v-.04a6.915 6.915 0 00-6.88-6.879zm0 9.08a2.186 2.186 0 01-2.16-2.2 2.16 2.16 0 014.32 0 2.185 2.185 0 01-2.16 2.2zm12.485 16.457a6.9 6.9 0 106.881 6.919v-.04a6.915 6.915 0 00-6.88-6.88zm0 9.08a2.186 2.186 0 01-2.16-2.2 2.16 2.16 0 014.32 0 2.185 2.185 0 01-2.16 2.2zm15.496 16.278a6.9 6.9 0 106.881 6.919v-.04a6.915 6.915 0 00-6.88-6.88zm0 9.08a2.186 2.186 0 01-2.16-2.2 2.16 2.16 0 014.32 0 2.185 2.185 0 01-2.16 2.2zm88.957-55.509h31.391v4.875h-31.391zm.008-20.992h6.201V26.916h4.862v29.398h-11.063v-4.859zm21.7 15.203h-21.7v-4.861h21.7V52.17h4.863v14.488h-4.863zm-10.637 26.84v29.359h-4.862V98.318h-6.201v-4.863h11.063v.043zm12.355-10.488h3.141v14.492h-4.863v-9.629h-21.7V83.01h23.422z" fill="#7ab8fc"></path><path d="M125.606 23.965a6.9 6.9 0 106.92-6.88h-.039a6.888 6.888 0 00-6.88 6.88zm4.721 0a2.16 2.16 0 110 .101v-.101zm10.769 25.258a6.9 6.9 0 106.92-6.88h-.04a6.888 6.888 0 00-6.88 6.88zm4.72 0a2.16 2.16 0 110 .092v-.092zm7.733 25.642a6.9 6.9 0 106.92-6.88h-.04a6.888 6.888 0 00-6.88 6.88zm4.72 0a2.16 2.16 0 110 .092l.001-.092zM141.102 100.4a6.9 6.9 0 106.92-6.88h-.039a6.888 6.888 0 00-6.88 6.88zm4.721 0a2.16 2.16 0 110 .093v-.092zm-20.217 25.359a6.9 6.9 0 106.92-6.88h-.039a6.888 6.888 0 00-6.88 6.88zm4.721 0a2.16 2.16 0 110 .101v-.101z" fill="#7ab8fc"></path><circle cx="83.775" cy="69.988" r="6.667" fill="#1c82e8"></circle></svg>