<svg xmlns="http://www.w3.org/2000/svg" width="1008" height="694" viewBox="0 0 1008 694" fill="none"> <g clip-path="url(#clip0_217_2)"> <path d="M32.152 310.948C17.3467 283.756 13.0932 251.992 20.3732 221.942C41.0679 136.774 99.6348 -12.7391 254.641 8.41C469.768 37.8064 532.343 45.1555 620.602 17.5555C708.862 -10.0444 861.495 -9.96275 909.265 52.4229C938.221 90.23 1036.13 259.831 973.64 318.624C911.147 377.416 1003.9 493.696 1006.77 555.428C1009.63 617.16 920.39 625.163 808.164 627.041C695.938 628.919 44.0126 607.525 44.0126 607.525C44.0126 607.525 -39.5843 463.646 26.6716 412.284C67.6521 380.438 49.2476 342.386 32.152 310.948Z" fill="#9752FF"/> <path d="M97.3445 540.24C83.03 539.75 29.2891 547.099 26.099 549.875C25.2811 550.61 13.5022 585.559 65.28 630.634C148.059 702.818 370.711 705.268 442.857 677.831C547.557 637.983 662.319 712.699 900.104 684.119C976.094 674.973 1026.89 558.776 992.371 543.669C971.677 534.687 946.892 558.531 926.116 548.079C902.149 535.994 853.643 528.481 823.623 537.709C822.396 538.035 821.66 539.342 821.987 540.567C822.315 541.71 823.46 542.445 824.687 542.2L808.9 547.262C791.313 560.327 795.24 542.935 754.014 540.73L632.463 537.709C589.029 539.015 421.753 546.364 356.315 543.751H320.324C296.276 540.73 234.028 539.342 231.738 539.26L97.3445 540.24Z" fill="#9752FF"/> <path d="M146.832 362.473H183.641C183.641 362.473 195.092 364.106 195.91 372.272C196.728 380.438 195.665 486.673 195.665 486.673L269.528 485.775C269.528 485.775 276.89 488.224 276.89 496.39C276.89 504.556 271.164 507.822 271.164 507.822L158.938 507.332L146.832 362.473Z" fill="#BAC6F2"/> <path d="M146.832 362.473C146.832 362.473 136.198 364.106 135.38 380.438C134.562 396.769 135.38 507.005 135.38 507.005L247.524 507.822C249.16 507.822 250.714 507.169 251.778 505.944C253.414 504.147 255.622 501.371 255.622 498.84C255.622 494.43 253.986 487.408 244.989 487.408C235.991 487.408 159.919 486.591 159.919 486.591L158.283 372.272C158.283 372.354 158.283 364.106 146.832 362.473Z" fill="#B1C1F2"/> <path d="M193.784 507.577C193.784 507.577 191.82 516.804 198.364 516.804H208.998C209.816 516.804 213.333 511.905 211.125 507.822C208.916 503.739 193.784 507.577 193.784 507.577Z" fill="#BAC6F2"/> <path d="M198.364 516.885L199.182 609.075H206.544L206.953 516.313L198.364 516.885Z" fill="#E9EDFA"/> <path d="M168.099 607.442L238.445 608.259V614.791L168.099 613.975V607.442Z" fill="#E9EDFA"/> <path d="M307.154 615.609L303.883 444.947H321.06L320.242 615.609H307.154Z" fill="white"/> <path d="M680.969 445.764H699.782L693.238 616.427L680.969 617.243V445.764Z" fill="white"/> <path d="M290.795 415.551L291.613 443.314L707.962 445.764L708.452 414.734L290.795 415.551Z" fill="#E9EDFA"/> <path d="M265.438 400.036L733.319 401.669V417.184L266.256 416.367L265.438 400.036Z" fill="#BAC6F2"/> <path d="M837.774 545.222L838.592 614.63L931.841 612.997V545.222H837.774Z" fill="#E9EDFA"/> <path d="M911.392 613.323L911.474 545.222H905.503" fill="white"/> <path d="M861.986 545.058C861.986 545.058 859.778 503.903 879.245 492.226C898.713 480.549 882.026 453.276 885.953 438.823C889.879 424.369 908.202 413.754 908.202 402.649C908.202 391.543 906.566 360.35 927.669 350.96C948.773 341.569 965.542 353.736 958.916 372.109C952.29 390.482 947.219 411.631 939.939 418.245C932.659 424.859 935.522 435.475 936.585 448.295C937.649 461.115 927.669 482.182 922.107 490.021C916.545 497.86 922.107 511.17 920.471 525.052C920.471 525.052 917.445 544.486 914.336 545.139C911.228 545.793 861.986 545.058 861.986 545.058Z" fill="#3AA364" fill-opacity="0.74"/> <path d="M905.502 546.364C905.502 546.364 907.956 526.766 886.198 521.214C864.44 515.661 883.09 502.678 878.755 495.819C874.419 488.959 853.888 483.897 853.888 478.671C853.888 473.445 855.77 458.583 832.13 454.092C808.491 449.601 789.841 455.399 797.284 464.136C804.728 472.873 810.372 482.917 818.388 486.101C826.404 489.286 823.378 494.267 822.151 500.391C820.924 506.516 832.13 516.559 838.347 520.234C844.563 523.908 838.347 530.278 840.228 536.892C840.228 536.892 843.664 546.119 847.017 546.446C850.371 546.772 905.502 546.364 905.502 546.364Z" fill="#3AA364" fill-opacity="0.74"/> <path d="M887.343 546.282C887.343 546.282 885.626 525.786 900.758 519.989C915.891 514.191 902.966 500.636 905.911 493.45C908.856 486.264 923.252 481.038 923.252 475.486C923.252 469.933 921.944 454.5 938.385 449.764C954.826 445.028 967.832 451.152 962.597 460.298C957.362 469.443 953.517 479.895 947.873 483.243C942.229 486.591 944.438 491.817 945.256 498.186C946.074 504.555 938.303 515.089 933.968 518.927C929.632 522.765 933.968 529.461 932.659 536.32C932.659 536.32 930.287 545.955 927.915 546.282C925.543 546.609 887.343 546.282 887.343 546.282Z" fill="#3AA364" fill-opacity="0.74"/> <path d="M362.613 151.636L363.186 308.254L799.575 307.601V152.861L362.613 151.636Z" fill="white"/> <path d="M440.648 200.63V219.901L619.375 219.085V200.63H440.648Z" fill="#BAC6F2"/> <path d="M440.648 254.279V273.55L619.375 272.734V254.279H440.648Z" fill="#BAC6F2"/> <path d="M410.465 226.597C417.873 226.597 423.879 220.601 423.879 213.205C423.879 205.809 417.873 199.813 410.465 199.813C403.056 199.813 397.05 205.809 397.05 213.205C397.05 220.601 403.056 226.597 410.465 226.597Z" fill="#BAC6F2"/> <path d="M410.465 276.652C417.873 276.652 423.879 270.657 423.879 263.261C423.879 255.865 417.873 249.869 410.465 249.869C403.056 249.869 397.05 255.865 397.05 263.261C397.05 270.657 403.056 276.652 410.465 276.652Z" fill="#BAC6F2"/> <path d="M774.299 221.697H668.208V273.386H774.299V221.697Z" fill="#E9EDFA"/> <path d="M666.49 270.936C666.49 270.936 674.752 252.89 682.604 254.85C690.457 256.81 692.42 265.057 698.31 261.546C704.199 258.035 708.043 243.826 713.769 241.54C721.949 238.355 724.648 241.867 735.691 248.154C746.734 254.442 751.396 253.054 755.895 248.399C760.067 244.153 767.756 232.639 776.263 227.495" stroke="#BAC6F2" stroke-width="0.677727" stroke-linecap="round" stroke-linejoin="round"/> <path d="M328.585 153.678H170.716V303.518H328.585V153.678Z" fill="white"/> <path d="M247.606 285.145C270.149 285.145 288.423 266.902 288.423 244.399C288.423 221.895 270.149 203.652 247.606 203.652C225.064 203.652 206.789 221.895 206.789 244.399C206.789 266.902 225.064 285.145 247.606 285.145Z" stroke="#BAC6F2" stroke-width="1.35545" stroke-linecap="round" stroke-linejoin="round"/> <path d="M221.267 166.661H181.105V176.133H221.267V166.661Z" fill="#BAC6F2"/> <path d="M221.267 181.522H181.105V190.994H221.267V181.522Z" fill="#BAC6F2"/> <path d="M298.484 375.702H423.061C423.061 375.702 427.724 375.457 427.724 370.068V359.371H293.576V372.354C294.231 374.395 296.194 375.784 298.484 375.702Z" fill="#BAC5F4"/> <path d="M293.576 278.531L293.494 363.454L427.724 362.229V276.081C427.724 276.081 428.542 271.182 423.307 271.182H298.648C298.648 271.182 293.004 271.182 293.576 278.531Z" fill="#BAC5F4"/> <path d="M350.016 398.485V374.886L369.648 375.702V396.443L350.016 398.485Z" fill="#BAC5F4"/> <path d="M318.852 396.116H400.404L400.485 400.199H318.852V396.116Z" fill="#BAC5F4"/> <path d="M359.423 365.168C361.632 365.168 363.349 366.883 363.349 369.087C363.349 371.292 361.632 373.007 359.423 373.007C357.215 373.007 355.497 371.292 355.497 369.087C355.497 366.883 357.296 365.168 359.423 365.168Z" fill="white"/> <path d="M423.634 275.264H297.666V357.737H423.634V275.264Z" fill="#F8F8FF"/> <path d="M303.965 279.51C305.028 279.51 305.928 280.409 305.928 281.47C305.928 282.532 305.028 283.43 303.965 283.43C302.901 283.43 302.001 282.532 302.001 281.47C302.001 280.409 302.901 279.51 303.965 279.51Z" fill="#FA5F5D"/> <path d="M310.672 279.51C311.735 279.51 312.635 280.409 312.635 281.47C312.635 282.532 311.735 283.43 310.672 283.43C309.608 283.43 308.709 282.532 308.709 281.47C308.709 280.409 309.608 279.51 310.672 279.51Z" fill="#FDBC4E"/> <path d="M317.706 279.51C318.77 279.51 319.67 280.409 319.67 281.47C319.67 282.532 318.77 283.43 317.706 283.43C316.643 283.43 315.743 282.532 315.743 281.47C315.743 280.409 316.643 279.51 317.706 279.51Z" fill="#37CD58"/> <path d="M345.109 293.883C345.027 294.944 344.127 295.761 343.064 295.679H318.933C317.706 295.679 316.479 294.862 316.479 293.883V290.208C316.479 289.228 317.625 288.33 318.933 288.33H342.982C344.045 288.248 345.027 289.065 345.109 290.126V290.208V293.883Z" fill="url(#paint0_linear_217_2)"/> <path d="M403.185 318.216C403.103 319.359 402.121 320.258 400.976 320.176H318.933C317.706 320.176 316.479 319.278 316.479 318.216V300.088C316.479 299.027 317.706 298.129 318.933 298.129H400.976C402.121 298.047 403.103 298.945 403.185 300.088V318.216Z" fill="url(#paint1_linear_217_2)"/> <path d="M343.473 333.731C343.473 334.792 342.573 335.69 341.509 335.69H318.933C317.625 335.69 316.479 334.792 316.479 333.731V323.769C316.479 322.707 317.706 321.809 318.933 321.809H341.346C342.409 321.727 343.391 322.544 343.473 323.687V323.769V333.731Z" fill="url(#paint2_linear_217_2)"/> <path d="M372.92 333.731C372.92 334.792 372.02 335.69 370.956 335.69H348.38C347.072 335.69 345.926 334.792 345.926 333.731V323.769C345.926 322.707 347.153 321.809 348.38 321.809H370.793C371.856 321.727 372.838 322.544 372.92 323.687V323.769V333.731Z" fill="url(#paint3_linear_217_2)"/> <path d="M403.185 333.731C403.103 334.874 402.121 335.772 400.976 335.691H378.564C377.337 335.772 376.355 334.874 376.191 333.731V323.769C376.273 322.544 377.337 321.727 378.564 321.809H400.976C402.121 321.727 403.185 322.625 403.266 323.769L403.185 333.731Z" fill="url(#paint4_linear_217_2)"/> <path d="M372.92 339.365C372.756 339.773 372.429 340.018 372.02 340.099C371.938 340.099 371.938 340.099 371.856 339.773H347.153C346.663 340.099 345.926 339.773 345.926 339.365V339.038C345.926 338.63 346.663 338.221 347.153 338.14H371.856C372.265 338.221 372.511 338.548 372.592 338.875C372.592 338.956 372.592 338.956 372.838 339.038L372.92 339.365Z" fill="#E9EDFB"/> <path d="M372.92 342.549C372.756 342.958 372.429 343.284 372.02 343.366C372.02 343.366 371.938 343.366 371.938 343.039H347.153C346.663 343.366 345.926 343.039 345.926 342.549V342.223C345.926 341.815 346.663 341.488 347.153 341.406H371.856C372.265 341.488 372.674 341.815 372.838 342.223L372.92 342.549Z" fill="#E9EDFB"/> <path d="M372.92 345.817C372.756 346.306 372.347 346.633 371.938 346.715C371.938 346.551 371.938 346.47 371.938 346.306H347.153C346.744 346.551 346.254 346.47 346.008 346.061C345.926 345.98 345.926 345.898 345.926 345.817V345.49C345.926 345.082 346.663 344.837 347.153 344.673H371.856C372.265 344.755 372.674 345.082 372.838 345.49L372.92 345.817Z" fill="#E9EDFB"/> <path d="M372.92 349.001C372.674 349.49 372.347 349.98 371.938 350.389H347.153C346.663 349.98 345.926 349.49 345.926 349.001V348.674C345.926 348.266 346.663 347.776 347.153 347.939H371.856C372.183 347.857 372.511 348.102 372.592 348.429C372.592 348.511 372.592 348.592 372.592 348.674C372.592 348.674 372.592 348.674 372.838 348.756L372.92 349.001Z" fill="#E9EDFB"/> <path d="M359.178 352.267C359.178 352.675 358.932 352.839 358.441 352.839H347.072C346.581 352.839 345.926 352.675 345.926 352.267V351.94C345.926 351.532 346.581 351.206 347.072 351.206H358.441C358.85 351.206 359.178 351.532 359.178 351.94V352.267Z" fill="#E9EDFB"/> <path d="M403.185 339.364C402.694 339.773 402.776 340.099 402.285 339.773H377.582C377.173 340.099 376.764 339.854 376.764 339.446C376.764 339.446 376.764 339.446 377.01 339.364V339.038C376.764 338.63 377.091 338.221 377.582 338.14H402.285C402.776 338.303 402.694 338.63 403.185 339.038V339.364Z" fill="#E9EDFB"/> <path d="M403.185 342.549C402.694 342.958 402.776 343.366 402.285 343.039H377.582C377.091 343.366 376.764 343.039 377.009 342.549V342.223C376.764 341.815 377.091 341.488 377.582 341.406H402.285C402.776 341.57 402.694 341.815 403.185 342.223V342.549Z" fill="#E9EDFB"/> <path d="M403.185 345.816C402.694 346.225 402.776 346.715 402.285 346.306H377.582C377.091 346.633 376.764 346.306 377.009 345.816V345.49C376.764 345.082 377.091 344.837 377.582 344.673H402.285C402.776 344.837 402.694 345.082 403.185 345.49V345.816Z" fill="#E9EDFB"/> <path d="M403.185 349C402.694 349.408 402.776 349.98 402.285 350.388H377.582C377.091 349.898 376.764 349.49 377.009 349V348.674C376.846 348.51 376.846 348.184 377.009 348.02C377.173 347.939 377.337 347.857 377.5 347.939H402.285C402.776 347.775 402.694 348.265 403.185 348.674V349V349Z" fill="#E9EDFB"/> <path d="M389.606 352.267C389.606 352.675 389.606 352.839 389.197 352.839H377.746C377.255 352.839 377.009 352.675 377.009 352.267V351.94C377.009 351.532 377.337 351.206 377.746 351.206H389.116C389.606 351.206 389.524 351.532 389.524 351.94L389.606 352.267Z" fill="#E9EDFB"/> <path d="M342.655 339.365C342.982 339.773 342.818 340.099 342.327 339.773H317.543C317.216 340.018 316.807 339.936 316.643 339.691C316.561 339.609 316.561 339.528 316.479 339.365V339.038C316.643 338.548 317.052 338.221 317.543 338.14H342.246C342.736 338.303 342.9 338.63 342.573 339.038L342.655 339.365Z" fill="#E9EDFB"/> <path d="M342.655 342.549C342.982 342.958 342.818 343.366 342.327 343.039H317.543C317.052 343.448 316.643 343.039 316.479 342.549V342.223C316.561 341.815 317.052 341.488 317.543 341.406H342.246C342.736 341.57 342.9 341.815 342.573 342.223L342.655 342.549Z" fill="#E9EDFB"/> <path d="M342.655 345.817C342.982 346.225 342.818 346.715 342.327 346.306H317.543C317.052 346.715 316.643 346.306 316.479 345.817V345.49C316.561 345.082 317.052 344.837 317.543 344.673H342.246C342.736 344.837 342.9 345.082 342.573 345.49L342.655 345.817Z" fill="#E9EDFB"/> <path d="M335.293 347.939H342.327C342.818 347.776 342.982 348.266 342.655 348.674V349.001C342.982 349.409 342.818 349.98 342.327 350.389H317.543C317.052 350.062 316.725 349.572 316.479 349.001V348.674C316.561 348.184 317.052 347.857 317.543 347.939H335.293Z" fill="#E9EDFB"/> <path d="M330.385 352.267C330.385 352.675 330.14 352.839 329.649 352.839H317.379C316.888 352.839 316.479 352.675 316.479 352.267V351.94C316.561 351.532 316.97 351.206 317.379 351.206H329.649C330.058 351.206 330.385 351.532 330.385 351.859C330.385 351.859 330.385 351.859 330.385 351.94V352.267Z" fill="#E9EDFB"/> <path d="M69.2879 612.833C69.2879 612.833 76.4861 573.801 38.5321 552.897C0.659942 531.993 -1.1396 532.238 -8.66496 529.869C-13.0002 528.4 -17.4173 531.503 -12.4276 537.708C-7.438 543.996 -10.3009 545.548 -0.321625 548.324C9.65765 551.1 11.13 563.185 16.1196 566.207C21.1093 569.228 25.4445 570.044 40.6589 576.577C54.4826 582.538 66.2614 599.359 66.2614 605.238C66.2614 611.118 79.758 613.159 79.758 613.159L69.2879 612.833Z" fill="url(#paint5_linear_217_2)"/> <path d="M67.9792 607.362C67.9792 607.362 77.6313 571.433 44.4216 551.998C11.2118 532.564 -0.321598 532.809 -6.94718 530.441C-10.7099 529.053 -0.403395 533.789 3.93186 539.505C8.26713 545.302 7.20376 543.996 14.9745 548.242C23.9722 553.223 27.7349 558.041 33.0517 559.021C40.7407 560.491 38.4504 568.493 51.7833 574.454C63.8075 579.925 65.3617 594.541 65.3617 600.012C65.3617 605.565 77.1405 607.362 77.1405 607.362H67.9792Z" fill="url(#paint6_linear_217_2)"/> <path d="M101.352 602.054L105.115 598.461C106.915 596.828 109.123 595.603 111.495 594.95C123.192 591.847 160.083 580.333 175.379 552.488C175.543 552.243 175.379 551.917 175.134 551.835H175.052C174.97 551.835 174.888 551.753 174.888 551.753C169.817 551.345 143.56 550.937 108.469 580.823C107.814 581.313 107.242 581.966 106.751 582.538C105.851 583.763 104.379 585.886 103.725 586.947C102.825 588.581 104.624 591.275 102.17 593.643C99.7165 596.011 94.3997 601.972 94.3997 601.972L98.7349 605.157L101.352 602.054Z" fill="url(#paint7_linear_217_2)"/> <path d="M81.3941 599.769C81.3941 599.769 91.4551 509.865 63.9712 481.611C38.6959 455.645 38.2869 479.488 38.3687 483.571C38.3687 483.979 38.5323 484.224 38.6141 484.551C44.5853 495.656 46.6302 508.476 44.5035 520.888C41.886 533.872 60.5357 532.157 62.1717 544.977C63.8076 557.797 70.2696 577.558 69.6152 586.622C68.9609 595.686 68.8791 604.505 68.8791 604.505L79.0219 604.831L81.3941 599.769Z" fill="url(#paint8_linear_217_2)"/> <path d="M81.312 600.013C81.3938 599.85 81.4756 599.605 81.4756 599.36C82.13 593.481 90.5551 508.803 64.0528 481.529C38.941 455.644 38.532 479.08 38.6956 483.326C38.7774 483.816 39.0228 484.306 39.2682 484.714C41.1495 487.409 49.4111 499.167 56.7728 497.861C77.1404 494.268 59.1449 518.683 70.1876 531.748C79.0217 542.037 76.077 577.639 75.4226 586.785C75.0136 591.929 74.1139 596.992 72.8051 601.973C72.5597 603.279 73.4595 604.504 74.6864 604.749C74.7682 604.749 74.85 604.749 74.85 604.749C75.0136 604.749 75.1772 604.831 75.3408 604.831H77.2222C78.3673 604.912 79.3489 604.341 79.8397 603.361L81.312 600.013Z" fill="url(#paint9_linear_217_2)"/> <path d="M91.2096 608.239C91.2096 608.239 93.0092 583.333 107.569 568.145C111.659 563.981 116.812 561.123 122.456 559.816C126.791 558.836 133.908 555.325 140.124 543.648C140.124 543.648 151.821 527.072 163.6 522.091C175.297 517.028 163.6 516.457 163.6 516.457C163.6 516.457 130.063 522.826 108.551 542.423C107.16 543.648 105.77 544.791 104.215 545.771C98.6532 549.609 83.1935 563.899 83.8479 605.789L91.2096 608.239Z" fill="url(#paint10_linear_217_2)"/> <path d="M120.33 603.279C120.33 603.279 120.82 600.258 116.812 600.339C113.295 600.503 54.0738 600.013 54.0738 600.013C54.0738 600.013 51.2927 600.013 51.4563 602.136C51.6198 604.259 60.6176 653.498 61.4355 654.478C61.8445 655.131 62.4171 655.621 63.1533 655.784C64.2984 656.111 105.851 655.866 105.851 655.866C106.833 655.702 107.569 654.968 107.651 653.988C107.651 653.988 120.411 603.851 120.33 603.279Z" fill="url(#paint11_linear_217_2)"/> <path d="M670.09 610.22L656.02 613.405C656.02 613.405 652.585 624.51 651.031 630.471C650.949 630.798 650.622 631.859 650.376 632.513C650.131 633.574 650.049 634.554 650.049 635.616C650.376 640.923 652.421 645.496 657.084 647.864C662.319 650.559 666.409 653.008 671.971 647.864C677.533 642.72 678.515 639.535 676.143 630.716C673.689 621.897 670.09 610.22 670.09 610.22Z" fill="#4B44BE"/> <path d="M751.969 628.675C742.48 625.653 738.39 613.976 738.39 613.976L719.25 612.997C719.25 612.997 718.841 624.918 718.268 631.451C717.614 640.107 719.25 643.944 724.975 643.373C732.664 642.72 764.075 645.496 768.982 642.393C775.608 638.473 760.884 631.451 751.969 628.675Z" fill="#4B44BE"/> <path d="M640.561 340.836C640.561 340.836 633.444 350.634 631.154 377.091C628.864 403.548 633.935 453.767 636.307 463.484C638.679 473.201 648.086 563.84 650.377 570.536C652.749 577.232 655.939 613.324 655.939 613.324L671.071 613.732C671.071 613.732 675.57 566.616 675.57 554.123C675.57 541.629 681.787 423.635 681.378 414.98C680.969 406.324 683.014 409.101 683.014 409.101C683.014 409.101 696.347 451.399 700.355 458.503C704.281 465.525 711.397 479.325 711.397 479.325C711.397 479.325 713.033 523.583 714.915 549.142C716.878 574.7 718.841 615.039 718.841 615.039L739.209 614.63C739.209 614.63 743.871 547.264 743.871 533.055C743.871 518.847 748.125 484.878 748.125 480.877C748.125 476.876 734.792 407.957 734.792 407.957L725.467 340.754L640.561 340.836Z" fill="url(#paint12_linear_217_2)"/> <path d="M648.904 155.638C648.904 155.638 657.738 121.178 664.691 118.647C692.011 108.522 694.792 91.4554 706.489 140.286C718.186 189.117 750.415 245.786 764.157 262.526C783.052 285.472 781.498 300.251 774.708 301.64C767.919 303.028 733.564 312.092 730.947 312.908C728.248 313.725 736.509 337.569 724.976 334.221C718.595 332.424 718.023 304.171 726.039 302.864C729.311 302.293 767.51 294.781 767.265 292.494C767.019 290.208 737.572 249.379 737.572 249.379L718.595 240.397L671.48 215.084L648.904 203.897L646.532 166.498L644.896 159.23L648.904 155.638Z" fill="url(#paint13_linear_217_2)"/> <path d="M642.851 201.774C642.851 201.774 643.096 204.468 636.634 213.614C632.79 219.167 642.524 215.247 634.262 229.21C621.257 251.258 613.977 274.938 612.995 289.636C612.422 298.7 620.357 296.904 623.71 299.762C625.51 301.395 631.481 298.7 632.872 296.659L635.571 292.004C636.307 290.943 643.587 280.246 643.833 279.021C644.487 274.856 648.495 257.3 649.886 251.013C651.031 245.705 660.437 233.538 668.045 208.47C670.253 200.794 668.045 197.609 668.617 194.098C670.253 182.666 654.221 182.911 652.83 186.83C652.503 187.81 640.315 235.743 639.661 242.194C639.416 244.317 643.751 263.343 647.023 268.569C650.295 273.795 654.057 277.551 654.057 282.124C654.057 286.697 651.931 305.478 648.495 313.807C645.06 322.136 640.152 341.325 640.152 341.325L725.466 340.917C725.466 340.917 722.358 304.334 723.667 291.678C723.667 291.678 727.266 250.441 729.474 246.358C731.601 242.275 754.504 279.429 760.23 288.901C762.602 292.821 730.129 299.762 727.43 302.865C724.73 305.968 730.211 314.623 730.211 314.623C730.211 314.623 786.896 307.682 786.651 299.027C786.405 290.371 754.259 223.821 742.889 211.246C731.519 198.671 728.493 199.079 718.841 202.509C709.189 205.938 704.608 209.041 691.684 211.164C682.277 212.797 672.543 211.083 664.2 206.265C659.619 203.162 642.851 201.774 642.851 201.774Z" fill="url(#paint14_linear_217_2)"/> <path d="M631.154 234.681C632.135 233.293 633.117 231.905 633.853 230.435C634.589 229.047 635.162 228.23 635.489 227.577C639.661 220.555 649.149 204.468 650.622 197.364C651.44 194.588 652.094 191.73 652.585 188.872C652.912 186.912 652.994 184.952 652.83 182.993C652.258 179.4 644.896 164.211 645.959 162.823C646.041 162.578 647.023 158.332 648.413 159.72C650.049 161.353 660.519 167.069 661.255 168.131C663.3 171.724 664.854 175.562 666.081 179.563C666.818 181.931 667.472 188.708 667.717 189.28C669.926 194.914 667.39 199.161 667.635 202.182C667.717 203.243 667.717 207.489 668.29 207.979C669.762 209.041 671.807 210.021 672.707 208.959C673.525 207.898 673.279 204.876 673.361 201.937C673.934 186.504 670.989 172.295 667.39 164.865C663.791 157.434 655.284 142.817 661.092 134.407C666.899 125.996 678.923 119.382 679.496 117.259C680.069 115.136 680.314 125.343 686.776 129.017C693.156 132.61 702.154 142.327 702.154 144.369C702.154 146.41 704.281 153.433 698.228 165.518C692.175 177.603 687.349 193.036 695.774 204.468C704.199 215.9 725.466 231.986 726.938 235.579C728.411 239.172 726.938 255.34 726.366 264.404C725.793 273.468 743.543 248.971 742.889 237.131C742.235 225.291 744.361 220.146 732.337 202.182C720.231 184.136 712.379 153.025 712.051 145.43C711.724 137.836 708.207 117.096 700.927 110.971C693.647 104.929 692.993 99.2128 672.871 101.254C672.871 101.254 655.857 101.907 651.112 118.402C646.368 134.897 645.55 158.169 645.305 161.843C645.059 165.681 646.777 189.117 644.65 196.466C642.524 203.815 632.544 219.493 630.663 225.862" fill="url(#paint15_linear_217_2)"/> <path opacity="0.07" d="M663.546 613.404C663.628 613.731 663.628 614.058 663.628 614.384C663.71 616.752 663.628 622.632 661.092 626.306C657.902 631.206 665.509 641.984 665.509 644.679C665.509 647.374 661.992 649.823 659.538 649.088C657.084 648.354 646.859 642.556 650.867 630.226C652.503 625.245 653.403 620.835 654.385 618.059C654.957 616.671 655.366 615.283 655.775 613.894C655.857 613.241 655.857 612.588 655.857 611.935C655.775 611.118 655.775 610.138 655.612 609.158C655.039 604.341 634.753 454.746 634.017 448.948C633.363 443.804 630.418 412.121 630.745 393.585C630.5 391.952 630.5 390.4 630.663 388.93C630.663 388.522 630.909 386.726 630.745 385.909C630.827 384.194 630.99 382.479 631.154 380.765C630.827 379.376 631.072 379.376 631.154 377.172C631.236 374.967 631.154 373.66 631.399 372.272C633.444 359.697 638.025 345.407 640.234 341.324L640.888 339.12C640.888 339.12 644.651 322.298 646.368 318.787C647.841 315.603 654.385 283.92 653.812 280.409C653.239 276.897 646.45 267.915 646.45 267.915L647.432 263.097C647.432 263.097 649.558 256.075 651.685 250.114C653.403 245.541 658.802 233.374 661.092 228.148C664.691 219.656 666.409 216.308 667.145 210.674C667.718 206.428 668.127 208.224 670.008 209.041C672.789 210.102 672.871 208.714 673.034 206.019C673.116 197.69 672.789 189.525 672.053 181.196C671.235 174.663 664.446 164.211 661.583 157.842C659.865 154.576 658.556 150.983 657.493 147.39C656.184 141.837 656.348 135.631 661.583 130.405C666.163 125.833 679.824 116.36 679.824 116.36C679.824 116.36 673.525 129.18 676.061 133.508C680.233 140.204 678.188 148.778 678.188 151.718C678.188 154.657 674.916 162.17 676.879 169.764C680.396 183.074 674.343 190.668 676.552 199.732C677.942 205.284 678.76 207.081 677.37 211.98C675.979 216.88 662.237 254.115 669.763 275.754C677.37 297.393 680.887 312.745 668.699 325.728C656.511 338.711 667.718 350.388 667.963 359.534C668.536 382.153 657.493 379.703 656.838 393.748C656.184 407.793 659.292 417.918 659.538 425.349C660.11 449.52 659.783 454.337 658.474 463.809C657.166 473.282 650.704 491.328 657.902 526.767C665.182 562.206 664.118 565.39 663.382 585.396C662.81 605.565 663.546 613.404 663.546 613.404Z" fill="black"/> <path d="M643.097 148.533C645.959 146.491 649.068 144.695 652.258 143.062C656.184 141.429 658.065 147.308 659.129 150.003C660.192 152.697 665.509 169.11 665.754 170.335C665.836 170.907 665.018 170.743 662.237 172.866C661.828 173.193 661.092 172.948 660.192 171.07C659.783 170.008 658.393 167.477 656.757 166.579C656.102 166.252 646.041 162.741 645.959 163.721C645.878 164.701 648.332 170.743 649.559 174.255C649.64 174.581 651.358 178.092 651.031 178.746C650.949 178.827 651.113 178.746 651.113 178.746C651.113 178.746 649.313 179.399 648.741 178.746C648.168 178.092 643.097 161.598 641.133 155.31C640.724 153.922 639.743 152.044 640.724 151.146L643.097 148.533Z" fill="#EFEFEF"/> <path d="M326.459 662.889C320.896 662.562 314.68 656.275 314.68 656.275L302.328 654.642C302.328 654.642 298.484 666.319 302.656 668.687C306.745 671.136 331.612 671.79 331.612 668.687C331.53 665.584 331.121 663.052 326.459 662.889Z" fill="#4B44BE"/> <path d="M242.289 662.48C237.463 659.786 234.764 651.212 234.764 651.212L224.376 644.271C224.376 644.271 215.623 653.008 218.323 656.928C221.022 660.847 242.78 672.769 244.171 669.993C245.561 667.216 246.379 664.848 242.289 662.48Z" fill="#4B44BE"/> <path d="M260.776 331.037C260.776 331.037 272.636 305.968 291.777 318.951C310.917 332.017 311.245 349.164 305.519 357.412C298.811 367.129 300.529 375.05 301.674 378.153C302.001 379.051 302.656 379.867 303.474 380.276L335.784 398.322L348.626 410.489L379.627 371.538C379.627 371.538 384.617 364.516 393.696 364.516C402.776 364.516 406.784 367.537 406.784 367.537C406.784 367.537 407.765 371.538 396.723 374.56L385.68 377.581L357.542 427.8C357.542 427.8 349.198 431.311 340.283 423.88C332.43 417.348 325.068 410.325 318.361 402.731L317.379 519.174L320.815 552.489L319.424 572.169C319.506 573.965 318.688 593.481 318.606 595.278L316.398 625.409L313.698 655.948L302.41 654.56L300.529 632.513L296.112 553.143L295.621 481.367L275.99 526.196L276.726 552.408L260.612 602.218C259.876 604.341 259.14 606.301 258.076 608.261L235.091 651.621L224.212 644.925L236.563 613.569C237.872 610.874 244.334 590.052 245.07 587.194L253.332 548.243L289.159 412.04L271.164 421.186C271.164 421.186 257.994 450.582 255.949 453.603C253.905 456.625 229.938 486.919 228.875 490.92C227.811 494.922 224.048 502.679 219.059 504.639C214.069 506.598 204.99 509.946 218.077 490.92C228.302 475.977 234.846 464.79 237.3 460.789C237.872 459.646 238.527 458.584 239.017 457.359L252.596 423.227L274.19 388.605L277.135 386.481L283.27 381.664C284.088 381.092 284.497 380.031 284.415 379.051C283.679 374.396 281.307 370.232 277.544 367.374C270.428 361.74 256.113 351.124 260.776 331.037Z" fill="url(#paint16_linear_217_2)"/> <path d="M265.029 483L252.923 548.243L277.053 553.306L292.104 499.086L295.785 553.143H320.978L323.269 468.955L265.029 483Z" fill="url(#paint17_linear_217_2)"/> <path d="M252.023 423.88C252.023 423.88 259.794 395.953 275.335 386.726C276.971 385.828 279.752 382.888 279.998 384.603C280.325 387.624 282.043 394.647 289.077 394.647C300.12 394.647 303.392 385.419 303.392 380.357C303.392 378.887 309.608 379.132 315.089 380.03C320.242 380.847 325.314 383.051 328.749 386.889L338.974 401.261L329.403 411.795L326.377 413.428L323.35 469.036C323.35 469.036 301.101 479.243 281.143 482.101C275.826 482.673 270.346 483.081 265.029 483.081L269.037 425.84L252.023 423.88Z" fill="url(#paint18_linear_217_2)"/> <path d="M267.728 348.674C271.246 344.428 275.09 340.509 279.18 336.916C284.988 332.098 288.014 329.322 288.014 329.322C288.014 329.322 295.948 335.119 299.138 336.262C302.329 337.406 307.155 339.365 307.155 339.365C307.155 339.365 309.854 330.302 303.147 329.24C296.439 328.097 276.235 320.829 271.982 324.014C267.728 327.199 260.694 336.426 259.63 340.835C258.567 345.245 261.103 350.961 262.739 352.104C263.638 352.675 261.103 347.613 262.575 346.551C263.557 345.653 267.728 348.674 267.728 348.674Z" fill="url(#paint19_linear_217_2)"/> <path d="M259.63 340.835L322.696 326.055C322.696 326.055 323.923 323.115 321.551 323.034C319.179 322.952 304.864 327.77 304.864 327.77C304.864 327.77 298.647 309.479 278.28 309.887C278.28 309.887 279.098 308.09 277.953 308.009C276.808 307.927 271.654 309.315 271.245 309.724C270.836 310.132 272.063 311.357 271.409 311.847C270.755 312.337 253.25 320.829 259.63 340.835Z" fill="#E5A4ED"/> <path opacity="0.07" d="M303.719 359.534C303.719 359.534 299.629 364.679 296.275 365.74C292.922 366.802 294.885 366.965 296.275 371.048C297.012 373.252 297.993 375.294 299.302 377.172C299.302 377.172 301.102 361.086 303.719 359.534Z" fill="black"/> <path opacity="0.07" d="M271.491 311.929C271.491 311.929 274.272 314.623 272.473 321.728C270.673 328.832 270.019 331.036 271.573 333.813C273.127 336.589 271.982 338.059 271.982 338.059L259.63 340.999C259.794 340.835 252.023 322.789 271.491 311.929Z" fill="black"/> <path opacity="0.07" d="M269.037 425.758C269.037 425.758 272.963 420.123 273.372 414.979C273.781 409.835 271.573 425.104 274.109 434.25C276.644 443.396 273.7 451.316 278.853 454.501C284.006 457.685 279.998 468.627 281.061 473.364C281.798 476.14 283.761 478.508 286.46 479.569C286.46 479.569 285.724 482.101 276.971 482.509C268.219 482.917 265.029 482.917 265.029 482.917L269.037 425.758Z" fill="black"/> <path d="M485.309 359.942L477.129 406.078C477.129 406.078 487.681 404.2 492.671 406.078L485.309 359.942Z" fill="url(#paint20_linear_217_2)"/> <path d="M485.309 359.942L492.671 406.078C492.671 406.078 523.999 402.159 547.966 405.752L539.459 360.106L485.309 359.942Z" fill="#FCFCFC"/> <path d="M516.474 383.378L508.867 383.541L507.803 377.499L515.247 377.417L516.474 383.378Z" fill="#58CAEA"/> <path d="M528.498 383.051L520.891 383.215L519.828 377.09H527.19L528.498 383.051Z" fill="#58CAEA"/> <path d="M539.786 383.051L532.261 383.215L531.116 377.172L538.559 377.09L539.786 383.051Z" fill="#58CAEA"/> <path d="M541.34 391.299L533.733 391.462L532.67 385.338H540.032L541.34 391.299Z" fill="#58CAEA"/> <path d="M518.11 391.216L510.584 391.38L509.439 385.255H516.883L518.11 391.216Z" fill="#58CAEA"/> <path d="M506.413 391.543L498.806 391.706L497.742 385.664L505.186 385.582L506.413 391.543Z" fill="#58CAEA"/> <path d="M508.294 400.036L500.687 400.199L499.624 394.156L507.067 394.075L508.294 400.036Z" fill="#58CAEA"/> <path d="M519.91 399.873L512.302 400.036L511.239 393.993L518.601 393.912L519.91 399.873Z" fill="#58CAEA"/> <path d="M531.852 399.873L524.326 400.036L523.181 393.912H530.625L531.852 399.873Z" fill="#58CAEA"/> <path d="M529.971 391.216L522.445 391.38L521.3 385.255H528.744L529.971 391.216Z" fill="url(#paint21_linear_217_2)"/> <path d="M485.309 359.942L487.436 373.089L541.913 372.926L539.459 360.106L485.309 359.942Z" fill="url(#paint22_linear_217_2)"/> <path d="M500.196 357.003L504.368 356.921L504.777 362.718H500.687L500.196 357.003Z" fill="url(#paint23_linear_217_2)"/> <path d="M526.044 357.248L529.643 357.166L530.052 362.555H526.535L526.044 357.248Z" fill="url(#paint24_linear_217_2)"/> </g> <defs> <linearGradient id="paint0_linear_217_2" x1="316.459" y1="291.99" x2="345.088" y2="291.99" gradientUnits="userSpaceOnUse"> <stop stop-color="#F71D69"/> <stop offset="1" stop-color="#F8C648"/> </linearGradient> <linearGradient id="paint1_linear_217_2" x1="316.459" y1="309.138" x2="403.165" y2="309.138" gradientUnits="userSpaceOnUse"> <stop stop-color="#E5A4ED"/> <stop offset="1" stop-color="#7A5BF5"/> </linearGradient> <linearGradient id="paint2_linear_217_2" x1="316.459" y1="328.733" x2="343.453" y2="328.733" gradientUnits="userSpaceOnUse"> <stop stop-color="#E5A4ED"/> <stop offset="1" stop-color="#7A5BF5"/> </linearGradient> <linearGradient id="paint3_linear_217_2" x1="345.906" y1="328.733" x2="372.9" y2="328.733" gradientUnits="userSpaceOnUse"> <stop stop-color="#E5A4ED"/> <stop offset="1" stop-color="#7A5BF5"/> </linearGradient> <linearGradient id="paint4_linear_217_2" x1="376.171" y1="328.735" x2="403.165" y2="328.735" gradientUnits="userSpaceOnUse"> <stop stop-color="#E5A4ED"/> <stop offset="1" stop-color="#7A5BF5"/> </linearGradient> <linearGradient id="paint5_linear_217_2" x1="-14.5284" y1="571.26" x2="79.9439" y2="571.26" gradientUnits="userSpaceOnUse"> <stop stop-color="#93FD93"/> <stop offset="0.51" stop-color="#21C2C1"/> <stop offset="1" stop-color="#84F599"/> </linearGradient> <linearGradient id="paint6_linear_217_2" x1="20.8696" y1="541.475" x2="74.4377" y2="607.264" gradientUnits="userSpaceOnUse"> <stop stop-color="#93FD93"/> <stop offset="0.51" stop-color="#21C2C1"/> <stop offset="1" stop-color="#84F599"/> </linearGradient> <linearGradient id="paint7_linear_217_2" x1="82.68" y1="615.766" x2="156.382" y2="558.64" gradientUnits="userSpaceOnUse"> <stop stop-color="#93FD93"/> <stop offset="0.51" stop-color="#21C2C1"/> <stop offset="1" stop-color="#84F599"/> </linearGradient> <linearGradient id="paint8_linear_217_2" x1="101.232" y1="586.818" x2="37.9815" y2="506.608" gradientUnits="userSpaceOnUse"> <stop stop-color="#93FD93"/> <stop offset="0.51" stop-color="#21C2C1"/> <stop offset="1" stop-color="#84F599"/> </linearGradient> <linearGradient id="paint9_linear_217_2" x1="38.65" y1="537.177" x2="83.2469" y2="537.177" gradientUnits="userSpaceOnUse"> <stop stop-color="#93FD93"/> <stop offset="0.51" stop-color="#21C2C1"/> <stop offset="1" stop-color="#84F599"/> </linearGradient> <linearGradient id="paint10_linear_217_2" x1="79.4244" y1="612.914" x2="127.622" y2="543.091" gradientUnits="userSpaceOnUse"> <stop stop-color="#93FD93"/> <stop offset="0.51" stop-color="#21C2C1"/> <stop offset="1" stop-color="#84F599"/> </linearGradient> <linearGradient id="paint11_linear_217_2" x1="51.5738" y1="627.939" x2="120.405" y2="627.939" gradientUnits="userSpaceOnUse"> <stop stop-color="#E5A4ED"/> <stop offset="1" stop-color="#7A5BF5"/> </linearGradient> <linearGradient id="paint12_linear_217_2" x1="586.656" y1="477.011" x2="768.671" y2="478.21" gradientUnits="userSpaceOnUse"> <stop stop-color="#4B45BD"/> <stop offset="1" stop-color="#58CAEA"/> </linearGradient> <linearGradient id="paint13_linear_217_2" x1="644.949" y1="220.941" x2="779.37" y2="220.941" gradientUnits="userSpaceOnUse"> <stop stop-color="#F87B58"/> <stop offset="0.5" stop-color="#F8C548"/> <stop offset="1" stop-color="#F89C51"/> </linearGradient> <linearGradient id="paint14_linear_217_2" x1="612.983" y1="262.758" x2="786.597" y2="262.758" gradientUnits="userSpaceOnUse"> <stop stop-color="#E5A4ED"/> <stop offset="1" stop-color="#7A5BF5"/> </linearGradient> <linearGradient id="paint15_linear_217_2" x1="630.421" y1="183.285" x2="742.708" y2="183.285" gradientUnits="userSpaceOnUse"> <stop stop-color="#4B45BD"/> <stop offset="1" stop-color="#58CAEA"/> </linearGradient> <linearGradient id="paint16_linear_217_2" x1="211.28" y1="485.541" x2="406.788" y2="485.541" gradientUnits="userSpaceOnUse"> <stop stop-color="#F87B58"/> <stop offset="0.5" stop-color="#F8C548"/> <stop offset="1" stop-color="#F89C51"/> </linearGradient> <linearGradient id="paint17_linear_217_2" x1="252.924" y1="511.11" x2="323.308" y2="511.11" gradientUnits="userSpaceOnUse"> <stop stop-color="#4B45BD"/> <stop offset="1" stop-color="#58CAEA"/> </linearGradient> <linearGradient id="paint18_linear_217_2" x1="252.019" y1="431.235" x2="338.893" y2="431.235" gradientUnits="userSpaceOnUse"> <stop stop-color="#E5A4ED"/> <stop offset="1" stop-color="#7A5BF5"/> </linearGradient> <linearGradient id="paint19_linear_217_2" x1="259.493" y1="337.682" x2="307.824" y2="337.682" gradientUnits="userSpaceOnUse"> <stop stop-color="#4B45BD"/> <stop offset="1" stop-color="#58CAEA"/> </linearGradient> <linearGradient id="paint20_linear_217_2" x1="477.133" y1="383.021" x2="492.711" y2="383.021" gradientUnits="userSpaceOnUse"> <stop stop-color="#58CAEA"/> <stop offset="1" stop-color="#4C4CBF"/> </linearGradient> <linearGradient id="paint21_linear_217_2" x1="521.381" y1="388.332" x2="529.909" y2="388.135" gradientUnits="userSpaceOnUse"> <stop stop-color="#58CAEA"/> <stop offset="1" stop-color="#4C4CBF"/> </linearGradient> <linearGradient id="paint22_linear_217_2" x1="485.336" y1="366.525" x2="541.897" y2="366.525" gradientUnits="userSpaceOnUse"> <stop stop-color="#4C4FC0"/> <stop offset="1" stop-color="#58CAEA"/> </linearGradient> <linearGradient id="paint23_linear_217_2" x1="500.202" y1="359.829" x2="504.8" y2="359.829" gradientUnits="userSpaceOnUse"> <stop stop-color="#4D54C2"/> <stop offset="1" stop-color="#4C4CBF"/> </linearGradient> <linearGradient id="paint24_linear_217_2" x1="526.048" y1="359.892" x2="530.022" y2="359.892" gradientUnits="userSpaceOnUse"> <stop stop-color="#4D54C2"/> <stop offset="1" stop-color="#4C4CBF"/> </linearGradient> <clipPath id="clip0_217_2"> <rect width="1008" height="694" fill="white"/> </clipPath> </defs> </svg>