<svg xmlns="http://www.w3.org/2000/svg" class="choose__box__img" viewBox="0 0 167.388 141.476"><path fill="none" d="M0 0h167.388v141.476H0z"></path><path fill="#1c82e8" d="M141.369 27.129L123.944 39.27l19.228 9.022-1.803-21.163z"></path><path d="M137.41 32.354A66.016 66.016 0 0019.304 85.273l.223.988 8.54-1.933-.225-.986A57.262 57.262 0 01130.29 37.456l.59.825 7.12-5.105z" fill="#1c82e8"></path><path fill="#7ab8fc" d="M24.401 93.286l1.803 21.133 17.404-12.123-19.207-9.01z"></path><path d="M148.085 56.225l-.223-.988-8.538 1.932.225.989a57.268 57.268 0 01-102.537 45.775l-.585-.826-7.126 5.078.587.825a66.013 66.013 0 00118.197-52.785z" fill="#7ab8fc"></path><path d="M51.71 73.637v11.29a14.417 14.417 0 006.778 12.253l21.51 13.284V73.637zm61.46-30.805l-25.758-8.455v31.848h28.276V46.312a3.681 3.681 0 00-2.518-3.48z" fill="#1c82e8"></path><path d="M54.21 42.836a3.669 3.669 0 00-2.512 3.478v19.913h28.288V34.379zm3.66 17.217V48.129l15.944-5.23v17.153zM87.399 73.64v36.813l21.506-13.275a14.416 14.416 0 006.77-12.248V73.64zm6.171 25.75V79.812h15.934v5.118a8.234 8.234 0 01-3.847 6.999z" fill="#7ab8fc"></path></svg>