<svg xmlns="http://www.w3.org/2000/svg" width="1680" height="1900" viewBox="0 0 1680 1900" fill="none"> <g clip-path="url(#clip0_32_3273)"> <path d="M1052.21 277.614C1017.15 298.349 1007.13 334.099 1002.98 348.828C1001.98 352.403 990.24 396.304 1010.56 442.064C1016.58 455.649 1023.02 469.663 1037.61 476.384C1046.06 480.388 1053.64 480.102 1083.41 477.528C1097.3 476.384 1112.33 474.954 1128.36 473.238C1139.66 458.795 1159.13 429.909 1164.85 389.297C1165.85 381.718 1177.59 291.342 1128.36 267.318C1096.15 251.445 1057.37 274.468 1052.21 277.614Z" fill="#EC615B"/> <path d="M404.715 490.827C422.58 490.827 437.062 474.821 437.062 455.077C437.062 435.333 422.58 419.327 404.715 419.327C386.851 419.327 372.369 435.333 372.369 455.077C372.369 474.821 386.851 490.827 404.715 490.827Z" fill="#EC615B"/> <path d="M1138.23 1063.69C1151.51 1063.69 1162.28 1053.31 1162.28 1040.52C1162.28 1027.72 1151.51 1017.35 1138.23 1017.35C1124.95 1017.35 1114.19 1027.72 1114.19 1040.52C1114.19 1053.31 1124.95 1063.69 1138.23 1063.69Z" fill="#EC615B"/> <path d="M405.002 923.831C414.883 923.831 422.893 915.828 422.893 905.956C422.893 896.084 414.883 888.081 405.002 888.081C395.121 888.081 387.111 896.084 387.111 905.956C387.111 915.828 395.121 923.831 405.002 923.831Z" fill="#EC615B"/> <path d="M371.654 478.958C387.384 478.958 400.136 465.577 400.136 449.071C400.136 432.565 387.384 419.184 371.654 419.184C355.924 419.184 343.172 432.565 343.172 449.071C343.172 465.577 355.924 478.958 371.654 478.958Z" fill="#5222D0"/> <path d="M1131.65 1027.08C1141.37 1027.08 1149.25 1018.88 1149.25 1008.77C1149.25 998.664 1141.37 990.469 1131.65 990.469C1121.92 990.469 1114.04 998.664 1114.04 1008.77C1114.04 1018.88 1121.92 1027.08 1131.65 1027.08Z" fill="#5222D0"/> <path d="M1366.95 522.287C1377.62 522.287 1386.27 513.068 1386.27 501.695C1386.27 490.323 1377.62 481.103 1366.95 481.103C1356.27 481.103 1347.62 490.323 1347.62 501.695C1347.62 513.068 1356.27 522.287 1366.95 522.287Z" fill="#5222D0"/> <path d="M947.302 649.557C944.153 644.552 939.001 649.271 936.854 652.703C932.417 659.853 929.555 668.719 932.847 676.87C935.28 683.019 941.291 688.167 948.304 687.166C954.745 686.308 959.611 681.017 959.468 674.582C959.468 672.866 957.035 671.579 955.747 673.009C948.161 682.59 938.858 696.175 946.443 708.473C951.739 716.91 964.764 718.054 969.916 708.902C968.628 708.759 967.34 708.616 966.052 708.33C966.767 712.334 967.483 716.338 968.055 720.342C968.485 723.059 972.635 721.915 972.206 719.198C971.49 715.194 970.775 711.19 970.202 707.186C969.916 705.327 967.054 705.184 966.338 706.614C964.048 710.618 958.895 712.048 954.745 710.046C950.165 707.758 948.161 702.61 948.161 697.605C948.161 689.311 954.029 682.018 958.895 675.869C957.607 675.297 956.462 674.868 955.174 674.296C955.317 679.73 950.022 683.734 944.726 682.59C940.718 681.732 938.142 678.3 936.711 674.582C935.28 670.721 935.423 666.86 936.568 662.999C936.711 662.713 942.579 649.986 943.438 651.416C945.012 653.99 948.733 651.845 947.302 649.557Z" fill="#EC615B"/> <path d="M362.923 662.427C366.072 653.847 376.52 657.565 379.812 663.571C380.957 665.573 381.529 667.861 381.816 670.149C382.388 674.439 381.959 676.155 378.238 678.729C374.23 682.733 373.228 681.16 375.375 674.01C376.377 673.581 377.522 673.152 378.524 672.723C381.243 672.008 384.392 672.151 387.111 673.009C393.981 675.297 397.416 682.59 396.414 689.311C396.128 691.027 397.846 692.743 399.563 691.742C408.866 686.451 421.175 692.314 423.322 702.753C423.894 705.47 428.045 704.326 427.473 701.609C424.753 688.453 409.153 681.589 397.416 688.167C398.418 689.025 399.563 689.74 400.565 690.598C402.426 678.014 392.836 666.288 379.526 668.29C374.946 669.005 368.076 671.865 367.503 677.299C367.074 681.732 371.224 685.021 375.375 685.45C387.684 686.594 387.398 668.719 383.39 661.569C377.951 651.845 362.923 649.414 358.629 661.426C357.771 663.857 361.921 665.001 362.923 662.427Z" fill="#EC615B"/> <path d="M1116.48 1200.68C1127.5 1207.97 1136.8 1217.27 1144.24 1228.13C1145.82 1230.42 1149.54 1228.28 1147.96 1225.99C1140.09 1214.55 1130.36 1204.83 1118.77 1197.1C1116.33 1195.39 1114.19 1199.11 1116.48 1200.68Z" fill="#5222D0"/> <path d="M1144.39 1208.54C1146.68 1211.26 1148.82 1214.12 1151.11 1216.84C1152.83 1218.98 1155.84 1215.98 1154.12 1213.83C1151.83 1211.12 1149.68 1208.26 1147.39 1205.54C1145.67 1203.4 1142.67 1206.54 1144.39 1208.54Z" fill="#5222D0"/> <path d="M1131.22 1168.5C1141.09 1177.66 1149.25 1188.09 1155.55 1199.96C1156.84 1202.39 1160.56 1200.25 1159.27 1197.82C1152.83 1185.66 1144.39 1174.8 1134.22 1165.5C1132.22 1163.5 1129.21 1166.64 1131.22 1168.5Z" fill="#5222D0"/> <path d="M141.652 1329.52C144.801 1360.55 150.239 1391.15 157.825 1421.47C158.541 1424.19 162.691 1423.04 161.976 1420.33C154.533 1390.44 149.094 1360.12 145.946 1329.52C145.659 1326.8 141.366 1326.8 141.652 1329.52Z" fill="#E8E8E8"/> <path d="M158.684 1422.9C186.879 1430.19 216.22 1430.19 244.415 1422.9C247.135 1422.19 245.99 1418.04 243.271 1418.75C215.791 1425.9 187.309 1425.9 159.829 1418.75C157.252 1418.04 156.107 1422.19 158.684 1422.9Z" fill="#E8E8E8"/> <path d="M247.707 1418.61C249.568 1388.15 252.001 1357.69 254.864 1327.23C255.15 1324.52 250.856 1324.52 250.57 1327.23C247.707 1357.69 245.274 1388.15 243.414 1418.61C243.271 1421.33 247.564 1421.33 247.707 1418.61Z" fill="#E8E8E8"/> <path d="M144.085 1331.81C179.723 1339.1 216.363 1338.82 252.001 1330.81C254.72 1330.24 253.575 1326.09 250.856 1326.66C216.077 1334.38 180.152 1334.81 145.23 1327.66C142.51 1327.09 141.365 1331.24 144.085 1331.81Z" fill="#E8E8E8"/> <path d="M143.656 1342.11C144.801 1347.97 152.243 1347.68 156.823 1348.11C168.416 1349.11 180.153 1349.4 191.746 1349.11C202.909 1348.83 214.073 1347.97 225.237 1346.68C234.111 1345.54 242.698 1344.39 250.57 1339.96C253.003 1338.67 250.856 1334.96 248.423 1336.24C234.254 1344.11 214.646 1343.82 198.759 1344.54C190.887 1344.82 182.872 1344.97 175 1344.82C170.849 1344.68 148.665 1345.68 147.806 1340.96C147.234 1338.24 143.226 1339.39 143.656 1342.11Z" fill="#E8E8E8"/> <path d="M151.813 1391.73C158.683 1403.88 167.414 1414.61 177.862 1423.9C179.866 1425.76 183.015 1422.76 180.868 1420.9C170.563 1411.89 162.118 1401.45 155.535 1389.58C154.247 1387.15 150.525 1389.3 151.813 1391.73Z" fill="#E8E8E8"/> <path d="M146.232 1358.69C160.83 1383.29 178.578 1405.88 198.902 1426.19C200.905 1428.19 203.911 1425.05 201.907 1423.19C181.87 1403.17 164.408 1380.86 149.953 1356.55C148.522 1354.26 144.8 1356.41 146.232 1358.69Z" fill="#E8E8E8"/> <path d="M170.134 1348.4C185.305 1375.42 202.909 1401.02 222.804 1424.9C224.521 1427.05 227.527 1424.04 225.809 1421.9C206.201 1398.3 188.74 1372.99 173.855 1346.25C172.567 1343.82 168.846 1345.97 170.134 1348.4Z" fill="#E8E8E8"/> <path d="M197.471 1349.4C212.213 1371.42 227.098 1393.3 242.126 1415.18C243.7 1417.47 247.421 1415.32 245.847 1413.03C230.819 1391.15 215.934 1369.28 201.192 1347.25C199.618 1344.97 195.896 1347.11 197.471 1349.4Z" fill="#E8E8E8"/> <path d="M220.371 1348.11C227.813 1360.12 235.828 1371.85 244.129 1383.29C245.704 1385.43 249.425 1383.29 247.851 1381.14C239.549 1369.7 231.534 1357.98 224.092 1345.97C222.661 1343.68 218.939 1345.82 220.371 1348.11Z" fill="#E8E8E8"/> <path d="M96.5673 1203.68C98.2848 1213.55 100.002 1223.56 101.863 1233.43C102.435 1236.14 102.865 1239 105.155 1240.72C106.729 1242.01 111.882 1241.86 112.884 1243.29C113.027 1242.43 113.17 1241.58 113.17 1240.72C111.023 1242.86 108.876 1245.01 106.586 1247.01C106.014 1247.58 105.87 1248.44 106.014 1249.16C107.302 1253.02 108.16 1258.74 110.737 1262.03C112.025 1263.74 114.315 1263.46 115.317 1264.46C116.175 1265.31 115.889 1264.74 115.46 1267.32C115.174 1269.46 115.174 1271.75 115.46 1274.04C115.889 1277.47 116.891 1280.76 118.179 1283.9C125.622 1301.92 140.077 1316.51 153.96 1329.95C155.964 1331.81 158.97 1328.81 156.966 1326.95C148.092 1318.37 139.219 1309.5 131.919 1299.49C124.763 1289.62 116.319 1276.33 120.755 1263.74C121.042 1263.03 120.755 1262.03 120.183 1261.6C117.464 1259.45 114.744 1260.31 112.884 1256.88C109.305 1250.44 111.309 1248.3 115.889 1243.86C116.605 1243.29 116.748 1242.01 116.175 1241.29C115.03 1239.57 114.172 1239 112.311 1238.43C111.166 1238 109.449 1238.43 108.304 1237.86C105.87 1236.57 105.87 1233.43 105.441 1231.14C103.724 1221.7 102.006 1212.12 100.432 1202.68C100.145 1199.82 95.9948 1200.96 96.5673 1203.68Z" fill="#E8E8E8"/> <path d="M99.7163 1203.11C155.535 1221.7 193.749 1273.75 194.894 1332.67C194.894 1335.38 199.188 1335.38 199.188 1332.67C198.043 1271.89 158.541 1218.27 100.861 1198.96C98.2851 1198.1 97.1401 1202.25 99.7163 1203.11Z" fill="#E8E8E8"/> <path d="M185.448 1274.04C199.331 1235.57 219.798 1198.39 252.574 1173.08C254.721 1171.36 252.574 1167.65 250.427 1169.36C216.649 1195.53 195.61 1233.28 181.297 1272.89C180.439 1275.47 184.589 1276.61 185.448 1274.04Z" fill="#E8E8E8"/> <path d="M248.853 1172.22C249.855 1185.38 250.999 1198.53 252.001 1211.83C252.288 1214.55 256.581 1214.55 256.295 1211.83C255.293 1198.68 254.148 1185.52 253.146 1172.22C253.003 1169.5 248.709 1169.5 248.853 1172.22Z" fill="#E8E8E8"/> <path d="M253.862 1210.4C252.001 1210.83 250.141 1211.26 248.423 1211.83C245.704 1212.55 246.849 1216.7 249.568 1215.98C251.429 1215.55 253.289 1215.12 255.007 1214.55C257.726 1213.84 256.581 1209.83 253.862 1210.4Z" fill="#E8E8E8"/> <path d="M246.276 1215.69C246.849 1218.41 249.139 1220.13 251.715 1220.41C252.86 1220.56 253.862 1219.41 253.862 1218.27C253.862 1216.98 252.86 1216.27 251.715 1216.12C252.144 1216.12 251.715 1216.12 251.572 1216.12C251.429 1216.12 251.142 1215.98 251.429 1216.12C251.285 1215.98 251.142 1215.98 250.999 1215.84C250.713 1215.69 251.285 1216.12 250.856 1215.69C250.713 1215.55 250.713 1215.55 250.57 1215.41C250.856 1215.69 250.57 1215.41 250.57 1215.26C250.427 1215.12 250.427 1214.84 250.427 1215.12C250.427 1214.98 250.284 1214.69 250.284 1214.55C249.997 1213.41 248.709 1212.69 247.707 1213.12C246.562 1213.41 245.99 1214.55 246.276 1215.69Z" fill="#E8E8E8"/> <path d="M249.568 1218.84C249.711 1226.99 249.425 1235 248.566 1243.01C248.28 1245.58 248.709 1251.59 246.992 1253.59C246.849 1253.73 244.273 1254.16 243.7 1254.59C241.553 1256.31 244.559 1259.31 246.706 1257.59C247.421 1257.02 249.139 1257.59 250.284 1256.31C252.001 1254.59 251.715 1250.59 252.001 1248.58C253.289 1238.72 253.862 1228.71 253.719 1218.7C253.862 1216.12 249.568 1216.12 249.568 1218.84Z" fill="#E8E8E8"/> <path d="M241.983 1258.31C246.563 1263.74 245.274 1272.75 244.845 1279.33C244.273 1286.91 242.984 1293.91 239.263 1300.49C233.968 1310.22 226.525 1318.37 222.661 1328.95C221.659 1331.52 225.809 1332.67 226.811 1330.09C231.964 1316.22 243.843 1305.93 247.421 1291.34C249.998 1280.9 252.431 1264.17 244.988 1255.31C243.271 1253.3 240.265 1256.31 241.983 1258.31Z" fill="#E8E8E8"/> <path d="M208.205 1330.95C212.212 1290.34 222.947 1250.73 240.122 1213.83C241.267 1211.4 237.545 1209.12 236.4 1211.69C218.939 1249.44 207.919 1289.62 203.911 1331.09C203.625 1333.81 207.919 1333.67 208.205 1330.95Z" fill="#E8E8E8"/> <path d="M123.761 1226.99C148.808 1258.45 167.128 1294.63 177.863 1333.24C178.578 1335.96 182.729 1334.81 182.013 1332.1C170.993 1292.63 152.243 1256.02 126.767 1223.99C125.049 1221.84 122.044 1224.85 123.761 1226.99Z" fill="#E8E8E8"/> <path d="M126.48 1279.76C138.503 1279.04 149.667 1281.9 159.828 1288.19C162.118 1289.62 164.408 1285.91 161.975 1284.48C151.241 1277.9 139.075 1274.75 126.48 1275.47C123.618 1275.61 123.618 1279.9 126.48 1279.76Z" fill="#E8E8E8"/> <path d="M152.673 1260.6C151.814 1252.73 152.816 1245.15 155.821 1237.72C156.823 1235.14 152.673 1234 151.671 1236.57C148.522 1244.29 147.52 1252.3 148.379 1260.6C148.665 1263.31 152.959 1263.31 152.673 1260.6Z" fill="#E8E8E8"/> <path d="M199.045 1236.86C203.768 1248.44 210.638 1260.74 212.356 1273.04C212.785 1275.75 216.936 1274.61 216.506 1271.89C214.646 1259.45 207.776 1247.15 203.196 1235.71C202.194 1233.14 198.043 1234.28 199.045 1236.86Z" fill="#E8E8E8"/> <path d="M225.38 1250.44C229.531 1245.72 233.538 1240.15 238.834 1236.57C243.271 1233.57 248.137 1231.57 251.572 1227.42C253.29 1225.27 250.284 1222.27 248.566 1224.42C244.845 1228.85 239.406 1230.71 234.97 1234.14C230.103 1237.86 226.382 1242.86 222.375 1247.44C220.514 1249.58 223.52 1252.59 225.38 1250.44Z" fill="#E8E8E8"/> <path d="M226.811 1329.52C233.681 1327.66 240.695 1326.95 247.851 1327.38C250.57 1327.52 250.57 1323.23 247.851 1323.09C240.265 1322.66 232.966 1323.37 225.666 1325.37C223.09 1326.09 224.092 1330.24 226.811 1329.52Z" fill="#E8E8E8"/> <path d="M226.239 1331.24C234.254 1331.95 241.982 1330.95 249.711 1328.52C252.287 1327.66 251.142 1323.52 248.566 1324.37C241.267 1326.66 233.824 1327.52 226.239 1326.95C223.519 1326.8 223.519 1331.09 226.239 1331.24Z" fill="#E8E8E8"/> <path d="M145.946 1330.52C147.806 1330.52 149.524 1330.52 151.385 1330.52C154.104 1330.52 154.104 1326.23 151.385 1326.23C149.524 1326.23 147.806 1326.23 145.946 1326.23C143.226 1326.23 143.226 1330.52 145.946 1330.52Z" fill="#E8E8E8"/> <path d="M250.856 1365.13C296.227 1365.13 341.74 1365.13 387.111 1365.13C389.83 1365.13 389.83 1360.84 387.111 1360.84C341.74 1360.84 296.227 1360.84 250.856 1360.84C248.137 1360.84 248.137 1365.13 250.856 1365.13Z" fill="#E8E8E8"/> <path d="M1018.86 1336.81C1045.92 1336.81 1072.82 1336.81 1099.87 1336.81C1102.59 1336.81 1102.59 1332.52 1099.87 1332.52C1072.82 1332.52 1045.92 1332.52 1018.86 1332.52C1016.15 1332.52 1016.15 1336.81 1018.86 1336.81Z" fill="#E8E8E8"/> <path d="M1264.47 1339.39C1381.11 1339.39 1497.76 1339.39 1614.41 1339.39C1647.61 1339.39 1680.82 1339.39 1714.02 1339.39C1716.74 1339.39 1716.74 1335.1 1714.02 1335.1C1597.38 1335.1 1480.73 1335.1 1364.08 1335.1C1330.88 1335.1 1297.67 1335.1 1264.47 1335.1C1261.75 1335.1 1261.75 1339.39 1264.47 1339.39Z" fill="#E8E8E8"/> <path d="M1091.72 869.92C1080.84 892.371 1069.1 914.393 1056.65 935.986C1056.08 937.13 1056.51 938.989 1057.94 939.132C1119.34 948.427 1174.3 978.886 1227.25 1009.63C1229.69 1011.06 1231.83 1007.34 1229.4 1005.91C1176.02 975.025 1120.77 944.423 1058.94 934.985C1059.37 935.986 1059.8 937.13 1060.23 938.131C1072.82 916.538 1084.42 894.516 1095.29 872.065C1096.58 869.634 1093 867.346 1091.72 869.92Z" fill="#E8E8E8"/> <path d="M1101.16 947.855C1105.46 935.557 1109.75 923.116 1114.04 910.818C1115.9 905.67 1117.19 899.95 1119.63 894.945C1120.2 891.942 1122.06 889.654 1124.92 887.938C1126.64 888.367 1128.36 888.796 1130.07 889.225C1132.65 889.94 1135.23 890.512 1137.66 891.227C1143.53 892.657 1152.97 892.657 1151.97 900.522C1151.26 906.099 1147.96 912.105 1146.1 917.539C1141.81 929.694 1137.66 941.849 1133.37 954.004C1132.51 956.578 1136.66 957.722 1137.52 955.148C1143.1 939.132 1148.68 922.973 1154.26 906.957C1155.55 903.239 1159.13 896.947 1156.27 892.943C1153.12 888.653 1143.67 888.367 1138.8 887.08C1134.08 885.936 1125.78 881.646 1120.91 883.934C1116.76 885.793 1115.9 892.943 1114.62 896.518C1108.75 913.249 1102.88 930.123 1097.01 946.854C1096.15 949.285 1100.3 950.429 1101.16 947.855Z" fill="#E8E8E8"/> <path d="M1156.41 963.156C1165.57 943.851 1174.87 924.403 1184.03 905.098C1188.61 895.374 1193.19 885.793 1197.91 876.069C1200.06 871.636 1201.78 866.345 1204.5 862.198C1206.79 858.623 1207.36 857.765 1211.37 859.338C1213.51 860.196 1216.09 862.341 1217.95 863.628C1220.38 865.344 1224.25 867.203 1225.97 869.491C1228.11 872.208 1227.25 875.068 1225.97 878.5C1224.25 883.076 1221.67 887.509 1219.53 891.942C1214.8 901.666 1210.08 911.39 1205.07 921.114C1195.62 939.561 1185.75 957.865 1175.59 976.026C1174.16 978.457 1177.88 980.602 1179.31 978.171C1191.76 956.149 1203.64 933.841 1214.8 911.247C1220.38 900.093 1226.54 888.653 1231.26 877.07C1234.55 868.633 1227.4 865.201 1221.1 860.768C1216.09 857.336 1208.22 849.471 1202.78 855.906C1199.35 859.91 1197.48 866.631 1195.19 871.493C1192.33 877.356 1189.61 883.219 1186.75 889.225C1175.3 913.249 1163.85 937.273 1152.54 961.297C1151.54 963.442 1155.26 965.73 1156.41 963.156Z" fill="#E8E8E8"/> <path d="M1203.93 992.9C1216.23 973.595 1230.12 955.291 1245.43 938.417C1244.57 938.56 1243.71 938.703 1242.86 938.703C1248.29 942.421 1253.59 945.996 1259.03 949.714C1258.74 948.713 1258.46 947.712 1258.31 946.711C1246.15 965.73 1233.98 984.606 1221.82 1003.62C1220.38 1005.91 1223.96 1008.06 1225.54 1005.77C1237.7 986.751 1249.87 967.875 1262.03 948.856C1262.75 947.855 1262.18 946.568 1261.32 945.853C1255.88 942.135 1250.58 938.56 1245.15 934.842C1244.43 934.27 1243.14 934.556 1242.57 935.128C1226.97 952.431 1212.8 970.878 1200.35 990.469C1198.77 993.186 1202.49 995.331 1203.93 992.9Z" fill="#E8E8E8"/> <path d="M1374.67 856.907C1360.36 851.473 1351.34 837.173 1353.92 821.872C1356.5 806.285 1371.81 792.414 1387.55 801.709C1398.43 808.144 1404.01 822.73 1399.86 834.599C1395.57 847.326 1381.54 854.905 1368.52 852.903C1365.8 852.474 1364.65 856.621 1367.37 857.05C1382.69 859.338 1398.86 850.901 1404.01 835.743C1409.17 820.585 1400.87 802.281 1385.98 796.132C1368.52 788.982 1352.63 803.997 1349.63 820.728C1346.48 838.46 1356.93 854.762 1373.39 861.054C1376.1 862.055 1377.25 857.908 1374.67 856.907Z" fill="#E8E8E8"/> <path d="M1404.01 854.19C1375.53 853.332 1386.27 807.715 1411.46 809.431C1436.65 811.29 1426.34 862.627 1398.72 853.189C1396.14 852.331 1395 856.478 1397.57 857.336C1429.49 868.204 1443.8 810.146 1413.32 805.284C1398.43 802.853 1384.98 816.867 1382.69 830.738C1380.4 844.466 1389.7 857.908 1404.01 858.337C1406.73 858.623 1406.73 854.333 1404.01 854.19Z" fill="#E8E8E8"/> <path d="M1382.69 724.775C1380.26 722.201 1379.11 718.054 1380.97 714.908C1382.83 711.905 1387.41 710.475 1390.27 712.763C1392.85 714.765 1393.42 719.055 1390.99 721.2C1388.13 723.774 1383.55 722.487 1380.83 720.342C1378.68 718.626 1375.68 721.629 1377.82 723.345C1382.26 726.777 1389.13 728.493 1393.85 724.346C1398.15 720.485 1397.72 713.335 1393.42 709.617C1388.99 705.756 1381.97 706.9 1378.25 711.19C1374.1 716.052 1375.25 723.345 1379.54 727.778C1381.54 729.78 1384.55 726.777 1382.69 724.775Z" fill="#E8E8E8"/> <path d="M967.34 832.454C963.332 808.144 977.502 778.829 1004.98 779.115C1019.01 779.258 1032.6 784.978 1046.77 782.976C1056.79 781.546 1065.38 775.826 1071.39 767.961C1077.4 760.096 1080.84 750.229 1081.41 740.362C1082.13 725.776 1076.54 710.904 1080.55 696.461C1082.56 689.168 1086.85 682.447 1094.15 679.73C1101.16 677.299 1108.75 678.729 1116.05 678.443C1126.64 678.014 1134.94 673.438 1140.24 664.143C1147.68 651.13 1145.96 635.543 1151.11 621.815C1157.27 605.227 1174.58 591.07 1192.9 599.221C1195.34 600.365 1197.63 596.647 1195.05 595.503C1170.15 584.349 1149.4 606.8 1144.53 629.394C1141.38 644.123 1141.95 667.003 1124.35 672.866C1112.04 677.013 1098.16 670.578 1086.85 679.015C1077.55 685.879 1074.83 698.463 1074.97 709.474C1075.4 725.633 1080.41 741.363 1073.25 756.807C1066.67 771.393 1053.64 780.116 1037.47 779.115C1023.16 778.257 1008.99 772.394 994.534 776.112C970.059 782.261 959.611 811.147 963.476 833.741C963.762 836.172 967.912 835.028 967.34 832.454Z" fill="#E8E8E8"/> <path d="M1148.25 730.495C1142.95 718.483 1150.25 707.043 1161.85 703.182C1170.29 700.322 1179.59 700.179 1186.89 694.459C1192.62 690.026 1194.48 684.449 1193.76 677.299C1193.05 670.578 1193.05 665.287 1198.34 660.711C1202.78 656.85 1208.65 655.42 1214.37 655.134C1230.12 654.562 1251.73 662.57 1263.18 647.269C1268.48 640.119 1266.9 631.253 1269.33 623.245C1272.63 612.091 1283.36 605.227 1294.81 605.799C1297.53 605.942 1297.53 601.652 1294.81 601.509C1286.08 601.08 1277.64 604.369 1271.62 610.661C1264.18 618.526 1265.18 627.392 1262.89 637.259C1256.74 664.286 1219.1 645.267 1201.35 653.704C1194.77 656.85 1189.47 662.427 1188.9 669.863C1188.18 678.586 1192.19 685.736 1183.32 691.742C1178.59 694.888 1173.15 695.889 1167.72 697.176C1158.7 699.321 1149.82 702.038 1145.24 710.761C1141.52 717.625 1141.52 725.49 1144.67 732.497C1145.67 735.214 1149.25 732.926 1148.25 730.495Z" fill="#E8E8E8"/> <path d="M1403.3 540.019C1402.73 538.732 1402.15 537.302 1401.72 535.872C1403.58 533.727 1405.3 531.582 1407.16 529.437C1407.74 529.294 1410.31 531.01 1411.17 531.01C1413.32 531.296 1415.18 530.724 1416.9 529.437C1422.19 525.29 1420.33 518.712 1421.9 513.135C1424.48 503.554 1435.79 510.132 1440.94 502.982C1446.09 495.975 1444.23 481.103 1457.97 485.107C1460.69 485.822 1461.84 481.675 1459.12 480.96C1451.25 478.672 1444.09 482.39 1441.23 489.969C1440.37 492.114 1440.08 494.545 1439.22 496.69C1437.36 501.695 1435.36 502.41 1429.92 502.696C1425.91 502.982 1422.76 502.696 1420.04 506.128C1417.75 509.131 1417.75 512.992 1417.32 516.567C1416.9 521.858 1417.32 526.291 1409.45 525.719C1407.88 525.576 1406.59 524.146 1404.87 524.146C1395.43 524.003 1397 535.586 1399.29 541.163C1400.15 543.737 1404.44 542.593 1403.3 540.019Z" fill="#E8E8E8"/> <path d="M1430.21 551.888C1427.92 548.885 1424.05 540.162 1430.78 537.874C1433.21 537.016 1436.36 538.017 1438.94 538.017C1441.23 538.017 1443.23 538.017 1445.09 536.444C1450.82 531.868 1446.67 523.717 1449.67 517.997C1454.54 508.702 1464.27 515.995 1471.14 511.133C1476.01 507.701 1477.29 501.123 1478.15 495.689C1478.58 492.972 1474.43 491.828 1474 494.545C1473 500.98 1471.86 508.13 1463.84 508.845C1459.69 509.274 1456.54 507.844 1452.68 509.703C1446.38 512.706 1444.38 518.283 1444.23 524.718C1444.09 530.152 1445.38 532.869 1436.22 533.298C1435.07 533.298 1433.93 533.012 1432.78 533.012C1429.49 533.298 1426.63 535.014 1424.77 537.731C1420.76 543.451 1423.05 550.029 1427.06 555.034C1428.92 557.179 1431.92 554.033 1430.21 551.888Z" fill="#E8E8E8"/> <path d="M213.357 629.394C225.237 615.094 242.126 603.368 261.591 605.37C282.773 607.515 293.221 624.389 295.225 644.123C298.66 676.87 290.645 716.052 312.829 743.937C321.56 754.948 334.584 760.811 348.61 757.379C365.499 753.375 378.667 740.076 393.695 732.211C411.442 722.916 435.917 717.911 451.947 733.498C463.683 744.938 466.259 762.384 470.124 777.542C473.702 791.27 479.856 806.428 492.165 814.579C499.607 819.441 507.765 819.87 516.353 819.298C525.942 818.583 545.55 818.011 543.547 833.026C543.26 835.743 547.554 835.743 547.84 833.026C548.556 827.163 545.837 822.444 541.114 819.012C533.671 813.578 525.084 814.436 516.353 815.008C506.477 815.723 498.033 814.865 490.447 807.858C483.577 801.566 479.427 792.7 476.421 783.977C471.412 768.962 469.98 752.517 461.393 738.789C452.949 725.204 438.35 718.626 422.606 719.198C402.712 719.913 385.966 731.353 370.079 741.935C362.494 746.94 354.335 752.231 345.032 753.804C333.869 755.663 323.993 750.801 316.837 742.507C303.383 726.777 301.236 704.326 300.521 684.592C299.805 666.145 302.238 646.125 296.084 628.25C290.502 611.948 276.332 601.795 259.3 600.937C239.549 599.936 222.231 611.805 210.066 626.391C208.491 628.536 211.497 631.539 213.357 629.394Z" fill="#E8E8E8"/> <path d="M141.079 850.043C163.407 887.223 183.301 925.69 200.905 965.301C202.05 967.875 205.772 965.587 204.627 963.156C187.022 923.545 166.985 885.078 144.8 847.898C143.369 845.467 139.648 847.612 141.079 850.043Z" fill="#E8E8E8"/> <path d="M143.799 848.327C178.578 826.734 214.359 806.571 251.142 788.267C253.576 786.98 251.429 783.262 248.996 784.549C212.356 802.853 176.574 823.016 141.652 844.609C139.219 846.182 141.366 849.9 143.799 848.327Z" fill="#E8E8E8"/> <path d="M248.566 786.408C266.743 824.589 285.922 862.198 306.245 899.235C307.534 901.666 311.255 899.521 309.967 897.09C289.643 860.053 270.321 822.444 252.287 784.263C250.999 781.689 247.421 783.834 248.566 786.408Z" fill="#E8E8E8"/> <path d="M205.772 966.159C239.979 945.567 273.756 924.403 307.248 902.667C309.538 901.237 307.391 897.519 305.101 898.949C271.609 920.685 237.832 941.849 203.625 962.441C201.335 963.871 203.482 967.589 205.772 966.159Z" fill="#E8E8E8"/> <path d="M203.053 835.743C202.194 863.199 203.768 890.512 207.776 917.682C208.205 920.399 212.356 919.255 211.926 916.538C207.919 889.797 206.487 862.77 207.346 835.743C207.489 833.026 203.196 833.026 203.053 835.743Z" fill="#E8E8E8"/> <path d="M203.196 834.313C223.09 849.9 242.984 865.201 263.165 880.359C265.312 882.075 267.459 878.357 265.312 876.641C245.418 861.769 225.666 846.611 206.201 831.31C204.054 829.594 201.049 832.597 203.196 834.313Z" fill="#E8E8E8"/> <path d="M212.212 918.54C228.672 903.811 250.14 895.946 265.741 880.073C267.745 878.071 264.596 875.068 262.735 877.07C247.135 892.8 225.809 900.808 209.207 915.537C207.06 917.253 210.209 920.256 212.212 918.54Z" fill="#E8E8E8"/> <path d="M146.804 872.494C151.384 870.206 155.964 868.061 160.544 865.773C162.977 864.629 160.83 860.911 158.397 862.055C153.817 864.343 149.237 866.488 144.657 868.776C142.224 870.063 144.371 873.638 146.804 872.494Z" fill="#E8E8E8"/> <path d="M161.546 896.804C165.411 894.23 169.561 892.085 173.855 890.226C176.431 889.225 175.286 885.078 172.71 886.079C167.987 888.081 163.55 890.369 159.256 893.086C157.109 894.659 159.256 898.377 161.546 896.804Z" fill="#E8E8E8"/> <path d="M177.719 924.832C181.727 922.83 185.734 920.828 189.742 918.969C192.175 917.682 190.028 914.107 187.595 915.251C183.587 917.253 179.58 919.255 175.572 921.114C173.139 922.258 175.286 925.976 177.719 924.832Z" fill="#E8E8E8"/> <path d="M186.021 952.86C190.457 948.999 195.037 945.71 200.19 942.85C202.623 941.42 200.476 937.845 198.043 939.132C192.747 942.135 187.738 945.71 183.015 949.857C180.868 951.716 183.874 954.719 186.021 952.86Z" fill="#E8E8E8"/> <path d="M256.725 814.579C260.016 812.291 263.451 810.718 267.316 809.717C270.035 809.002 268.89 804.998 266.171 805.57C262.02 806.571 258.013 808.287 254.435 810.861C252.288 812.434 254.435 816.152 256.725 814.579Z" fill="#E8E8E8"/> <path d="M269.462 839.032C274.042 836.172 278.622 833.312 283.059 830.309C285.349 828.879 283.202 825.161 280.912 826.591C276.332 829.451 271.752 832.311 267.315 835.314C264.882 836.887 267.029 840.605 269.462 839.032Z" fill="#E8E8E8"/> <path d="M284.061 868.347C288.928 866.202 293.937 864.057 298.803 861.912C301.38 860.768 299.09 857.05 296.656 858.194C291.79 860.339 286.781 862.484 281.914 864.629C279.338 865.773 281.628 869.491 284.061 868.347Z" fill="#E8E8E8"/> <path d="M294.509 887.509C298.374 883.791 302.667 880.645 307.391 877.928C309.824 876.641 307.677 872.923 305.244 874.21C300.234 877.07 295.654 880.359 291.504 884.363C289.5 886.365 292.505 889.368 294.509 887.509Z" fill="#E8E8E8"/> <path d="M217.938 947.283C221.516 952.574 224.521 958.151 226.811 964.014C227.813 966.588 231.964 965.444 230.962 962.87C228.529 956.578 225.523 950.572 221.659 944.995C220.084 942.85 216.363 944.995 217.938 947.283Z" fill="#E8E8E8"/> <path d="M239.835 935.414C242.555 940.276 245.131 944.995 247.85 949.857C249.139 952.288 252.86 950.143 251.572 947.712C248.852 942.85 246.276 938.131 243.557 933.269C242.269 930.838 238.547 932.983 239.835 935.414Z" fill="#E8E8E8"/> <path d="M265.169 917.253C268.031 922.401 270.894 927.549 273.756 932.697C275.045 935.128 278.766 932.983 277.478 930.552C274.615 925.404 271.753 920.256 268.89 915.108C267.602 912.677 263.881 914.822 265.169 917.253Z" fill="#E8E8E8"/> <path d="M287.926 903.668C290.216 909.102 292.506 914.536 294.939 919.827C296.084 922.401 299.662 920.113 298.66 917.682C296.37 912.248 294.08 906.814 291.647 901.523C290.502 899.092 286.781 901.237 287.926 903.668Z" fill="#E8E8E8"/> <path d="M158.111 826.305C160.83 830.738 163.407 835.171 166.126 839.461C167.557 841.892 171.278 839.604 169.847 837.316C167.128 832.883 164.552 828.45 161.832 824.16C160.401 821.872 156.68 824.017 158.111 826.305Z" fill="#E8E8E8"/> <path d="M182.729 812.005C185.305 817.725 187.881 823.445 190.457 829.165C191.602 831.739 195.324 829.451 194.179 827.02C191.602 821.3 189.026 815.58 186.45 809.86C185.162 807.286 181.584 809.431 182.729 812.005Z" fill="#E8E8E8"/> <path d="M204.913 798.277C208.777 803.425 211.783 809.002 213.787 815.008C214.646 817.582 218.796 816.438 217.937 813.864C215.791 807.429 212.785 801.423 208.634 796.132C207.06 793.987 203.339 795.989 204.913 798.277Z" fill="#E8E8E8"/> <path d="M228.815 787.266C231.821 791.842 234.683 796.275 237.689 800.851C239.12 803.139 242.841 800.994 241.41 798.706C238.404 794.13 235.542 789.697 232.536 785.121C230.962 782.833 227.241 784.978 228.815 787.266Z" fill="#E8E8E8"/> <path d="M451.374 503.697C437.491 499.407 436.776 484.678 443.359 473.667C449.8 462.942 462.252 460.082 471.984 468.948C479.999 476.384 480.715 489.111 473.273 497.262C465.83 505.556 453.664 505.413 445.077 499.121C442.93 497.405 440.783 501.123 442.93 502.839C453.808 510.847 469.694 509.56 477.853 498.263C486.297 486.823 483.291 470.807 471.412 463.085C442.787 444.638 418.169 497.834 450.229 507.844C452.949 508.702 454.094 504.555 451.374 503.697Z" fill="#E8E8E8"/> <path d="M474.418 507.415C463.683 510.704 461.107 497.834 465.83 490.97C469.695 485.393 477.28 482.104 484.15 483.963C490.734 485.679 495.457 492.4 493.74 499.121C491.593 507.558 482.719 510.561 474.847 509.274C472.128 508.845 470.983 512.992 473.702 513.421C484.293 515.28 495.743 510.704 498.033 499.264C500.037 489.397 492.308 480.388 482.719 479.244C472.128 477.957 460.534 485.679 459.103 496.547C457.815 505.985 466.403 514.422 475.849 511.419C478.282 510.704 477.137 506.557 474.418 507.415Z" fill="#E8E8E8"/> <path d="M383.103 600.508C379.668 607.515 384.535 614.522 391.691 616.381C397.13 617.811 402.855 616.524 408.437 616.81C414.448 617.096 420.459 618.526 425.898 620.957C437.92 626.391 445.649 636.258 446.078 649.557C446.508 660.711 443.216 672.294 448.082 682.876C458.387 705.184 486.726 688.167 501.325 702.61C513.49 714.765 508.481 736.93 524.797 746.225C527.23 747.655 529.377 743.937 526.944 742.507C512.345 734.213 515.78 712.62 505.475 700.608C500.037 694.316 492.165 692.6 484.15 692.028C474.417 691.456 461.822 693.458 454.666 685.164C446.365 675.44 450.802 660.854 450.372 649.414C450.086 640.405 447.08 632.254 440.783 625.819C435.201 620.242 427.902 616.381 420.316 614.379C416.452 613.378 412.444 612.663 408.437 612.52C403.284 612.234 380.957 614.808 386.968 602.653C388.113 600.222 384.392 598.077 383.103 600.508Z" fill="#E8E8E8"/> <path d="M48.4774 1372.42C74.3831 1372.42 100.146 1372.42 126.051 1372.42C128.771 1372.42 128.771 1368.13 126.051 1368.13C100.146 1368.13 74.3831 1368.13 48.4774 1368.13C45.6149 1368.13 45.6149 1372.42 48.4774 1372.42Z" fill="#E8E8E8"/> <path d="M90.2699 1469.38C140.077 1469.38 189.742 1469.38 239.549 1469.38C242.269 1469.38 242.269 1465.09 239.549 1465.09C189.742 1465.09 140.077 1465.09 90.2699 1465.09C87.4074 1465.09 87.4074 1469.38 90.2699 1469.38Z" fill="#E8E8E8"/> <path d="M233.538 1442.49C279.767 1442.49 326.14 1442.49 372.369 1442.49C375.089 1442.49 375.089 1438.2 372.369 1438.2C326.14 1438.2 279.767 1438.2 233.538 1438.2C230.675 1438.2 230.675 1442.49 233.538 1442.49Z" fill="#E8E8E8"/> <path d="M1003.41 1435.06C1026.74 1429.34 1050.21 1428.76 1073.97 1432.48C1083.99 1434.05 1094.15 1435.63 1104.31 1434.77C1114.19 1433.91 1123.78 1430.91 1133.37 1428.33C1144.24 1425.33 1155.12 1423.04 1166.57 1423.9C1178.31 1424.76 1189.61 1428.05 1201.06 1430.62C1210.94 1432.91 1220.96 1434.48 1231.12 1434.34C1241.85 1434.05 1252.45 1432.2 1262.89 1430.62C1291.52 1426.05 1318.43 1428.91 1346.76 1433.63C1349.48 1434.05 1350.63 1429.91 1347.91 1429.48C1325.01 1425.76 1301.97 1421.9 1278.64 1424.19C1254.31 1426.62 1231.69 1432.62 1207.07 1427.62C1186.46 1423.47 1166.86 1417.04 1145.67 1421.04C1134.37 1423.19 1123.63 1427.19 1112.33 1429.34C1099.73 1431.77 1087.57 1430.34 1074.97 1428.33C1050.5 1424.62 1026.31 1424.9 1002.12 1430.91C999.686 1431.62 1000.83 1435.77 1003.41 1435.06Z" fill="#E8E8E8"/> <path d="M1223.25 1391.58C1268.19 1389.15 1313.13 1386.72 1358.07 1384.43C1380.26 1383.29 1401.72 1383.72 1423.77 1386.72C1433.64 1388.01 1443.09 1388.3 1452.96 1387.15C1463.98 1385.86 1475.43 1384.15 1485.74 1389.44C1488.17 1390.73 1490.32 1387.01 1487.89 1385.72C1470.42 1376.86 1450.24 1385.15 1431.49 1383.43C1420.33 1382.43 1409.45 1380.29 1398.29 1379.72C1386.7 1379.14 1375.1 1379.43 1363.51 1380C1316.71 1382.15 1269.91 1385.01 1223.1 1387.44C1220.53 1387.44 1220.53 1391.73 1223.25 1391.58Z" fill="#E8E8E8"/> <path d="M343.172 1514.42C364.354 1516.42 385.68 1518.42 406.862 1515.99C416.738 1514.85 426.184 1512.7 435.774 1509.84C448.225 1506.13 459.389 1505.13 472.27 1507.41C482.146 1509.13 491.879 1511.56 501.754 1512.42C512.202 1513.28 522.65 1512.7 533.099 1511.7C554.997 1509.56 576.895 1505.84 598.65 1510.7C601.369 1511.27 602.514 1507.13 599.795 1506.56C578.899 1501.98 558.002 1504.98 536.963 1507.13C526.515 1508.13 516.067 1509.13 505.619 1508.56C493.739 1507.99 482.289 1504.84 470.696 1502.98C460.964 1501.41 451.66 1501.41 442.071 1503.7C431.766 1506.27 422.034 1509.7 411.442 1511.27C388.829 1514.56 365.785 1512.28 343.172 1510.27C340.309 1509.84 340.452 1514.13 343.172 1514.42Z" fill="#E8E8E8"/> <path d="M569.596 360.554C564.014 356.693 556.428 350.544 558.718 342.822C561.151 334.814 567.163 338.675 572.744 336.816C580.187 334.385 579.757 325.376 577.611 319.513C575.464 313.793 570.884 299.922 582.763 304.641C585.483 305.785 587.486 307.644 590.635 306.643C593.498 305.785 594.929 303.211 595.644 300.494C596.217 298.063 595.788 295.489 595.644 292.915C595.358 291.199 595.215 289.34 595.215 287.624C594.642 283.477 597.219 281.761 602.657 282.476C602.801 285.193 607.094 285.193 606.951 282.476C606.665 278.472 603.659 275.612 599.366 275.755C594.356 275.898 591.637 280.76 591.064 285.336C590.635 288.482 593.211 295.775 591.78 298.349C590.063 299.493 588.345 300.78 586.484 301.924C585.769 301.495 585.053 301.066 584.337 300.637C583.049 300.208 582.047 299.35 580.759 299.064C576.322 298.063 572.744 300.78 571.17 304.784C568.451 311.648 573.317 317.368 574.748 323.803C576.609 332.669 569.882 331.668 564.014 332.669C561.437 333.098 559.291 334.385 557.573 336.244C548.556 346.683 559.004 358.266 567.592 364.272C569.739 365.845 571.886 362.127 569.596 360.554Z" fill="#E8E8E8"/> <path d="M597.791 356.55C593.068 351.116 589.49 343.68 598.65 340.82C600.94 340.105 603.516 340.391 605.663 338.961C610.386 335.672 608.382 331.239 607.523 326.663C607.094 324.089 606.092 320.657 607.667 318.083C608.812 316.224 612.962 315.509 615.109 315.08C618.115 314.365 621.263 313.936 623.84 312.22C627.704 309.503 629.135 304.641 626.559 300.494C625.128 298.206 621.407 300.351 622.838 302.639C627.132 309.503 607.094 311.362 603.659 316.367C599.652 322.23 608.096 332.526 601.083 336.244C598.363 337.674 594.928 336.673 592.352 338.532C590.491 339.819 589.203 341.821 588.631 343.966C587.057 350.115 591.207 355.406 594.928 359.696C596.646 361.698 599.652 358.695 597.791 356.55Z" fill="#E8E8E8"/> <path d="M428.76 322.659C425.039 320.085 424.61 315.509 425.755 311.505C426.47 308.788 429.905 301.352 433.197 301.066C438.636 300.494 441.355 307.358 442.787 311.362C444.075 315.223 444.504 319.084 444.647 323.088C444.647 325.805 448.941 325.805 448.941 323.088C448.798 315.08 443.502 290.484 430.335 297.634C425.325 300.351 421.604 308.216 421.032 313.65C420.459 318.798 422.463 323.374 426.613 326.377C428.76 327.95 430.907 324.232 428.76 322.659Z" fill="#E8E8E8"/> <path d="M427.043 324.947C421.89 326.234 416.738 327.521 411.442 328.808C408.437 329.523 403.284 329.809 400.851 332.097C396.7 335.958 397.845 347.827 397.845 352.832C397.845 354.262 399.277 355.263 400.565 354.834C401.28 354.691 401.996 354.405 402.855 354.262C406.576 352.26 408.437 353.547 408.58 357.837C411.442 360.697 411.442 362.413 408.58 362.699C406.862 363.414 405.145 363.7 403.284 363.7C402.139 363.843 401.137 364.558 401.137 365.845C401.424 374.997 402.139 384.006 403.141 393.158C403.427 395.875 407.721 395.875 407.435 393.158C406.433 384.006 405.717 374.997 405.431 365.845C404.715 366.56 404 367.275 403.284 367.99C409.295 367.275 418.885 364.844 417.597 356.693C416.165 347.97 405.574 348.971 399.563 350.687C400.422 351.402 401.424 352.117 402.282 352.689C402.282 349.4 402.282 346.254 402.569 342.965C402.998 337.817 402.712 335.958 407.435 334.099C413.875 331.525 421.461 330.667 428.188 328.951C430.907 328.522 429.762 324.375 427.043 324.947Z" fill="#E8E8E8"/> <path d="M447.653 326.234C453.665 325.948 459.819 325.948 465.83 326.663C471.555 327.378 471.269 328.236 472.128 333.241C472.7 336.387 472.843 339.676 473.13 342.822C474.275 355.12 475.133 367.418 475.849 379.716C475.992 382.433 480.286 382.433 480.143 379.716C479.284 362.985 478.711 345.825 475.992 329.237C475.276 325.09 474.561 323.803 470.267 323.088C462.825 321.658 455.096 321.658 447.653 322.087C444.934 322.087 444.934 326.377 447.653 326.234Z" fill="#E8E8E8"/> <path d="M406.29 396.161C414.734 394.731 423.179 393.301 431.48 391.871C441.069 390.298 450.229 391.013 459.818 390.298C464.255 389.869 485.295 387.724 477.566 379.001C475.705 376.999 472.7 380.002 474.56 382.004C475.705 383.291 456.24 386.151 455.811 386.151C449.8 386.294 443.789 386.008 437.777 386.723C426.9 388.01 416.022 390.298 405.145 392.157C402.425 392.443 403.57 396.59 406.29 396.161Z" fill="#E8E8E8"/> <path d="M1166.57 1219.7C1166.14 1234.71 1165.71 1249.73 1165.28 1264.89C1184.32 1266.17 1203.21 1267.32 1222.25 1268.6C1222.25 1253.16 1222.25 1237.72 1222.25 1222.27C1203.64 1221.41 1185.18 1220.56 1166.57 1219.7Z" fill="white" stroke="#161616" stroke-width="2" stroke-miterlimit="10"/> <path d="M1191.33 1386.58C1193.91 1403.17 1195.05 1416.9 1195.62 1426.76C1197.48 1459.51 1196.05 1467.09 1193.19 1473.09C1186.18 1487.82 1173.44 1493.97 1174.58 1495.97C1175.44 1497.26 1181.74 1495.83 1209.79 1481.1C1208.08 1448.5 1206.5 1416.04 1204.78 1383.43C1200.35 1384.58 1195.91 1385.58 1191.33 1386.58Z" fill="white" stroke="#161616" stroke-width="2" stroke-miterlimit="10"/> <path d="M1154.26 1281.47C1178.59 1281.62 1202.92 1281.9 1227.25 1282.05C1224.54 1314.65 1221.96 1347.11 1219.24 1379.71C1198.06 1378 1176.73 1376.43 1155.55 1374.71C1154.98 1343.68 1154.55 1312.65 1154.26 1281.47Z" fill="white" stroke="#161616" stroke-width="2" stroke-miterlimit="10"/> <path d="M1164.14 1385.43C1171.87 1404.17 1174.44 1420.33 1175.3 1431.19C1176.59 1447.21 1177.45 1459.51 1169.72 1467.66C1166.86 1470.81 1162.13 1473.81 1152.97 1479.96C1144.81 1485.39 1140.95 1487.39 1141.24 1487.97C1141.67 1488.82 1149.54 1487.11 1183.89 1474.95C1186.18 1463.37 1188.04 1448.5 1187.61 1431.05C1187.04 1412.46 1184.03 1396.59 1180.74 1384.72C1175.3 1385.01 1169.72 1385.15 1164.14 1385.43Z" fill="white" stroke="#161616" stroke-width="2" stroke-miterlimit="10"/> <path d="M1176.59 1497.26C1180.88 1493.69 1184.89 1489.83 1188.75 1485.68C1193.19 1480.82 1199.77 1473.38 1206.64 1479.82C1206.79 1478.67 1206.93 1477.53 1207.07 1476.38C1196.91 1481.39 1186.89 1486.39 1176.73 1491.26C1174.73 1492.26 1175.73 1495.26 1177.88 1495.26C1187.47 1495.4 1193.48 1478.67 1203.35 1481.82C1205.93 1482.68 1207.07 1478.53 1204.5 1477.67C1200.2 1476.38 1196.91 1477.53 1193.33 1480.1C1189.18 1483.1 1183.32 1490.97 1178.02 1490.97C1178.45 1492.26 1178.74 1493.69 1179.16 1494.97C1189.33 1489.97 1199.35 1484.96 1209.51 1480.1C1210.8 1479.53 1210.94 1477.67 1209.94 1476.67C1206.07 1473.09 1199.2 1471.81 1194.34 1474.1C1190.76 1475.67 1188.47 1479.82 1185.89 1482.53C1182.03 1486.68 1178.02 1490.4 1173.73 1494.12C1171.44 1495.97 1174.44 1499.12 1176.59 1497.26Z" fill="#161616"/> <path d="M1194.19 1474.95C1198.49 1475.1 1202.64 1475.95 1206.64 1477.67C1209.08 1478.81 1211.37 1475.1 1208.79 1473.95C1204.07 1471.81 1199.35 1470.66 1194.19 1470.52C1191.47 1470.66 1191.47 1474.95 1194.19 1474.95Z" fill="#161616"/> <path d="M1170.72 1469.95C1174.01 1470.81 1176.87 1472.52 1179.16 1475.1C1181.03 1477.1 1184.03 1474.09 1182.17 1472.09C1179.31 1469.09 1175.73 1466.94 1171.72 1465.94C1169.29 1465.09 1168.14 1469.23 1170.72 1469.95Z" fill="#161616"/> <path d="M1147.53 1487.25C1151.97 1483.96 1156.55 1480.96 1161.27 1478.1C1163.42 1476.81 1165.71 1475.1 1168 1474.38C1171.58 1473.09 1173.73 1473.95 1177.02 1475.38C1177.02 1474.1 1177.02 1472.95 1177.02 1471.66C1172.44 1473.67 1167.29 1473.52 1162.56 1475.53C1157.98 1477.38 1153.69 1481.96 1148.97 1482.82C1149.54 1484.11 1150.11 1485.39 1150.68 1486.68C1159.13 1482.53 1168.57 1481.82 1177.02 1477.67C1179.45 1476.38 1177.3 1472.81 1174.87 1473.95C1166.43 1478.1 1156.98 1478.81 1148.54 1482.96C1146.25 1484.11 1147.96 1487.25 1150.25 1486.82C1155.41 1485.96 1159.56 1481.25 1164.42 1479.39C1169.29 1477.53 1174.58 1477.38 1179.31 1475.38C1180.74 1474.81 1180.74 1472.24 1179.31 1471.66C1173.87 1469.23 1171.44 1467.8 1166 1470.66C1158.84 1474.38 1152.11 1478.81 1145.67 1483.53C1143.1 1485.11 1145.24 1488.82 1147.53 1487.25Z" fill="#161616"/> <path d="M1172.01 1407.31C1175.59 1406.03 1179.16 1406.17 1182.46 1407.89C1184.89 1409.17 1187.04 1405.45 1184.6 1404.17C1180.31 1401.88 1175.44 1401.45 1170.86 1403.17C1168.29 1404.17 1169.43 1408.32 1172.01 1407.31Z" fill="#161616"/> <path d="M1175.59 1421.61C1178.59 1421.33 1181.45 1422.04 1183.74 1424.04C1185.89 1425.76 1188.9 1422.76 1186.75 1421.04C1183.6 1418.47 1179.74 1417.04 1175.59 1417.32C1172.87 1417.47 1172.87 1421.76 1175.59 1421.61Z" fill="#161616"/> <path d="M1177.16 1439.49C1179.88 1439.2 1182.46 1440.2 1184.03 1442.49C1185.46 1444.78 1189.18 1442.63 1187.75 1440.35C1185.61 1436.77 1181.45 1434.63 1177.3 1435.2C1176.16 1435.34 1175.16 1436.06 1175.16 1437.34C1175.01 1438.34 1176.02 1439.63 1177.16 1439.49Z" fill="#161616"/> <path d="M1195.62 1406.31C1198.2 1404.88 1201.49 1405.03 1203.93 1407.03C1206.07 1408.74 1209.08 1405.74 1206.93 1404.02C1203.07 1400.88 1197.91 1400.16 1193.48 1402.59C1191.04 1404.02 1193.19 1407.74 1195.62 1406.31Z" fill="#161616"/> <path d="M1198.06 1433.34C1200.35 1432.34 1202.92 1432.77 1204.78 1434.48C1206.79 1436.34 1209.94 1433.34 1207.79 1431.48C1204.5 1428.48 1199.92 1427.76 1195.77 1429.77C1193.33 1430.77 1195.62 1434.48 1198.06 1433.34Z" fill="#161616"/> <path d="M1198.63 1456.22C1200.92 1454.79 1203.78 1454.79 1205.93 1456.51C1208.08 1458.22 1211.08 1455.22 1208.93 1453.5C1205.36 1450.5 1200.35 1450.07 1196.48 1452.64C1194.19 1454.07 1196.34 1457.79 1198.63 1456.22Z" fill="#161616"/> <path d="M1230.69 1281.9C1227.83 1314.79 1224.97 1347.68 1222.1 1380.57" stroke="#161616" stroke-width="6" stroke-miterlimit="10"/> <path d="M1155.12 1376C1179.02 1377.71 1202.92 1379.29 1226.83 1381" stroke="#161616" stroke-width="6" stroke-miterlimit="10"/> <path d="M1226.97 1220.99C1226.4 1237.29 1225.68 1253.45 1225.11 1269.75" stroke="#161616" stroke-width="6" stroke-miterlimit="10"/> <path d="M1229.97 1301.21C1243.28 1298.78 1257.45 1309.22 1258.46 1322.94C1259.89 1340.1 1240.28 1343.11 1227.4 1341.25C1224.68 1340.82 1223.53 1344.97 1226.25 1345.4C1242 1347.68 1264.18 1343.25 1262.75 1322.94C1261.6 1306.21 1244.86 1294.06 1228.83 1297.06C1226.11 1297.49 1227.25 1301.64 1229.97 1301.21Z" fill="#161616"/> <path d="M1226.83 1348.83C1232.41 1349.97 1236.84 1353.97 1238.42 1359.41C1239.13 1362.13 1243.29 1360.98 1242.57 1358.26C1240.71 1351.4 1235.13 1345.97 1228.11 1344.68C1225.25 1344.25 1224.11 1348.25 1226.83 1348.83Z" fill="#161616"/> <path d="M1224.68 1347.4C1228.11 1352.4 1229.69 1357.98 1229.12 1364.13C1228.97 1366.85 1233.27 1366.85 1233.41 1364.13C1233.84 1357.41 1232.12 1350.83 1228.26 1345.25C1226.83 1342.96 1223.1 1345.11 1224.68 1347.4Z" fill="#161616"/> <path d="M1154.12 1299.21C1144.67 1293.2 1127.35 1310.5 1125.21 1318.94C1120.91 1336.1 1142.95 1334.1 1152.11 1339.82C1154.4 1341.25 1156.55 1337.53 1154.26 1336.1C1147.68 1331.95 1137.94 1333.53 1132.22 1328.38C1125.21 1322.09 1131.65 1314.51 1136.51 1310.07C1139.09 1307.79 1147.82 1300.21 1151.97 1302.78C1154.26 1304.5 1156.55 1300.78 1154.12 1299.21Z" fill="#161616"/> <path d="M1151.83 1337.82C1148.11 1339.25 1144.67 1341.39 1141.81 1344.39C1139.66 1346.68 1136.94 1350.26 1139.09 1353.4C1140.66 1355.69 1144.39 1353.55 1142.81 1351.26C1141.81 1349.83 1145.53 1346.68 1146.53 1345.82C1148.39 1344.11 1150.54 1342.82 1152.97 1341.96C1155.55 1340.96 1154.55 1336.82 1151.83 1337.82Z" fill="#161616"/> <path d="M1150.11 1340.82C1147.39 1345.11 1146.53 1349.97 1147.53 1354.83C1148.11 1357.55 1152.26 1356.41 1151.68 1353.69C1150.83 1349.83 1151.68 1346.25 1153.83 1342.96C1155.41 1340.68 1151.68 1338.53 1150.11 1340.82Z" fill="#161616"/> <path d="M1163.71 1296.49C1162.99 1306.93 1163.13 1317.51 1163.85 1327.95C1164.14 1330.67 1168.43 1330.67 1168.14 1327.95C1167.29 1317.51 1167.29 1306.93 1168 1296.49C1168.29 1293.77 1163.99 1293.77 1163.71 1296.49Z" fill="#161616"/> <path d="M1166.86 1297.63C1182.03 1298.49 1197.06 1299.06 1212.23 1299.35C1211.51 1298.63 1210.8 1297.92 1210.08 1297.2C1209.65 1307.93 1209.22 1318.8 1208.65 1329.52C1208.51 1332.24 1212.8 1332.24 1212.94 1329.52C1213.37 1318.8 1213.8 1307.93 1214.37 1297.2C1214.37 1296.06 1213.37 1295.06 1212.23 1295.06C1197.06 1294.77 1182.03 1294.2 1166.86 1293.34C1164.14 1293.2 1164.14 1297.49 1166.86 1297.63Z" fill="#161616"/> <path d="M1165.14 1329.81C1171.44 1331.52 1178.45 1331.1 1184.75 1331.52C1192.48 1331.95 1200.35 1332.53 1208.08 1332.95C1210.8 1333.1 1210.8 1328.81 1208.08 1328.66C1201.21 1328.24 1194.34 1327.81 1187.47 1327.38C1180.6 1326.95 1172.87 1327.38 1166.14 1325.66C1163.71 1324.95 1162.56 1329.09 1165.14 1329.81Z" fill="#161616"/> <path d="M1170 1351.97C1172.58 1357.55 1178.16 1352.69 1182.46 1354.69C1184.46 1355.55 1184.03 1356.84 1186.75 1356.98C1189.9 1357.12 1197.63 1350.83 1199.2 1356.69C1199.63 1358.27 1201.64 1358.69 1202.78 1357.69C1204.21 1357.26 1205.79 1356.84 1207.22 1356.55C1208.93 1358.69 1212.08 1355.55 1210.22 1353.55C1206.93 1349.69 1202.78 1351.83 1199.63 1354.69C1200.78 1354.98 1202.06 1355.26 1203.21 1355.69C1201.92 1350.69 1196.63 1347.4 1191.62 1349.69C1189.18 1350.83 1188.9 1352.97 1185.18 1351.54C1184.46 1351.26 1184.17 1350.11 1183.46 1349.83C1181.88 1349.26 1173.58 1350.11 1173.58 1349.97C1172.58 1347.25 1168.86 1349.4 1170 1351.97Z" fill="#161616"/> <path d="M1177.59 1239.43C1177.88 1237.86 1179.74 1237.43 1181.03 1238C1182.89 1238.72 1183.89 1240.86 1184.75 1242.44C1185.89 1244.87 1189.61 1242.72 1188.47 1240.29C1186.89 1237.14 1184.46 1233.86 1180.6 1233.43C1177.45 1233.14 1174.16 1235 1173.58 1238.15C1172.87 1241.01 1177.02 1242.15 1177.59 1239.43Z" fill="#161616"/> <path d="M1203.93 1241.43C1204.21 1240 1205.5 1239.15 1206.93 1239.72C1208.65 1240.29 1209.36 1242.43 1209.65 1244.01C1210.08 1246.73 1214.23 1245.58 1213.8 1242.86C1213.23 1239.43 1210.94 1235.86 1207.22 1235.29C1203.93 1234.86 1200.35 1236.86 1199.77 1240.29C1199.35 1243.01 1203.5 1244.15 1203.93 1241.43Z" fill="#161616"/> <path d="M1179.74 1248.44C1184.6 1257.02 1196.2 1258.31 1202.49 1250.59C1204.21 1248.44 1201.21 1245.44 1199.49 1247.58C1194.91 1253.16 1187.04 1252.73 1183.46 1246.3C1182.17 1243.87 1178.45 1246.01 1179.74 1248.44Z" fill="#161616"/> <path d="M1029.6 471.379C1011.57 464.086 1000.69 446.64 994.104 429.194C987.091 411.033 984.085 391.299 985.087 371.851C986.805 335.958 1002.12 299.636 1030.46 276.756C1057.22 255.02 1096.87 248.871 1126.64 268.605C1157.7 289.197 1163.28 331.668 1163.56 365.845C1163.85 403.883 1154.98 443.78 1126.78 471.093C1124.78 472.952 1127.78 476.098 1129.79 474.096C1156.55 448.07 1166.71 410.89 1167.71 374.568C1168.72 338.961 1164.42 293.916 1135.08 269.463C1107.6 246.583 1066.81 247.727 1037.47 266.317C1004.98 286.909 985.803 324.232 981.652 361.841C979.076 385.15 981.938 409.317 990.526 431.339C997.825 449.929 1009.42 467.661 1028.6 475.383C1031.03 476.527 1032.03 472.38 1029.6 471.379Z" fill="#161616"/> <path d="M1027.6 474.096C1022.73 480.96 1023.73 491.113 1030.89 496.261C1036.33 500.122 1044.34 500.694 1050.78 501.552C1058.51 502.696 1066.38 503.125 1074.25 503.125C1088.28 502.982 1104.31 501.981 1117.33 496.547C1126.78 492.543 1133.94 483.105 1128.93 472.952C1127.78 470.521 1124.06 472.666 1125.21 475.097C1135.94 496.976 1085.13 498.835 1074.11 498.835C1063.95 498.835 1053.79 497.977 1043.91 496.118C1039.19 495.26 1033.89 494.402 1030.89 490.255C1027.88 485.965 1028.45 480.388 1031.32 476.384C1032.89 473.953 1029.17 471.808 1027.6 474.096Z" fill="#161616"/> <path d="M1032.18 497.262C1032.18 504.412 1032.32 511.705 1033.18 518.855C1033.61 522.144 1034.32 525.004 1037.04 527.006C1040.91 529.866 1047.35 529.723 1051.93 530.152C1059.66 530.724 1067.53 530.724 1075.26 530.438C1082.56 530.152 1089.86 529.58 1097.15 528.865C1101.45 528.436 1106.31 528.579 1109.61 525.29C1116.91 518.14 1117.05 504.555 1115.19 495.546C1114.62 492.829 1110.47 493.973 1111.04 496.69C1112.04 501.552 1112.33 506.414 1111.32 511.419C1109.89 518.426 1107.89 523.002 1100.02 524.432C1090.86 526.148 1080.55 526.148 1071.25 526.291C1062.09 526.434 1051.78 526.863 1042.77 524.718C1034.47 522.716 1036.61 504.126 1036.61 497.262C1036.47 494.545 1032.18 494.545 1032.18 497.262Z" fill="#161616"/> <path d="M1033.61 343.251C1050.78 353.976 1063.81 369.706 1071.11 388.582C1072.11 391.156 1076.26 390.012 1075.26 387.438C1067.53 367.418 1053.93 350.83 1035.9 339.533C1033.46 337.96 1031.32 341.678 1033.61 343.251Z" fill="#161616"/> <path d="M1074.54 388.582C1082.98 370.85 1095.29 355.692 1111.04 343.966C1113.18 342.393 1111.04 338.532 1108.89 340.248C1092.57 352.403 1079.69 368.133 1070.82 386.437C1069.67 388.868 1073.4 391.013 1074.54 388.582Z" fill="#161616"/> <path d="M1071.11 383.577C1073.25 413.035 1074.25 442.493 1073.82 471.951C1073.82 474.668 1078.12 474.668 1078.12 471.951C1078.55 442.493 1077.55 412.892 1075.4 383.577C1075.11 380.717 1070.82 380.717 1071.11 383.577Z" fill="#161616"/> <path d="M903.506 455.649C922.542 449.214 941.434 442.779 960.47 436.344C963.046 435.486 961.901 431.339 959.325 432.197C940.289 438.632 921.397 445.067 902.361 451.502C899.642 452.36 900.787 456.507 903.506 455.649Z" fill="#161616"/> <path d="M925.261 427.049C931.845 425.19 938.429 423.188 945.012 421.329C947.589 420.614 946.587 416.467 943.867 417.182C937.284 419.041 930.7 421.043 924.116 422.902C921.54 423.76 922.542 427.907 925.261 427.049Z" fill="#161616"/> <path d="M877.601 379.43C902.791 379.144 927.837 379.859 952.884 381.432C955.604 381.575 955.604 377.285 952.884 377.142C927.837 375.569 902.647 374.997 877.601 375.14C874.881 375.14 874.881 379.43 877.601 379.43Z" fill="#161616"/> <path d="M930.843 359.982C936.854 361.555 943.009 362.27 949.163 362.413C951.883 362.413 951.883 358.123 949.163 358.123C943.295 357.98 937.57 357.265 931.988 355.835C929.269 355.12 928.124 359.267 930.843 359.982Z" fill="#161616"/> <path d="M921.54 226.849C944.011 246.154 964.478 267.318 982.941 290.484C984.658 292.629 987.664 289.626 985.946 287.481C967.483 264.315 947.016 243.008 924.546 223.846C922.542 221.987 919.393 224.99 921.54 226.849Z" fill="#161616"/> <path d="M984.372 267.461C988.236 271.465 991.958 275.469 995.822 279.616C997.683 281.618 1000.69 278.615 998.828 276.613C994.963 272.609 991.242 268.605 987.378 264.458C985.517 262.456 982.511 265.459 984.372 267.461Z" fill="#161616"/> <path d="M897.209 275.469C904.222 279.616 911.378 283.477 918.677 287.052C921.11 288.339 923.257 284.621 920.824 283.334C913.525 279.616 906.369 275.755 899.355 271.751C896.922 270.321 894.775 274.039 897.209 275.469Z" fill="#161616"/> <path d="M1146.25 242.865C1167.43 221.701 1188.61 200.537 1209.79 179.373C1211.8 177.371 1208.65 174.368 1206.79 176.37C1185.61 197.534 1164.42 218.698 1143.24 239.862C1141.24 241.864 1144.24 244.867 1146.25 242.865Z" fill="#161616"/> <path d="M1167.57 252.732C1173.01 248.728 1178.45 244.867 1183.89 240.863C1186.03 239.29 1184.03 235.572 1181.74 237.145C1176.3 241.149 1170.86 245.01 1165.42 249.014C1163.13 250.587 1165.28 254.305 1167.57 252.732Z" fill="#161616"/> <path d="M1080.12 214.837C1084.42 194.102 1087.71 173.224 1089.71 152.203C1090 149.486 1085.7 149.486 1085.42 152.203C1083.41 172.795 1080.27 193.387 1075.97 213.693C1075.4 216.41 1079.55 217.554 1080.12 214.837Z" fill="#161616"/> <path d="M1200.49 346.397C1239.42 342.822 1278.21 339.247 1317.14 335.672C1319.86 335.386 1319.86 331.096 1317.14 331.382C1278.21 334.957 1239.42 338.532 1200.49 342.107C1197.77 342.25 1197.63 346.54 1200.49 346.397Z" fill="#161616"/> <path d="M1036.9 479.244C1061.09 484.535 1085.7 484.392 1109.75 478.958C1112.47 478.386 1111.32 474.239 1108.6 474.811C1085.27 480.102 1061.37 480.245 1038.04 475.097C1035.32 474.525 1034.18 478.672 1036.9 479.244Z" fill="#161616"/> <path d="M1040.48 515.566C1058.94 517.997 1077.4 518.569 1096.01 517.282C1098.73 517.139 1098.73 512.849 1096.01 512.992C1077.4 514.279 1058.94 513.707 1040.48 511.276C1037.76 510.99 1037.76 515.28 1040.48 515.566Z" fill="#161616"/> <path d="M1173.44 464.801C1202.49 485.25 1232.12 504.984 1262.18 524.003C1264.47 525.433 1266.61 521.715 1264.32 520.285C1234.27 501.266 1204.64 481.532 1175.59 461.083C1173.3 459.51 1171.15 463.228 1173.44 464.801Z" fill="#161616"/> <path d="M807.755 1470.66C780.562 1503.98 753.511 1537.16 726.317 1570.48C758.234 1682.59 776.268 1712.05 787.002 1710.47C794.731 1709.33 798.452 1692.6 802.603 1673.87C812.908 1627.1 806.754 1586.92 800.456 1561.9C817.631 1542.73 834.663 1523.43 851.838 1504.27C837.096 1493.11 822.497 1481.96 807.755 1470.66Z" fill="#161616" stroke="#161616" stroke-width="2" stroke-miterlimit="10"/> <path d="M707.425 1299.06C724.457 1312.22 740.773 1307.5 774.551 1313.22C803.319 1318.08 835.665 1328.81 870.015 1350.26C833.375 1393.16 796.735 1438.49 760.381 1486.25C751.651 1497.83 742.92 1509.42 734.476 1521C748.502 1524.29 765.391 1529.44 783.711 1537.73C801.601 1545.74 816.2 1554.75 827.793 1562.9C882.324 1515.42 930.986 1469.52 974.353 1426.19C994.391 1406.17 1022.73 1375.57 1027.17 1332.24C1027.45 1329.81 1027.45 1327.66 1027.45 1325.52C1026.45 1253.59 935.852 1201.54 880.749 1182.37C820.494 1161.5 716.871 1150.2 687.96 1200.11C670.928 1229.56 680.947 1278.61 707.425 1299.06Z" fill="#EC615B"/> <path opacity="0.26" d="M813.194 1227.13C812.192 1240.72 809.759 1256.88 804.75 1274.75C801.172 1287.48 796.878 1298.78 792.584 1308.36C787.861 1310.22 783.281 1312.08 778.558 1313.94C809.33 1326.09 840.245 1338.24 871.017 1350.4C848.117 1376.57 825.074 1404.02 801.887 1432.62C777.985 1462.08 755.229 1490.97 733.617 1519.43C748.931 1524.43 764.102 1529.44 779.417 1534.3C834.234 1473.95 889.05 1413.46 943.867 1353.12C949.592 1336.67 949.306 1323.8 947.589 1314.79C939.717 1270.75 885.759 1234.86 813.194 1227.13Z" fill="#6D6C6C"/> <path opacity="0.23" d="M870.73 1350.11C875.74 1357.69 880.606 1365.41 885.615 1372.99C842.964 1424.33 800.313 1475.52 757.662 1526.86C750.076 1524.86 742.347 1522.71 734.762 1520.71C762.099 1483.25 791.582 1444.78 823.499 1406.03C839.386 1386.72 855.13 1368.13 870.73 1350.11Z" fill="#6D6C6C"/> <path d="M728.321 1416.32C770.543 1424.04 812.908 1431.62 855.13 1439.35C903.935 1545.74 909.374 1580.06 900.214 1585.92C893.63 1590.07 879.89 1579.77 864.576 1568.19C826.219 1539.16 804.893 1504.55 793.3 1481.24C767.824 1477.81 742.347 1474.24 716.871 1470.81C720.592 1452.64 724.457 1434.48 728.321 1416.32Z" fill="#161616" stroke="#161616" stroke-width="2" stroke-miterlimit="10"/> <path d="M641.301 1179.37C564.3 1201.97 517.355 1248.87 487.155 1279.76C446.365 1321.66 396.271 1372.99 410.727 1410.89C418.169 1430.19 440.783 1442.06 546.123 1460.37C625.7 1474.24 694.687 1481.67 748.502 1485.82C755.229 1461.22 761.955 1436.77 768.539 1412.18C714.438 1394.73 660.48 1377.43 606.379 1359.98C639.584 1352.97 674.506 1344.68 710.86 1334.53C738.483 1326.81 764.818 1318.8 789.865 1310.36C813.051 1263.6 818.06 1213.12 793.872 1184.52C760.095 1144.48 684.382 1166.65 641.301 1179.37Z" fill="#EC615B"/> <path opacity="0.29" d="M812.622 1228.85C811.906 1243.01 809.473 1261.17 802.889 1281.19C798.882 1293.34 794.302 1303.93 789.722 1312.65C785.857 1312.93 781.993 1313.36 778.129 1313.65C745.496 1324.37 710.717 1334.53 673.934 1343.97C650.175 1350.11 626.989 1355.41 604.518 1360.27C658.762 1377.28 713.007 1394.16 767.251 1411.18C766.106 1417.04 764.675 1423.19 762.957 1429.62C760.954 1437.06 758.664 1443.92 756.517 1450.21C681.662 1431.77 606.808 1413.32 531.954 1394.87C528.519 1390.73 517.212 1375.71 518.929 1355.83C520.79 1334.24 541.4 1318.94 567.735 1304.93C643.877 1264.6 771.545 1237.29 812.622 1228.85Z" fill="#6D6C6C"/> <path opacity="0.24" d="M566.018 1363.27C579.614 1362.27 593.354 1361.27 606.951 1360.12C660.337 1377.86 713.723 1395.73 767.108 1413.46C764.818 1421.9 762.528 1430.48 760.238 1438.92C695.546 1413.61 630.71 1388.44 566.018 1363.27Z" fill="#6D6C6C"/> <path d="M621.121 855.334C642.303 842.893 679.086 825.161 728.035 820.013C803.032 812.148 860.569 839.032 883.326 851.187C879.175 907.386 872.734 952.288 867.582 983.176C861.427 1020.07 856.418 1040.52 854.128 1074.41C851.266 1116.88 854.844 1151.77 858.136 1174.65C833.232 1182.38 795.59 1190.81 749.217 1189.81C704.562 1188.81 668.495 1179.09 644.307 1170.65C650.747 1119.46 648.601 1078.84 645.452 1051.24C641.874 1020.5 637.007 1005.48 631.139 968.304C623.554 920.256 621.55 880.931 621.121 855.334Z" fill="white" stroke="#161616" stroke-width="2" stroke-miterlimit="10"/> <path opacity="0.14" d="M775.982 837.03C778.987 847.898 782.422 862.913 784.712 880.931C786.287 893.086 792.727 948.141 772.69 1020.79C760.381 1065.54 747.357 1112.88 704.705 1151.77C690.965 1164.36 677.655 1172.79 667.922 1178.09C689.534 1183.66 717.73 1188.95 751.078 1189.24C794.731 1189.67 830.799 1181.8 855.845 1174.08C854.414 1163.36 852.554 1147.2 851.838 1127.75C851.265 1110.73 851.265 1083.56 863.002 1007.06C872.305 946.854 878.888 920.971 882.18 866.488C882.61 860.196 882.753 854.905 883.039 851.33C872.591 845.181 858.994 838.46 842.249 833.026C826.791 828.021 812.908 825.447 801.458 824.303C793.157 828.45 784.569 832.74 775.982 837.03Z" fill="#6D6C6C"/> <path opacity="0.17" d="M878.888 874.639C870.873 919.97 860.282 956.578 851.981 982.032C827.65 1056.39 810.618 1106.44 764.675 1143.05C736.193 1165.79 706.566 1175.37 687.53 1179.94C706.852 1185.38 734.189 1190.67 767.251 1189.95C805.322 1189.1 836.094 1180.52 856.275 1173.22C853.555 1155.78 850.407 1129.61 851.265 1097.72C852.267 1056.39 858.994 1031.51 866.437 986.179C870.587 959.581 875.883 921.543 878.888 874.639Z" fill="#6D6C6C"/> <path d="M620.262 854.619C601.656 867.489 577.754 887.795 556.858 917.968C509.77 986.322 511.058 1058.82 512.918 1085.56C521.506 1108.59 536.248 1138.76 562.01 1168.36C577.038 1185.66 599.079 1210.55 636.721 1226.56C649.316 1232 660.337 1235 668.352 1236.72C675.222 1230.57 681.949 1224.42 688.819 1218.27C666.778 1192.53 644.593 1165.5 622.409 1137.62C605.377 1116.31 589.061 1095.15 573.317 1074.27C573.89 1056.68 577.611 1024.79 596.79 991.47C607.667 972.594 620.405 958.866 630.567 949.571C627.132 917.968 623.697 886.365 620.262 854.619Z" fill="white" stroke="#161616" stroke-width="2" stroke-miterlimit="10"/> <path opacity="0.13" d="M622.981 886.508C581.761 932.983 562.153 977.027 552.42 1004.77C535.389 1052.82 538.967 1077.99 541.543 1090C543.69 1099.44 548.413 1115.59 565.731 1140.19C580.759 1161.5 612.39 1199.68 672.645 1231.14C677.941 1225.99 683.237 1220.99 688.532 1215.84C671.5 1196.68 654.325 1176.51 637.007 1155.49C614.25 1127.89 593.068 1100.72 573.46 1074.12C574.032 1059.68 576.465 1039.52 584.91 1016.92C597.648 983.033 617.685 960.725 630.137 948.856C627.561 928.121 625.271 907.386 622.981 886.508Z" fill="#6D6C6C"/> <path opacity="0.16" d="M573.317 1075.98C575.893 1092.71 581.189 1114.02 592.352 1137.04C616.97 1187.09 655.471 1214.69 675.079 1226.71C678.943 1223.27 682.664 1219.98 686.529 1216.55C648.744 1169.65 611.102 1122.74 573.317 1075.98Z" fill="#6D6C6C"/> <path d="M885.473 852.045C906.369 864.772 933.276 884.649 956.606 914.25C1009.56 981.317 1007.99 1052.53 1005.98 1078.84C996.251 1101.44 979.792 1131.04 950.881 1160.21C933.992 1177.08 909.231 1201.54 867.009 1217.41C852.84 1222.7 840.388 1225.7 831.371 1227.42C823.786 1221.41 816.057 1215.41 808.471 1209.4C833.089 1184.09 858.136 1157.64 883.039 1130.18C902.075 1109.16 920.395 1088.42 938.143 1067.97C937.427 1050.81 933.419 1019.5 911.807 986.608C899.499 968.018 885.329 954.576 873.879 945.424C877.887 914.25 881.751 883.219 885.473 852.045Z" fill="white" stroke="#161616" stroke-width="2" stroke-miterlimit="10"/> <path opacity="0.16" d="M884.471 886.794C902.647 905.813 927.408 936.272 946.73 978.743C955.89 998.906 970.775 1031.65 971.061 1062.54C972.063 1156.49 838.957 1221.13 831.228 1224.85C823.642 1219.98 816.2 1215.27 808.614 1210.4C851.695 1163.21 894.632 1116.02 937.713 1068.83C936.854 1053.39 933.276 1024.65 916.101 994.044C901.932 968.876 884.327 952.574 872.734 943.565C876.742 924.689 880.606 905.813 884.471 886.794Z" fill="#6D6C6C"/> <path opacity="0.12" d="M939.144 1069.26C936.998 1081.7 933.419 1095.29 927.837 1109.3C902.647 1172.79 851.695 1207.54 825.932 1222.42C819.778 1218.41 813.767 1214.41 807.612 1210.4C851.409 1163.36 895.205 1116.31 939.144 1069.26Z" fill="#6D6C6C"/> <path d="M918.391 1079.84H566.447V1302.5H918.391V1079.84Z" fill="white" stroke="#161616" stroke-width="2" stroke-miterlimit="10"/> <path d="M737.338 1212.41C718.732 1214.69 709.715 1192.1 714.581 1177.08C719.304 1162.21 736.908 1155.2 751.221 1160.35C765.39 1165.5 772.26 1182.8 767.251 1196.67C761.669 1212.12 742.204 1218.41 727.892 1211.55C725.458 1210.4 723.168 1214.12 725.745 1215.27C738.483 1221.41 754.084 1219.13 764.245 1209.12C774.121 1199.25 775.552 1183.66 769.398 1171.51C755.372 1143.76 712.005 1152.63 708.999 1183.09C707.425 1199.39 719.161 1218.98 737.338 1216.84C740.057 1216.41 740.057 1212.12 737.338 1212.41Z" fill="#161616"/> <path opacity="0.14" d="M698.551 1079.27C746.211 1095.86 778.701 1138.33 779.703 1183.95C780.991 1241.15 732.901 1294.92 667.35 1300.35C750.791 1301.07 834.233 1301.78 917.818 1302.5C917.532 1227.85 917.389 1153.2 917.103 1078.7C844.252 1078.7 771.401 1078.99 698.551 1079.27Z" fill="#6D6C6C"/> <path opacity="0.26" d="M917.819 1078.56C916.531 1124.03 907.514 1159.5 899.928 1182.8C888.764 1216.69 880.749 1241.43 857.706 1263.31C826.362 1293.34 787.289 1298.92 770.114 1300.35C818.919 1300.78 867.725 1301.21 916.531 1301.78C916.674 1259.31 916.96 1216.84 917.246 1174.22C917.246 1142.34 917.532 1110.45 917.819 1078.56Z" fill="#6D6C6C"/> <path d="M732.042 739.933C724.171 749.514 731.756 761.24 730.325 792.557C729.609 808.144 727.033 820.728 725.029 829.165C731.756 832.311 743.636 836.744 758.95 837.173C777.842 837.602 792.155 831.739 799.168 828.307C796.019 822.015 791.869 812.291 789.293 799.707C782.852 767.675 794.302 752.66 784.856 740.791C773.835 727.063 742.634 726.92 732.042 739.933Z" fill="white" stroke="#161616" stroke-width="2" stroke-miterlimit="10"/> <path d="M682.092 602.367C673.075 625.533 676.51 646.411 678.514 655.42C677.655 655.563 660.909 659.138 656.329 672.008C651.749 685.021 661.196 703.468 680.947 709.474C688.103 726.92 705.421 760.668 741.918 779.115C748.072 782.118 753.94 784.549 759.809 786.265C765.104 784.263 772.26 781.117 780.419 776.398C805.895 761.669 820.064 743.365 823.356 738.932C829.367 730.924 837.525 718.054 843.25 700.322C846.399 700.894 851.981 701.18 857.42 698.463C869.729 692.171 875.883 672.58 867.295 659.853C860.139 649.271 846.256 648.842 844.539 648.842C846.399 641.406 852.124 614.665 837.669 588.21C821.066 557.751 785.428 541.735 751.937 546.311C702.415 552.746 682.951 600.079 682.092 602.367Z" fill="white" stroke="#161616" stroke-width="2" stroke-miterlimit="10"/> <path d="M730.182 777.828C738.912 782.976 748.502 790.984 759.236 790.126C768.11 789.411 777.985 784.263 784.712 778.829C786.859 777.113 783.854 774.11 781.707 775.826C775.409 780.831 765.247 786.122 756.946 785.979C748.215 785.836 739.342 778.543 732.185 774.11C730.039 772.68 727.892 776.398 730.182 777.828Z" fill="#161616"/> <path d="M729.609 779.687C737.767 786.694 747.07 794.559 758.52 793.987C769.684 793.415 780.132 785.979 787.432 777.971C789.292 775.969 786.286 772.966 784.426 774.968C778.128 781.832 769.255 788.553 759.522 789.554C748.788 790.555 740.2 783.262 732.615 776.684C730.611 774.825 727.605 777.828 729.609 779.687Z" fill="#161616"/> <path d="M735.048 780.545C735.048 780.402 735.048 780.402 735.048 780.545C734.189 779.258 732.615 778.972 731.613 779.973C731.613 779.973 731.613 779.973 731.47 780.116C730.611 780.831 730.611 782.404 731.47 783.119C747.214 798.134 776.125 802.996 787.432 779.973C788.577 777.542 784.999 775.254 783.71 777.828C773.692 798.42 748.359 793.415 734.619 780.116C734.619 781.117 734.619 782.118 734.619 783.119C734.619 783.119 734.618 783.119 734.762 782.976C733.617 782.833 732.472 782.69 731.327 782.547V782.69C732.758 784.978 736.479 782.833 735.048 780.545Z" fill="#161616"/> <path d="M752.223 648.27C750.362 671.436 751.364 694.459 755.086 717.339C755.229 718.483 756.66 719.198 757.662 718.769C763.244 716.91 767.251 713.621 770.257 708.616C771.688 706.185 767.967 704.04 766.535 706.471C764.102 710.618 761.097 713.049 756.517 714.622C757.376 715.051 758.234 715.623 759.093 716.052C755.372 693.601 754.513 670.864 756.374 648.127C756.803 645.41 752.509 645.41 752.223 648.27Z" fill="#161616"/> <path d="M726.747 671.007C727.033 672.294 729.18 680.302 726.747 681.589C724.313 682.876 717.443 677.728 715.297 671.007C713.579 665.287 715.01 658.137 717.73 657.565C720.592 656.85 725.029 664.715 726.747 671.007Z" fill="#161616" stroke="#161616" stroke-miterlimit="10"/> <path d="M800.599 671.007C800.885 672.294 803.032 680.302 800.599 681.589C798.166 682.876 791.296 677.728 789.149 671.007C787.432 665.287 788.863 658.137 791.582 657.565C794.445 656.85 798.882 664.715 800.599 671.007Z" fill="#161616" stroke="#161616" stroke-miterlimit="10"/> <path d="M747.07 736.215C764.532 743.651 780.419 733.212 793.3 721.915C795.447 720.056 792.298 717.053 790.294 718.912C779.13 728.636 764.818 739.075 749.36 732.497C746.641 731.496 744.494 735.214 747.07 736.215Z" fill="#161616"/> <path d="M797.451 693.744C800.17 693.744 800.17 689.454 797.451 689.454C794.731 689.454 794.731 693.744 797.451 693.744Z" fill="#161616"/> <path d="M813.337 685.736C813.48 685.593 813.624 685.45 813.767 685.307C814.625 684.449 814.625 683.162 813.767 682.304C812.908 681.446 811.62 681.446 810.761 682.304C810.618 682.447 810.475 682.59 810.332 682.733C809.473 683.591 809.473 684.878 810.332 685.736C811.19 686.594 812.479 686.594 813.337 685.736Z" fill="#161616"/> <path d="M808.614 696.175C808.757 696.175 808.9 696.175 809.044 696.175C810.189 696.175 811.19 695.174 811.19 694.03C811.19 692.886 810.189 691.885 809.044 691.885C808.9 691.885 808.757 691.885 808.614 691.885C807.469 691.885 806.467 692.886 806.467 694.03C806.467 695.174 807.326 696.175 808.614 696.175Z" fill="#161616"/> <path d="M709.858 645.41C715.297 640.834 723.312 640.691 728.75 645.124C730.897 646.84 733.903 643.837 731.756 642.121C724.313 636.115 714.008 636.115 706.709 642.407C704.705 644.123 707.854 647.126 709.858 645.41Z" fill="#161616"/> <path d="M779.703 643.837C785.858 638.403 794.588 637.402 801.887 641.263C804.321 642.55 806.467 638.832 804.034 637.545C795.017 632.683 784.283 633.97 776.698 640.834C774.551 642.693 777.556 645.696 779.703 643.837Z" fill="#161616"/> <path d="M711.003 693.315C713.723 693.315 713.723 689.025 711.003 689.025C708.284 689.025 708.284 693.315 711.003 693.315Z" fill="#161616"/> <path d="M726.174 691.313C728.894 691.313 728.894 687.023 726.174 687.023C723.455 687.023 723.455 691.313 726.174 691.313Z" fill="#161616"/> <path d="M718.589 694.602C718.445 694.745 718.302 694.888 718.159 695.031C717.3 695.889 717.3 697.176 718.159 698.034C719.018 698.892 720.306 698.892 721.165 698.034C721.308 697.891 721.451 697.748 721.594 697.605C722.453 696.747 722.453 695.46 721.594 694.602C720.735 693.744 719.447 693.744 718.589 694.602Z" fill="#161616"/> <path d="M705.421 555.892C696.834 561.183 678.084 572.766 665.346 596.504C652.608 620.099 652.751 642.407 653.324 651.988C632.427 689.597 622.981 722.773 618.401 745.367C610.959 781.26 614.966 794.416 620.119 803.139C632.714 824.589 658.047 829.88 664.201 831.167C695.832 837.888 721.022 821.729 726.747 818.011C728.321 813.292 729.896 807.429 730.754 800.851C732.329 789.554 731.47 779.83 730.182 772.823C723.026 766.96 714.724 759.095 706.709 748.799C694.544 733.069 687.674 717.625 683.809 706.471C671.214 705.184 661.768 696.604 660.909 687.023C660.051 678.014 666.348 666.431 674.649 666.431C680.804 666.431 685.241 672.723 686.099 673.867C690.822 671.15 697.406 666.431 703.274 658.995C711.719 648.27 713.15 638.689 717.014 628.679C720.736 618.955 727.892 605.513 743.349 591.499C758.234 596.79 770.114 601.938 778.272 605.799C804.464 617.954 819.349 625.104 830.942 640.691C837.382 649.271 840.674 657.708 842.392 662.999C855.702 652.846 861.141 655.563 862.286 656.135C870.731 660.854 870.444 686.737 857.277 693.887C852.267 696.604 846.542 695.889 842.964 695.031C838.814 709.474 829.654 733.069 808.614 753.947C801.601 760.954 794.445 766.388 788.004 770.535C787.432 775.826 787.146 783.119 788.577 791.699C789.865 799.564 792.155 805.999 794.302 810.575C829.081 833.455 872.305 829.308 895.777 804.712C916.674 782.69 916.674 749.371 908.802 726.634C901.646 705.899 887.762 693.458 880.892 688.024C882.753 680.016 893.058 632.54 863.145 588.925C855.416 577.628 833.804 550.315 794.874 540.877C753.654 530.867 719.734 547.169 705.421 555.892Z" fill="#5222D0"/> <path opacity="0.17" d="M796.162 614.665C812.336 634.971 816.629 653.704 818.061 663.428C823.929 704.326 800.17 737.502 788.147 754.519C778.272 768.39 768.11 778.257 760.811 784.692C767.108 801.566 773.262 818.297 779.56 835.171C786.001 833.026 792.441 830.881 798.882 828.736C795.876 823.445 792.728 816.867 790.294 808.859C785.857 794.559 785.571 781.975 786.001 773.395C793.873 767.818 803.032 760.239 811.906 750.229C829.654 730.209 838.527 709.617 843.107 695.746C845.97 696.318 852.124 697.033 857.993 693.744C870.301 686.737 868.298 669.291 868.154 668.147C867.725 664.429 866.866 658.423 862.573 655.992C857.563 653.275 849.262 655.849 842.678 663.571C840.674 656.564 834.949 640.405 819.492 627.535C810.904 620.385 802.174 616.667 796.162 614.665Z" fill="#6D6C6C"/> <path opacity="0.19" d="M754.227 649.557C753.368 649.414 750.506 661.855 741.775 716.767C746.784 716.767 751.794 716.767 756.803 716.767C755.801 709.474 754.656 698.892 754.084 686.022C753.368 664 755.086 649.7 754.227 649.557Z" fill="#6D6C6C"/> <path opacity="0.54" d="M880.034 689.454C877.601 690.884 886.761 703.182 885.473 721.486C885.043 727.206 884.184 740.219 873.879 748.942C873.164 749.514 857.849 762.098 842.678 754.09C833.661 749.371 828.223 739.361 828.509 728.493C824.215 736.501 817.202 747.083 806.181 757.379C799.311 763.814 792.585 768.533 786.716 772.108C786.287 778.4 786.287 786.98 788.577 796.704C789.865 801.995 791.439 806.571 793.014 810.289C797.451 813.149 804.034 817.01 812.622 820.013C818.061 821.872 847.974 832.311 877.171 817.868C882.324 815.294 893.774 809.431 902.075 796.847C903.077 795.274 906.798 789.697 909.518 780.259C919.25 747.941 904.937 718.769 903.649 716.338C895.777 700.465 883.039 687.738 880.034 689.454Z" fill="#341999"/> <path opacity="0.35" d="M683.667 707.043C682.378 707.186 685.241 718.912 682.092 730.495C679.802 739.075 672.503 753.089 660.051 755.949C647.027 758.809 630.853 749.228 623.411 731.353C619.976 739.218 615.396 751.802 614.68 767.818C614.251 778.257 613.678 789.411 618.831 800.422C630.424 825.018 664.488 834.599 689.821 832.311C706.71 830.738 719.448 824.16 726.318 819.727C728.035 814.865 729.753 809.002 730.898 802.281C732.758 790.698 732.329 780.545 731.327 773.109C720.02 764.958 712.291 756.521 707.425 750.372C700.555 741.649 691.252 729.923 686.529 713.621C685.813 711.762 684.525 706.9 683.667 707.043Z" fill="#341999"/> </g> <defs> <clipPath id="clip0_32_3273"> <rect width="1680" height="1900" fill="white"/> </clipPath> </defs> </svg>